<svg width="372" height="56" viewBox="0 0 372 56" fill="none" xmlns="http://www.w3.org/2000/svg">
<rect x="0.5" y="0.5" width="371" height="55" rx="3.5" fill="white" stroke="#CFCFCF"/>
<path d="M115.178 26.2898H113.053C112.993 25.9413 112.881 25.6326 112.718 25.3636C112.555 25.0909 112.353 24.8598 112.11 24.6705C111.868 24.4811 111.591 24.339 111.281 24.2443C110.974 24.1458 110.642 24.0966 110.286 24.0966C109.654 24.0966 109.093 24.2557 108.604 24.5739C108.116 24.8883 107.733 25.3504 107.457 25.9602C107.18 26.5663 107.042 27.3068 107.042 28.1818C107.042 29.072 107.18 29.822 107.457 30.4318C107.737 31.0379 108.12 31.4962 108.604 31.8068C109.093 32.1136 109.652 32.267 110.281 32.267C110.629 32.267 110.955 32.2216 111.258 32.1307C111.565 32.036 111.839 31.8977 112.082 31.7159C112.328 31.5341 112.534 31.3106 112.701 31.0455C112.871 30.7803 112.989 30.4773 113.053 30.1364L115.178 30.1477C115.099 30.7008 114.926 31.2197 114.661 31.7045C114.4 32.1894 114.057 32.6174 113.633 32.9886C113.209 33.3561 112.712 33.6439 112.144 33.8523C111.576 34.0568 110.945 34.1591 110.252 34.1591C109.229 34.1591 108.317 33.9223 107.513 33.4489C106.71 32.9754 106.078 32.2917 105.616 31.3977C105.154 30.5038 104.923 29.4318 104.923 28.1818C104.923 26.928 105.156 25.8561 105.621 24.9659C106.087 24.072 106.722 23.3883 107.525 22.9148C108.328 22.4413 109.237 22.2045 110.252 22.2045C110.9 22.2045 111.502 22.2955 112.059 22.4773C112.616 22.6591 113.112 22.9261 113.548 23.2784C113.983 23.6269 114.341 24.0549 114.621 24.5625C114.906 25.0663 115.091 25.642 115.178 26.2898ZM120.825 34.1705C119.972 34.1705 119.234 33.983 118.609 33.608C117.984 33.233 117.499 32.7083 117.154 32.0341C116.813 31.3598 116.643 30.572 116.643 29.6705C116.643 28.7689 116.813 27.9792 117.154 27.3011C117.499 26.6231 117.984 26.0966 118.609 25.7216C119.234 25.3466 119.972 25.1591 120.825 25.1591C121.677 25.1591 122.415 25.3466 123.04 25.7216C123.665 26.0966 124.148 26.6231 124.489 27.3011C124.834 27.9792 125.006 28.7689 125.006 29.6705C125.006 30.572 124.834 31.3598 124.489 32.0341C124.148 32.7083 123.665 33.233 123.04 33.608C122.415 33.983 121.677 34.1705 120.825 34.1705ZM120.836 32.5227C121.298 32.5227 121.684 32.3958 121.995 32.142C122.306 31.8845 122.537 31.5398 122.688 31.108C122.844 30.6761 122.921 30.1951 122.921 29.6648C122.921 29.1307 122.844 28.6477 122.688 28.2159C122.537 27.7803 122.306 27.4337 121.995 27.1761C121.684 26.9186 121.298 26.7898 120.836 26.7898C120.362 26.7898 119.969 26.9186 119.654 27.1761C119.344 27.4337 119.111 27.7803 118.955 28.2159C118.804 28.6477 118.728 29.1307 118.728 29.6648C118.728 30.1951 118.804 30.6761 118.955 31.108C119.111 31.5398 119.344 31.8845 119.654 32.142C119.969 32.3958 120.362 32.5227 120.836 32.5227ZM128.809 28.8864V34H126.752V25.2727H128.718V26.7557H128.82C129.021 26.267 129.341 25.8788 129.781 25.5909C130.224 25.303 130.771 25.1591 131.423 25.1591C132.025 25.1591 132.549 25.2879 132.996 25.5455C133.447 25.803 133.796 26.1761 134.042 26.6648C134.292 27.1534 134.415 27.7462 134.411 28.4432V34H132.354V28.7614C132.354 28.178 132.203 27.7216 131.9 27.392C131.601 27.0625 131.186 26.8977 130.656 26.8977C130.296 26.8977 129.976 26.9773 129.695 27.1364C129.419 27.2917 129.201 27.517 129.042 27.8125C128.887 28.108 128.809 28.4659 128.809 28.8864ZM140.86 25.2727V26.8636H135.843V25.2727H140.86ZM137.082 23.1818H139.138V31.375C139.138 31.6515 139.18 31.8636 139.263 32.0114C139.351 32.1553 139.464 32.2538 139.604 32.3068C139.745 32.3598 139.9 32.3864 140.07 32.3864C140.199 32.3864 140.317 32.3769 140.423 32.358C140.532 32.339 140.616 32.322 140.673 32.3068L141.019 33.9148C140.909 33.9527 140.752 33.9943 140.548 34.0398C140.347 34.0852 140.101 34.1117 139.809 34.1193C139.294 34.1345 138.83 34.0568 138.417 33.8864C138.004 33.7121 137.676 33.4432 137.434 33.0795C137.195 32.7159 137.078 32.2614 137.082 31.7159V23.1818ZM142.58 34V25.2727H144.637V34H142.58ZM143.614 24.0341C143.289 24.0341 143.008 23.9261 142.773 23.7102C142.539 23.4905 142.421 23.2273 142.421 22.9205C142.421 22.6098 142.539 22.3466 142.773 22.1307C143.008 21.911 143.289 21.8011 143.614 21.8011C143.944 21.8011 144.224 21.911 144.455 22.1307C144.69 22.3466 144.808 22.6098 144.808 22.9205C144.808 23.2273 144.69 23.4905 144.455 23.7102C144.224 23.9261 143.944 24.0341 143.614 24.0341ZM148.809 28.8864V34H146.752V25.2727H148.718V26.7557H148.82C149.021 26.267 149.341 25.8788 149.781 25.5909C150.224 25.303 150.771 25.1591 151.423 25.1591C152.025 25.1591 152.549 25.2879 152.996 25.5455C153.447 25.803 153.796 26.1761 154.042 26.6648C154.292 27.1534 154.415 27.7462 154.411 28.4432V34H152.354V28.7614C152.354 28.178 152.203 27.7216 151.9 27.392C151.601 27.0625 151.186 26.8977 150.656 26.8977C150.296 26.8977 149.976 26.9773 149.695 27.1364C149.419 27.2917 149.201 27.517 149.042 27.8125C148.887 28.108 148.809 28.4659 148.809 28.8864ZM162.065 30.3295V25.2727H164.121V34H162.127V32.4489H162.036C161.839 32.9375 161.515 33.3371 161.065 33.6477C160.618 33.9583 160.067 34.1136 159.411 34.1136C158.839 34.1136 158.334 33.9867 157.894 33.733C157.459 33.4754 157.118 33.1023 156.871 32.6136C156.625 32.1212 156.502 31.5265 156.502 30.8295V25.2727H158.559V30.5114C158.559 31.0644 158.71 31.5038 159.013 31.8295C159.317 32.1553 159.714 32.3182 160.207 32.3182C160.51 32.3182 160.803 32.2443 161.087 32.0966C161.371 31.9489 161.604 31.7292 161.786 31.4375C161.972 31.142 162.065 30.7727 162.065 30.3295ZM170.1 34.1705C169.225 34.1705 168.469 33.9886 167.833 33.625C167.201 33.2576 166.714 32.7386 166.373 32.0682C166.032 31.3939 165.862 30.6004 165.862 29.6875C165.862 28.7898 166.032 28.0019 166.373 27.3239C166.718 26.642 167.199 26.1117 167.816 25.733C168.433 25.3504 169.159 25.1591 169.992 25.1591C170.53 25.1591 171.038 25.2462 171.515 25.4205C171.996 25.5909 172.42 25.8561 172.788 26.2159C173.159 26.5758 173.451 27.0341 173.663 27.5909C173.875 28.1439 173.981 28.803 173.981 29.5682V30.1989H166.827V28.8125H172.009C172.005 28.4186 171.92 28.0682 171.754 27.7614C171.587 27.4508 171.354 27.2064 171.055 27.0284C170.759 26.8504 170.415 26.7614 170.021 26.7614C169.6 26.7614 169.231 26.8636 168.913 27.0682C168.594 27.2689 168.346 27.5341 168.168 27.8636C167.994 28.1894 167.905 28.5473 167.901 28.9375V30.1477C167.901 30.6553 167.994 31.0909 168.18 31.4545C168.365 31.8144 168.625 32.0909 168.958 32.2841C169.291 32.4735 169.682 32.5682 170.129 32.5682C170.428 32.5682 170.699 32.5265 170.941 32.4432C171.183 32.3561 171.394 32.2292 171.572 32.0625C171.75 31.8958 171.884 31.6894 171.975 31.4432L173.896 31.6591C173.774 32.1667 173.543 32.6098 173.202 32.9886C172.865 33.3636 172.433 33.6553 171.907 33.8636C171.38 34.0682 170.778 34.1705 170.1 34.1705ZM181.491 34L179.025 25.2727H181.121L182.656 31.4091H182.735L184.303 25.2727H186.377L187.945 31.375H188.031L189.542 25.2727H191.644L189.173 34H187.031L185.394 28.1023H185.275L183.638 34H181.491ZM193.08 34V25.2727H195.137V34H193.08ZM194.114 24.0341C193.789 24.0341 193.508 23.9261 193.273 23.7102C193.039 23.4905 192.921 23.2273 192.921 22.9205C192.921 22.6098 193.039 22.3466 193.273 22.1307C193.508 21.911 193.789 21.8011 194.114 21.8011C194.444 21.8011 194.724 21.911 194.955 22.1307C195.19 22.3466 195.308 22.6098 195.308 22.9205C195.308 23.2273 195.19 23.4905 194.955 23.7102C194.724 23.9261 194.444 24.0341 194.114 24.0341ZM201.61 25.2727V26.8636H196.593V25.2727H201.61ZM197.832 23.1818H199.888V31.375C199.888 31.6515 199.93 31.8636 200.013 32.0114C200.101 32.1553 200.214 32.2538 200.354 32.3068C200.495 32.3598 200.65 32.3864 200.82 32.3864C200.949 32.3864 201.067 32.3769 201.173 32.358C201.282 32.339 201.366 32.322 201.423 32.3068L201.769 33.9148C201.659 33.9527 201.502 33.9943 201.298 34.0398C201.097 34.0852 200.851 34.1117 200.559 34.1193C200.044 34.1345 199.58 34.0568 199.167 33.8864C198.754 33.7121 198.426 33.4432 198.184 33.0795C197.945 32.7159 197.828 32.2614 197.832 31.7159V23.1818ZM205.575 28.8864V34H203.518V22.3636H205.529V26.7557H205.631C205.836 26.2633 206.152 25.875 206.58 25.5909C207.012 25.303 207.561 25.1591 208.228 25.1591C208.834 25.1591 209.362 25.286 209.813 25.5398C210.264 25.7936 210.612 26.1648 210.859 26.6534C211.109 27.142 211.234 27.7386 211.234 28.4432V34H209.177V28.7614C209.177 28.1742 209.025 27.7178 208.722 27.392C208.423 27.0625 208.003 26.8977 207.461 26.8977C207.097 26.8977 206.772 26.9773 206.484 27.1364C206.2 27.2917 205.976 27.517 205.813 27.8125C205.654 28.108 205.575 28.4659 205.575 28.8864ZM225.185 26.0795C225.091 25.7727 224.96 25.4981 224.793 25.2557C224.63 25.0095 224.433 24.7992 224.202 24.625C223.975 24.4508 223.714 24.3201 223.418 24.233C223.123 24.142 222.801 24.0966 222.452 24.0966C221.827 24.0966 221.271 24.2538 220.782 24.5682C220.293 24.8826 219.909 25.3447 219.629 25.9545C219.352 26.5606 219.214 27.2992 219.214 28.1705C219.214 29.0492 219.352 29.7936 219.629 30.4034C219.905 31.0133 220.29 31.4773 220.782 31.7955C221.274 32.1098 221.846 32.267 222.498 32.267C223.089 32.267 223.6 32.1534 224.032 31.9261C224.468 31.6989 224.803 31.3769 225.038 30.9602C225.272 30.5398 225.39 30.0473 225.39 29.483L225.867 29.5568H222.708V27.9091H227.43V29.3068C227.43 30.303 227.218 31.1648 226.793 31.892C226.369 32.6193 225.786 33.1799 225.043 33.5739C224.301 33.964 223.449 34.1591 222.487 34.1591C221.415 34.1591 220.473 33.9186 219.663 33.4375C218.856 32.9527 218.225 32.2652 217.771 31.375C217.32 30.4811 217.094 29.4205 217.094 28.1932C217.094 27.2538 217.227 26.4148 217.492 25.6761C217.761 24.9375 218.136 24.3106 218.617 23.7955C219.098 23.2765 219.663 22.8826 220.31 22.6136C220.958 22.3409 221.663 22.2045 222.424 22.2045C223.068 22.2045 223.668 22.2992 224.225 22.4886C224.782 22.6742 225.276 22.9394 225.708 23.2841C226.144 23.6288 226.502 24.0379 226.782 24.5114C227.062 24.9848 227.246 25.5076 227.333 26.0795H225.185ZM229.924 34V25.2727H231.981V34H229.924ZM230.958 24.0341C230.632 24.0341 230.352 23.9261 230.117 23.7102C229.882 23.4905 229.765 23.2273 229.765 22.9205C229.765 22.6098 229.882 22.3466 230.117 22.1307C230.352 21.911 230.632 21.8011 230.958 21.8011C231.288 21.8011 231.568 21.911 231.799 22.1307C232.034 22.3466 232.151 22.6098 232.151 22.9205C232.151 23.2273 232.034 23.4905 231.799 23.7102C231.568 23.9261 231.288 24.0341 230.958 24.0341ZM238.454 25.2727V26.8636H233.437V25.2727H238.454ZM234.675 23.1818H236.732V31.375C236.732 31.6515 236.774 31.8636 236.857 32.0114C236.944 32.1553 237.058 32.2538 237.198 32.3068C237.338 32.3598 237.494 32.3864 237.664 32.3864C237.793 32.3864 237.91 32.3769 238.016 32.358C238.126 32.339 238.21 32.322 238.266 32.3068L238.613 33.9148C238.503 33.9527 238.346 33.9943 238.141 34.0398C237.941 34.0852 237.694 34.1117 237.403 34.1193C236.888 34.1345 236.424 34.0568 236.011 33.8864C235.598 33.7121 235.27 33.4432 235.028 33.0795C234.789 32.7159 234.672 32.2614 234.675 31.7159V23.1818ZM242.418 28.8864V34H240.362V22.3636H242.373V26.7557H242.475C242.68 26.2633 242.996 25.875 243.424 25.5909C243.856 25.303 244.405 25.1591 245.072 25.1591C245.678 25.1591 246.206 25.286 246.657 25.5398C247.108 25.7936 247.456 26.1648 247.702 26.6534C247.952 27.142 248.077 27.7386 248.077 28.4432V34H246.021V28.7614C246.021 28.1742 245.869 27.7178 245.566 27.392C245.267 27.0625 244.846 26.8977 244.305 26.8977C243.941 26.8977 243.615 26.9773 243.327 27.1364C243.043 27.2917 242.82 27.517 242.657 27.8125C242.498 28.108 242.418 28.4659 242.418 28.8864ZM255.737 30.3295V25.2727H257.793V34H255.799V32.4489H255.708C255.511 32.9375 255.187 33.3371 254.737 33.6477C254.29 33.9583 253.738 34.1136 253.083 34.1136C252.511 34.1136 252.005 33.9867 251.566 33.733C251.13 33.4754 250.79 33.1023 250.543 32.6136C250.297 32.1212 250.174 31.5265 250.174 30.8295V25.2727H252.231V30.5114C252.231 31.0644 252.382 31.5038 252.685 31.8295C252.988 32.1553 253.386 32.3182 253.879 32.3182C254.182 32.3182 254.475 32.2443 254.759 32.0966C255.043 31.9489 255.276 31.7292 255.458 31.4375C255.644 31.142 255.737 30.7727 255.737 30.3295ZM259.999 34V22.3636H262.056V26.7159H262.141C262.247 26.5038 262.397 26.2784 262.59 26.0398C262.783 25.7973 263.045 25.5909 263.374 25.4205C263.704 25.2462 264.124 25.1591 264.636 25.1591C265.31 25.1591 265.918 25.3314 266.46 25.6761C267.005 26.017 267.437 26.5227 267.755 27.1932C268.077 27.8598 268.238 28.678 268.238 29.6477C268.238 30.6061 268.081 31.4205 267.766 32.0909C267.452 32.7614 267.024 33.2727 266.482 33.625C265.941 33.9773 265.327 34.1534 264.641 34.1534C264.141 34.1534 263.727 34.0701 263.397 33.9034C263.067 33.7367 262.802 33.536 262.602 33.3011C262.405 33.0625 262.251 32.8371 262.141 32.625H262.022V34H259.999ZM262.016 29.6364C262.016 30.2008 262.096 30.6951 262.255 31.1193C262.418 31.5436 262.651 31.875 262.954 32.1136C263.261 32.3485 263.632 32.4659 264.067 32.4659C264.522 32.4659 264.903 32.3447 265.21 32.1023C265.516 31.8561 265.747 31.5208 265.903 31.0966C266.062 30.6686 266.141 30.1818 266.141 29.6364C266.141 29.0947 266.064 28.6136 265.908 28.1932C265.753 27.7727 265.522 27.4432 265.215 27.2045C264.908 26.9659 264.526 26.8466 264.067 26.8466C263.628 26.8466 263.255 26.9621 262.948 27.1932C262.641 27.4242 262.408 27.7481 262.249 28.1648C262.094 28.5814 262.016 29.072 262.016 29.6364Z" fill="black"/>
<path d="M28 7.495C16.95 7.495 8 16.45 8 27.495C8 36.3333 13.73 43.8283 21.675 46.47C22.675 46.6583 23.0417 46.04 23.0417 45.5083C23.0417 45.0333 23.025 43.775 23.0167 42.1083C17.4533 43.315 16.28 39.425 16.28 39.425C15.37 37.1167 14.055 36.5 14.055 36.5C12.2433 35.26 14.195 35.285 14.195 35.285C16.2033 35.425 17.2583 37.345 17.2583 37.345C19.0417 40.4033 21.94 39.52 23.0833 39.0083C23.2633 37.715 23.7783 36.8333 24.35 36.3333C19.9083 35.8333 15.24 34.1133 15.24 26.45C15.24 24.2667 16.015 22.4833 17.2983 21.0833C17.0733 20.5783 16.3983 18.545 17.4733 15.79C17.4733 15.79 19.1483 15.2533 22.9733 17.84C24.5733 17.395 26.2733 17.175 27.9733 17.165C29.6733 17.175 31.3733 17.395 32.9733 17.84C36.7733 15.2533 38.4483 15.79 38.4483 15.79C39.5233 18.545 38.8483 20.5783 38.6483 21.0833C39.9233 22.4833 40.6983 24.2667 40.6983 26.45C40.6983 34.1333 36.0233 35.825 31.5733 36.3167C32.2733 36.9167 32.9233 38.1433 32.9233 40.0167C32.9233 42.6933 32.8983 44.8433 32.8983 45.4933C32.8983 46.0183 33.2483 46.6433 34.2733 46.4433C42.275 43.82 48 36.32 48 27.495C48 16.45 39.045 7.495 28 7.495" fill="black"/>
</svg>
