<svg width="35" height="35" viewBox="0 0 35 35" fill="none" xmlns="http://www.w3.org/2000/svg">
<path fill-rule="evenodd" clip-rule="evenodd" d="M0 17.944C0 25.8706 5.01381 32.5966 11.9678 34.9693C12.8434 35.1345 13.1625 34.5804 13.1625 34.1046C13.1625 33.6783 13.1474 32.5503 13.1388 31.0533C8.27113 32.1372 7.24408 28.6476 7.24408 28.6476C6.44802 26.5745 5.30065 26.0226 5.30065 26.0226C3.71175 24.909 5.42098 24.9321 5.42098 24.9321C7.17748 25.0588 8.10138 26.7816 8.10138 26.7816C9.66343 29.5233 12.1977 28.7313 13.1947 28.2719C13.3537 27.112 13.806 26.3222 14.3055 25.8728C10.4197 25.4201 6.33414 23.8812 6.33414 17.0055C6.33414 15.0458 7.01633 13.4442 8.13576 12.1896C7.95635 11.7357 7.35581 9.91159 8.30765 7.44195C8.30765 7.44195 9.77731 6.95838 13.1195 9.28041C14.5161 8.88276 16.0126 8.68338 17.5005 8.67677C18.9874 8.68338 20.4839 8.88276 21.8827 9.28041C25.2227 6.95838 26.6902 7.44195 26.6902 7.44195C27.6442 9.91159 27.0436 11.7357 26.8642 12.1896C27.9858 13.4442 28.6626 15.0458 28.6626 17.0055C28.6626 23.8978 24.5717 25.4146 20.673 25.8596C21.3015 26.4136 21.8601 27.5086 21.8601 29.1818C21.8601 31.5809 21.8397 33.5163 21.8397 34.1046C21.8397 34.5848 22.1545 35.1422 23.0429 34.9671C29.9905 32.5899 35 25.8695 35 17.944C35 8.03348 27.164 0 17.4984 0C7.83603 0 0 8.03348 0 17.944Z" fill="black"/>
</svg>
