<svg width="372" height="56" viewBox="0 0 372 56" fill="none" xmlns="http://www.w3.org/2000/svg">
<rect x="0.5" y="0.5" width="371" height="55" rx="3.5" fill="white" stroke="#CFCFCF"/>
<path d="M113.42 26.2898H111.295C111.235 25.9413 111.123 25.6326 110.96 25.3636C110.797 25.0909 110.595 24.8598 110.352 24.6705C110.11 24.4811 109.833 24.339 109.523 24.2443C109.216 24.1458 108.884 24.0966 108.528 24.0966C107.896 24.0966 107.335 24.2557 106.847 24.5739C106.358 24.8883 105.975 25.3504 105.699 25.9602C105.422 26.5663 105.284 27.3068 105.284 28.1818C105.284 29.072 105.422 29.822 105.699 30.4318C105.979 31.0379 106.362 31.4962 106.847 31.8068C107.335 32.1136 107.894 32.267 108.523 32.267C108.871 32.267 109.197 32.2216 109.5 32.1307C109.807 32.036 110.081 31.8977 110.324 31.7159C110.57 31.5341 110.777 31.3106 110.943 31.0455C111.114 30.7803 111.231 30.4773 111.295 30.1364L113.42 30.1477C113.341 30.7008 113.169 31.2197 112.903 31.7045C112.642 32.1894 112.299 32.6174 111.875 32.9886C111.451 33.3561 110.955 33.6439 110.386 33.8523C109.818 34.0568 109.188 34.1591 108.494 34.1591C107.472 34.1591 106.559 33.9223 105.756 33.4489C104.953 32.9754 104.32 32.2917 103.858 31.3977C103.396 30.5038 103.165 29.4318 103.165 28.1818C103.165 26.928 103.398 25.8561 103.864 24.9659C104.33 24.072 104.964 23.3883 105.767 22.9148C106.57 22.4413 107.479 22.2045 108.494 22.2045C109.142 22.2045 109.744 22.2955 110.301 22.4773C110.858 22.6591 111.354 22.9261 111.79 23.2784C112.225 23.6269 112.583 24.0549 112.864 24.5625C113.148 25.0663 113.333 25.642 113.42 26.2898ZM119.067 34.1705C118.214 34.1705 117.476 33.983 116.851 33.608C116.226 33.233 115.741 32.7083 115.396 32.0341C115.055 31.3598 114.885 30.572 114.885 29.6705C114.885 28.7689 115.055 27.9792 115.396 27.3011C115.741 26.6231 116.226 26.0966 116.851 25.7216C117.476 25.3466 118.214 25.1591 119.067 25.1591C119.919 25.1591 120.658 25.3466 121.283 25.7216C121.908 26.0966 122.391 26.6231 122.732 27.3011C123.076 27.9792 123.249 28.7689 123.249 29.6705C123.249 30.572 123.076 31.3598 122.732 32.0341C122.391 32.7083 121.908 33.233 121.283 33.608C120.658 33.983 119.919 34.1705 119.067 34.1705ZM119.078 32.5227C119.54 32.5227 119.927 32.3958 120.237 32.142C120.548 31.8845 120.779 31.5398 120.93 31.108C121.086 30.6761 121.163 30.1951 121.163 29.6648C121.163 29.1307 121.086 28.6477 120.93 28.2159C120.779 27.7803 120.548 27.4337 120.237 27.1761C119.927 26.9186 119.54 26.7898 119.078 26.7898C118.605 26.7898 118.211 26.9186 117.896 27.1761C117.586 27.4337 117.353 27.7803 117.197 28.2159C117.046 28.6477 116.97 29.1307 116.97 29.6648C116.97 30.1951 117.046 30.6761 117.197 31.108C117.353 31.5398 117.586 31.8845 117.896 32.142C118.211 32.3958 118.605 32.5227 119.078 32.5227ZM127.051 28.8864V34H124.994V25.2727H126.96V26.7557H127.062C127.263 26.267 127.583 25.8788 128.023 25.5909C128.466 25.303 129.013 25.1591 129.665 25.1591C130.267 25.1591 130.792 25.2879 131.239 25.5455C131.689 25.803 132.038 26.1761 132.284 26.6648C132.534 27.1534 132.657 27.7462 132.653 28.4432V34H130.597V28.7614C130.597 28.178 130.445 27.7216 130.142 27.392C129.843 27.0625 129.428 26.8977 128.898 26.8977C128.538 26.8977 128.218 26.9773 127.938 27.1364C127.661 27.2917 127.443 27.517 127.284 27.8125C127.129 28.108 127.051 28.4659 127.051 28.8864ZM139.102 25.2727V26.8636H134.085V25.2727H139.102ZM135.324 23.1818H137.381V31.375C137.381 31.6515 137.422 31.8636 137.506 32.0114C137.593 32.1553 137.706 32.2538 137.847 32.3068C137.987 32.3598 138.142 32.3864 138.312 32.3864C138.441 32.3864 138.559 32.3769 138.665 32.358C138.775 32.339 138.858 32.322 138.915 32.3068L139.261 33.9148C139.152 33.9527 138.994 33.9943 138.79 34.0398C138.589 34.0852 138.343 34.1117 138.051 34.1193C137.536 34.1345 137.072 34.0568 136.659 33.8864C136.246 33.7121 135.919 33.4432 135.676 33.0795C135.438 32.7159 135.32 32.2614 135.324 31.7159V23.1818ZM140.822 34V25.2727H142.879V34H140.822ZM141.857 24.0341C141.531 24.0341 141.25 23.9261 141.016 23.7102C140.781 23.4905 140.663 23.2273 140.663 22.9205C140.663 22.6098 140.781 22.3466 141.016 22.1307C141.25 21.911 141.531 21.8011 141.857 21.8011C142.186 21.8011 142.466 21.911 142.697 22.1307C142.932 22.3466 143.05 22.6098 143.05 22.9205C143.05 23.2273 142.932 23.4905 142.697 23.7102C142.466 23.9261 142.186 24.0341 141.857 24.0341ZM147.051 28.8864V34H144.994V25.2727H146.96V26.7557H147.062C147.263 26.267 147.583 25.8788 148.023 25.5909C148.466 25.303 149.013 25.1591 149.665 25.1591C150.267 25.1591 150.792 25.2879 151.239 25.5455C151.689 25.803 152.038 26.1761 152.284 26.6648C152.534 27.1534 152.657 27.7462 152.653 28.4432V34H150.597V28.7614C150.597 28.178 150.445 27.7216 150.142 27.392C149.843 27.0625 149.428 26.8977 148.898 26.8977C148.538 26.8977 148.218 26.9773 147.938 27.1364C147.661 27.2917 147.443 27.517 147.284 27.8125C147.129 28.108 147.051 28.4659 147.051 28.8864ZM160.307 30.3295V25.2727H162.364V34H160.369V32.4489H160.278C160.081 32.9375 159.758 33.3371 159.307 33.6477C158.86 33.9583 158.309 34.1136 157.653 34.1136C157.081 34.1136 156.576 33.9867 156.136 33.733C155.701 33.4754 155.36 33.1023 155.114 32.6136C154.867 32.1212 154.744 31.5265 154.744 30.8295V25.2727H156.801V30.5114C156.801 31.0644 156.953 31.5038 157.256 31.8295C157.559 32.1553 157.956 32.3182 158.449 32.3182C158.752 32.3182 159.045 32.2443 159.33 32.0966C159.614 31.9489 159.847 31.7292 160.028 31.4375C160.214 31.142 160.307 30.7727 160.307 30.3295ZM168.342 34.1705C167.467 34.1705 166.712 33.9886 166.075 33.625C165.443 33.2576 164.956 32.7386 164.615 32.0682C164.274 31.3939 164.104 30.6004 164.104 29.6875C164.104 28.7898 164.274 28.0019 164.615 27.3239C164.96 26.642 165.441 26.1117 166.058 25.733C166.676 25.3504 167.401 25.1591 168.234 25.1591C168.772 25.1591 169.28 25.2462 169.757 25.4205C170.238 25.5909 170.662 25.8561 171.03 26.2159C171.401 26.5758 171.693 27.0341 171.905 27.5909C172.117 28.1439 172.223 28.803 172.223 29.5682V30.1989H165.07V28.8125H170.251C170.248 28.4186 170.162 28.0682 169.996 27.7614C169.829 27.4508 169.596 27.2064 169.297 27.0284C169.001 26.8504 168.657 26.7614 168.263 26.7614C167.842 26.7614 167.473 26.8636 167.155 27.0682C166.837 27.2689 166.589 27.5341 166.411 27.8636C166.236 28.1894 166.147 28.5473 166.143 28.9375V30.1477C166.143 30.6553 166.236 31.0909 166.422 31.4545C166.607 31.8144 166.867 32.0909 167.2 32.2841C167.534 32.4735 167.924 32.5682 168.371 32.5682C168.67 32.5682 168.941 32.5265 169.183 32.4432C169.426 32.3561 169.636 32.2292 169.814 32.0625C169.992 31.8958 170.126 31.6894 170.217 31.4432L172.138 31.6591C172.017 32.1667 171.786 32.6098 171.445 32.9886C171.107 33.3636 170.676 33.6553 170.149 33.8636C169.623 34.0682 169.02 34.1705 168.342 34.1705ZM179.733 34L177.267 25.2727H179.364L180.898 31.4091H180.977L182.545 25.2727H184.619L186.188 31.375H186.273L187.784 25.2727H189.886L187.415 34H185.273L183.636 28.1023H183.517L181.881 34H179.733ZM191.322 34V25.2727H193.379V34H191.322ZM192.357 24.0341C192.031 24.0341 191.75 23.9261 191.516 23.7102C191.281 23.4905 191.163 23.2273 191.163 22.9205C191.163 22.6098 191.281 22.3466 191.516 22.1307C191.75 21.911 192.031 21.8011 192.357 21.8011C192.686 21.8011 192.966 21.911 193.197 22.1307C193.432 22.3466 193.55 22.6098 193.55 22.9205C193.55 23.2273 193.432 23.4905 193.197 23.7102C192.966 23.9261 192.686 24.0341 192.357 24.0341ZM199.852 25.2727V26.8636H194.835V25.2727H199.852ZM196.074 23.1818H198.131V31.375C198.131 31.6515 198.172 31.8636 198.256 32.0114C198.343 32.1553 198.456 32.2538 198.597 32.3068C198.737 32.3598 198.892 32.3864 199.062 32.3864C199.191 32.3864 199.309 32.3769 199.415 32.358C199.525 32.339 199.608 32.322 199.665 32.3068L200.011 33.9148C199.902 33.9527 199.744 33.9943 199.54 34.0398C199.339 34.0852 199.093 34.1117 198.801 34.1193C198.286 34.1345 197.822 34.0568 197.409 33.8864C196.996 33.7121 196.669 33.4432 196.426 33.0795C196.188 32.7159 196.07 32.2614 196.074 31.7159V23.1818ZM203.817 28.8864V34H201.76V22.3636H203.771V26.7557H203.874C204.078 26.2633 204.394 25.875 204.822 25.5909C205.254 25.303 205.804 25.1591 206.47 25.1591C207.076 25.1591 207.605 25.286 208.055 25.5398C208.506 25.7936 208.855 26.1648 209.101 26.6534C209.351 27.142 209.476 27.7386 209.476 28.4432V34H207.419V28.7614C207.419 28.1742 207.268 27.7178 206.964 27.392C206.665 27.0625 206.245 26.8977 205.703 26.8977C205.339 26.8977 205.014 26.9773 204.726 27.1364C204.442 27.2917 204.218 27.517 204.055 27.8125C203.896 28.108 203.817 28.4659 203.817 28.8864ZM223.428 26.0795C223.333 25.7727 223.202 25.4981 223.036 25.2557C222.873 25.0095 222.676 24.7992 222.445 24.625C222.217 24.4508 221.956 24.3201 221.661 24.233C221.365 24.142 221.043 24.0966 220.695 24.0966C220.07 24.0966 219.513 24.2538 219.024 24.5682C218.536 24.8826 218.151 25.3447 217.871 25.9545C217.594 26.5606 217.456 27.2992 217.456 28.1705C217.456 29.0492 217.594 29.7936 217.871 30.4034C218.147 31.0133 218.532 31.4773 219.024 31.7955C219.517 32.1098 220.089 32.267 220.74 32.267C221.331 32.267 221.842 32.1534 222.274 31.9261C222.71 31.6989 223.045 31.3769 223.28 30.9602C223.515 30.5398 223.632 30.0473 223.632 29.483L224.109 29.5568H220.95V27.9091H225.672V29.3068C225.672 30.303 225.46 31.1648 225.036 31.892C224.611 32.6193 224.028 33.1799 223.286 33.5739C222.543 33.964 221.691 34.1591 220.729 34.1591C219.657 34.1591 218.715 33.9186 217.905 33.4375C217.098 32.9527 216.467 32.2652 216.013 31.375C215.562 30.4811 215.337 29.4205 215.337 28.1932C215.337 27.2538 215.469 26.4148 215.734 25.6761C216.003 24.9375 216.378 24.3106 216.859 23.7955C217.34 23.2765 217.905 22.8826 218.553 22.6136C219.2 22.3409 219.905 22.2045 220.666 22.2045C221.31 22.2045 221.911 22.2992 222.467 22.4886C223.024 22.6742 223.518 22.9394 223.95 23.2841C224.386 23.6288 224.744 24.0379 225.024 24.5114C225.304 24.9848 225.488 25.5076 225.575 26.0795H223.428ZM231.426 34.1705C230.574 34.1705 229.835 33.983 229.21 33.608C228.585 33.233 228.1 32.7083 227.756 32.0341C227.415 31.3598 227.244 30.572 227.244 29.6705C227.244 28.7689 227.415 27.9792 227.756 27.3011C228.1 26.6231 228.585 26.0966 229.21 25.7216C229.835 25.3466 230.574 25.1591 231.426 25.1591C232.278 25.1591 233.017 25.3466 233.642 25.7216C234.267 26.0966 234.75 26.6231 235.091 27.3011C235.436 27.9792 235.608 28.7689 235.608 29.6705C235.608 30.572 235.436 31.3598 235.091 32.0341C234.75 32.7083 234.267 33.233 233.642 33.608C233.017 33.983 232.278 34.1705 231.426 34.1705ZM231.438 32.5227C231.9 32.5227 232.286 32.3958 232.597 32.142C232.907 31.8845 233.138 31.5398 233.29 31.108C233.445 30.6761 233.523 30.1951 233.523 29.6648C233.523 29.1307 233.445 28.6477 233.29 28.2159C233.138 27.7803 232.907 27.4337 232.597 27.1761C232.286 26.9186 231.9 26.7898 231.438 26.7898C230.964 26.7898 230.57 26.9186 230.256 27.1761C229.945 27.4337 229.712 27.7803 229.557 28.2159C229.405 28.6477 229.33 29.1307 229.33 29.6648C229.33 30.1951 229.405 30.6761 229.557 31.108C229.712 31.5398 229.945 31.8845 230.256 32.142C230.57 32.3958 230.964 32.5227 231.438 32.5227ZM241.161 34.1705C240.308 34.1705 239.57 33.983 238.945 33.608C238.32 33.233 237.835 32.7083 237.49 32.0341C237.149 31.3598 236.979 30.572 236.979 29.6705C236.979 28.7689 237.149 27.9792 237.49 27.3011C237.835 26.6231 238.32 26.0966 238.945 25.7216C239.57 25.3466 240.308 25.1591 241.161 25.1591C242.013 25.1591 242.751 25.3466 243.376 25.7216C244.001 26.0966 244.484 26.6231 244.825 27.3011C245.17 27.9792 245.342 28.7689 245.342 29.6705C245.342 30.572 245.17 31.3598 244.825 32.0341C244.484 32.7083 244.001 33.233 243.376 33.608C242.751 33.983 242.013 34.1705 241.161 34.1705ZM241.172 32.5227C241.634 32.5227 242.02 32.3958 242.331 32.142C242.642 31.8845 242.873 31.5398 243.024 31.108C243.179 30.6761 243.257 30.1951 243.257 29.6648C243.257 29.1307 243.179 28.6477 243.024 28.2159C242.873 27.7803 242.642 27.4337 242.331 27.1761C242.02 26.9186 241.634 26.7898 241.172 26.7898C240.698 26.7898 240.304 26.9186 239.99 27.1761C239.679 27.4337 239.446 27.7803 239.291 28.2159C239.14 28.6477 239.064 29.1307 239.064 29.6648C239.064 30.1951 239.14 30.6761 239.291 31.108C239.446 31.5398 239.679 31.8845 239.99 32.142C240.304 32.3958 240.698 32.5227 241.172 32.5227ZM250.884 37.4545C250.145 37.4545 249.51 37.3542 248.98 37.1534C248.45 36.9564 248.024 36.6913 247.702 36.358C247.38 36.0246 247.156 35.6553 247.031 35.25L248.884 34.8011C248.967 34.9716 249.088 35.1402 249.247 35.3068C249.406 35.4773 249.62 35.6174 249.889 35.7273C250.162 35.8409 250.505 35.8977 250.918 35.8977C251.501 35.8977 251.984 35.7557 252.366 35.4716C252.749 35.1913 252.94 34.7292 252.94 34.0852V32.4318H252.838C252.732 32.6439 252.577 32.8617 252.372 33.0852C252.171 33.3087 251.904 33.4962 251.571 33.6477C251.241 33.7992 250.827 33.875 250.327 33.875C249.656 33.875 249.048 33.7178 248.503 33.4034C247.961 33.0852 247.529 32.6117 247.207 31.983C246.889 31.3504 246.73 30.5587 246.73 29.608C246.73 28.6496 246.889 27.8409 247.207 27.1818C247.529 26.5189 247.963 26.017 248.509 25.6761C249.054 25.3314 249.662 25.1591 250.332 25.1591C250.844 25.1591 251.264 25.2462 251.594 25.4205C251.927 25.5909 252.192 25.7973 252.389 26.0398C252.586 26.2784 252.736 26.5038 252.838 26.7159H252.952V25.2727H254.98V34.142C254.98 34.8883 254.802 35.5057 254.446 35.9943C254.09 36.483 253.603 36.8485 252.986 37.0909C252.368 37.3333 251.668 37.4545 250.884 37.4545ZM250.901 32.2614C251.336 32.2614 251.707 32.1553 252.014 31.9432C252.321 31.7311 252.554 31.4261 252.713 31.0284C252.872 30.6307 252.952 30.1534 252.952 29.5966C252.952 29.0473 252.872 28.5663 252.713 28.1534C252.558 27.7405 252.327 27.4205 252.02 27.1932C251.717 26.9621 251.344 26.8466 250.901 26.8466C250.442 26.8466 250.06 26.9659 249.753 27.2045C249.446 27.4432 249.215 27.7708 249.06 28.1875C248.904 28.6004 248.827 29.0701 248.827 29.5966C248.827 30.1307 248.904 30.5985 249.06 31C249.219 31.3977 249.452 31.7083 249.759 31.9318C250.069 32.1515 250.45 32.2614 250.901 32.2614ZM259.145 22.3636V34H257.088V22.3636H259.145ZM265.124 34.1705C264.249 34.1705 263.493 33.9886 262.857 33.625C262.224 33.2576 261.737 32.7386 261.396 32.0682C261.055 31.3939 260.885 30.6004 260.885 29.6875C260.885 28.7898 261.055 28.0019 261.396 27.3239C261.741 26.642 262.222 26.1117 262.839 25.733C263.457 25.3504 264.182 25.1591 265.016 25.1591C265.554 25.1591 266.061 25.2462 266.538 25.4205C267.019 25.5909 267.444 25.8561 267.811 26.2159C268.182 26.5758 268.474 27.0341 268.686 27.5909C268.898 28.1439 269.004 28.803 269.004 29.5682V30.1989H261.851V28.8125H267.033C267.029 28.4186 266.944 28.0682 266.777 27.7614C266.61 27.4508 266.377 27.2064 266.078 27.0284C265.783 26.8504 265.438 26.7614 265.044 26.7614C264.624 26.7614 264.254 26.8636 263.936 27.0682C263.618 27.2689 263.37 27.5341 263.192 27.8636C263.018 28.1894 262.929 28.5473 262.925 28.9375V30.1477C262.925 30.6553 263.018 31.0909 263.203 31.4545C263.389 31.8144 263.648 32.0909 263.982 32.2841C264.315 32.4735 264.705 32.5682 265.152 32.5682C265.451 32.5682 265.722 32.5265 265.964 32.4432C266.207 32.3561 266.417 32.2292 266.595 32.0625C266.773 31.8958 266.908 31.6894 266.999 31.4432L268.919 31.6591C268.798 32.1667 268.567 32.6098 268.226 32.9886C267.889 33.3636 267.457 33.6553 266.93 33.8636C266.404 34.0682 265.802 34.1705 265.124 34.1705Z" fill="black"/>
<circle cx="28" cy="28" r="20" fill="#F7F7F7"/>
<path d="M40.5 28.3C40.5 27.4222 40.423 26.5889 40.291 25.7778H27.8638V30.7889H34.9792C34.6603 32.4333 33.7255 33.8222 32.3398 34.7667V38.1H36.5849C39.0703 35.7778 40.5 32.3555 40.5 28.3Z" fill="#4285F4"/>
<path d="M27.8638 41.3333C31.427 41.3333 34.4073 40.1333 36.5849 38.1L32.3398 34.7667C31.1521 35.5667 29.6454 36.0555 27.8638 36.0555C24.4215 36.0555 21.5072 33.7111 20.4624 30.5444H16.0854V33.9778C18.2519 38.3333 22.7059 41.3333 27.8638 41.3333Z" fill="#34A853"/>
<path d="M20.4624 30.5444C20.1875 29.7444 20.0445 28.8889 20.0445 28C20.0445 27.1111 20.1985 26.2556 20.4624 25.4556V22.0222H16.0854C15.1836 23.8222 14.6667 25.8444 14.6667 28C14.6667 30.1556 15.1836 32.1778 16.0854 33.9778L20.4624 30.5444Z" fill="#FBBC05"/>
<path d="M27.8638 19.9444C29.8103 19.9444 31.548 20.6222 32.9227 21.9444L36.6838 18.1444C34.4073 15.9889 31.427 14.6667 27.8638 14.6667C22.7059 14.6667 18.2519 17.6667 16.0854 22.0222L20.4624 25.4555C21.5072 22.2889 24.4215 19.9444 27.8638 19.9444Z" fill="#EA4335"/>
</svg>
