<svg width="35" height="35" viewBox="0 0 35 35" fill="none" xmlns="http://www.w3.org/2000/svg">
<path d="M32.407 0.00260979H2.58269C1.17313 -0.0132974 0.0172029 1.11582 0 2.52539V32.4741C0.0166139 33.8844 1.17245 35.0146 2.58269 34.9998H32.407C33.8201 35.0173 34.9804 33.8871 35 32.4741V2.52323C34.9799 1.11087 33.8194 -0.0181784 32.407 0.000221741" fill="#0A66C2"/>
<path d="M24.6356 29.8222H29.8215L29.8237 20.6603C29.8237 16.1625 28.8546 12.7051 23.5985 12.7051C21.5891 12.6305 19.7016 13.6672 18.6864 15.4029H18.6167V13.1206H13.6383V29.8217H18.8242V21.5597C18.8242 19.3811 19.2374 17.271 21.9384 17.271C24.6011 17.271 24.6356 19.7641 24.6356 21.7007V29.8222Z" fill="white"/>
<path d="M4.77686 7.82866C4.77715 9.49076 6.12477 10.8379 7.78684 10.8376C8.585 10.8375 9.3504 10.5203 9.91468 9.95578C10.479 9.39128 10.7959 8.62575 10.7957 7.82757C10.7954 6.16547 9.44783 4.81831 7.78576 4.8186C6.12369 4.8189 4.77656 6.16655 4.77686 7.82866Z" fill="white"/>
<path d="M5.18849 29.8222H10.3798V13.1206H5.18849V29.8222Z" fill="white"/>
</svg>
