<svg width="755" height="545" viewBox="0 0 755 545" fill="none" xmlns="http://www.w3.org/2000/svg">
<g clip-path="url(#clip0_99_3200)">
<path d="M329.296 480.135L330.44 454.416C342.364 448.042 355.664 444.675 369.185 444.608C350.576 459.822 352.902 489.149 340.286 509.608C336.302 515.959 330.94 521.332 324.598 525.328C318.255 529.325 311.094 531.844 303.646 532.697L288.074 542.231C285.937 530.319 286.408 518.085 289.455 506.373C292.501 494.66 298.051 483.748 305.721 474.386C310.076 469.177 315.07 464.537 320.584 460.576C324.314 470.41 329.296 480.135 329.296 480.135Z" fill="#F2F2F2"/>
<path d="M428.287 122.303C428.696 128.15 430.419 133.829 433.326 138.919C439.454 149.68 449.961 157.471 461.278 162.102C475.417 167.887 491.178 168.066 506.183 166.775C520.12 165.577 533.915 162.8 547.903 162.227C558.721 161.881 569.549 162.139 580.338 163.001C601.27 164.487 622.114 167.243 642.825 170.585C648.434 171.479 654.031 172.439 659.616 173.466C660.144 173.513 660.666 173.61 661.175 173.756C661.277 173.798 661.44 173.765 661.533 173.824C661.701 173.93 660.851 173.554 661.366 173.981C662.085 174.734 662.726 175.559 663.279 176.441L670.927 186.285C673.121 189.108 675.157 192.537 677.991 194.762C679.99 196.306 682.402 197.224 684.922 197.4C687.441 197.575 689.957 197.001 692.151 195.749C694.442 194.301 696.27 192.225 697.416 189.768C699.175 186.541 701.274 183.511 703.677 180.73C712.777 170.114 725.424 163.585 736.002 154.653C741.126 150.503 745.499 145.505 748.93 139.875C751.858 134.78 753.678 129.125 754.272 123.28C755.538 111.409 751.896 99.3023 745.769 89.2032C739.104 78.3534 729.53 69.5904 718.135 63.9096C705.333 57.3875 691.167 54.2105 676.967 52.6274C661.89 50.9465 646.638 50.9517 631.488 51.1214C614.486 51.3107 597.514 52.0584 580.573 53.3645C563.609 54.6775 546.712 56.5439 529.882 58.9637C513.733 61.2855 497.386 63.7056 481.578 67.8139C467.613 71.4433 453.688 77.1162 443.26 87.3948C433.988 96.5339 427.539 109.04 428.287 122.303Z" fill="#E6E6E6"/>
<path d="M502.069 74.5876C486.993 77.3689 471.216 80.7744 458.567 89.0227C446.056 97.1806 438.45 110.006 439.19 121.697C440.271 138.775 458.427 151.545 474.962 154.891C490.801 158.094 507.299 155.925 524.767 153.627C528.632 153.118 532.629 152.592 536.583 152.135C579.58 147.165 660.314 162.474 663.73 163.128L667.28 163.808L686.073 187.992C690.352 178.467 697.789 169.997 705.687 163.686C709.302 160.796 713.075 158.114 716.723 155.519C726.03 148.901 734.821 142.649 739.673 134.06C750.24 115.356 737.754 89.2745 719.939 77.5656C699.868 64.3743 673.42 62.3052 647.828 62.0336C645.163 62.0054 642.496 61.9912 639.828 61.9912C593.621 61.9982 547.511 66.2144 502.069 74.5876V74.5876Z" fill="white"/>
<path d="M490.042 95.2587C490.041 94.7402 490.143 94.2266 490.341 93.7473C490.539 93.268 490.829 92.8324 491.195 92.4654C491.562 92.0983 491.997 91.807 492.475 91.6081C492.954 91.4091 493.468 91.3064 493.986 91.3059H675.47C676.517 91.3059 677.521 91.7219 678.262 92.4625C679.002 93.203 679.418 94.2073 679.418 95.2546C679.418 96.3018 679.002 97.3062 678.262 98.0467C677.521 98.7872 676.517 99.2033 675.47 99.2033H493.986C492.94 99.2022 491.938 98.7862 491.198 98.0467C490.459 97.3072 490.043 96.3045 490.042 95.2587V95.2587Z" fill="#E6E6E6"/>
<path d="M490.042 119.496C490.041 118.978 490.143 118.464 490.341 117.985C490.539 117.506 490.829 117.07 491.195 116.703C491.562 116.336 491.997 116.045 492.475 115.846C492.954 115.647 493.468 115.544 493.986 115.543H675.478C675.996 115.544 676.51 115.647 676.989 115.846C677.468 116.045 677.903 116.336 678.269 116.703C678.635 117.07 678.926 117.506 679.123 117.985C679.321 118.464 679.423 118.978 679.422 119.496C679.422 120.015 679.319 120.528 679.12 121.007C678.921 121.486 678.63 121.921 678.263 122.287C677.896 122.653 677.46 122.944 676.981 123.142C676.502 123.34 675.988 123.441 675.47 123.441H493.986C492.94 123.44 491.938 123.024 491.198 122.284C490.459 121.545 490.043 120.542 490.042 119.496V119.496Z" fill="#E6E6E6"/>
<path d="M650.376 143.733C650.375 143.215 650.477 142.701 650.675 142.222C650.873 141.742 651.163 141.307 651.53 140.94C651.896 140.573 652.331 140.281 652.81 140.082C653.289 139.883 653.802 139.781 654.32 139.78H675.47C676.517 139.78 677.521 140.196 678.262 140.937C679.002 141.677 679.418 142.682 679.418 143.729C679.418 144.776 679.002 145.781 678.262 146.521C677.521 147.262 676.517 147.678 675.47 147.678H654.32C653.275 147.677 652.272 147.261 651.532 146.521C650.793 145.782 650.377 144.779 650.376 143.733V143.733Z" fill="#E6E6E6"/>
<path d="M253.438 76.0048C251.55 71.6442 248.686 67.7757 245.066 64.6979C241.446 61.6201 237.167 59.4154 232.56 58.2541C222.33 55.5933 207.351 59.6466 199.661 65.4663C185.594 76.1118 182.161 112.683 191.826 124.24C193.748 124.162 200.381 124.105 202.327 124.05L205.079 117.084V123.981C220.266 123.625 236.076 123.848 251.895 124.079C253.313 115.896 256.69 83.8758 253.438 76.0048Z" fill="#2F2E41"/>
<path d="M250.859 516.993H264.711L271.3 463.566L250.857 463.567L250.859 516.993Z" fill="#9E616A"/>
<path d="M129.606 508.38L143.009 511.873L162.862 461.836L143.079 456.681L129.606 508.38Z" fill="#9E616A"/>
<path d="M205.937 188.853L202.799 197.013L203.427 205.173L264.851 226.448L261.803 190.736L254.898 182.575L205.937 188.853Z" fill="#FFB6B6"/>
<path d="M232.289 115.419C244.405 115.419 254.227 105.597 254.227 93.481C254.227 81.3647 244.405 71.5426 232.289 71.5426C220.173 71.5426 210.35 81.3647 210.35 93.481C210.35 105.597 220.173 115.419 232.289 115.419Z" fill="#9E616A"/>
<path d="M247.363 64.9134C243.148 62.3436 238.319 60.9535 233.383 60.8884C228.446 60.8233 223.583 62.0857 219.302 64.5435C215.02 67.0013 211.477 70.5642 209.044 74.8598C206.611 79.1554 205.376 84.0258 205.469 88.9619C217.428 92.0183 230.172 93.2967 243.677 89.698L246.764 82.1427L248.584 89.7036C252.715 92.6098 256.703 92.6046 260.547 89.6878C260.71 84.7657 259.578 79.8871 257.264 75.5395C254.951 71.192 251.537 67.5279 247.363 64.9134V64.9134Z" fill="#2F2E41"/>
<path d="M247.424 510.16L269.32 508.853V518.234L290.137 532.612C291.166 533.322 291.94 534.342 292.347 535.523C292.755 536.704 292.774 537.985 292.402 539.178C292.03 540.371 291.287 541.413 290.281 542.154C289.274 542.894 288.057 543.294 286.808 543.294H260.74L256.246 534.014L254.492 543.294H244.663L247.424 510.16Z" fill="#2F2E41"/>
<path d="M126.79 500.585L148.308 504.843L145.942 513.921L162.459 533.084C163.275 534.03 163.767 535.213 163.864 536.459C163.96 537.704 163.656 538.948 162.995 540.009C162.334 541.07 161.352 541.891 160.191 542.354C159.03 542.816 157.752 542.896 156.543 542.581L131.318 536.005L129.31 525.893L125.272 534.43L115.761 531.95L126.79 500.585Z" fill="#2F2E41"/>
<path d="M131.305 474.781L171.906 391.333L184.652 289.767C175.864 273.447 192.184 240.238 192.184 240.238V226.295L255.405 238.222V238.222C268.336 273.49 274.606 310.853 273.897 348.41L271.35 483.42H272.149C273.475 483.42 274.747 483.947 275.685 484.884C276.622 485.822 277.149 487.094 277.149 488.42C277.149 489.746 276.622 491.018 275.685 491.955C274.747 492.893 273.475 493.42 272.149 493.42H247.149C245.823 493.42 244.551 492.893 243.614 491.955C242.676 491.018 242.149 489.746 242.149 488.42C242.149 487.094 242.676 485.822 243.614 484.884C244.551 483.947 245.823 483.42 247.149 483.42H247.794L229.847 311.663L208.979 396.421L158.549 474.46C159.835 474.56 161.033 475.155 161.89 476.12C162.747 477.084 163.197 478.343 163.145 479.633C163.093 480.922 162.544 482.141 161.612 483.033C160.681 483.926 159.439 484.423 158.149 484.42H133.149C131.986 484.421 130.86 484.016 129.963 483.276C129.067 482.535 128.456 481.505 128.238 480.363C128.02 479.221 128.206 478.039 128.766 477.02C129.326 476.001 130.224 475.209 131.305 474.781V474.781Z" fill="#2F2E41"/>
<path d="M186.469 248.786H186.469C186.676 247.971 187.137 247.241 187.785 246.703C188.432 246.165 189.234 245.846 190.074 245.792C190.907 236.264 196.413 175.163 196.623 173.37L196.631 173.295L198.225 139.237C198.283 138 198.795 136.828 199.662 135.944C200.529 135.06 201.692 134.527 202.928 134.447L211.348 133.896C211.464 133.892 211.573 133.844 211.654 133.761C211.734 133.677 211.779 133.566 211.779 133.451C211.779 132.521 211.962 131.6 212.318 130.741C212.674 129.882 213.196 129.101 213.853 128.444C214.511 127.786 215.291 127.264 216.15 126.908C217.01 126.553 217.93 126.369 218.86 126.369H243.792C245.406 126.37 246.965 126.96 248.176 128.029C249.387 129.097 250.166 130.571 250.367 132.173C250.378 132.284 250.431 132.386 250.514 132.459C250.597 132.532 250.704 132.572 250.815 132.569L250.818 132.569C253.651 132.511 256.411 133.47 258.597 135.273C260.783 137.075 262.251 139.602 262.734 142.394C266.142 162.225 272.973 207.233 269.596 232.256C268.42 240.966 268.954 254.067 269.399 261.356C269.443 262.06 269.348 262.766 269.119 263.433C268.889 264.101 268.531 264.717 268.063 265.245C269.057 265.532 269.902 266.193 270.418 267.09C270.934 267.987 271.081 269.049 270.83 270.053H270.829C270.57 271.082 269.913 271.965 269.002 272.509C268.091 273.053 267.002 273.213 265.973 272.954L189.37 253.643C188.341 253.384 187.457 252.726 186.913 251.815C186.369 250.905 186.209 249.815 186.469 248.786V248.786Z" fill="#3F3D56"/>
<path d="M418.573 544.484H1.19067C0.874886 544.484 0.572035 544.359 0.34874 544.135C0.125444 543.912 0 543.609 0 543.293C0 542.978 0.125444 542.675 0.34874 542.452C0.572035 542.228 0.874886 542.103 1.19067 542.103H418.573C418.888 542.103 419.191 542.228 419.415 542.452C419.638 542.675 419.763 542.978 419.763 543.293C419.763 543.609 419.638 543.912 419.415 544.135C419.191 544.359 418.888 544.484 418.573 544.484V544.484Z" fill="#CACACA"/>
<path d="M190 306.244C191.006 305.233 191.778 304.013 192.262 302.671C192.746 301.328 192.93 299.896 192.801 298.475C192.671 297.054 192.232 295.679 191.513 294.446C190.795 293.213 189.815 292.153 188.642 291.34L204.182 214.153L187.021 219.663L174.582 294.322C173.347 296.382 172.91 298.824 173.355 301.185C173.8 303.546 175.095 305.661 176.995 307.131C178.896 308.601 181.269 309.322 183.666 309.159C186.063 308.995 188.316 307.958 190 306.244V306.244Z" fill="#9E616A"/>
<path d="M212.945 142.938L202.298 134.901C202.298 134.901 192.905 134.235 191.241 151.174C189.578 168.113 186.162 201.124 186.162 201.124L169.869 276.587L192.423 281.538L209.874 200.1L220.343 175.916L212.945 142.938Z" fill="#3F3D56"/>
<path d="M351.236 164.788C349.907 164.269 348.48 164.047 347.056 164.139C345.633 164.231 344.246 164.634 342.995 165.32C341.744 166.006 340.658 166.958 339.814 168.108C338.97 169.259 338.389 170.581 338.112 171.981L261.136 188.535L273.037 202.071L346.457 183.682C348.839 183.993 351.253 183.419 353.24 182.069C355.227 180.719 356.65 178.687 357.239 176.358C357.828 174.029 357.542 171.565 356.436 169.432C355.33 167.3 353.48 165.647 351.236 164.788V164.788Z" fill="#9E616A"/>
<path d="M249.039 206.586C246.579 204.209 244.73 201.274 243.647 198.03L229.592 155.768C228.565 152.681 228.405 149.371 229.128 146.199C229.851 143.027 231.431 140.114 233.694 137.777C235.958 135.44 238.819 133.769 241.966 132.944C245.113 132.12 248.426 132.174 251.545 133.102C255.066 134.154 258.176 136.268 260.449 139.156C262.721 142.044 264.046 145.564 264.24 149.234L265.961 182.492L322.762 174.174L337.525 187.746L336.728 188.017C333.592 189.086 261.8 213.422 249.916 207.201C249.596 207.039 249.301 206.832 249.039 206.586V206.586Z" fill="#3F3D56"/>
<path d="M353.484 137.871C353.385 137.871 353.286 137.869 353.186 137.865C352.018 137.823 350.878 137.499 349.863 136.922C348.848 136.344 347.987 135.53 347.354 134.548C342.612 127.461 336.792 121.157 330.106 115.865C326.058 112.63 321.828 109.621 317.737 106.712C307.185 99.2082 297.247 92.1413 291.73 82.3766C279.702 61.0841 293.867 31.4269 314.102 18.1266C336.799 3.20959 366.653 0.869736 395.533 0.563096C398.535 0.531356 401.538 0.515582 404.543 0.515748C456.579 0.535701 508.506 5.28375 559.683 14.7013C576.701 17.841 594.514 21.6872 608.828 31.0212C623.058 40.3 631.707 54.9118 630.863 68.2477C629.631 87.716 608.993 102.263 590.201 106.066C572.289 109.688 553.681 107.24 533.981 104.648C529.632 104.076 525.135 103.485 520.688 102.97C472.361 97.3844 381.576 114.602 377.735 115.338L373.924 116.067L359.139 135.093C358.474 135.961 357.618 136.663 356.637 137.144C355.656 137.626 354.577 137.875 353.484 137.871V137.871Z" fill="#0074FF"/>
<path d="M568.69 42.8984H364.428C363.25 42.8966 362.121 42.4276 361.289 41.5943C360.457 40.761 359.99 39.6316 359.99 38.4541C359.99 37.2765 360.457 36.1471 361.289 35.3138C362.121 34.4806 363.25 34.0115 364.428 34.0098H568.69C569.868 34.0115 570.996 34.4806 571.828 35.3138C572.66 36.1471 573.128 37.2765 573.128 38.4541C573.128 39.6316 572.66 40.761 571.828 41.5943C570.996 42.4276 569.868 42.8966 568.69 42.8984V42.8984Z" fill="white"/>
<path d="M568.69 70.1779H364.428C363.844 70.1791 363.265 70.0652 362.725 69.8427C362.185 69.6202 361.694 69.2935 361.281 68.8812C360.867 68.4688 360.539 67.979 360.315 67.4398C360.09 66.9005 359.975 66.3223 359.974 65.7382C359.973 65.1542 360.088 64.5758 360.311 64.036C360.534 63.4963 360.861 63.0058 361.274 62.5926C361.687 62.1794 362.177 61.8516 362.717 61.628C363.256 61.4044 363.834 61.2893 364.418 61.2893H568.69C569.868 61.2911 570.996 61.7601 571.828 62.5934C572.66 63.4266 573.128 64.5561 573.128 65.7336C573.128 66.9111 572.66 68.0405 571.828 68.8738C570.996 69.7071 569.868 70.1761 568.69 70.1779V70.1779Z" fill="white"/>
<path d="M388.231 97.4569H364.428C363.249 97.4569 362.119 96.9887 361.285 96.1552C360.452 95.3218 359.983 94.1914 359.983 93.0127C359.983 91.834 360.452 90.7035 361.285 89.8701C362.119 89.0366 363.249 88.5684 364.428 88.5684H388.231C389.41 88.5684 390.541 89.0366 391.374 89.8701C392.208 90.7035 392.676 91.834 392.676 93.0127C392.676 94.1914 392.208 95.3218 391.374 96.1552C390.541 96.9887 389.41 97.4569 388.231 97.4569Z" fill="white"/>
</g>
<defs>
<clipPath id="clip0_99_3200">
<rect width="754.522" height="543.969" fill="white" transform="translate(0 0.515747)"/>
</clipPath>
</defs>
</svg>
