<svg width="351" height="248" viewBox="0 0 351 248" fill="none" xmlns="http://www.w3.org/2000/svg">
<g clip-path="url(#clip0_78_4071)">
<path d="M179.652 246.804C190.178 246.804 198.712 238.27 198.712 227.743C198.712 217.216 190.178 208.682 179.652 208.682C169.125 208.682 160.591 217.216 160.591 227.743C160.591 238.27 169.125 246.804 179.652 246.804Z" fill="#0074FF"/>
<path d="M293.52 245.733C304.184 242.53 315.52 239.191 323.977 231.578C331.534 224.775 336.636 214.386 333.505 204.184C330.381 194.002 321.023 187.213 311.361 183.837C305.881 181.921 300.148 180.859 294.417 180.024C288.188 179.117 281.93 178.374 275.676 177.658C250.351 174.762 224.931 172.992 199.415 172.35C186.825 172.033 174.237 172.04 161.645 172.223C150.4 172.386 138.556 172.382 128.124 167.603C120.012 163.886 112.649 157.124 110.388 148.238C107.779 137.981 112.592 127.535 119.496 120.107C123.135 116.191 127.388 112.895 131.776 109.865C136.536 106.577 141.462 103.522 146.494 100.671C156.406 95.0573 166.769 90.28 177.475 86.3884C182.756 84.4681 188.116 82.8113 193.522 81.2829C198.087 79.9923 202.666 78.6998 207.078 76.9414C215.607 73.5421 223.719 67.7841 225.888 58.3444C227.943 49.3977 224.478 39.6854 218.402 33.0392C211.374 25.3499 200.776 21.9791 190.615 21.4338C179.209 20.8215 168.065 23.6763 157.343 27.2994C145.908 31.1637 134.72 35.607 123.043 38.737C111.464 41.8379 99.6615 44.0319 87.7417 45.2991C81.9066 45.9204 75.8951 46.622 70.0252 46.1463C65.1057 45.7477 60.2114 44.3009 56.5858 40.8095C53.4771 37.8159 51.6252 33.7016 52.2618 29.3598C52.3775 28.5712 53.5755 28.9064 53.4605 29.6902C52.6855 34.9755 56.2781 39.8456 60.7053 42.3404C65.8218 45.2236 72.048 45.2276 77.7445 44.8978C90.0961 44.1518 102.364 42.3783 114.421 39.5958C126.269 36.8898 137.693 33.0214 149.105 28.8891C159.943 24.9645 171.023 21.134 182.602 20.284C192.648 19.5464 203.217 21.01 211.969 26.2603C219.661 30.8747 225.318 38.5698 227.12 47.4002C228.881 56.0291 226.442 64.7143 219.91 70.7358C213.147 76.9704 203.874 79.6359 195.232 82.0908C184.272 85.2045 173.546 88.8441 163.164 93.5699C152.641 98.3465 142.548 104.02 132.999 110.529C123.781 116.828 114.684 124.754 111.768 135.992C110.41 141.226 110.661 146.778 112.933 151.723C114.954 156.119 118.281 159.817 122.158 162.67C131.406 169.475 143.063 170.873 154.235 171.012C166.782 171.168 179.33 170.744 191.882 170.95C217.461 171.37 242.988 172.927 268.463 175.621C274.847 176.297 281.222 177.044 287.589 177.862C293.316 178.598 299.063 179.329 304.693 180.636C314.705 182.959 324.447 187.428 330.67 195.916C333.432 199.596 335.143 203.956 335.621 208.532C336.056 213.307 334.887 218.091 332.728 222.339C327.95 231.741 318.999 237.721 309.494 241.65C304.403 243.754 299.122 245.349 293.851 246.931C293.083 247.162 292.755 245.963 293.52 245.733L293.52 245.733Z" fill="#F2F2F2"/>
<path d="M53.0646 39.4163C58.5569 39.4163 63.0092 34.964 63.0092 29.4717C63.0092 23.9794 58.5569 19.527 53.0646 19.527C47.5723 19.527 43.1199 23.9794 43.1199 29.4717C43.1199 34.964 47.5723 39.4163 53.0646 39.4163Z" fill="#F2F2F2"/>
<path d="M122.055 58.2697C127.548 58.2697 132 53.8174 132 48.3251C132 42.8328 127.548 38.3804 122.055 38.3804C116.563 38.3804 112.111 42.8328 112.111 48.3251C112.111 53.8174 116.563 58.2697 122.055 58.2697Z" fill="#F2F2F2"/>
<path d="M180.48 20.5629C185.973 20.5629 190.425 16.1106 190.425 10.6183C190.425 5.12602 185.973 0.673645 180.48 0.673645C174.988 0.673645 170.536 5.12602 170.536 10.6183C170.536 16.1106 174.988 20.5629 180.48 20.5629Z" fill="#F2F2F2"/>
<path d="M216.944 62.8276C222.436 62.8276 226.889 58.3753 226.889 52.883C226.889 47.3907 222.436 42.9384 216.944 42.9384C211.452 42.9384 207 47.3907 207 52.883C207 58.3753 211.452 62.8276 216.944 62.8276Z" fill="#F2F2F2"/>
<path d="M167.635 111.722C173.128 111.722 177.58 107.27 177.58 101.777C177.58 96.2852 173.128 91.8328 167.635 91.8328C162.143 91.8328 157.691 96.2852 157.691 101.777C157.691 107.27 162.143 111.722 167.635 111.722Z" fill="#F2F2F2"/>
<path d="M105.067 135.341C110.559 135.341 115.011 130.888 115.011 125.396C115.011 119.904 110.559 115.451 105.067 115.451C99.5744 115.451 95.122 119.904 95.122 125.396C95.122 130.888 99.5744 135.341 105.067 135.341Z" fill="#F2F2F2"/>
<path d="M171.364 172.219C176.857 172.219 181.309 167.767 181.309 162.274C181.309 156.782 176.857 152.33 171.364 152.33C165.872 152.33 161.42 156.782 161.42 162.274C161.42 167.767 165.872 172.219 171.364 172.219Z" fill="#F2F2F2"/>
<path d="M242.634 192.937C248.127 192.937 252.579 188.484 252.579 182.992C252.579 177.5 248.127 173.047 242.634 173.047C237.142 173.047 232.69 177.5 232.69 182.992C232.69 188.484 237.142 192.937 242.634 192.937Z" fill="#F2F2F2"/>
<path d="M325.921 188.379C331.413 188.379 335.866 183.927 335.866 178.434C335.866 172.942 331.413 168.49 325.921 168.49C320.429 168.49 315.976 172.942 315.976 178.434C315.976 183.927 320.429 188.379 325.921 188.379Z" fill="#F2F2F2"/>
<path d="M177.61 28.8515C147.821 29.062 123.43 53.2697 123.007 83.0566C123.003 83.3316 123.001 85.2653 123.001 87.7945C123.001 91.5028 124.474 95.0591 127.097 97.6814C129.719 100.304 133.275 101.777 136.983 101.777C138.821 101.777 140.642 101.414 142.34 100.71C144.038 100.006 145.58 98.9744 146.88 97.6738C148.179 96.3733 149.209 94.8295 149.911 93.1307C150.613 91.4318 150.974 89.6113 150.972 87.773C150.971 86.0526 150.97 84.8618 150.97 84.7887C150.969 80.1852 152.167 75.6607 154.445 71.6603C156.723 67.6599 160.003 64.3215 163.963 61.9733C167.922 59.6251 172.425 58.3482 177.028 58.268C181.63 58.1878 186.175 59.3073 190.214 61.5161C194.253 63.725 197.647 66.9472 200.063 70.8658C202.479 74.7845 203.833 79.2645 203.993 83.8653C204.152 88.466 203.111 93.029 200.972 97.1054C198.833 101.182 195.67 104.631 191.793 107.114L191.798 107.12C191.798 107.12 171.897 119.932 165.83 137.507L165.835 137.509C164.768 141.109 164.227 144.845 164.23 148.6C164.23 150.144 164.321 163.65 164.496 174.613C164.557 178.395 166.103 182.002 168.8 184.655C171.497 187.308 175.129 188.794 178.912 188.793C180.812 188.793 182.695 188.417 184.45 187.687C186.205 186.957 187.798 185.887 189.138 184.538C190.478 183.19 191.538 181.59 192.257 179.831C192.976 178.071 193.341 176.187 193.329 174.286C193.268 164.246 193.235 152.556 193.235 151.708C193.235 140.916 203.646 130.163 212.198 123.151C222.045 115.077 229.132 104.073 231.978 91.6602C232.608 89.1047 232.955 86.4877 233.014 83.8564C233.014 76.5994 231.578 69.4142 228.788 62.7146C225.999 56.0151 221.912 49.9337 216.762 44.8208C211.612 39.708 205.501 35.6647 198.782 32.9239C192.062 30.1831 184.867 28.7991 177.61 28.8515Z" fill="#0074FF"/>
<path d="M350.406 247.528H1.39289C1.26228 247.528 1.13716 247.465 1.04494 247.354C0.952728 247.242 0.90094 247.091 0.90094 246.934C0.90094 246.777 0.952728 246.626 1.04494 246.514C1.13716 246.403 1.26228 246.34 1.39289 246.34H350.406C350.537 246.34 350.662 246.402 350.755 246.514C350.847 246.625 350.899 246.776 350.899 246.934C350.899 247.092 350.847 247.243 350.755 247.354C350.662 247.466 350.537 247.528 350.406 247.528Z" fill="#CCCCCC"/>
<path d="M261.304 113.792C268.169 113.792 273.735 108.227 273.735 101.361C273.735 94.4961 268.169 88.9306 261.304 88.9306C254.438 88.9306 248.873 94.4961 248.873 101.361C248.873 108.227 254.438 113.792 261.304 113.792Z" fill="#2F2E41"/>
<path d="M238.333 241.885H233.253L230.836 222.291H238.334L238.333 241.885Z" fill="#A0616A"/>
<path d="M229.625 240.433H239.422V246.602H223.456C223.456 245.792 223.616 244.99 223.926 244.241C224.236 243.493 224.69 242.813 225.263 242.24C225.835 241.667 226.516 241.213 227.264 240.903C228.012 240.593 228.814 240.433 229.625 240.433Z" fill="#2F2E41"/>
<path d="M277.697 241.885H272.618L270.201 222.291H277.699L277.697 241.885Z" fill="#A0616A"/>
<path d="M268.989 240.433H278.786V246.602H262.82C262.82 245.792 262.98 244.99 263.29 244.241C263.6 243.493 264.054 242.813 264.627 242.24C265.2 241.667 265.88 241.213 266.628 240.903C267.376 240.593 268.179 240.433 268.989 240.433Z" fill="#2F2E41"/>
<path d="M259.415 113.865C265.036 113.865 269.592 109.308 269.592 103.688C269.592 98.0671 265.036 93.5106 259.415 93.5106C253.794 93.5106 249.238 98.0671 249.238 103.688C249.238 109.308 253.794 113.865 259.415 113.865Z" fill="#A0616A"/>
<path d="M265.481 146.697L270.034 136.234C271.14 133.78 271.457 131.042 270.942 128.4C270.426 125.758 269.103 123.341 267.155 121.483C266.755 121.087 266.33 120.718 265.883 120.376C263.636 118.619 260.867 117.661 258.014 117.654C256.096 117.662 254.202 118.083 252.462 118.889C252.312 118.955 252.167 119.026 252.018 119.096C251.732 119.233 251.451 119.382 251.177 119.535C249.393 120.56 247.875 121.989 246.745 123.707C245.615 125.426 244.905 127.387 244.671 129.43L242.662 146.27C242.156 147.592 224.123 195.326 230.43 231.769C230.497 232.158 230.687 232.516 230.972 232.789C231.256 233.063 231.621 233.238 232.013 233.29L238.406 234.16C238.873 234.224 239.347 234.108 239.732 233.837C240.117 233.565 240.385 233.158 240.482 232.697L251.21 181.561C251.277 181.243 251.448 180.957 251.697 180.748C251.946 180.539 252.257 180.42 252.582 180.409C252.906 180.398 253.225 180.496 253.487 180.688C253.749 180.879 253.94 181.153 254.028 181.466L269.185 235.241C269.293 235.632 269.526 235.976 269.849 236.222C270.171 236.467 270.566 236.6 270.971 236.6C271.092 236.6 271.213 236.588 271.332 236.567L279.142 235.063C279.596 234.978 280.002 234.727 280.28 234.358C280.559 233.989 280.689 233.53 280.646 233.07C279.499 220.27 273.399 156.156 265.481 146.697Z" fill="#2F2E41"/>
<path d="M219.864 112.157C219.793 112.762 219.856 113.375 220.048 113.953C220.24 114.532 220.556 115.061 220.975 115.503C221.393 115.946 221.904 116.291 222.47 116.515C223.037 116.739 223.646 116.836 224.254 116.799L229.942 130.47L234.245 124.091L228.184 112.087C228.054 111.07 227.556 110.135 226.784 109.461C226.011 108.786 225.018 108.418 223.993 108.427C222.967 108.435 221.98 108.82 221.219 109.507C220.458 110.195 219.976 111.138 219.864 112.157L219.864 112.157Z" fill="#A0616A"/>
<path d="M258.85 160.462C259.455 160.39 260.037 160.185 260.554 159.864C261.072 159.543 261.512 159.112 261.845 158.602C262.178 158.091 262.395 157.515 262.481 156.911C262.567 156.308 262.519 155.694 262.342 155.111L274.311 146.394L267.105 143.695L256.844 152.387C255.885 152.75 255.092 153.452 254.616 154.361C254.14 155.269 254.013 156.32 254.26 157.316C254.508 158.311 255.112 159.181 255.958 159.761C256.804 160.341 257.833 160.59 258.85 160.462Z" fill="#A0616A"/>
<path d="M239.339 139.584C238.88 139.584 238.422 139.539 237.972 139.45C236.884 139.242 235.863 138.771 234.999 138.076C234.136 137.381 233.457 136.484 233.022 135.465L225.052 125.747C224.883 125.541 224.761 125.302 224.692 125.046C224.624 124.789 224.611 124.521 224.654 124.258C224.698 123.996 224.797 123.747 224.945 123.526C225.093 123.305 225.286 123.119 225.512 122.979L231.182 119.469C231.392 119.339 231.625 119.252 231.868 119.213C232.111 119.174 232.359 119.183 232.599 119.241C232.838 119.298 233.064 119.403 233.263 119.548C233.462 119.693 233.63 119.876 233.758 120.086L239.375 129.341L250.132 121.39C250.989 120.941 251.978 120.815 252.92 121.036C253.862 121.256 254.693 121.807 255.262 122.59C255.83 123.372 256.098 124.333 256.017 125.297C255.936 126.26 255.51 127.163 254.819 127.839L244.082 137.633C242.82 138.883 241.116 139.585 239.339 139.584Z" fill="#2F2E41"/>
<path d="M268.407 154.2C268.392 154.2 268.377 154.2 268.363 154.199C268.101 154.193 267.844 154.132 267.608 154.02C267.371 153.908 267.161 153.747 266.991 153.549L261.95 147.668C261.778 147.467 261.651 147.233 261.576 146.98C261.502 146.727 261.482 146.461 261.518 146.199C261.554 145.938 261.645 145.687 261.785 145.464C261.926 145.24 262.112 145.049 262.331 144.903L271.771 138.609L263.219 128.328C262.722 127.499 262.539 126.518 262.705 125.565C262.871 124.613 263.374 123.751 264.122 123.139C264.871 122.526 265.815 122.204 266.781 122.23C267.748 122.256 268.673 122.628 269.388 123.28L279.781 133.437C280.599 134.185 281.224 135.119 281.601 136.161C281.978 137.203 282.097 138.32 281.948 139.418C281.798 140.516 281.384 141.561 280.741 142.464C280.099 143.366 279.247 144.099 278.258 144.6L269.764 153.614C269.589 153.799 269.379 153.946 269.145 154.047C268.912 154.148 268.661 154.2 268.407 154.2Z" fill="#2F2E41"/>
<path d="M256.827 132.529C256.746 132.529 256.665 132.524 256.585 132.514C256.234 132.471 255.903 132.328 255.63 132.103C255.358 131.878 255.155 131.579 255.048 131.242L251.259 119.628C251.165 119.334 251.179 119.016 251.301 118.732C251.422 118.449 251.642 118.218 251.92 118.084L252.043 118.026C252.154 117.973 252.265 117.921 252.377 117.871C254.144 117.051 256.067 116.624 258.014 116.618C260.542 116.623 263.013 117.365 265.125 118.755C265.408 118.943 265.606 119.235 265.676 119.568C265.746 119.901 265.682 120.248 265.498 120.534L258.392 131.667C258.225 131.932 257.994 132.149 257.721 132.3C257.447 132.451 257.14 132.529 256.827 132.529Z" fill="#E6E6E6"/>
<path d="M271.104 95.8119C273.351 95.8119 275.172 93.9908 275.172 91.7443C275.172 89.4978 273.351 87.6766 271.104 87.6766C268.858 87.6766 267.037 89.4978 267.037 91.7443C267.037 93.9908 268.858 95.8119 271.104 95.8119Z" fill="#2F2E41"/>
<path d="M257.16 87.2733C254.303 87.2733 251.563 88.4083 249.542 90.4287C247.522 92.4491 246.387 95.1893 246.387 98.0466V102.605H251.993L254.674 98.0466L255.479 102.605H272.492L267.934 98.0466C267.934 95.1893 266.799 92.4491 264.778 90.4287C262.758 88.4083 260.018 87.2733 257.16 87.2733Z" fill="#2F2E41"/>
<path d="M273.195 88.9581C273.645 87.5516 274.576 86.3487 275.825 85.5608C277.074 84.773 278.561 84.4507 280.024 84.6506C282.616 85.084 284.666 87.1677 285.887 89.4949C287.108 91.8222 287.672 94.4269 288.493 96.9236C289.314 99.4202 290.478 101.931 292.551 103.547C294.624 105.163 297.804 105.601 299.839 103.939C299.607 105.671 298.836 107.287 297.634 108.557C296.433 109.828 294.863 110.688 293.146 111.017C291.429 111.346 289.652 111.127 288.067 110.391C286.481 109.654 285.167 108.438 284.31 106.914C283.236 105.003 282.959 102.764 282.641 100.595C282.322 98.4261 281.908 96.1821 280.626 94.4042C279.344 92.6263 276.943 91.4652 274.906 92.275L273.195 88.9581Z" fill="#2F2E41"/>
<path d="M140.931 95.1637C137.223 95.1633 133.667 93.6899 131.044 91.0677C128.422 88.4454 126.949 84.889 126.949 81.1807C126.949 78.6516 126.951 76.7178 126.954 76.4428C127.072 67.78 129.254 59.27 133.318 51.619C126.64 60.761 122.969 71.7524 122.811 83.0726C122.807 83.3476 122.805 85.2813 122.805 87.8105C122.806 91.5188 124.279 95.0752 126.901 97.6974C129.523 100.32 133.079 101.793 136.788 101.793C139.835 101.792 142.798 100.797 145.228 98.9575C147.658 97.1184 149.421 94.5366 150.249 91.6041C147.689 93.9 144.37 95.1679 140.931 95.1637Z" fill="#3F3D56"/>
<path d="M178.558 58.315C182.845 58.5198 187.018 59.7619 190.719 61.9348C194.42 64.1077 197.539 67.1465 199.807 70.7901C202.075 74.4338 203.425 78.5735 203.741 82.8538C204.057 87.1341 203.329 91.4271 201.62 95.3642C204.092 92.4615 205.909 89.0599 206.947 85.3914C207.984 81.7229 208.219 77.8738 207.634 74.1065C207.05 70.3391 205.66 66.7421 203.559 63.5606C201.458 60.3792 198.696 57.6881 195.461 55.6709C192.226 53.6537 188.594 52.3577 184.813 51.8714C181.031 51.3851 177.19 51.7199 173.549 52.8528C169.909 53.9858 166.556 55.8904 163.719 58.4368C160.881 60.9831 158.626 64.1114 157.107 67.6082C159.733 64.5201 163.032 62.0762 166.751 60.465C170.47 58.8537 174.509 58.1182 178.558 58.315Z" fill="#3F3D56"/>
<path d="M182.86 182.179C179.077 182.18 175.445 180.694 172.748 178.041C170.051 175.388 168.505 171.781 168.444 167.999C168.269 157.036 168.178 143.53 168.178 141.986C168.175 138.231 168.716 134.495 169.783 130.895L169.778 130.893C170.408 129.086 171.169 127.327 172.054 125.631C169.335 129.254 167.172 133.262 165.634 137.523L165.639 137.524C164.572 141.125 164.032 144.861 164.034 148.616C164.034 150.16 164.125 163.666 164.3 174.629C164.362 178.411 165.908 182.018 168.605 184.671C171.301 187.323 174.933 188.81 178.716 188.809C181.835 188.808 184.87 187.797 187.365 185.925C189.861 184.054 191.682 181.424 192.556 178.43C189.906 180.847 186.447 182.184 182.86 182.179Z" fill="#3F3D56"/>
<path d="M53.3331 242.074L58.4127 242.073L60.8297 222.479L53.3318 222.48L53.3331 242.074Z" fill="#FFB8B8"/>
<path d="M68.2101 246.79L52.2446 246.791L52.2443 240.622L62.0413 240.622C63.6773 240.622 65.2464 241.271 66.4032 242.428C67.5601 243.585 68.2101 245.154 68.2101 246.79L68.2101 246.79Z" fill="#2F2E41"/>
<path d="M35.1013 242.074L40.1809 242.073L42.5979 222.479L35.1 222.48L35.1013 242.074Z" fill="#FFB8B8"/>
<path d="M49.9783 246.79L34.0127 246.791L34.0125 240.622L43.8095 240.622C45.4455 240.622 47.0145 241.271 48.1714 242.428C49.3283 243.585 49.9783 245.154 49.9783 246.79L49.9783 246.79Z" fill="#2F2E41"/>
<path d="M39.5405 236.047L34.5785 235.786C34.3226 235.773 34.072 235.709 33.8411 235.598C33.6102 235.487 33.4036 235.331 33.2333 235.14C33.063 234.948 32.9324 234.725 32.849 234.483C32.7657 234.24 32.7312 233.984 32.7476 233.728L38.6782 168.066L65.9892 175.436L68.6204 174.718L60.3919 232.846C60.3218 233.284 60.1047 233.684 59.7764 233.981C59.448 234.278 59.0282 234.455 58.5861 234.481L53.2372 234.73C52.9697 234.745 52.7021 234.704 52.4512 234.61C52.2003 234.517 51.9716 234.372 51.7795 234.185C51.5875 233.998 51.4363 233.774 51.3355 233.525C51.2346 233.277 51.1864 233.011 51.1937 232.743L52.1629 197.855C52.1675 197.694 52.1114 197.537 52.0058 197.415C51.9002 197.293 51.7527 197.215 51.5924 197.196C51.4321 197.177 51.2706 197.219 51.1398 197.314C51.0089 197.408 50.9181 197.548 50.8854 197.706L41.5387 234.507C41.4505 234.943 41.2135 235.336 40.8683 235.617C40.523 235.899 40.0909 236.052 39.6454 236.05C39.6107 236.05 39.5757 236.049 39.5405 236.047Z" fill="#2F2E41"/>
<path d="M54.2452 114.341C59.8658 114.341 64.4223 109.784 64.4223 104.164C64.4223 98.5431 59.8658 93.9867 54.2452 93.9867C48.6245 93.9867 44.0681 98.5431 44.0681 104.164C44.0681 109.784 48.6245 114.341 54.2452 114.341Z" fill="#FFB8B8"/>
<path d="M37.3009 134.064L38.4199 158.207L38.8244 166.991C38.8406 167.373 38.9704 167.742 39.1973 168.051C39.4242 168.359 39.738 168.592 40.0983 168.721L66.3422 178.228C66.5542 178.307 66.7789 178.346 67.005 178.344C67.2635 178.345 67.5196 178.295 67.758 178.195C67.9964 178.095 68.2123 177.948 68.3926 177.763C68.573 177.578 68.7142 177.358 68.8078 177.117C68.9014 176.876 68.9455 176.619 68.9375 176.36L67.8615 132.949C67.7909 129.387 66.4798 125.962 64.1543 123.263C61.8288 120.565 58.6347 118.762 55.1226 118.166C54.8687 118.127 54.6105 118.088 54.3522 118.054C52.1744 117.784 49.9638 117.994 47.8759 118.67C45.788 119.345 43.8736 120.471 42.2674 121.966C40.6042 123.496 39.2972 125.372 38.439 127.463C37.5808 129.553 37.1923 131.806 37.3009 134.064L37.3009 134.064Z" fill="#CCCCCC"/>
<path d="M78.879 173.41C78.2583 173.218 77.6912 172.883 77.2229 172.432C76.7547 171.981 76.3983 171.427 76.1822 170.815C75.9661 170.202 75.8962 169.547 75.9782 168.902C76.0602 168.257 76.2917 167.641 76.6544 167.101L67.7548 155.267L75.4346 154.792L82.7084 166.103C83.4872 166.705 84.029 167.562 84.239 168.523C84.449 169.485 84.3137 170.49 83.8568 171.362C83.4 172.233 82.6507 172.917 81.7405 173.291C80.8303 173.666 79.8172 173.708 78.879 173.41H78.879Z" fill="#FFB8B8"/>
<path d="M72.6216 164.96C72.3858 164.864 72.1714 164.722 71.9906 164.543C71.8099 164.364 71.6665 164.151 71.5687 163.916L58.1607 131.971C57.8976 131.346 57.7604 130.675 57.7568 129.996C57.7532 129.318 57.8834 128.645 58.1398 128.017C58.3963 127.389 58.7741 126.817 59.2515 126.335C59.729 125.853 60.2968 125.47 60.9224 125.207C61.5481 124.944 62.2193 124.808 62.8979 124.805C63.5764 124.802 64.2488 124.932 64.8768 125.189C65.5048 125.446 66.076 125.824 66.5578 126.302C67.0395 126.78 67.4224 127.348 67.6845 127.974L81.0925 159.919C81.2907 160.393 81.2929 160.926 81.0986 161.401C80.9044 161.876 80.5296 162.255 80.0564 162.454L74.1039 164.953C73.8696 165.052 73.6179 165.103 73.3635 165.105C73.109 165.106 72.8569 165.057 72.6216 164.96L72.6216 164.96Z" fill="#CCCCCC"/>
<path d="M50.9731 163.833L63.8511 139.175C64.0994 138.701 64.5257 138.344 65.0365 138.184C65.5472 138.024 66.1007 138.073 66.5755 138.32L85.2679 148.082C85.7421 148.33 86.0985 148.757 86.2588 149.268C86.419 149.778 86.3702 150.332 86.1229 150.807L73.2449 175.465C72.9966 175.939 72.5702 176.295 72.0595 176.455C71.5488 176.616 70.9953 176.567 70.5205 176.32L51.8281 166.557C51.3539 166.309 50.9975 165.883 50.8373 165.372C50.677 164.861 50.7258 164.308 50.9731 163.833Z" fill="#3F3D56"/>
<path d="M59.6096 152.567C59.3806 151.959 59.0127 151.413 58.5351 150.972C58.0575 150.531 57.4835 150.208 56.8589 150.028C56.2343 149.849 55.5763 149.818 54.9376 149.938C54.2988 150.058 53.6969 150.325 53.1799 150.719L40.8409 142.534L40.8199 150.228L52.5405 156.821C53.1875 157.563 54.075 158.054 55.0473 158.206C56.0197 158.359 57.0148 158.165 57.8582 157.657C58.7016 157.15 59.3393 156.361 59.6595 155.431C59.9798 154.5 59.9621 153.486 59.6096 152.567Z" fill="#FFB8B8"/>
<path d="M44.0089 154.297L33.9247 146.31C32.8338 145.943 31.8481 145.318 31.0522 144.487C30.2562 143.655 29.6739 142.644 29.3551 141.538C29.0363 140.432 28.9906 139.266 29.2219 138.138C29.4532 137.011 29.9546 135.957 30.683 135.066L39.8392 123.066C40.4755 122.289 41.3703 121.766 42.3601 121.594C43.35 121.422 44.3687 121.612 45.2301 122.129C46.0914 122.646 46.7379 123.456 47.0513 124.41C47.3647 125.365 47.3242 126.4 46.937 127.328L39.6924 139.178L50.339 144.228C50.5865 144.345 50.8064 144.514 50.984 144.723C51.1615 144.931 51.2928 145.175 51.3691 145.439C51.4454 145.702 51.465 145.978 51.4266 146.249C51.3882 146.521 51.2926 146.781 51.1462 147.012L46.8486 153.814C46.7033 154.043 46.5114 154.24 46.2854 154.39C46.0593 154.541 45.8042 154.643 45.5364 154.688C45.5258 154.69 45.5151 154.692 45.5044 154.694C45.2413 154.733 44.9728 154.719 44.7156 154.65C44.4584 154.582 44.2179 154.462 44.0089 154.297Z" fill="#CCCCCC"/>
<path d="M46.555 110.979C46.5113 110.851 46.4975 110.715 46.5145 110.581C46.5315 110.447 46.579 110.319 46.6532 110.206C46.7275 110.093 46.8265 109.999 46.9429 109.93C47.0592 109.862 47.1896 109.821 47.3242 109.81C47.5998 109.825 47.8696 109.896 48.1171 110.018C48.3647 110.14 48.5849 110.311 48.7646 110.521C49.1329 110.946 49.5616 111.314 50.0371 111.614C50.5294 111.862 51.1971 111.827 51.4778 111.353C51.7413 110.909 51.5608 110.314 51.4012 109.798C50.9952 108.485 50.768 107.123 50.7258 105.75C50.6799 104.217 50.8962 102.616 51.745 101.421C52.8406 99.8772 54.7995 99.2912 56.6533 99.3337C58.5072 99.3762 60.331 99.9485 62.1673 100.31C62.8012 100.435 63.5464 100.499 63.9704 100.008C64.4212 99.4852 64.2556 98.6397 64.0639 97.9343C63.5662 96.1039 63.0383 94.2114 61.8822 92.7331C60.632 91.1971 58.8463 90.1917 56.8846 89.9196C55.0013 89.6863 53.0895 89.9033 51.3064 90.5529C48.4012 91.4685 45.8449 93.2494 43.9793 95.6572C42.0561 98.2178 41.2251 101.436 41.668 104.607C42.1006 107.37 43.5644 109.865 45.7642 111.591L46.555 110.979Z" fill="#2F2E41"/>
<path d="M175.452 242.154C172.745 240.975 170.348 239.183 168.452 236.919C166.556 234.654 165.211 231.981 164.525 229.108C163.84 226.235 163.831 223.243 164.499 220.366C165.168 217.49 166.496 214.808 168.379 212.532C166.196 214.126 164.377 216.166 163.043 218.517C161.709 220.867 160.89 223.474 160.64 226.166C160.391 228.857 160.716 231.571 161.596 234.126C162.475 236.682 163.888 239.022 165.741 240.99C167.593 242.958 169.843 244.509 172.341 245.541C174.839 246.573 177.528 247.062 180.23 246.975C182.931 246.888 185.583 246.228 188.01 245.038C190.437 243.848 192.583 242.155 194.305 240.072C191.618 242.036 188.464 243.262 185.156 243.627C181.849 243.992 178.503 243.485 175.452 242.154Z" fill="#3F3D56"/>
</g>
<defs>
<clipPath id="clip0_78_4071">
<rect width="350" height="246.653" fill="white" transform="translate(0.899536 0.673645)"/>
</clipPath>
</defs>
</svg>
