<svg width="270" height="250" viewBox="0 0 270 250" fill="none" xmlns="http://www.w3.org/2000/svg">
<g clip-path="url(#clip0_78_4213)">
<path d="M181.628 177.228H85.448C77.3634 177.228 70.7863 170.651 70.7863 162.566V66.3861C70.7863 58.3016 77.3634 51.7245 85.448 51.7245H181.628C189.713 51.7245 196.29 58.3016 196.29 66.3861V162.566C196.29 170.651 189.713 177.228 181.628 177.228ZM85.448 54.0703C78.6461 54.0703 73.1322 59.5843 73.1322 66.3861V162.566C73.1322 169.368 78.6461 174.882 85.448 174.882H152.82C175.532 174.882 193.944 156.47 193.944 133.758V66.3861C193.944 59.5843 188.43 54.0703 181.628 54.0703H85.448V54.0703Z" fill="#F2F2F2"/>
<path d="M95.8171 64.0721C91.265 64.0721 87.5618 67.7753 87.5618 72.3274V85.2488C87.5618 89.8009 91.265 93.5041 95.8171 93.5041H108.738C113.291 93.5041 116.994 89.8009 116.994 85.2488V72.3274C116.994 67.7753 113.291 64.0721 108.738 64.0721H95.8171Z" fill="#F2F2F2"/>
<path d="M95.8171 100.447C91.265 100.447 87.5618 104.151 87.5618 108.703V121.624C87.5618 126.176 91.265 129.879 95.8171 129.879H108.738C113.291 129.879 116.994 126.176 116.994 121.624V108.703C116.994 104.151 113.291 100.447 108.738 100.447H95.8171Z" fill="#F2F2F2"/>
<path d="M95.8171 136.823C91.265 136.823 87.5618 140.526 87.5618 145.078V158C87.5618 162.552 91.265 166.255 95.8171 166.255H108.738C113.291 166.255 116.994 162.552 116.994 158V145.078C116.994 140.526 113.291 136.823 108.738 136.823H95.8171Z" fill="#F2F2F2"/>
<path d="M104.386 32.5468C98.6499 32.5468 93.9838 37.2129 93.9838 42.9487V59.23C93.9838 64.9658 98.6499 69.632 104.386 69.632H120.667C126.403 69.632 131.069 64.9658 131.069 59.23V42.9487C131.069 37.2129 126.403 32.5468 120.667 32.5468H104.386V32.5468Z" fill="#0074FF"/>
<path d="M157.988 78.0463C152.252 78.0463 147.586 82.7124 147.586 88.4482V104.73C147.586 110.465 152.252 115.131 157.988 115.131H174.269C180.005 115.131 184.671 110.465 184.671 104.73V88.4482C184.671 82.7124 180.005 78.0463 174.269 78.0463H157.988Z" fill="#0074FF"/>
<path d="M134.684 241.924L131.377 241.896L129.913 228.841L134.794 228.882L134.684 241.924Z" fill="#A0616A"/>
<path d="M124.09 247.184C124.083 247.998 124.739 248.668 125.556 248.676L132.132 248.73L133.283 246.397L133.706 248.742L136.188 248.765L135.561 240.399L134.698 240.342L131.176 240.099L130.04 240.023L130.021 242.39L124.738 245.973C124.336 246.246 124.094 246.698 124.09 247.184H124.09Z" fill="#2F2E41"/>
<path d="M151.513 241.924L148.205 241.896L146.741 228.841L151.623 228.882L151.513 241.924Z" fill="#A0616A"/>
<path d="M140.918 247.184C140.911 247.998 141.567 248.668 142.385 248.676L148.961 248.73L150.112 246.397L150.535 248.742L153.016 248.765L152.39 240.399L151.526 240.342L148.005 240.099L146.869 240.023L146.849 242.39L141.566 245.973C141.164 246.246 140.922 246.698 140.918 247.184Z" fill="#2F2E41"/>
<path d="M121.705 136.373L135.112 136.796L147.814 139.619C147.814 139.619 146.544 141.171 150.778 145.405C150.778 145.405 156.423 155.284 152.471 164.881L150.778 203.268C150.778 203.268 155.715 230.328 151.943 238.94L146.956 239.252L138.519 203.58L134.407 165.163L132.431 202.985C132.431 202.985 139.99 228.946 135.217 239.252L129.816 238.94L120.576 202.985C120.576 202.985 116.624 161.494 117.189 153.59C117.753 145.687 121.705 136.373 121.705 136.373H121.705Z" fill="#2F2E41"/>
<path d="M166.73 75.7154C164.897 76.1899 163.796 78.0605 164.27 79.8933C164.488 80.7331 165 81.4163 165.666 81.8677L165.666 81.8723L165.406 88.17L170.225 90.4003L170.61 80.7092L170.576 80.7102C170.994 79.9658 171.138 79.0664 170.907 78.1746C170.433 76.3419 168.562 75.2408 166.73 75.7154V75.7154Z" fill="#A0616A"/>
<path d="M139.794 98.1915C138.782 97.188 138.194 95.8274 138.172 94.3479C138.143 92.3631 139.138 90.5617 140.833 89.5292C142.785 88.3401 145.227 88.4604 147.053 89.8353L162.187 101.23L164.883 84.8152L170.673 86.6788L169.291 108.053C169.195 109.548 168.35 110.865 167.031 111.576C165.712 112.287 164.148 112.269 162.845 111.529L140.975 99.0857C140.536 98.8357 140.14 98.5343 139.794 98.1915V98.1915Z" fill="#3F3D56"/>
<path d="M116.718 66.5338C117.686 68.1612 117.151 70.2648 115.523 71.2322C114.778 71.6755 113.933 71.7999 113.142 71.6518L113.139 71.6552L108.89 76.3106L103.897 74.5013L110.447 67.3484L110.47 67.3727C110.697 66.5499 111.228 65.8095 112.02 65.3388C113.647 64.3714 115.751 64.9064 116.718 66.5338Z" fill="#A0616A"/>
<path d="M118.554 101.263L94.2622 94.7012C92.8158 94.3104 91.6922 93.2215 91.2563 91.788C90.8203 90.3546 91.1476 88.8244 92.1315 87.6946L106.199 71.5433L111.623 74.2958L101.981 87.8511L120.75 90.4143C123.015 90.7236 124.834 92.3572 125.383 94.5762C125.86 96.5031 125.298 98.4827 123.88 99.8714C122.822 100.907 121.447 101.459 120.022 101.459C119.535 101.459 119.042 101.395 118.554 101.263H118.554Z" fill="#3F3D56"/>
<path d="M153.186 142.02L119.217 143.578C118.284 142.162 118.537 140.031 119.843 137.364C124.776 127.291 121.03 108.237 118.509 98.3151C117.802 95.5313 119.701 92.7638 122.558 92.478L125.761 92.1577L128.722 83.1201H139.091L143.392 88.0345L150.693 92.4693C149.364 106.156 143.702 125.484 151.768 135.176C153.532 137.296 154.032 139.589 153.186 142.02Z" fill="#3F3D56"/>
<path d="M132.587 83.3288C138.165 83.3288 142.687 78.8071 142.687 73.2293C142.687 67.6515 138.165 63.1298 132.587 63.1298C127.01 63.1298 122.488 67.6515 122.488 73.2293C122.488 78.8071 127.01 83.3288 132.587 83.3288Z" fill="#A0616A"/>
<path d="M144.016 66.7646C145.421 61.6416 130.106 57.2485 127.13 61.374C126.716 60.7875 125.187 60.4312 124.485 60.6112C123.784 60.7911 123.193 61.2409 122.618 61.6763C121.826 62.2845 121.006 62.9142 120.52 63.7886C120.03 64.6595 119.955 65.847 120.613 66.6027C121.135 67.2036 122.052 70.397 122.836 70.5553C123.383 70.6669 123.844 70.7569 124.24 70.8216C124.593 70.3071 125.492 69.6607 125.427 69.0381C125.96 69.3908 125.765 70.0112 125.658 70.6453C125.3 72.7568 117.245 89.1023 121.858 84.2857C122.315 84.5556 122.88 84.8074 123.532 85.0377C124.636 83.3716 125.543 81.4069 126.141 79.3521L126.145 79.3901C126.351 81.1757 127.655 82.6409 129.382 83.141C136.307 85.1474 141.909 82.2033 143.837 76.8942C143.131 75.462 142.824 75.6176 142.887 75.575C143.768 74.9814 144.978 75.3696 145.357 76.3618C145.468 76.6544 145.57 76.9042 145.657 77.0921C146.661 73.5008 147.855 74.0192 144.016 66.7646H144.016Z" fill="#2F2E41"/>
<path d="M139.238 63.0477L138.531 59.431C138.471 59.127 138.415 58.7971 138.552 58.5193C138.728 58.1624 139.181 58.0145 139.575 58.0713C139.969 58.1282 140.263 58.4881 140.655 58.5574C142.018 58.7983 143.819 57.4523 144.308 60.8575C144.511 62.2772 146.777 62.4272 147.533 63.6457C148.29 64.8642 148.383 66.6229 147.35 67.6184C146.526 68.4134 145.201 68.5052 144.13 68.0991C143.059 67.6929 142.199 66.8726 141.449 66.0075C140.698 65.1425 140.018 64.2064 139.152 63.4567" fill="#2F2E41"/>
<path d="M144.555 68.5486C141.792 68.1625 139.908 67.1575 138.957 65.5615C137.711 63.4724 138.545 61.1721 138.582 61.0751L139.166 61.2923C139.158 61.3134 138.401 63.4191 139.495 65.2477C140.346 66.6702 142.078 67.5732 144.641 67.9314L144.555 68.5486Z" fill="#CA896D"/>
<path d="M157.524 29.47C149.4 29.47 142.789 22.8594 142.789 14.735C142.789 6.61061 149.4 0 157.524 0C165.648 0 172.259 6.61061 172.259 14.735C172.259 22.8594 165.648 29.47 157.524 29.47ZM157.524 5.89401C152.649 5.89401 148.683 9.85979 148.683 14.735C148.683 19.6102 152.649 23.576 157.524 23.576C162.399 23.576 166.365 19.6102 166.365 14.735C166.365 9.85979 162.399 5.89401 157.524 5.89401V5.89401Z" fill="#0074FF"/>
<path d="M180.195 39.4838C179.473 39.4838 178.749 39.2205 178.18 38.6866L164.35 25.7258C163.162 24.6135 163.101 22.7486 164.215 21.5615C165.326 20.37 167.191 20.311 168.38 21.4262L182.209 34.387C183.398 35.4993 183.458 37.3642 182.345 38.5513C181.765 39.1715 180.981 39.4838 180.195 39.4838V39.4838Z" fill="#0074FF"/>
<path d="M242.699 241.593C243.701 241.656 244.255 240.411 243.497 239.686L243.422 239.386C243.432 239.362 243.442 239.338 243.452 239.314C244.465 236.898 247.899 236.914 248.904 239.334C249.795 241.482 250.931 243.633 251.21 245.904C251.336 246.907 251.279 247.928 251.057 248.911C253.146 244.347 254.246 239.363 254.246 234.351C254.246 233.092 254.177 231.833 254.036 230.576C253.92 229.549 253.76 228.528 253.553 227.516C252.435 222.046 250.014 216.837 246.521 212.486C244.842 211.568 243.441 210.133 242.596 208.413C242.292 207.793 242.054 207.126 241.941 206.446C242.132 206.471 242.661 203.561 242.517 203.382C242.784 202.978 243.26 202.777 243.551 202.383C244.998 200.422 246.99 200.764 248.031 203.429C250.253 204.551 250.275 206.411 248.911 208.2C248.043 209.339 247.924 210.879 247.163 212.097C247.241 212.198 247.323 212.295 247.401 212.395C248.837 214.237 250.079 216.217 251.126 218.297C250.83 215.985 251.267 213.2 252.012 211.405C252.86 209.36 254.449 207.637 255.849 205.869C257.53 203.745 260.977 204.672 261.273 207.364C261.276 207.39 261.279 207.416 261.282 207.442C261.074 207.56 260.87 207.684 260.671 207.816C259.536 208.566 259.929 210.325 261.273 210.533L261.303 210.537C261.228 211.286 261.1 212.028 260.912 212.758C262.707 219.701 258.831 222.23 253.297 222.344C253.174 222.407 253.055 222.469 252.933 222.529C253.494 224.108 253.942 225.727 254.274 227.369C254.572 228.819 254.778 230.285 254.894 231.757C255.038 233.615 255.026 235.482 254.869 237.336L254.879 237.271C255.276 235.228 256.385 233.321 257.995 231.999C260.394 230.028 263.783 229.303 266.371 227.719C267.616 226.956 269.213 227.942 268.995 229.386L268.985 229.455C268.599 229.612 268.223 229.793 267.86 229.997C267.652 230.114 267.448 230.239 267.25 230.37C266.115 231.121 266.507 232.88 267.851 233.087L267.882 233.092C267.904 233.095 267.923 233.098 267.945 233.101C267.284 234.671 266.363 236.127 265.21 237.383C264.087 243.445 259.266 244.02 254.108 242.255H254.105C253.541 244.711 252.717 247.11 251.658 249.397H242.918C242.887 249.3 242.859 249.2 242.831 249.102C243.639 249.153 244.453 249.106 245.249 248.958C244.601 248.163 243.952 247.361 243.304 246.565C243.288 246.549 243.275 246.534 243.263 246.518C242.934 246.111 242.602 245.707 242.273 245.3L242.273 245.299C242.252 244.049 242.402 242.803 242.699 241.594L242.699 241.593Z" fill="#F2F2F2"/>
<path d="M0.899536 249.423C0.899536 249.743 1.1566 250 1.47672 250H268.37C268.69 250 268.947 249.743 268.947 249.423C268.947 249.103 268.69 248.846 268.37 248.846H1.47672C1.1566 248.846 0.899536 249.103 0.899536 249.423Z" fill="#CCCCCC"/>
</g>
<defs>
<clipPath id="clip0_78_4213">
<rect width="268.116" height="250" fill="white" transform="translate(0.899536)"/>
</clipPath>
</defs>
</svg>
