<svg width="882" height="545" viewBox="0 0 882 545" fill="none" xmlns="http://www.w3.org/2000/svg">
<g clip-path="url(#clip0_99_3121)">
<path d="M791.109 284.751H179.534C177.394 284.748 175.343 283.799 173.83 282.112C172.317 280.425 171.466 278.137 171.463 275.751V9.75098C171.466 7.36485 172.317 5.07721 173.83 3.38997C175.343 1.70272 177.394 0.753663 179.534 0.750977H791.109C793.249 0.753666 795.3 1.70274 796.813 3.38998C798.326 5.07723 799.177 7.36485 799.179 9.75098V275.751C799.177 278.137 798.326 280.425 796.813 282.112C795.3 283.799 793.249 284.748 791.109 284.751ZM179.534 2.75098C177.87 2.75314 176.274 3.49132 175.098 4.8036C173.921 6.11589 173.259 7.89512 173.257 9.75098V275.751C173.259 277.607 173.921 279.386 175.098 280.698C176.274 282.011 177.87 282.749 179.534 282.751H791.109C792.773 282.749 794.369 282.011 795.545 280.698C796.722 279.386 797.384 277.607 797.386 275.751V9.75098C797.384 7.89513 796.722 6.11591 795.545 4.80362C794.369 3.49133 792.773 2.75314 791.109 2.75098H179.534Z" fill="#3F3D56"/>
<path d="M465.087 172.976H420.423C417.629 145.269 423.792 124.617 420.423 113.207H465.087C463.371 133.084 463.371 153.099 465.087 172.976V172.976Z" fill="#FF6584"/>
<path d="M45.414 425.976H0.749575C-2.04387 398.269 4.1194 377.617 0.749575 366.207H45.414C43.6978 386.084 43.6977 406.099 45.414 425.976V425.976Z" fill="#FF6584"/>
<path d="M736.798 227.976H692.134C689.34 200.269 695.504 179.617 692.134 168.207H736.798C735.082 188.084 735.082 208.099 736.798 227.976V227.976Z" fill="#0074FF"/>
<path d="M235.319 198.54H190.655C192.329 175.558 197.729 154.098 190.655 138.771H235.319C243.728 158.694 243.728 178.617 235.319 198.54Z" fill="#E6E6E6"/>
<path d="M271.189 275.54H226.524C228.199 252.558 233.599 231.098 226.524 215.771H271.189C279.598 235.694 279.598 255.617 271.189 275.54Z" fill="#E6E6E6"/>
<path d="M665.753 134.54H621.089C622.763 111.558 628.163 90.098 621.089 74.7706H665.753C674.162 94.6937 674.162 114.617 665.753 134.54Z" fill="#0074FF"/>
<path d="M533.933 212.54H489.268C490.943 189.558 496.343 168.098 489.268 152.771H533.933C542.342 172.694 542.342 192.617 533.933 212.54Z" fill="#E6E6E6"/>
<path d="M280.976 147.625H325.64C328.434 124.639 322.271 103.18 325.64 87.8561H280.976C272.567 107.779 272.567 127.702 280.976 147.625Z" fill="#3F3D56"/>
<path d="M311.354 37.751H227.958C227.482 37.751 227.026 37.5402 226.69 37.1652C226.353 36.7901 226.164 36.2814 226.164 35.751C226.164 35.2205 226.353 34.7118 226.69 34.3368C227.026 33.9617 227.482 33.751 227.958 33.751H311.354C311.83 33.751 312.286 33.9617 312.623 34.3368C312.959 34.7118 313.148 35.2205 313.148 35.751C313.148 36.2814 312.959 36.7901 312.623 37.1652C312.286 37.5402 311.83 37.751 311.354 37.751Z" fill="#3F3D56"/>
<path d="M527.468 37.751H444.072C443.596 37.751 443.14 37.5402 442.803 37.1652C442.467 36.7901 442.278 36.2814 442.278 35.751C442.278 35.2205 442.467 34.7118 442.803 34.3368C443.14 33.9617 443.596 33.751 444.072 33.751H527.468C527.944 33.751 528.4 33.9617 528.736 34.3368C529.073 34.7118 529.262 35.2205 529.262 35.751C529.262 36.2814 529.073 36.7901 528.736 37.1652C528.4 37.5402 527.944 37.751 527.468 37.751Z" fill="#3F3D56"/>
<path d="M743.582 37.751H660.185C659.71 37.751 659.253 37.5402 658.917 37.1652C658.581 36.7901 658.392 36.2814 658.392 35.751C658.392 35.2205 658.581 34.7118 658.917 34.3368C659.253 33.9617 659.71 33.751 660.185 33.751H743.582C744.057 33.751 744.514 33.9617 744.85 34.3368C745.186 34.7118 745.375 35.2205 745.375 35.751C745.375 36.2814 745.186 36.7901 744.85 37.1652C744.514 37.5402 744.057 37.751 743.582 37.751Z" fill="#3F3D56"/>
<path d="M378.61 1.75098H376.816V283.751H378.61V1.75098Z" fill="#3F3D56"/>
<path d="M594.723 1.75098H592.93V283.751H594.723V1.75098Z" fill="#3F3D56"/>
<path d="M142.24 262.423C168.746 262.423 190.233 238.461 190.233 208.903C190.233 179.346 168.746 155.384 142.24 155.384C115.734 155.384 94.2473 179.346 94.2473 208.903C94.2473 238.461 115.734 262.423 142.24 262.423Z" fill="#0074FF"/>
<path d="M134.678 544.249H121.443C119.897 544.247 118.416 543.562 117.323 542.343C116.23 541.124 115.616 539.472 115.614 537.749V414.735C115.616 413.012 116.23 411.36 117.323 410.141C118.416 408.923 119.897 408.237 121.443 408.235H134.678C136.223 408.237 137.705 408.923 138.798 410.141C139.89 411.36 140.505 413.012 140.507 414.735V537.749C140.505 539.472 139.89 541.124 138.798 542.343C137.705 543.562 136.223 544.247 134.678 544.249V544.249Z" fill="#0074FF"/>
<path d="M160.856 544.249H147.62C146.075 544.247 144.593 543.562 143.501 542.343C142.408 541.124 141.793 539.472 141.791 537.749V414.735C141.793 413.012 142.408 411.36 143.501 410.141C144.593 408.923 146.075 408.237 147.62 408.235H160.856C162.401 408.237 163.883 408.923 164.975 410.141C166.068 411.36 166.683 413.012 166.685 414.735V537.749C166.683 539.472 166.068 541.124 164.975 542.343C163.883 543.562 162.401 544.247 160.856 544.249Z" fill="#0074FF"/>
<path d="M36.9481 390.675C36.3379 390.674 35.7316 390.567 35.1511 390.357C34.4216 390.097 33.7457 389.678 33.1625 389.125C32.5792 388.571 32.1003 387.894 31.7533 387.133L25.7231 373.994C25.3744 373.234 25.1633 372.405 25.1018 371.555C25.0404 370.704 25.1299 369.848 25.3651 369.035C25.6004 368.223 25.9768 367.471 26.4729 366.821C26.9691 366.171 27.5751 365.636 28.2566 365.247L126.452 309.199C127.134 308.81 127.877 308.575 128.64 308.506C129.403 308.438 130.171 308.538 130.899 308.8C131.628 309.062 132.303 309.482 132.886 310.035C133.469 310.589 133.948 311.265 134.297 312.024L140.327 325.163C141.031 326.698 141.16 328.481 140.685 330.122C140.21 331.762 139.171 333.125 137.795 333.91L39.598 389.958C38.7782 390.428 37.8699 390.674 36.9481 390.675V390.675Z" fill="#0074FF"/>
<path d="M171.784 333.621C170.397 333.623 169.055 333.069 168.004 332.061L157.945 322.469C156.772 321.347 156.046 319.752 155.925 318.034C155.805 316.316 156.301 314.615 157.303 313.304L228.996 219.812C230.002 218.503 231.432 217.693 232.973 217.559C234.513 217.425 236.039 217.978 237.214 219.097H237.215L247.274 228.69C247.855 229.244 248.334 229.921 248.681 230.682C249.028 231.443 249.237 232.272 249.297 233.123C249.356 233.974 249.265 234.83 249.028 235.642C248.791 236.453 248.413 237.205 247.915 237.854L176.223 331.346C175.726 331.996 175.119 332.53 174.437 332.918C173.754 333.305 173.01 333.537 172.246 333.602C172.091 333.615 171.937 333.621 171.784 333.621Z" fill="#0074FF"/>
<path d="M143.96 155.377C142.398 138.018 132.168 121.418 116.55 116.9C108.929 114.644 100.838 115.462 93.7051 119.211C87.2484 122.843 82.1723 128.935 79.397 136.382C76.6587 143.749 75.6102 151.761 76.3464 159.693C77.1802 168.362 79.6617 176.734 83.6256 184.249C87.8619 192.578 93.3705 200.023 99.1526 207.064C105.044 214.237 111.709 220.837 116.666 228.891C121.063 236.033 124.598 245.733 120.265 253.954C118.568 256.968 116.126 259.373 113.234 260.879C110.342 262.385 107.122 262.93 103.96 262.448C102.408 262.185 100.908 261.63 99.5241 260.806C97.9973 259.897 96.6368 262.486 98.1662 263.396C103.968 266.85 111.182 266.068 116.663 262.183C122.981 257.706 125.801 249.804 124.617 241.635C123.267 232.322 117.444 224.326 111.852 217.622C106.011 210.619 99.894 203.933 94.484 196.494C89.14 189.145 84.3688 181.035 81.5084 172.076C79.106 164.59 78.3045 156.581 79.1679 148.689C80.0202 141.151 82.6483 133.683 87.3636 128.106C89.9703 125.111 93.0908 122.731 96.5394 121.108C99.9879 119.486 103.694 118.653 107.437 118.661C115.205 118.55 122.737 121.638 128.591 127.334C134.364 133.091 138.437 140.664 140.274 149.053C140.743 151.131 141.076 153.245 141.27 155.377C141.441 157.28 144.133 157.3 143.96 155.377V155.377Z" fill="#2F2E41"/>
<path d="M133.848 154.969C132.676 154.967 131.543 154.5 130.652 153.652C129.76 152.803 129.169 151.629 128.983 150.338C128.798 149.047 129.031 147.725 129.64 146.609C130.249 145.492 131.194 144.654 132.307 144.244L145.08 139.541C146.322 139.084 147.676 139.195 148.844 139.851C150.013 140.507 150.899 141.654 151.309 143.039C151.72 144.424 151.619 145.934 151.031 147.236C150.443 148.539 149.415 149.528 148.173 149.985L135.4 154.688C134.9 154.874 134.376 154.968 133.848 154.969Z" fill="#2F2E41"/>
<path d="M220.082 430.251H70.792C69.7674 430.255 68.7599 429.957 67.8716 429.388C66.9833 428.819 66.2457 427.997 65.7333 427.008C65.221 426.018 64.9522 424.895 64.954 423.753C64.9559 422.61 65.2284 421.488 65.7439 420.501L140.389 276.324C140.647 275.825 140.962 275.365 141.326 274.957L141.341 274.941L141.347 274.935C142.165 274.029 143.208 273.42 144.342 273.187C144.417 273.171 144.493 273.156 144.569 273.145C144.856 273.097 145.146 273.074 145.437 273.074V273.074C146.461 273.067 147.469 273.365 148.356 273.936C149.243 274.507 149.978 275.331 150.485 276.324L225.13 420.501C225.641 421.489 225.911 422.61 225.911 423.751C225.911 424.892 225.641 426.013 225.13 427.001C224.618 427.989 223.882 428.81 222.996 429.38C222.11 429.951 221.105 430.251 220.082 430.251V430.251Z" fill="#2F2E41"/>
<path d="M177.953 217.696L177.903 215.696C181.24 215.592 184.181 215.359 186.392 213.558C187.018 213.018 187.533 212.335 187.902 211.553C188.27 210.772 188.484 209.911 188.527 209.03C188.566 208.491 188.493 207.95 188.314 207.448C188.134 206.946 187.854 206.496 187.493 206.135C186.027 204.752 183.666 205.2 181.944 206.08L180.46 206.839L183.306 183.649L185.083 183.92L182.662 203.647C185.001 202.88 187.167 203.209 188.651 204.608C189.221 205.162 189.668 205.857 189.957 206.636C190.247 207.415 190.371 208.258 190.319 209.1C190.267 210.284 189.983 211.442 189.487 212.491C188.991 213.54 188.296 214.455 187.45 215.173C184.61 217.488 180.919 217.603 177.953 217.696Z" fill="#2F2E41"/>
<path d="M173.04 185.621H163.381V187.621H173.04V185.621Z" fill="#2F2E41"/>
<path d="M829.969 342.482L737.364 275.639C736.722 275.175 736.167 274.575 735.733 273.872C735.298 273.17 734.992 272.378 734.831 271.544C734.671 270.709 734.66 269.847 734.798 269.008C734.937 268.168 735.222 267.367 735.638 266.651L742.83 254.26C743.671 252.814 744.992 251.8 746.503 251.439C748.014 251.078 749.591 251.4 750.89 252.334L843.495 319.177C844.792 320.115 845.701 321.589 846.025 323.274C846.349 324.959 846.06 326.718 845.222 328.166L838.03 340.557C837.189 342.003 835.868 343.018 834.357 343.379C832.846 343.739 831.268 343.417 829.969 342.482V342.482Z" fill="#0074FF"/>
<path d="M830.241 341.654L791.53 317.549C790.322 316.798 789.421 315.556 789.012 314.083C788.604 312.61 788.72 311.018 789.336 309.637L798.304 289.544C798.658 288.751 799.166 288.054 799.79 287.506C800.415 286.957 801.14 286.569 801.915 286.371C802.69 286.172 803.495 286.167 804.271 286.357C805.048 286.546 805.777 286.926 806.407 287.467L843.286 319.188C844.481 320.054 845.321 321.413 845.62 322.968C845.919 324.523 845.653 326.146 844.882 327.483L837.688 339.876C836.911 341.212 835.691 342.15 834.295 342.483C832.898 342.816 831.441 342.518 830.241 341.654V341.654Z" fill="#CCCCCC"/>
<path d="M834.007 264.207C860.513 264.207 882 240.246 882 210.688C882 181.13 860.513 157.169 834.007 157.169C807.502 157.169 786.015 181.13 786.015 210.688C786.015 240.246 807.502 264.207 834.007 264.207Z" fill="#0074FF"/>
<path d="M835.74 537.534V414.519C835.742 412.796 836.357 411.143 837.45 409.925C838.542 408.706 840.024 408.021 841.569 408.019H854.805C856.35 408.021 857.832 408.706 858.925 409.925C860.017 411.143 860.632 412.796 860.634 414.519V537.534C860.632 539.257 860.017 540.909 858.925 542.128C857.832 543.346 856.35 544.032 854.805 544.034H841.569C840.024 544.032 838.542 543.346 837.45 542.128C836.357 540.909 835.742 539.257 835.74 537.534V537.534Z" fill="#2F2E41"/>
<path d="M809.563 537.534V414.519C809.564 412.796 810.179 411.143 811.272 409.925C812.365 408.706 813.846 408.021 815.391 408.019H828.627C830.172 408.021 831.654 408.706 832.747 409.925C833.839 411.143 834.454 412.796 834.456 414.519V537.534C834.454 539.257 833.839 540.909 832.747 542.128C831.654 543.346 830.172 544.032 828.627 544.034H815.391C813.846 544.032 812.365 543.346 811.272 542.128C810.179 540.909 809.564 539.257 809.563 537.534V537.534Z" fill="#2F2E41"/>
<path d="M798.655 421.981V279.505C798.657 277.782 799.272 276.13 800.364 274.911C801.457 273.693 802.939 273.007 804.484 273.005H838.278C846.807 273.016 854.985 276.799 861.016 283.525C867.048 290.251 870.44 299.37 870.45 308.882V421.981C870.448 423.704 869.834 425.356 868.741 426.575C867.648 427.793 866.167 428.479 864.621 428.481H804.484C802.939 428.479 801.457 427.793 800.364 426.575C799.272 425.356 798.657 423.704 798.655 421.981Z" fill="#CCCCCC"/>
<path d="M792.116 225.557L792.166 223.557C788.83 223.453 785.888 223.22 783.678 221.419C783.051 220.88 782.536 220.196 782.167 219.415C781.799 218.633 781.586 217.773 781.542 216.891C781.503 216.352 781.576 215.811 781.756 215.309C781.935 214.807 782.216 214.358 782.576 213.996C784.043 212.614 786.404 213.061 788.125 213.942L789.609 214.701L786.763 191.51L784.986 191.782L787.407 211.508C785.068 210.742 782.902 211.071 781.418 212.469C780.849 213.024 780.401 213.718 780.112 214.497C779.823 215.276 779.699 216.12 779.75 216.961C779.802 218.146 780.086 219.303 780.582 220.352C781.078 221.401 781.773 222.317 782.62 223.035C785.46 225.349 789.15 225.464 792.116 225.557Z" fill="#2F2E41"/>
<path d="M806.688 193.483H797.029V195.483H806.688V193.483Z" fill="#2F2E41"/>
<path d="M775.754 418.895L764.063 411.976C762.699 411.166 761.678 409.786 761.225 408.138C760.772 406.491 760.924 404.71 761.646 403.187L813.356 294.526C814.083 293.005 815.32 291.867 816.798 291.362C818.275 290.857 819.872 291.026 821.238 291.831L832.929 298.75C834.293 299.56 835.313 300.94 835.766 302.587C836.219 304.235 836.068 306.015 835.345 307.538L783.635 416.2C783.277 416.954 782.789 417.623 782.199 418.168C781.609 418.712 780.928 419.121 780.196 419.371C779.464 419.622 778.695 419.708 777.933 419.627C777.17 419.545 776.43 419.296 775.754 418.895V418.895Z" fill="#0074FF"/>
<path d="M839.066 307.308L816.394 352.4C815.827 353.806 814.796 354.915 813.515 355.496C812.234 356.077 810.802 356.086 809.516 355.521L790.79 347.295C790.05 346.97 789.384 346.466 788.84 345.82C788.296 345.173 787.887 344.401 787.642 343.557C787.398 342.713 787.324 341.82 787.426 340.941C787.528 340.062 787.804 339.218 788.233 338.472L813.384 292.758C814.054 291.355 815.196 290.305 816.559 289.838C817.922 289.372 819.395 289.526 820.656 290.268L836.834 299.188C838.094 299.936 839.038 301.211 839.456 302.733C839.875 304.256 839.735 305.901 839.066 307.308V307.308Z" fill="#CCCCCC"/>
<path d="M820.603 175.547C812.374 176.981 802.415 178.449 796.228 170.725C795.003 169.303 794.148 167.536 793.753 165.614C793.359 163.692 793.44 161.686 793.987 159.811C795.18 156.017 798.257 153.126 801.484 151.556C806.311 149.209 811.807 149.353 816.963 149.418C817.312 149.404 817.642 149.241 817.885 148.961C818.127 148.681 818.263 148.307 818.263 147.918C818.263 147.529 818.127 147.155 817.885 146.875C817.642 146.595 817.312 146.431 816.963 146.418C811.7 146.352 806.193 146.296 801.211 148.46C797.289 150.164 793.657 153.322 791.882 157.669C787.99 167.199 795.178 176.505 803.3 178.825C809.226 180.518 815.38 179.474 821.318 178.439C823.024 178.142 822.3 175.251 820.603 175.547V175.547Z" fill="#2F2E41"/>
<path d="M707.823 320.625H752.487C755.281 297.639 749.118 276.18 752.487 260.856H707.823C699.414 280.779 699.414 300.702 707.823 320.625Z" fill="#3F3D56"/>
</g>
<defs>
<clipPath id="clip0_99_3121">
<rect width="882" height="543.498" fill="white" transform="translate(0 0.750977)"/>
</clipPath>
</defs>
</svg>
