<svg width="852" height="559" viewBox="0 0 852 559" fill="none" xmlns="http://www.w3.org/2000/svg">
<g clip-path="url(#clip0_97_2634)">
<path d="M786.17 269.955H96.0753C86.8253 269.955 79.2999 262.43 79.2999 253.179V17.602C79.2999 8.35196 86.8253 0.826569 96.0753 0.826569H786.17C795.42 0.826569 802.945 8.35196 802.945 17.602V253.179C802.945 262.43 795.42 269.955 786.17 269.955ZM96.0753 2.82657C87.9283 2.82657 81.2999 9.45499 81.2999 17.602V253.179C81.2999 261.327 87.9283 267.955 96.0753 267.955H786.17C794.317 267.955 800.945 261.327 800.945 253.179V17.602C800.945 9.45499 794.317 2.82657 786.17 2.82657H96.0753V2.82657Z" fill="white"/>
<rect x="80.483" y="2" width="721" height="276" rx="11" fill="white" stroke="#3F3D56" stroke-width="2"/>
<path d="M852 551.384H0.966003V553.067H852V551.384Z" fill="#E6E6E6"/>
<path d="M852 465.384H0.966003V467.067H852V465.384Z" fill="#E6E6E6"/>
<path d="M388.806 278.619C389.417 286.299 393.875 292.209 398.763 291.819C403.65 291.429 407.116 284.888 406.503 277.206C406.301 274.133 405.365 271.154 403.776 268.518L400.775 236.01L385.551 237.743L390.125 269.606C388.972 272.462 388.519 275.552 388.806 278.619Z" fill="#FFB6B6"/>
<path d="M370.619 126.96C370.619 126.96 384.85 119.426 392.067 130.684C399.283 141.943 404.264 263.705 404.264 263.705L384.262 265.841L380.471 180.038L370.619 126.96V126.96Z" fill="#E6E6E6"/>
<path d="M341.08 459.031L352.667 459.03L358.179 414.335L341.078 414.336L341.08 459.031Z" fill="#FFB6B6"/>
<path d="M380.78 458.768C381.14 459.376 381.331 461.337 381.331 462.043C381.331 464.215 379.57 465.976 377.398 465.976H341.513C340.032 465.976 338.83 464.775 338.83 463.293V461.799C338.83 461.799 337.055 457.309 340.71 451.775C340.71 451.775 345.252 456.108 352.04 449.321L354.041 445.695L368.53 456.291L376.561 457.279C378.318 457.496 379.876 457.246 380.78 458.768H380.78H380.78Z" fill="#2F2E41"/>
<path d="M408.134 457.113L419.361 454.244L413.64 409.575L397.07 413.809L408.134 457.113Z" fill="#FFB6B6"/>
<path d="M446.534 447.032C447.034 447.531 447.704 449.385 447.879 450.069C448.416 452.174 447.146 454.315 445.042 454.853L410.273 463.735C408.838 464.101 407.377 463.235 407.01 461.799L406.64 460.352C406.64 460.352 403.809 456.44 405.98 450.174C405.98 450.174 411.454 453.248 416.35 444.992L417.392 440.983L434.052 447.664L442.078 446.634C443.834 446.409 445.281 445.781 446.534 447.032H446.534V447.032Z" fill="#2F2E41"/>
<path d="M331.493 117.352L330.944 113.365L337.474 97.4168L355.415 95.4233L359.289 118.255L331.493 117.352Z" fill="#FFB6B6"/>
<path opacity="0.1" d="M331.493 117.352L330.944 113.365L337.474 97.4168L355.415 95.4233L359.289 118.255L331.493 117.352Z" fill="black"/>
<path d="M310.562 229.984L302.588 251.913L308.568 263.874L338.471 437.308H358.351L354.419 283.809L400.269 437.308H419.945L404.123 333.646L392.295 237.958L385.121 233.526L350.432 214.036L310.562 229.984Z" fill="#2F2E41"/>
<path d="M361.396 244.936L349.435 246.929L333.487 209.053H369.37L361.396 244.936Z" fill="#E6E6E6"/>
<path d="M385.318 234.968L361.396 244.936L353.422 226.994L349.435 246.929L307.571 233.453L313.552 209.053L307.571 129.313L328.683 115.239L331.493 113.365L357.409 115.358L359.681 116.594L375.35 125.326L379.337 191.111L385.318 234.968Z" fill="#2F2E41"/>
<path d="M359.681 116.594L348.438 164.199L328.683 115.239L331.493 113.365L357.409 115.358L359.681 116.594Z" fill="#E6E6E6"/>
<path d="M340.464 113.365L336.477 120.231L340.464 122.52L338.471 164.323L346.445 175.163L354.419 159.141L348.438 122.52L350.432 113.365H340.464Z" fill="#2F2E41"/>
<path d="M346.445 109.378C356.904 109.378 365.383 100.899 365.383 90.4396C365.383 79.9803 356.904 71.5014 346.445 71.5014C335.985 71.5014 327.506 79.9803 327.506 90.4396C327.506 100.899 335.985 109.378 346.445 109.378Z" fill="#FFB6B6"/>
<path d="M334.342 92.1008L338.434 93.8867L340.22 83.1716C340.22 83.1716 347.363 79.5999 352.72 81.3858C358.078 83.1716 367.007 81.3858 367.007 81.3858C367.007 81.3858 367.007 63.5274 354.506 63.5274C342.005 63.5274 329.505 65.3132 329.505 70.6707C329.505 76.0283 324.147 81.3858 324.147 81.3858C324.147 81.3858 317.004 92.1008 324.147 99.2442C331.29 106.388 334.862 106.388 334.862 106.388L334.342 92.1008Z" fill="#2F2E41"/>
<path d="M297.595 278.059C297.387 285.76 301.193 292.11 306.094 292.241C310.995 292.373 315.135 286.236 315.342 278.532C315.467 275.456 314.853 272.394 313.552 269.604L314.02 236.962L298.697 237.068L299.863 269.237C298.413 271.954 297.635 274.979 297.595 278.059V278.059Z" fill="#FFB6B6"/>
<path d="M316.552 125.288C316.552 125.288 303.594 121.301 297.614 133.262C291.633 145.223 299.607 266.827 299.607 266.827H319.723L314.384 181.106L316.552 125.288V125.288Z" fill="#E6E6E6"/>
<path d="M813.623 351.835L765.302 337.042C764.233 336.715 763.111 336.596 761.997 336.691L517.096 357.533C513.604 357.83 512.726 362.54 515.877 364.075L523.721 367.897H523.512V550.848H530.904V371.396L555.49 383.374C557.371 384.29 559.47 384.664 561.552 384.454L564.168 384.19V550.848H571.56V383.443L760.98 364.31V550.848H768.372V363.563L799.788 360.39V550.848H807.18V359.643L812.911 359.064C816.935 358.658 817.49 353.018 813.623 351.835H813.623Z" fill="#3F3D56"/>
<path d="M588.192 356.809C592.812 356.809 661.188 348.493 661.188 348.493L671.352 362.353L600.204 376.213L588.192 356.809V356.809Z" fill="white"/>
<path d="M663.235 543.743L651.356 543.722L645.784 497.891L663.316 497.922L663.235 543.743Z" fill="#A0616A"/>
<path d="M622.536 543.404C622.165 544.026 621.966 546.036 621.965 546.761C621.961 548.988 623.763 550.796 625.99 550.8L662.779 550.863C664.298 550.865 665.532 549.636 665.534 548.117L665.537 546.585C665.537 546.585 667.365 541.985 663.627 536.305C663.627 536.305 658.963 540.74 652.016 533.769L649.971 530.048L635.098 540.886L626.863 541.885C625.061 542.104 623.465 541.845 622.536 543.404H622.536L622.536 543.404Z" fill="#2F2E41"/>
<path d="M726.993 522.431L717.621 529.5L685.891 496.714L699.725 486.28L726.993 522.431Z" fill="#A0616A"/>
<path d="M694.723 546.442C694.802 547.153 695.844 548.856 696.276 549.427C697.601 551.184 700.099 551.534 701.856 550.209L730.881 528.313C732.079 527.409 732.318 525.705 731.414 524.506L730.502 523.298C730.502 523.298 729.198 518.583 722.865 516.336C722.865 516.336 721.835 522.613 712.204 521.265L708.373 519.553L703.119 536.964L697.227 542.664C695.938 543.911 694.525 544.659 694.723 546.442L694.723 546.442V546.442Z" fill="#2F2E41"/>
<path d="M702.166 285.566C702.166 296.521 693.285 305.402 682.331 305.402C671.376 305.402 662.495 296.521 662.495 285.566C662.495 274.612 671.376 265.731 682.331 265.731C693.285 265.731 702.166 274.612 702.166 285.566Z" fill="#A0616A"/>
<path d="M700.297 399.933C700.297 399.933 627.265 395.799 623.132 404.067C618.998 412.335 645.48 525.901 645.48 525.901L669.106 520.949L657.58 441.272C657.58 441.272 718.524 457.412 726.792 438.121C735.059 418.829 732.679 411.646 732.679 411.646L700.297 399.933V399.933Z" fill="#2F2E41"/>
<path d="M719.009 386.055C719.009 386.055 647.485 401.388 645.685 410.455C643.886 419.522 699.467 522.036 699.467 522.036L720.942 511.011L688.749 437.221C688.749 437.221 751.791 436.665 754.661 415.874C757.531 395.082 753.336 388.785 753.336 388.785L719.009 386.055V386.055Z" fill="#2F2E41"/>
<path d="M727.168 308.299H692.805L669.293 346.882C669.293 346.882 663.781 371.815 669.293 374.506C674.805 377.197 674.805 406.134 674.805 406.134L732.679 411.646C732.679 411.646 740.947 324.834 738.191 316.567C735.435 308.299 727.168 308.299 727.168 308.299V308.299Z" fill="#0074FF"/>
<path d="M672.738 333.791L669.293 374.506L630.546 358.061L621.298 353.41C619.487 351.048 617.136 349.155 614.443 347.888C607.746 344.624 600.635 345.432 598.559 349.693C596.482 353.953 600.226 360.052 606.922 363.314C609.58 364.655 612.521 365.34 615.498 365.311L642.556 380.679L642.588 380.619L642.708 380.833L685.14 398.555L694.903 345.106L672.738 333.791H672.738Z" fill="#A0616A"/>
<path d="M668.604 288.318C668.604 288.318 647.935 291.074 656.203 273.161C656.203 273.161 654.942 263.45 661.084 262.794C667.226 262.137 675.494 251.114 675.494 251.114C675.494 251.114 694.449 241.468 704.263 251.114C714.077 260.759 743.014 317.256 743.014 317.256L723.723 337.925C723.723 337.925 712.125 307.436 698.632 310.968C685.14 314.5 672.738 325.03 672.738 325.03C672.738 325.03 659.045 318.177 665.203 312.205C671.36 306.232 668.604 288.318 668.604 288.318Z" fill="#2F2E41"/>
<path d="M696.163 318.634C696.163 318.634 686.518 306.232 679.628 315.878C672.738 325.523 667.226 337.925 667.226 337.925L694.785 347.571L696.163 318.634H696.163Z" fill="#0074FF"/>
<path d="M800.802 548.106L768.783 446.335L768.787 446.335H768.861L768.732 446.169L768.729 446.165L766.449 438.916L766.45 438.915C769.924 435.922 772.289 431.643 772.761 426.718L758.124 346.22C759.132 335.649 751.028 326.409 740.411 326.03L707.388 325.947C698 325.615 689.869 332.397 688.501 341.692L687.771 346.626L677.654 415.455C677.284 417.931 677.432 420.371 678.014 422.653L670.733 423.605L668.524 423.9L659.793 425.037L659.765 425.046L658.675 425.185H657.492V454.753H657.566V549.259C657.566 549.869 658.065 550.368 658.675 550.368C659.294 550.368 659.793 549.869 659.793 549.259V454.753H672.747L685.674 549.148C685.757 549.703 686.228 550.109 686.783 550.109C686.829 550.109 686.884 550.109 686.93 550.1C687.54 550.017 687.965 549.453 687.882 548.843L675.002 454.753H737.159C743.331 454.753 749.05 452.794 753.706 449.441L778.351 548.975C778.479 549.479 778.932 549.814 779.429 549.814C779.52 549.814 779.612 549.803 779.704 549.779C780.3 549.628 780.66 549.022 780.508 548.426L755.625 447.929C755.956 447.653 756.287 447.359 756.6 447.056L766.493 446.474L798.679 548.774C798.828 549.249 799.267 549.553 799.74 549.553C799.851 549.553 799.963 549.536 800.074 549.502C800.66 549.317 800.986 548.692 800.802 548.106V548.106ZM764.334 440.495C764.417 440.449 764.491 440.394 764.565 440.347L764.565 440.347L764.803 441.103L764.334 440.495V440.495Z" fill="#E6E6E6"/>
<path d="M172.531 375.601L194.08 361.897L202.841 367.182L172.531 402.01V375.601Z" fill="#FFB6B6"/>
<path d="M143.063 322.559C143.063 322.559 128.75 325.927 135.486 345.291C142.221 364.656 164.112 405.069 170.847 402.543C177.583 400.018 178.425 374.759 178.425 374.759C178.425 374.759 177.583 375.601 174.215 372.234C170.847 368.866 170.847 370.404 170.847 366.688C170.847 362.972 168.093 360.218 168.093 360.218L164.954 353.711C164.954 353.711 164.954 323.401 152.325 321.717C139.696 320.033 143.063 322.559 143.063 322.559L143.063 322.559Z" fill="#E6E6E6"/>
<path d="M209.934 366.277C215.524 360.687 217.256 353.357 213.804 349.905C210.351 346.452 203.022 348.185 197.432 353.774C191.842 359.364 190.11 366.694 193.562 370.146C197.015 373.599 204.345 371.866 209.934 366.277Z" fill="#FFB6B6"/>
<path d="M87.3141 434.117L102.018 458.454L187.707 453.384L164.891 423.976L87.3141 434.117Z" fill="#E6E6E6"/>
<path d="M112.918 547.946C112.419 547.946 111.984 547.578 111.915 547.07L86.3094 360.063C86.2334 359.508 86.6216 358.996 87.1764 358.921C87.731 358.84 88.2425 359.233 88.3187 359.788L113.924 546.795C114 547.35 113.612 547.861 113.057 547.937C113.01 547.943 112.964 547.946 112.918 547.946Z" fill="#E6E6E6"/>
<path d="M87.3141 548.184C86.754 548.184 86.3 547.73 86.3 547.17V359.961C86.3 359.401 86.7541 358.947 87.3141 358.947C87.8741 358.947 88.3281 359.401 88.3281 359.961V547.17C88.3281 547.73 87.8741 548.184 87.3141 548.184Z" fill="#E6E6E6"/>
<path d="M215.848 547.44C215.417 547.44 215.017 547.163 214.881 546.73L154.29 354.145C154.122 353.611 154.419 353.042 154.953 352.873C155.487 352.706 156.056 353.003 156.224 353.536L216.815 546.121C216.983 546.655 216.687 547.225 216.152 547.393C216.051 547.425 215.948 547.44 215.848 547.44V547.44Z" fill="#E6E6E6"/>
<path d="M197.34 547.677C196.888 547.677 196.475 547.372 196.358 546.913L154.274 376.944C154.136 376.401 154.464 375.849 155.007 375.711C155.551 375.574 156.102 375.901 156.24 376.444L198.324 546.413C198.462 546.956 198.134 547.508 197.591 547.646C197.507 547.667 197.423 547.677 197.34 547.677H197.34Z" fill="#E6E6E6"/>
<path d="M87.3141 362.944L157.539 361.864L170.468 435.638H88.3281L87.3141 362.944Z" fill="#E6E6E6"/>
<path d="M195.232 471.423L177.534 502.582L198.083 507.105L206.65 484.944L195.232 471.423Z" fill="#FFB6B6"/>
<path d="M183.891 496.699C183.891 496.699 183.203 491.618 179.16 493.23C175.117 494.843 163.449 500.835 163.449 500.835C163.449 500.835 193.882 550.286 199.658 547.983C205.434 545.679 198.52 531.701 198.52 531.701L200.046 506.992L183.891 496.699H183.891Z" fill="#2F2E41"/>
<path d="M116.963 410.963C116.963 410.963 110.649 440.01 130.013 450.113C149.378 460.216 215.47 435.379 215.47 435.379L185.16 480.794L206.209 489.263C206.209 489.263 254.199 426.118 250.832 416.014C247.464 405.911 224.732 405.069 224.732 405.069L173.373 407.595L159.902 403.385L116.963 410.963H116.963Z" fill="#2F2E41"/>
<path d="M169.05 485.252L141.227 507.834L158.721 519.525L174.764 502.001L169.05 485.252Z" fill="#FFB6B6"/>
<path d="M149.288 504.668C149.288 504.668 150.497 499.685 146.144 499.716C141.792 499.747 128.743 501.082 128.743 501.082C128.743 501.082 139.096 558.217 145.313 558.173C151.531 558.129 150.178 542.593 150.178 542.593L160.59 520.134L149.288 504.668V504.668Z" fill="#2F2E41"/>
<path d="M118.147 400.456C118.147 400.456 101.696 425.214 116.056 441.671C130.417 458.128 201.016 459.043 201.016 459.043L156.258 490.316L172.782 505.863C172.782 505.863 240.46 464.51 241 453.874C241.539 443.237 220.672 434.181 220.672 434.181L171.915 417.846L160.9 409.023L118.147 400.456H118.147Z" fill="#2F2E41"/>
<path d="M160.409 343.111C160.409 343.111 144.412 337.217 136.835 337.217C136.111 337.217 135.395 337.302 134.68 337.453C129.83 338.48 125.368 342.648 123.229 344.921C122.396 345.814 121.916 346.411 121.916 346.411C121.916 346.411 121.966 345.83 122.067 344.812C122.564 339.457 124.4 321.886 127.692 310.637C128.87 306.621 130.226 303.413 131.783 301.856C135.412 298.219 137.088 293.857 137.862 290.608C138.519 287.821 138.519 285.859 138.519 285.859L132.381 283.215L131.244 275.789C131.042 276.665 130.108 278.374 126.967 281.649C126.698 281.927 126.403 282.163 126.092 282.365C121.562 285.211 112.326 280.26 107.35 277.145C109.421 269.946 113.176 263.362 119.996 262.285C135.993 259.759 135.993 250.498 146.096 260.601C146.93 261.434 147.772 262.234 148.614 263.009C151.847 269.189 153.025 277.473 153.446 283.232C153.75 287.265 153.674 290.069 153.674 290.069C153.674 290.069 157.883 315.327 164.619 320.379C171.355 325.43 160.409 343.111 160.409 343.111V343.111Z" fill="#2F2E41"/>
<path d="M129.257 302.698L117.881 319.384L143.571 326.272V302.698H129.257Z" fill="#FFB6B6"/>
<path opacity="0.1" d="M129.257 302.698L117.881 319.384L143.571 326.272V302.698H129.257Z" fill="black"/>
<path d="M145.168 318.77L120.752 308.667C120.752 308.667 87.9163 322.98 90.4421 350.764C92.9679 378.548 116.542 426.539 116.542 426.539L163.691 406.332L158.639 352.448L145.168 318.77V318.77Z" fill="#E6E6E6"/>
<path d="M134.7 310.148C146.596 310.148 156.241 300.503 156.241 288.607C156.241 276.71 146.596 267.066 134.7 267.066C122.803 267.066 113.158 276.71 113.158 288.607C113.158 300.503 122.803 310.148 134.7 310.148Z" fill="#FFB6B6"/>
<path d="M163.777 280.807C159.567 285.017 156.2 289.227 156.2 289.227L154.516 282.491C154.516 282.491 154.128 282.777 153.446 283.232C150.777 285.051 143.613 289.622 137.862 290.608C135.303 291.045 133.029 290.767 131.548 289.227C128.407 285.952 127.473 284.242 127.271 283.367L126.134 290.793L119.996 293.436C119.996 293.436 119.996 302.681 126.732 309.433C127.06 309.762 127.38 310.166 127.692 310.637C130.908 315.487 133.215 327.358 134.68 337.453C135.976 346.428 136.599 353.989 136.599 353.989C136.599 353.989 130.226 346.007 123.229 344.921C122.842 344.862 122.455 344.82 122.067 344.812C121.941 344.795 121.806 344.795 121.68 344.795C114.103 344.795 98.1057 350.688 98.1057 350.688C98.1057 350.688 87.1605 333.008 93.896 327.956C100.632 322.904 104.841 297.646 104.841 297.646C104.841 297.646 104.563 286.836 107.35 277.145C109.421 269.946 113.176 263.362 119.996 262.285C135.993 259.759 135.993 250.498 146.096 260.601C146.93 261.434 147.772 262.234 148.614 263.009C158.027 271.664 167.642 276.943 163.777 280.807V280.807Z" fill="#2F2E41"/>
<path d="M69.2999 393.827H61.2999V551.827H69.2999V393.827Z" fill="#3F3D56"/>
<path d="M263.3 393.827H255.3V551.827H263.3V393.827Z" fill="#3F3D56"/>
<path d="M212.3 326.827H159.3V379.827H212.3V326.827Z" fill="#0074FF"/>
<path d="M128.75 383.179L150.299 369.475L159.06 374.759L128.75 409.587V383.179Z" fill="#FFB6B6"/>
<path d="M99.2824 330.137C99.2824 330.137 84.9695 333.504 91.705 352.869C98.4405 372.234 120.331 412.647 127.066 410.121C133.802 407.595 134.644 382.337 134.644 382.337C134.644 382.337 133.802 383.179 130.434 379.811C127.066 376.443 127.066 377.981 127.066 374.266C127.066 370.55 124.312 367.795 124.312 367.795L121.173 361.288C121.173 361.288 121.173 330.979 108.544 329.295C95.9147 327.611 99.2825 330.137 99.2825 330.137H99.2824Z" fill="#E6E6E6"/>
<path d="M166.153 373.854C171.743 368.264 173.475 360.934 170.023 357.482C166.571 354.03 159.241 355.762 153.651 361.352C148.061 366.941 146.329 374.271 149.781 377.724C153.234 381.176 160.564 379.444 166.153 373.854Z" fill="#FFB6B6"/>
<path d="M279.3 387.827H37.2999V405.827H279.3V387.827Z" fill="#3F3D56"/>
<path d="M525.17 243.827H489.43C486.597 243.827 484.3 246.123 484.3 248.956V263.697C484.3 266.53 486.597 268.827 489.43 268.827H525.17C528.003 268.827 530.3 266.53 530.3 263.697V248.956C530.3 246.123 528.003 243.827 525.17 243.827Z" fill="#3F3D56"/>
<path d="M600.17 258.567H564.43C561.597 258.567 559.3 260.863 559.3 263.697V263.697C559.3 266.53 561.597 268.827 564.43 268.827H600.17C603.003 268.827 605.3 266.53 605.3 263.697V263.697C605.3 260.863 603.003 258.567 600.17 258.567Z" fill="#0074FF"/>
</g>
<defs>
<clipPath id="clip0_97_2634">
<rect width="851.034" height="557.347" fill="white" transform="translate(0.966003 0.826569)"/>
</clipPath>
</defs>
</svg>
