<svg width="347" height="250" viewBox="0 0 347 250" fill="none" xmlns="http://www.w3.org/2000/svg">
<g clip-path="url(#clip0_78_4245)">
<path d="M345.6 248.258H0.51526C0.382619 248.258 0.25541 248.196 0.161619 248.086C0.0678278 247.975 0.0151367 247.826 0.0151367 247.67C0.0151367 247.514 0.0678278 247.365 0.161619 247.255C0.25541 247.144 0.382619 247.082 0.51526 247.082H345.6C345.733 247.082 345.86 247.144 345.954 247.255C346.048 247.365 346.1 247.514 346.1 247.67C346.1 247.826 346.048 247.975 345.954 248.086C345.86 248.196 345.733 248.258 345.6 248.258Z" fill="#CCCCCC"/>
<path d="M311.444 160.86H108.394C107.532 160.86 106.705 161.203 106.095 161.812C105.486 162.422 105.143 163.249 105.143 164.111C105.143 164.973 105.486 165.8 106.095 166.41C106.705 167.019 107.532 167.362 108.394 167.362H114.145V245.131C114.145 245.993 114.488 246.82 115.098 247.43C115.707 248.039 116.534 248.382 117.396 248.382C118.258 248.382 119.085 248.039 119.695 247.43C120.305 246.82 120.647 245.993 120.647 245.131L120.696 167.362H298.691V245.131C298.691 245.993 299.033 246.82 299.643 247.43C300.253 248.039 301.08 248.382 301.942 248.382C302.804 248.382 303.631 248.039 304.24 247.43C304.85 246.82 305.193 245.993 305.193 245.131V169.076L306.138 167.362H311.444C312.306 167.362 313.133 167.019 313.743 166.41C314.352 165.8 314.695 164.973 314.695 164.111C314.695 163.249 314.352 162.422 313.743 161.812C313.133 161.203 312.306 160.86 311.444 160.86Z" fill="#CCCCCC"/>
<path d="M220.967 162.562H159.461C158.27 162.56 157.128 162.087 156.286 161.244C155.444 160.402 154.97 159.261 154.969 158.07V124.207C154.97 123.016 155.444 121.874 156.286 121.032C157.128 120.19 158.27 119.716 159.461 119.715H220.967C222.158 119.716 223.299 120.19 224.142 121.032C224.984 121.874 225.457 123.016 225.459 124.207V158.07C225.457 159.261 224.984 160.402 224.142 161.244C223.299 162.087 222.158 162.56 220.967 162.562Z" fill="#3F3D56"/>
<path d="M220.966 123.172H159.461C159.187 123.173 158.924 123.282 158.73 123.476C158.535 123.67 158.426 123.933 158.426 124.207V158.071C158.426 158.345 158.536 158.608 158.73 158.802C158.924 158.996 159.187 159.105 159.461 159.106H220.966C221.241 159.105 221.504 158.996 221.698 158.802C221.892 158.608 222.001 158.345 222.001 158.071V124.207C222.001 123.933 221.892 123.67 221.698 123.476C221.504 123.282 221.241 123.173 220.966 123.172Z" fill="white"/>
<path d="M195.459 147.147C195.459 147.147 188.096 145.45 184.047 148.561C179.997 151.671 189.201 158.741 189.201 158.741L195.459 147.147Z" fill="#2F2E41"/>
<path d="M190.574 143.941C194.41 143.941 197.519 140.832 197.519 136.996C197.519 133.16 194.41 130.051 190.574 130.051C186.738 130.051 183.629 133.16 183.629 136.996C183.629 140.832 186.738 143.941 190.574 143.941Z" fill="#A0616A"/>
<path d="M185.204 127.246C185.667 126.46 186.338 125.818 187.144 125.389C187.949 124.96 188.857 124.763 189.768 124.818C190.721 124.937 191.65 125.198 192.526 125.59L197.067 127.361C198.242 127.819 199.528 128.381 200.038 129.534C200.511 130.605 200.158 131.841 199.801 132.956L198.102 138.254C197.914 137.055 197.591 135.881 197.14 134.754C196.681 133.62 195.851 132.674 194.787 132.071C193.607 131.466 192.217 131.479 190.893 131.543C189.018 131.633 186.98 131.871 185.648 133.194C184.94 133.945 184.461 134.881 184.265 135.894C184.072 136.902 183.975 137.925 183.975 138.951C183.206 137.629 182.558 136.241 182.04 134.802C181.613 133.731 181.37 132.596 181.321 131.444C181.276 130.282 181.662 129.145 182.403 128.25C182.78 127.812 183.271 127.488 183.822 127.315C184.372 127.142 184.96 127.126 185.519 127.269L185.204 127.246Z" fill="#2F2E41"/>
<path d="M207.158 153.169C207.092 152.935 206.959 152.725 206.775 152.565C206.591 152.406 206.364 152.305 206.123 152.274C206.107 152.263 206.09 152.253 206.072 152.244L195.704 146.434C195.408 146.268 195.06 146.222 194.731 146.307C194.402 146.391 194.119 146.599 193.94 146.888L191.104 151.479L186.833 147.208L186.765 147.14C186.546 146.921 186.256 146.786 185.948 146.759C185.639 146.732 185.33 146.814 185.076 146.992L176.555 152.959C176.54 152.959 176.525 152.964 176.51 152.964C176.102 153.032 175.73 153.237 175.454 153.546C175.179 153.854 175.017 154.247 174.995 154.66L174.775 159.106H208.803L207.158 153.169Z" fill="#0074FF"/>
<path d="M226.15 158.415H219.584C219.584 158.232 219.512 158.056 219.382 157.926C219.252 157.797 219.077 157.724 218.893 157.724H216.82C216.637 157.724 216.461 157.797 216.332 157.926C216.202 158.056 216.129 158.232 216.129 158.415H214.056C214.056 158.232 213.983 158.056 213.853 157.926C213.724 157.797 213.548 157.724 213.365 157.724H211.292C211.108 157.724 210.932 157.797 210.803 157.926C210.673 158.056 210.6 158.232 210.6 158.415H208.527C208.527 158.232 208.454 158.056 208.325 157.926C208.195 157.797 208.019 157.724 207.836 157.724H205.763C205.58 157.724 205.404 157.797 205.274 157.926C205.145 158.056 205.072 158.232 205.072 158.415H202.999C202.999 158.232 202.926 158.056 202.796 157.926C202.667 157.797 202.491 157.724 202.308 157.724H200.234C200.051 157.724 199.875 157.797 199.746 157.926C199.616 158.056 199.543 158.232 199.543 158.415H197.47C197.47 158.232 197.397 158.056 197.268 157.926C197.138 157.797 196.962 157.724 196.779 157.724H194.706C194.522 157.724 194.347 157.797 194.217 157.926C194.087 158.056 194.015 158.232 194.015 158.415H191.941C191.941 158.232 191.869 158.056 191.739 157.926C191.609 157.797 191.434 157.724 191.25 157.724H189.177C188.994 157.724 188.818 157.797 188.688 157.926C188.559 158.056 188.486 158.232 188.486 158.415H186.413C186.413 158.232 186.34 158.056 186.21 157.926C186.081 157.797 185.905 157.724 185.722 157.724H183.648C183.465 157.724 183.289 157.797 183.16 157.926C183.03 158.056 182.957 158.232 182.957 158.415H180.884C180.884 158.232 180.811 158.056 180.682 157.926C180.552 157.797 180.376 157.724 180.193 157.724H178.12C177.936 157.724 177.761 157.797 177.631 157.926C177.501 158.056 177.429 158.232 177.429 158.415H175.355C175.355 158.232 175.283 158.056 175.153 157.926C175.023 157.797 174.848 157.724 174.664 157.724H172.591C172.408 157.724 172.232 157.797 172.102 157.926C171.973 158.056 171.9 158.232 171.9 158.415H169.827C169.827 158.232 169.754 158.056 169.624 157.926C169.495 157.797 169.319 157.724 169.136 157.724H167.062C166.879 157.724 166.703 157.797 166.574 157.926C166.444 158.056 166.371 158.232 166.371 158.415H164.298C164.298 158.232 164.225 158.056 164.096 157.926C163.966 157.797 163.79 157.724 163.607 157.724H161.534C161.351 157.724 161.175 157.797 161.045 157.926C160.916 158.056 160.843 158.232 160.843 158.415H154.277C153.728 158.416 153.202 158.635 152.814 159.024C152.425 159.412 152.207 159.939 152.207 160.488C152.207 161.038 152.425 161.565 152.814 161.953C153.202 162.342 153.728 162.561 154.277 162.562H226.15C226.7 162.562 227.227 162.343 227.616 161.954C228.005 161.566 228.223 161.038 228.223 160.488C228.223 159.939 228.005 159.411 227.616 159.022C227.227 158.634 226.7 158.415 226.15 158.415Z" fill="#3F3D56"/>
<path d="M143.59 146.375V160.142H109.1C108.176 160.174 107.255 160.019 106.392 159.688C105.529 159.357 104.741 158.855 104.076 158.212C103.411 157.57 102.882 156.8 102.521 155.949C102.16 155.098 101.974 154.183 101.974 153.258C101.974 152.334 102.16 151.419 102.521 150.568C102.882 149.716 103.411 148.947 104.076 148.304C104.741 147.662 105.529 147.16 106.392 146.829C107.255 146.497 108.176 146.343 109.1 146.375H143.59Z" fill="#F2F2F2"/>
<path d="M144.437 160.036C144.437 160.176 144.381 160.311 144.282 160.41C144.183 160.509 144.048 160.565 143.908 160.565H108.486C106.562 160.565 104.717 159.801 103.357 158.44C101.997 157.08 101.232 155.235 101.232 153.311C101.232 151.387 101.997 149.542 103.357 148.182C104.717 146.822 106.562 146.058 108.486 146.058H143.908C144.048 146.058 144.183 146.113 144.282 146.213C144.381 146.312 144.437 146.447 144.437 146.587C144.437 146.727 144.381 146.862 144.282 146.961C144.183 147.061 144.048 147.116 143.908 147.116H108.486C106.844 147.118 105.27 147.771 104.109 148.933C102.949 150.094 102.297 151.669 102.297 153.311C102.297 154.953 102.949 156.528 104.109 157.69C105.27 158.851 106.844 159.505 108.486 159.506H143.908C144.048 159.506 144.183 159.562 144.282 159.661C144.381 159.761 144.437 159.895 144.437 160.036V160.036Z" fill="#0074FF"/>
<path d="M143.59 149.552H106.527C106.513 149.552 106.499 149.549 106.486 149.544C106.473 149.539 106.462 149.531 106.452 149.521C106.442 149.511 106.434 149.5 106.429 149.487C106.423 149.474 106.42 149.46 106.42 149.446C106.42 149.432 106.423 149.418 106.429 149.405C106.434 149.393 106.442 149.381 106.452 149.371C106.462 149.361 106.473 149.353 106.486 149.348C106.499 149.343 106.513 149.34 106.527 149.34H143.59C143.618 149.34 143.645 149.352 143.664 149.372C143.684 149.391 143.695 149.418 143.695 149.446C143.695 149.474 143.684 149.501 143.664 149.521C143.645 149.541 143.618 149.552 143.59 149.552Z" fill="#CCCCCC"/>
<path d="M143.59 152.094H106.527C106.513 152.094 106.499 152.091 106.486 152.086C106.473 152.08 106.462 152.073 106.452 152.063C106.442 152.053 106.434 152.041 106.429 152.028C106.423 152.015 106.42 152.002 106.42 151.988C106.42 151.974 106.423 151.96 106.429 151.947C106.434 151.934 106.442 151.922 106.452 151.913C106.462 151.903 106.473 151.895 106.486 151.89C106.499 151.884 106.513 151.882 106.527 151.882H143.59C143.618 151.882 143.645 151.893 143.664 151.913C143.684 151.933 143.695 151.96 143.695 151.988C143.695 152.016 143.684 152.042 143.664 152.062C143.645 152.082 143.618 152.093 143.59 152.094Z" fill="#CCCCCC"/>
<path d="M143.59 154.635H106.527C106.513 154.635 106.499 154.632 106.486 154.627C106.473 154.622 106.462 154.614 106.452 154.604C106.442 154.594 106.434 154.583 106.429 154.57C106.423 154.557 106.42 154.543 106.42 154.529C106.42 154.515 106.423 154.501 106.429 154.488C106.434 154.476 106.442 154.464 106.452 154.454C106.462 154.444 106.473 154.436 106.486 154.431C106.499 154.426 106.513 154.423 106.527 154.423H143.59C143.618 154.423 143.645 154.435 143.664 154.454C143.684 154.474 143.695 154.501 143.695 154.529C143.695 154.557 143.684 154.584 143.664 154.604C143.645 154.624 143.618 154.635 143.59 154.635Z" fill="#CCCCCC"/>
<path d="M143.59 157.176H106.527C106.513 157.176 106.499 157.174 106.486 157.169C106.473 157.163 106.462 157.155 106.452 157.146C106.442 157.136 106.434 157.124 106.429 157.111C106.423 157.098 106.42 157.084 106.42 157.07C106.42 157.057 106.423 157.043 106.429 157.03C106.434 157.017 106.442 157.005 106.452 156.995C106.462 156.986 106.473 156.978 106.486 156.972C106.499 156.967 106.513 156.965 106.527 156.965H143.59C143.618 156.965 143.645 156.976 143.664 156.996C143.684 157.016 143.695 157.043 143.695 157.07C143.695 157.098 143.684 157.125 143.664 157.145C143.645 157.165 143.618 157.176 143.59 157.176Z" fill="#CCCCCC"/>
<path d="M137.088 131.872V145.638H102.599C101.675 145.67 100.754 145.516 99.8905 145.184C99.0274 144.853 98.2398 144.351 97.5747 143.709C96.9096 143.066 96.3807 142.297 96.0194 141.446C95.6582 140.595 95.472 139.679 95.472 138.755C95.472 137.83 95.6582 136.915 96.0194 136.064C96.3807 135.213 96.9096 134.443 97.5747 133.801C98.2398 133.158 99.0274 132.657 99.8905 132.325C100.754 131.994 101.675 131.84 102.599 131.872H137.088Z" fill="#F2F2F2"/>
<path d="M137.936 145.532C137.936 145.672 137.88 145.807 137.781 145.906C137.681 146.006 137.547 146.061 137.406 146.061H101.985C101.032 146.061 100.089 145.874 99.2086 145.509C98.3286 145.145 97.5289 144.61 96.8554 143.937C96.1818 143.263 95.6475 142.464 95.2829 141.584C94.9184 140.704 94.7308 139.76 94.7308 138.808C94.7308 137.855 94.9184 136.912 95.2829 136.032C95.6475 135.152 96.1818 134.352 96.8554 133.679C97.5289 133.005 98.3286 132.471 99.2086 132.106C100.089 131.742 101.032 131.554 101.985 131.554H137.406C137.547 131.554 137.681 131.61 137.781 131.709C137.88 131.808 137.936 131.943 137.936 132.083C137.936 132.224 137.88 132.359 137.781 132.458C137.681 132.557 137.547 132.613 137.406 132.613H101.985C100.343 132.614 98.7683 133.268 97.6077 134.429C96.4472 135.591 95.7953 137.166 95.7953 138.808C95.7953 140.45 96.4472 142.025 97.6077 143.186C98.7683 144.348 100.343 145.001 101.985 145.003H137.406C137.547 145.003 137.681 145.058 137.78 145.158C137.88 145.257 137.936 145.392 137.936 145.532Z" fill="#3F3D56"/>
<path d="M137.088 135.048H100.025C100.011 135.049 99.9976 135.046 99.9847 135.041C99.9718 135.035 99.96 135.028 99.9501 135.018C99.9402 135.008 99.9323 134.996 99.927 134.983C99.9216 134.97 99.9188 134.957 99.9188 134.943C99.9188 134.929 99.9216 134.915 99.927 134.902C99.9323 134.889 99.9402 134.877 99.9501 134.867C99.96 134.858 99.9718 134.85 99.9847 134.845C99.9976 134.839 100.011 134.837 100.025 134.837H137.088C137.116 134.837 137.143 134.848 137.163 134.868C137.183 134.888 137.194 134.915 137.194 134.943C137.194 134.971 137.183 134.997 137.163 135.017C137.143 135.037 137.116 135.048 137.088 135.048Z" fill="#CCCCCC"/>
<path d="M137.088 137.59H100.025C100.011 137.59 99.9976 137.587 99.9847 137.582C99.9718 137.577 99.96 137.569 99.9501 137.559C99.9402 137.549 99.9323 137.538 99.927 137.525C99.9216 137.512 99.9188 137.498 99.9188 137.484C99.9188 137.47 99.9216 137.456 99.927 137.443C99.9323 137.43 99.9402 137.419 99.9501 137.409C99.96 137.399 99.9718 137.391 99.9847 137.386C99.9976 137.381 100.011 137.378 100.025 137.378H137.088C137.116 137.378 137.143 137.39 137.163 137.409C137.183 137.429 137.194 137.456 137.194 137.484C137.194 137.512 137.183 137.539 137.163 137.559C137.143 137.579 137.116 137.59 137.088 137.59Z" fill="#CCCCCC"/>
<path d="M137.088 140.131H100.025C100.011 140.131 99.9976 140.129 99.9847 140.124C99.9718 140.118 99.96 140.11 99.9501 140.101C99.9402 140.091 99.9323 140.079 99.927 140.066C99.9216 140.053 99.9188 140.039 99.9188 140.026C99.9188 140.012 99.9216 139.998 99.927 139.985C99.9323 139.972 99.9402 139.96 99.9501 139.95C99.96 139.941 99.9718 139.933 99.9847 139.927C99.9976 139.922 100.011 139.92 100.025 139.92H137.088C137.116 139.92 137.143 139.931 137.163 139.951C137.183 139.971 137.194 139.998 137.194 140.026C137.194 140.053 137.183 140.08 137.163 140.1C137.143 140.12 137.116 140.131 137.088 140.131Z" fill="#CCCCCC"/>
<path d="M137.088 142.673H100.025C100.011 142.673 99.9976 142.67 99.9847 142.665C99.9718 142.66 99.96 142.652 99.9501 142.642C99.9402 142.632 99.9323 142.621 99.927 142.608C99.9216 142.595 99.9188 142.581 99.9188 142.567C99.9188 142.553 99.9216 142.539 99.927 142.526C99.9323 142.513 99.9402 142.502 99.9501 142.492C99.96 142.482 99.9718 142.474 99.9847 142.469C99.9976 142.464 100.011 142.461 100.025 142.461H137.088C137.116 142.461 137.143 142.472 137.163 142.492C137.183 142.512 137.194 142.539 137.194 142.567C137.194 142.595 137.183 142.622 137.163 142.642C137.143 142.661 137.116 142.673 137.088 142.673Z" fill="#CCCCCC"/>
<path d="M177.21 209.073V197.07C177.21 196.54 177 196.031 176.624 195.656C176.249 195.28 175.74 195.07 175.21 195.07H129.699C129.168 195.07 128.659 195.28 128.284 195.656C127.909 196.031 127.698 196.54 127.698 197.07V209.073H177.21Z" fill="#CCCCCC"/>
<path d="M177.21 213.574H127.698V229.078H177.21V213.574Z" fill="#CCCCCC"/>
<path d="M127.698 233.579V245.582C127.698 246.113 127.909 246.621 128.284 246.997C128.659 247.372 129.168 247.583 129.699 247.583H175.21C175.74 247.583 176.249 247.372 176.624 246.997C177 246.621 177.21 246.113 177.21 245.582V233.579H127.698Z" fill="#CCCCCC"/>
<path d="M152.204 204.072C153.033 204.072 153.705 203.4 153.705 202.572C153.705 201.743 153.033 201.071 152.204 201.071C151.376 201.071 150.704 201.743 150.704 202.572C150.704 203.4 151.376 204.072 152.204 204.072Z" fill="white"/>
<path d="M152.204 224.077C153.033 224.077 153.705 223.405 153.705 222.576C153.705 221.748 153.033 221.076 152.204 221.076C151.376 221.076 150.704 221.748 150.704 222.576C150.704 223.405 151.376 224.077 152.204 224.077Z" fill="white"/>
<path d="M152.285 243.658C153.113 243.658 153.785 242.986 153.785 242.158C153.785 241.329 153.113 240.657 152.285 240.657C151.456 240.657 150.784 241.329 150.784 242.158C150.784 242.986 151.456 243.658 152.285 243.658Z" fill="white"/>
<path d="M171.597 181.384V195.15H137.107C136.183 195.182 135.262 195.028 134.399 194.697C133.536 194.365 132.748 193.863 132.083 193.221C131.418 192.579 130.889 191.809 130.528 190.958C130.167 190.107 129.981 189.192 129.981 188.267C129.981 187.342 130.167 186.427 130.528 185.576C130.889 184.725 131.418 183.955 132.083 183.313C132.748 182.671 133.536 182.169 134.399 181.837C135.262 181.506 136.183 181.352 137.107 181.384H171.597Z" fill="#F2F2F2"/>
<path d="M172.444 195.044C172.444 195.185 172.388 195.319 172.289 195.419C172.19 195.518 172.055 195.574 171.915 195.574H136.493C135.54 195.574 134.596 195.387 133.715 195.023C132.835 194.659 132.034 194.125 131.36 193.451C130.686 192.778 130.151 191.978 129.786 191.097C129.421 190.217 129.233 189.273 129.233 188.32C129.233 187.367 129.421 186.423 129.786 185.543C130.151 184.662 130.686 183.862 131.36 183.189C132.034 182.515 132.835 181.981 133.715 181.617C134.596 181.252 135.54 181.065 136.493 181.066H171.915C172.055 181.066 172.19 181.122 172.289 181.221C172.388 181.321 172.444 181.455 172.444 181.596C172.444 181.736 172.388 181.871 172.289 181.97C172.19 182.069 172.055 182.125 171.915 182.125H136.493C134.851 182.127 133.277 182.78 132.116 183.941C130.956 185.103 130.304 186.678 130.304 188.32C130.304 189.962 130.956 191.537 132.116 192.698C133.277 193.86 134.851 194.513 136.493 194.515H171.915C172.055 194.515 172.19 194.571 172.289 194.67C172.388 194.769 172.444 194.904 172.444 195.044Z" fill="#3F3D56"/>
<path d="M171.597 184.561H134.534C134.52 184.561 134.506 184.558 134.493 184.553C134.48 184.548 134.469 184.54 134.459 184.53C134.449 184.52 134.441 184.508 134.435 184.495C134.43 184.483 134.427 184.469 134.427 184.455C134.427 184.441 134.43 184.427 134.435 184.414C134.441 184.401 134.449 184.389 134.459 184.38C134.469 184.37 134.48 184.362 134.493 184.357C134.506 184.351 134.52 184.349 134.534 184.349H171.597C171.625 184.349 171.652 184.36 171.671 184.38C171.691 184.4 171.702 184.427 171.702 184.455C171.702 184.483 171.691 184.51 171.671 184.529C171.652 184.549 171.625 184.56 171.597 184.561Z" fill="#CCCCCC"/>
<path d="M171.597 187.102H134.534C134.52 187.102 134.506 187.1 134.493 187.094C134.48 187.089 134.469 187.081 134.459 187.071C134.449 187.062 134.441 187.05 134.435 187.037C134.43 187.024 134.427 187.01 134.427 186.996C134.427 186.982 134.43 186.968 134.435 186.956C134.441 186.943 134.449 186.931 134.459 186.921C134.469 186.911 134.48 186.904 134.493 186.898C134.506 186.893 134.52 186.89 134.534 186.89H171.597C171.625 186.891 171.652 186.902 171.671 186.922C171.691 186.941 171.702 186.968 171.702 186.996C171.702 187.024 171.691 187.051 171.671 187.071C171.652 187.091 171.625 187.102 171.597 187.102Z" fill="#CCCCCC"/>
<path d="M171.597 189.644H134.534C134.52 189.644 134.506 189.641 134.493 189.636C134.48 189.63 134.469 189.623 134.459 189.613C134.449 189.603 134.441 189.591 134.435 189.578C134.43 189.566 134.427 189.552 134.427 189.538C134.427 189.524 134.43 189.51 134.435 189.497C134.441 189.484 134.449 189.472 134.459 189.463C134.469 189.453 134.48 189.445 134.493 189.44C134.506 189.434 134.52 189.432 134.534 189.432H171.597C171.625 189.432 171.652 189.443 171.671 189.463C171.691 189.483 171.702 189.51 171.702 189.538C171.702 189.566 171.691 189.593 171.671 189.612C171.652 189.632 171.625 189.643 171.597 189.644Z" fill="#CCCCCC"/>
<path d="M171.597 192.185H134.534C134.52 192.185 134.506 192.182 134.493 192.177C134.48 192.172 134.469 192.164 134.459 192.154C134.449 192.144 134.441 192.133 134.435 192.12C134.43 192.107 134.427 192.093 134.427 192.079C134.427 192.065 134.43 192.051 134.435 192.038C134.441 192.026 134.449 192.014 134.459 192.004C134.469 191.994 134.48 191.986 134.493 191.981C134.506 191.976 134.52 191.973 134.534 191.973H171.597C171.625 191.973 171.652 191.985 171.671 192.005C171.691 192.024 171.702 192.051 171.702 192.079C171.702 192.107 171.691 192.134 171.671 192.154C171.652 192.174 171.625 192.185 171.597 192.185Z" fill="#CCCCCC"/>
<path d="M125.101 91.5333V3.76165C125.102 2.76435 125.499 1.80822 126.204 1.10302C126.909 0.397818 127.865 0.0011344 128.863 0H198.244C199.241 0.001141 200.198 0.397827 200.903 1.10302C201.608 1.80822 202.005 2.76435 202.006 3.76165V91.5333C202.005 92.5306 201.608 93.4867 200.903 94.1919C200.198 94.8971 199.241 95.2938 198.244 95.2949H128.863C127.865 95.2938 126.909 94.8971 126.204 94.1919C125.499 93.4867 125.102 92.5306 125.101 91.5333ZM128.863 0.835922C128.087 0.836791 127.343 1.14532 126.795 1.69381C126.246 2.2423 125.938 2.98596 125.937 3.76165V91.5333C125.938 92.309 126.246 93.0526 126.795 93.6011C127.343 94.1496 128.087 94.4581 128.863 94.459H198.244C199.02 94.4581 199.764 94.1496 200.312 93.6011C200.86 93.0526 201.169 92.309 201.17 91.5333V3.76165C201.169 2.98596 200.86 2.2423 200.312 1.69381C199.764 1.14532 199.02 0.836792 198.244 0.835922H128.863Z" fill="#E6E6E6"/>
<path d="M167.444 40.3088V22.2865C167.445 21.7879 167.643 21.3098 167.996 20.9572C168.348 20.6046 168.826 20.4063 169.325 20.4057H184.597C185.096 20.4063 185.574 20.6046 185.927 20.9572C186.279 21.3098 186.477 21.7879 186.478 22.2865V40.3088C186.477 40.8075 186.279 41.2855 185.927 41.6381C185.574 41.9907 185.096 42.1891 184.597 42.1896H169.325C168.826 42.1891 168.348 41.9907 167.996 41.6381C167.643 41.2855 167.445 40.8075 167.444 40.3088Z" fill="#0074FF"/>
<path d="M137.769 48.668V30.6457C137.77 30.1471 137.968 29.669 138.32 29.3164C138.673 28.9638 139.151 28.7654 139.65 28.7649H154.922C155.421 28.7654 155.899 28.9638 156.251 29.3164C156.604 29.669 156.802 30.1471 156.803 30.6457V48.668C156.802 49.1667 156.604 49.6447 156.251 49.9973C155.899 50.3499 155.421 50.5483 154.922 50.5488H139.65C139.151 50.5483 138.673 50.3499 138.32 49.9973C137.968 49.6447 137.77 49.1666 137.769 48.668Z" fill="#CCCCCC"/>
<path d="M161.593 74.1635V56.1413C161.593 55.6426 161.792 55.1645 162.144 54.8119C162.497 54.4593 162.975 54.261 163.474 54.2604H178.746C179.244 54.261 179.723 54.4593 180.075 54.8119C180.428 55.1645 180.626 55.6426 180.627 56.1413V74.1635C180.626 74.6622 180.428 75.1403 180.075 75.4929C179.723 75.8455 179.244 76.0438 178.746 76.0444H163.474C162.975 76.0438 162.497 75.8455 162.144 75.4929C161.792 75.1403 161.593 74.6622 161.593 74.1635Z" fill="#FF6584"/>
<path d="M252.859 156.56H237.145C236.996 156.56 236.849 156.594 236.715 156.66L232.749 158.646C232.618 158.701 232.507 158.794 232.429 158.912C232.351 159.03 232.309 159.169 232.309 159.311C232.309 159.453 232.351 159.591 232.429 159.71C232.507 159.828 232.618 159.921 232.749 159.976L236.715 161.961C236.849 162.027 236.996 162.062 237.145 162.062H252.859C253.075 162.074 253.288 162.001 253.451 161.858C253.614 161.714 253.714 161.513 253.729 161.296V157.325C253.714 157.109 253.614 156.907 253.451 156.764C253.288 156.621 253.075 156.548 252.859 156.56Z" fill="#3F3D56"/>
<path d="M253.729 157.325V161.296C253.714 161.513 253.614 161.714 253.451 161.857C253.288 162.001 253.075 162.074 252.859 162.061H249.728V156.56H252.859C253.075 156.548 253.288 156.621 253.451 156.764C253.614 156.907 253.714 157.109 253.729 157.325V157.325Z" fill="#0074FF"/>
<path d="M252.741 126.853C253.452 126.546 254.221 126.392 254.996 126.403C255.771 126.413 256.536 126.588 257.239 126.914C257.942 127.241 258.568 127.712 259.076 128.297C259.584 128.883 259.963 129.569 260.188 130.311C260.258 130.546 260.311 130.786 260.348 131.029L282.322 141.925L287.408 138.555L293.735 145.84L285.97 152.146C285.037 152.899 283.885 153.33 282.687 153.376C281.488 153.422 280.307 153.081 279.318 152.403L257.023 136.985C256.857 137.055 256.688 137.117 256.515 137.17C255.773 137.394 254.992 137.459 254.223 137.361C253.454 137.262 252.715 137.003 252.053 136.598C251.392 136.194 250.823 135.655 250.384 135.015C249.946 134.376 249.647 133.651 249.508 132.888C249.467 132.667 249.44 132.443 249.427 132.219C249.365 131.093 249.65 129.975 250.242 129.016C250.834 128.056 251.706 127.302 252.741 126.853Z" fill="#FFB8B8"/>
<path d="M298.509 193.944H274.498C274.498 194.634 249.752 195.194 249.752 195.194C249.364 195.486 249.01 195.822 248.697 196.194C247.757 197.315 247.244 198.732 247.247 200.195V201.195C247.247 202.853 247.906 204.443 249.078 205.615C250.251 206.788 251.84 207.446 253.498 207.447H298.509C300.167 207.445 301.756 206.786 302.928 205.614C304.1 204.442 304.759 202.853 304.761 201.195V200.195C304.759 198.538 304.099 196.949 302.927 195.777C301.755 194.605 300.167 193.946 298.509 193.944Z" fill="#3F3D56"/>
<path d="M272.391 249.209H278.893V207.199H272.391V249.209Z" fill="#3F3D56"/>
<path d="M253.886 248.981C253.886 249.683 263.739 249.252 275.892 249.252C288.045 249.252 297.897 249.683 297.897 248.981C297.897 248.278 288.045 242.707 275.892 242.707C263.739 242.707 253.886 248.278 253.886 248.981Z" fill="#3F3D56"/>
<path d="M259.756 244.057L253.625 244.056L250.707 228.154L259.757 228.154L259.756 244.057Z" fill="#FFB8B8"/>
<path d="M261.319 250L241.549 249.999V249.749C241.549 248.739 241.748 247.738 242.135 246.804C242.522 245.871 243.089 245.023 243.803 244.308C244.518 243.593 245.366 243.027 246.3 242.64C247.233 242.253 248.234 242.054 249.244 242.054H249.245L261.32 242.055L261.319 250Z" fill="#2F2E41"/>
<path d="M250.585 234.195L238.362 206.785C237.341 204.474 237.228 201.864 238.046 199.475C238.863 197.085 240.551 195.091 242.772 193.889L269.285 179.672L281.384 178.643L292.544 177.629L292.625 177.765C292.727 177.939 295.127 182.083 293.505 186.628C292.275 190.075 289.074 192.768 283.993 194.631C272.133 198.98 258.432 202.696 253.092 204.092C252.856 204.152 252.636 204.262 252.445 204.414C252.255 204.565 252.098 204.756 251.987 204.972C251.874 205.186 251.808 205.421 251.791 205.662C251.774 205.903 251.807 206.145 251.888 206.372L263.244 231.886C263.363 232.209 263.406 232.556 263.369 232.898C263.333 233.241 263.218 233.571 263.034 233.862C262.85 234.154 262.601 234.399 262.308 234.579C262.014 234.759 261.682 234.869 261.339 234.901L252.854 235.519C252.782 235.526 252.71 235.529 252.639 235.529C252.204 235.529 251.779 235.403 251.415 235.166C251.05 234.929 250.762 234.592 250.585 234.195Z" fill="#2F2E41"/>
<path d="M262.756 244.057L256.625 244.056L253.708 228.154L262.757 228.154L262.756 244.057Z" fill="#FFB8B8"/>
<path d="M264.32 250L244.55 249.999V249.749C244.55 248.739 244.749 247.738 245.136 246.804C245.523 245.871 246.089 245.023 246.804 244.308C247.518 243.593 248.367 243.027 249.3 242.64C250.234 242.253 251.235 242.054 252.245 242.054H252.246L264.321 242.055L264.32 250Z" fill="#2F2E41"/>
<path d="M254.086 235.696L241.863 208.285C240.842 205.975 240.729 203.365 241.547 200.975C242.364 198.585 244.051 196.591 246.273 195.39L272.786 181.172L284.885 180.143L296.045 179.129L296.125 179.265C296.228 179.439 298.628 183.584 297.006 188.128C295.776 191.575 292.575 194.268 287.494 196.131C275.634 200.48 261.933 204.197 256.593 205.592C256.357 205.653 256.137 205.762 255.946 205.914C255.756 206.066 255.599 206.256 255.487 206.473C255.375 206.687 255.309 206.921 255.292 207.162C255.275 207.403 255.308 207.645 255.389 207.872L266.745 233.386C266.864 233.71 266.907 234.056 266.87 234.399C266.834 234.741 266.719 235.071 266.535 235.363C266.351 235.654 266.102 235.899 265.808 236.079C265.515 236.259 265.183 236.37 264.84 236.401L256.355 237.019C256.283 237.026 256.211 237.029 256.14 237.029C255.705 237.029 255.28 236.903 254.915 236.667C254.551 236.43 254.263 236.093 254.086 235.696Z" fill="#2F2E41"/>
<path d="M247.994 151.96C242.857 145.127 238.797 137.549 235.953 129.488C235.788 129.006 235.8 128.481 235.986 128.007C236.172 127.532 236.52 127.139 236.969 126.898L254.546 117.48C254.83 117.326 255.146 117.24 255.469 117.226C255.792 117.213 256.113 117.274 256.409 117.404C256.711 117.535 256.978 117.733 257.191 117.983C257.405 118.233 257.558 118.528 257.64 118.846C259.686 126.614 263.532 133.791 268.866 139.797C269.085 140.041 269.246 140.333 269.336 140.649C269.426 140.965 269.443 141.297 269.385 141.621C269.329 141.939 269.202 142.24 269.012 142.502C268.822 142.764 268.575 142.978 268.29 143.13L250.713 152.548C250.263 152.788 249.743 152.86 249.245 152.753C248.747 152.645 248.304 152.364 247.994 151.96Z" fill="#CCCCCC"/>
<path d="M249.193 151.058C249.288 151.176 249.42 151.258 249.568 151.288C249.717 151.319 249.871 151.297 250.004 151.226L267.581 141.808C267.667 141.763 267.741 141.699 267.797 141.622C267.854 141.544 267.892 141.454 267.908 141.359C267.926 141.259 267.921 141.156 267.893 141.058C267.864 140.96 267.814 140.87 267.745 140.795C262.254 134.612 258.295 127.224 256.189 119.227C256.164 119.128 256.118 119.036 256.052 118.959C255.986 118.881 255.903 118.82 255.81 118.779C255.722 118.74 255.626 118.722 255.529 118.726C255.433 118.73 255.339 118.756 255.254 118.802L237.678 128.22C237.545 128.292 237.441 128.409 237.384 128.549C237.328 128.689 237.322 128.845 237.368 128.989C240.161 136.906 244.148 144.348 249.193 151.058Z" fill="white"/>
<path d="M306.387 149.447L292.621 154.678L289.26 145.343C288.814 144.103 288.82 142.746 289.278 141.51C289.736 140.275 290.616 139.241 291.762 138.591C292.922 137.934 294.278 137.713 295.586 137.969C296.894 138.224 298.068 138.939 298.895 139.984L306.387 149.447Z" fill="#C165DD"/>
<path d="M271.373 186.436C271.084 186.231 270.841 185.967 270.661 185.661C270.482 185.355 270.369 185.014 270.331 184.662C268.568 168.203 269.796 155.322 274.085 145.284C274.841 143.553 275.979 142.016 277.414 140.787C278.849 139.559 280.544 138.672 282.371 138.193L293.498 137.631L293.556 137.659C296.067 138.889 298.115 140.895 299.396 143.381C300.677 145.866 301.123 148.698 300.667 151.457C297.088 160.891 294.091 170.713 296.377 178.636C296.473 178.968 296.501 179.315 296.459 179.657C296.418 179.999 296.307 180.33 296.135 180.629C295.968 180.917 295.743 181.169 295.475 181.367C295.207 181.566 294.901 181.708 294.577 181.783L273.382 186.825C273.039 186.907 272.682 186.914 272.336 186.847C271.99 186.78 271.661 186.64 271.373 186.436Z" fill="#0074FF"/>
<path d="M289.785 133.475C296.569 133.475 302.068 127.976 302.068 121.192C302.068 114.407 296.569 108.908 289.785 108.908C283.001 108.908 277.501 114.407 277.501 121.192C277.501 127.976 283.001 133.475 289.785 133.475Z" fill="#FFB8B8"/>
<path d="M255.7 130.92L246.127 135.146C245.763 135.306 245.35 135.316 244.979 135.172C244.608 135.028 244.309 134.743 244.148 134.38L243.911 133.843C243.751 133.479 243.742 133.066 243.886 132.695C244.029 132.324 244.314 132.026 244.678 131.865L254.251 127.639C254.615 127.479 255.028 127.469 255.399 127.613C255.77 127.757 256.069 128.042 256.23 128.406L256.467 128.942C256.627 129.306 256.636 129.719 256.492 130.09C256.349 130.461 256.064 130.759 255.7 130.92Z" fill="#CCCCCC"/>
<path d="M259.201 137.422L249.628 141.648C249.263 141.808 248.851 141.817 248.48 141.674C248.109 141.53 247.81 141.245 247.649 140.881L247.412 140.345C247.252 139.981 247.243 139.568 247.387 139.197C247.53 138.826 247.815 138.527 248.179 138.366L257.752 134.14C258.116 133.98 258.529 133.971 258.9 134.115C259.271 134.258 259.57 134.543 259.731 134.907L259.967 135.444C260.128 135.808 260.137 136.22 259.993 136.591C259.849 136.962 259.564 137.261 259.201 137.422Z" fill="#CCCCCC"/>
<path d="M266.583 162.817L245.241 145.98C245.071 146.039 244.898 146.09 244.723 146.133C243.969 146.309 243.188 146.324 242.428 146.179C241.668 146.033 240.947 145.729 240.313 145.287C239.674 144.844 239.137 144.27 238.738 143.603C238.339 142.936 238.087 142.191 237.999 141.419C237.856 140.184 238.134 138.938 238.789 137.881C239.443 136.825 240.435 136.02 241.604 135.598C242.334 135.337 243.111 135.232 243.884 135.291C244.657 135.351 245.408 135.573 246.089 135.943C246.771 136.313 247.366 136.823 247.836 137.439C248.307 138.055 248.642 138.764 248.819 139.518C248.874 139.757 248.913 140 248.934 140.244L270.18 152.501L275.467 149.457L281.324 157.125L273.115 162.976C272.154 163.655 270.999 164.007 269.823 163.978C268.646 163.949 267.51 163.542 266.583 162.817Z" fill="#FFB8B8"/>
<path d="M283.928 159.513L271.751 151.232L277.474 143.127C278.234 142.05 279.349 141.277 280.624 140.944C281.899 140.611 283.25 140.739 284.44 141.306C285.643 141.88 286.601 142.865 287.142 144.083C287.682 145.301 287.77 146.672 287.388 147.949L283.928 159.513Z" fill="#0074FF"/>
<path d="M285.281 119.362C282.124 121.523 277.979 123.744 274.754 121.443C272.637 119.932 271.97 117.134 272.828 114.679C274.372 110.263 278.614 108.32 282.671 106.83C287.944 104.893 293.687 103.352 299.131 104.739C304.575 106.126 309.386 111.397 308.403 116.928C307.613 121.376 303.417 125.078 304.013 129.556C304.612 134.063 309.681 136.436 314.156 137.241C318.631 138.047 323.638 138.306 326.854 141.52C330.957 145.62 329.932 152.949 326.072 157.279C322.212 161.608 316.386 163.57 310.741 164.904C303.262 166.672 295.173 167.601 288.07 164.667C280.966 161.734 275.439 153.837 277.496 146.433C278.366 143.305 280.413 140.662 282.392 138.089C284.371 135.515 286.375 132.824 287.129 129.667C287.758 127.036 287.293 123.981 285.548 122.008C285.231 121.662 285.031 121.225 284.978 120.759C284.924 120.293 285.02 119.822 285.251 119.414L285.281 119.362Z" fill="#2F2E41"/>
<path d="M54.5647 179.043C51.3995 180.156 48.001 180.435 44.6968 179.853C41.3926 179.271 38.294 177.847 35.6995 175.72C29.0918 170.174 27.0201 161.037 25.3345 152.577C23.6725 144.236 22.0106 135.894 20.3486 127.553L30.787 134.74C38.2937 139.909 45.9695 145.244 51.1671 152.73C56.3647 160.217 58.6334 170.437 54.4573 178.538" fill="#E6E6E6"/>
<path d="M53.6724 209.34C54.7289 201.644 55.8153 193.85 55.0742 186.072C54.416 179.164 52.3086 172.417 48.018 166.885C45.7406 163.954 42.9694 161.443 39.8291 159.464C39.0102 158.948 38.2565 160.245 39.0718 160.76C44.5055 164.194 48.7083 169.265 51.0742 175.242C53.6873 181.888 54.1069 189.133 53.6566 196.194C53.3843 200.463 52.8072 204.705 52.2256 208.941C52.1798 209.133 52.2084 209.335 52.3056 209.506C52.4029 209.677 52.5616 209.805 52.7496 209.864C52.9414 209.916 53.1458 209.89 53.3186 209.792C53.4914 209.694 53.6185 209.531 53.6724 209.34H53.6724Z" fill="#F2F2F2"/>
<path d="M43.4964 195.723C42.1389 197.786 40.2729 199.465 38.0782 200.597C35.8835 201.73 33.4341 202.278 30.9659 202.19C24.6228 201.889 19.3346 197.462 14.5743 193.259L0.494171 180.827L9.81287 180.381C16.5143 180.06 23.3887 179.761 29.7716 181.828C36.1545 183.894 42.0411 188.868 43.2083 195.475" fill="#E6E6E6"/>
<path d="M56.6582 213.764C51.5731 204.766 45.6748 194.766 35.1355 191.57C32.2051 190.684 29.1323 190.367 26.0827 190.635C25.1216 190.718 25.3616 192.2 26.321 192.117C31.4328 191.693 36.5347 193.042 40.7678 195.939C44.8412 198.712 48.0129 202.566 50.6973 206.654C52.3416 209.158 53.8145 211.768 55.2876 214.375C55.7584 215.208 57.1345 214.607 56.6582 213.764Z" fill="#F2F2F2"/>
<path d="M64.806 223.235C64.6347 221.249 63.9219 219.349 62.7452 217.741C61.5686 216.133 59.9733 214.878 58.133 214.114V208.912H49.4084V214.278C47.6586 215.08 46.1528 216.331 45.0444 217.905C43.936 219.478 43.2646 221.317 43.0987 223.235L41.0472 247.082H66.8575L64.806 223.235Z" fill="#F2F2F2"/>
</g>
<defs>
<clipPath id="clip0_78_4245">
<rect width="346.085" height="250" fill="white" transform="translate(0.0151367)"/>
</clipPath>
</defs>
</svg>
