<svg width="750" height="553" viewBox="0 0 750 553" fill="none" xmlns="http://www.w3.org/2000/svg">
<g clip-path="url(#clip0_98_3046)">
<path d="M463.872 444.137H23.6033C18.7553 444.131 14.1073 442.203 10.6792 438.775C7.25115 435.347 5.32282 430.699 5.31732 425.851V109.984C5.32282 105.136 7.25115 100.488 10.6792 97.0602C14.1073 93.6321 18.7553 91.7037 23.6033 91.6982H463.872C468.72 91.7037 473.368 93.6321 476.796 97.0602C480.224 100.488 482.152 105.136 482.158 109.984V425.851C482.152 430.699 480.224 435.347 476.796 438.775C473.368 442.203 468.72 444.131 463.872 444.137ZM23.6033 101.322C21.3069 101.325 19.1053 102.239 17.4815 103.862C15.8576 105.486 14.9442 107.688 14.9415 109.984V425.851C14.9441 428.147 15.8575 430.349 17.4814 431.973C19.1052 433.596 21.3069 434.51 23.6033 434.512H463.872C466.168 434.51 468.37 433.596 469.994 431.973C471.618 430.349 472.531 428.147 472.534 425.851V109.984C472.531 107.688 471.618 105.486 469.994 103.862C468.37 102.239 466.168 101.325 463.872 101.322H23.6033Z" fill="#E6E6E6"/>
<path d="M234.381 552.226C253.944 552.226 269.804 536.366 269.804 516.803C269.804 497.239 253.944 481.38 234.381 481.38C214.817 481.38 198.958 497.239 198.958 516.803C198.958 536.366 214.817 552.226 234.381 552.226Z" fill="#E6E6E6"/>
<path d="M234.381 543.96C249.379 543.96 261.538 531.801 261.538 516.803C261.538 501.804 249.379 489.645 234.381 489.645C219.382 489.645 207.223 501.804 207.223 516.803C207.223 531.801 219.382 543.96 234.381 543.96Z" fill="white"/>
<path d="M247.986 531.635C247.823 531.635 247.662 531.603 247.512 531.541C247.362 531.479 247.226 531.388 247.111 531.273L219.898 504.059C219.676 503.825 219.554 503.514 219.558 503.191C219.562 502.869 219.692 502.561 219.92 502.333C220.148 502.105 220.456 501.975 220.779 501.971C221.101 501.966 221.413 502.088 221.647 502.31L248.86 529.524C249.033 529.697 249.151 529.917 249.198 530.157C249.246 530.397 249.222 530.645 249.128 530.871C249.034 531.097 248.876 531.291 248.673 531.426C248.469 531.562 248.23 531.635 247.986 531.635H247.986Z" fill="#0074FF"/>
<path d="M249.74 519.42C249.996 519.018 250.131 518.552 250.13 518.075C250.128 517.599 249.99 517.133 249.732 516.733C247.748 513.632 245.133 510.984 242.057 508.961C238.94 506.887 235.29 505.758 231.547 505.708C229.659 505.711 227.784 506.019 225.994 506.62C225.944 506.636 225.899 506.666 225.864 506.705C225.828 506.743 225.803 506.791 225.791 506.842C225.779 506.894 225.78 506.947 225.795 506.998C225.809 507.049 225.836 507.095 225.874 507.132L229.526 510.784C229.564 510.822 229.612 510.85 229.664 510.864C229.716 510.878 229.771 510.878 229.823 510.865C231.735 510.4 233.754 510.713 235.436 511.736C237.117 512.758 238.323 514.407 238.789 516.319L238.798 516.356C239.429 519.313 240.871 522.036 242.96 524.221L244.124 525.385C244.179 525.44 244.252 525.472 244.33 525.476C244.407 525.479 244.483 525.453 244.542 525.403C246.564 523.68 248.316 521.663 249.74 519.42Z" fill="#0074FF"/>
<path d="M237.069 522.535C236.095 522.536 235.129 522.344 234.229 521.971C233.329 521.598 232.51 521.051 231.821 520.362C231.132 519.673 230.585 518.855 230.212 517.954C229.839 517.054 229.647 516.089 229.647 515.114C229.647 515.108 229.647 515.101 229.647 515.095C229.663 514.446 229.55 513.801 229.315 513.196C229.081 512.592 228.728 512.04 228.278 511.572L224.607 507.9C224.552 507.845 224.478 507.812 224.4 507.81C224.322 507.807 224.246 507.833 224.187 507.884C222.202 509.604 220.445 511.571 218.958 513.736C218.678 514.137 218.524 514.613 218.515 515.102C218.506 515.591 218.643 516.072 218.908 516.484C220.86 519.587 223.45 522.24 226.506 524.265C229.628 526.347 233.292 527.466 237.044 527.483C238.951 527.478 240.846 527.177 242.66 526.59C242.711 526.574 242.756 526.545 242.793 526.507C242.829 526.468 242.854 526.42 242.867 526.369C242.879 526.317 242.878 526.263 242.864 526.212C242.85 526.161 242.822 526.115 242.785 526.077L239.115 522.408C239.077 522.37 239.03 522.343 238.978 522.329C238.926 522.314 238.871 522.314 238.819 522.327C238.246 522.466 237.659 522.536 237.069 522.535V522.535Z" fill="#0074FF"/>
<path d="M99.9815 552.226C119.545 552.226 135.404 536.366 135.404 516.803C135.404 497.239 119.545 481.38 99.9815 481.38C80.4178 481.38 64.5584 497.239 64.5584 516.803C64.5584 536.366 80.4178 552.226 99.9815 552.226Z" fill="#E6E6E6"/>
<path d="M99.9815 543.96C114.98 543.96 127.139 531.801 127.139 516.803C127.139 501.804 114.98 489.645 99.9815 489.645C84.9827 489.645 72.8238 501.804 72.8238 516.803C72.8238 531.801 84.9827 543.96 99.9815 543.96Z" fill="white"/>
<path d="M110.414 534.12C108.905 534.12 106.785 533.574 103.611 531.8C99.6656 529.692 96.0629 526.997 92.9258 523.808C89.6789 520.715 86.9673 517.106 84.9017 513.126C82.0535 507.946 82.539 505.231 83.0818 504.07C83.7083 502.802 84.6935 501.745 85.9152 501.031C86.6156 500.572 87.3568 500.178 88.1294 499.855C88.2068 499.822 88.2787 499.79 88.3428 499.762C88.5985 499.617 88.8821 499.528 89.1747 499.502C89.4673 499.475 89.7622 499.511 90.0398 499.607C90.6569 499.904 91.2059 500.325 91.6525 500.844C93.2605 502.649 94.6169 504.662 95.6851 506.83C96.1242 507.58 96.3941 508.417 96.476 509.282C96.4119 510.138 96.0652 510.949 95.4903 511.587C95.389 511.725 95.2885 511.857 95.1911 511.986C94.6027 512.759 94.4736 512.982 94.5587 513.381C94.7311 514.183 97.3437 514.88 99.4566 516.988C101.569 519.096 102.56 521.99 103.365 522.162C103.781 522.251 104.009 522.116 104.807 521.507C104.921 521.42 105.039 521.329 105.162 521.239C105.801 520.636 106.626 520.267 107.501 520.192H107.506C108.384 520.282 109.228 520.578 109.969 521.057C112.113 522.143 114.115 523.488 115.933 525.06C116.453 525.505 116.875 526.052 117.174 526.669C117.269 526.947 117.305 527.242 117.278 527.536C117.252 527.829 117.163 528.113 117.019 528.369C116.99 528.434 116.959 528.504 116.926 528.582C116.6 529.353 116.204 530.093 115.743 530.792C115.027 532.012 113.969 532.995 112.699 533.62C111.985 533.957 111.204 534.128 110.414 534.12V534.12Z" fill="#0074FF"/>
<path d="M369.822 552.226C389.385 552.226 405.245 536.366 405.245 516.803C405.245 497.239 389.385 481.38 369.822 481.38C350.258 481.38 334.399 497.239 334.399 516.803C334.399 536.366 350.258 552.226 369.822 552.226Z" fill="#E6E6E6"/>
<path d="M369.822 543.96C384.82 543.96 396.979 531.801 396.979 516.803C396.979 501.804 384.82 489.645 369.822 489.645C354.823 489.645 342.664 501.804 342.664 516.803C342.664 531.801 354.823 543.96 369.822 543.96Z" fill="white"/>
<path d="M379.718 511.731C379.389 511.731 379.075 511.861 378.843 512.093C378.611 512.325 378.481 512.64 378.481 512.968V515.442C378.481 520.224 374.604 521.627 369.822 521.627C365.039 521.627 361.163 520.224 361.163 515.442V512.968C361.163 512.64 361.032 512.325 360.8 512.093C360.568 511.861 360.254 511.731 359.926 511.731C359.598 511.731 359.283 511.861 359.051 512.093C358.819 512.325 358.689 512.64 358.689 512.968V515.442C358.692 518.179 359.703 520.819 361.528 522.858C363.353 524.898 365.865 526.194 368.585 526.501V531.523C368.585 531.851 368.715 532.165 368.947 532.397C369.179 532.629 369.494 532.76 369.822 532.76H369.822C370.15 532.76 370.464 532.629 370.696 532.397C370.928 532.165 371.059 531.851 371.059 531.523V526.501C373.778 526.194 376.29 524.898 378.115 522.858C379.94 520.819 380.951 518.179 380.955 515.442V512.968C380.955 512.64 380.824 512.325 380.592 512.093C380.36 511.861 380.046 511.731 379.718 511.731V511.731Z" fill="#0074FF"/>
<path d="M369.822 518.127C368.305 518.156 366.803 517.813 365.45 517.127C364.963 516.934 364.538 516.612 364.219 516.197C363.899 515.781 363.698 515.287 363.637 514.767V510.164C363.624 508.338 366.371 506.853 369.774 506.846C369.79 506.846 369.806 506.846 369.822 506.846C373.201 506.826 375.97 508.28 376.007 510.093C376.007 510.116 376.007 510.14 376.007 510.164V514.767C376.024 516.61 373.257 518.113 369.822 518.127Z" fill="#0074FF"/>
<path d="M463.872 439.806H23.6033C19.9035 439.801 16.3565 438.33 13.7403 435.714C11.1241 433.097 9.65251 429.55 9.64825 425.851V109.984C9.65251 106.284 11.1241 102.737 13.7403 100.121C16.3565 97.5049 19.9035 96.0333 23.6033 96.0291H463.872C467.572 96.0333 471.119 97.5049 473.735 100.121C476.351 102.737 477.823 106.284 477.827 109.984V425.851C477.823 429.55 476.351 433.097 473.735 435.714C471.119 438.33 467.572 439.801 463.872 439.806V439.806Z" fill="white"/>
<path d="M241.582 291.782C267.32 291.782 288.184 270.918 288.184 245.18C288.184 219.443 267.32 198.579 241.582 198.579C215.845 198.579 194.981 219.443 194.981 245.18C194.981 270.918 215.845 291.782 241.582 291.782Z" fill="#FFB8B8"/>
<path d="M189.597 200.35C189.95 194.998 193.489 189.522 204.733 186.66C204.733 186.66 224.029 161.985 250.251 174.925C250.251 174.925 262.964 172.738 272.39 185.927C272.39 185.927 281.736 180.415 285.679 190.185C285.679 190.185 296.64 210.114 292.605 230.441C288.57 250.768 286.504 253.305 286.504 253.305C286.504 253.305 291.648 211.259 262.021 214.174C232.395 217.09 208.543 206.671 201.834 229.482C196.263 248.424 196.964 258.261 196.964 258.261C196.964 258.261 178.335 239.366 184.669 224.486C187.909 216.876 189.054 208.603 189.597 200.35Z" fill="#2F2E41"/>
<path d="M114.855 439.324H372.62C370.897 419.662 369.771 405.033 369.771 400.086C369.771 378.268 351.918 354.458 351.918 354.458L345.528 350.926L292.162 334.276L278.351 316.337C276.905 314.453 275.041 312.93 272.907 311.888C270.773 310.846 268.426 310.313 266.051 310.331L222.425 310.658C218.586 310.688 214.896 312.15 212.079 314.758L185.064 339.82L145.441 358.741L145.373 358.673L144.96 358.981L139.079 363.216L135.297 365.949C135.297 365.949 125.374 377.854 117.444 413.56C116.251 418.931 115.413 427.92 114.855 439.324Z" fill="#0074FF"/>
<path d="M748.383 40.6907H1.08463C0.794755 40.6844 0.518897 40.5648 0.316132 40.3575C0.113366 40.1503 -0.000183105 39.8719 -0.000183105 39.5819C-0.000183105 39.292 0.113366 39.0136 0.316132 38.8063C0.518897 38.5991 0.794755 38.4795 1.08463 38.4731H748.383C748.673 38.4795 748.948 38.5991 749.151 38.8063C749.354 39.0136 749.467 39.292 749.467 39.5819C749.467 39.8719 749.354 40.1503 749.151 40.3575C748.948 40.5648 748.673 40.6844 748.383 40.6907V40.6907Z" fill="#CACACA"/>
<path d="M25.497 25.1677C32.0861 25.1677 37.4277 19.707 37.4277 12.971C37.4277 6.23503 32.0861 0.774414 25.497 0.774414C18.9078 0.774414 13.5662 6.23503 13.5662 12.971C13.5662 19.707 18.9078 25.1677 25.497 25.1677Z" fill="#3F3D56"/>
<path d="M66.7122 25.1677C73.3014 25.1677 78.643 19.707 78.643 12.971C78.643 6.23503 73.3014 0.774414 66.7122 0.774414C60.1231 0.774414 54.7815 6.23503 54.7815 12.971C54.7815 19.707 60.1231 25.1677 66.7122 25.1677Z" fill="#3F3D56"/>
<path d="M107.928 25.1677C114.517 25.1677 119.858 19.707 119.858 12.971C119.858 6.23503 114.517 0.774414 107.928 0.774414C101.338 0.774414 95.9968 6.23503 95.9968 12.971C95.9968 19.707 101.338 25.1677 107.928 25.1677Z" fill="#3F3D56"/>
<path d="M723.689 8.2347H694.404C693.824 8.22196 693.273 7.98272 692.867 7.56824C692.462 7.15375 692.235 6.59696 692.235 6.01712C692.235 5.43728 692.462 4.88049 692.867 4.466C693.273 4.05152 693.824 3.8123 694.404 3.79956H723.689C724.268 3.8123 724.82 4.05152 725.225 4.466C725.631 4.88049 725.858 5.43728 725.858 6.01712C725.858 6.59696 725.631 7.15375 725.225 7.56824C724.82 7.98272 724.268 8.22196 723.689 8.2347Z" fill="#3F3D56"/>
<path d="M723.689 16.5506H694.404C693.824 16.5379 693.273 16.2986 692.867 15.8842C692.462 15.4697 692.235 14.9129 692.235 14.333C692.235 13.7532 692.462 13.1964 692.867 12.7819C693.273 12.3674 693.824 12.1282 694.404 12.1155H723.689C724.268 12.1282 724.82 12.3674 725.225 12.7819C725.631 13.1964 725.858 13.7532 725.858 14.333C725.858 14.9129 725.631 15.4697 725.225 15.8842C724.82 16.2986 724.268 16.5379 723.689 16.5506V16.5506Z" fill="#3F3D56"/>
<path d="M723.689 24.8665H694.404C693.824 24.8538 693.273 24.6146 692.867 24.2001C692.462 23.7856 692.235 23.2288 692.235 22.649C692.235 22.0691 692.462 21.5123 692.867 21.0978C693.273 20.6834 693.824 20.4441 694.404 20.4314H723.689C724.268 20.4441 724.82 20.6834 725.225 21.0978C725.631 21.5123 725.858 22.0691 725.858 22.649C725.858 23.2288 725.631 23.7856 725.225 24.2001C724.82 24.6146 724.268 24.8538 723.689 24.8665V24.8665Z" fill="#3F3D56"/>
<path d="M703.271 459.789H556.351C551.503 459.783 546.855 457.855 543.427 454.427C539.999 450.999 538.071 446.351 538.065 441.503V340.876C538.071 336.028 539.999 331.38 543.427 327.952C546.855 324.524 551.503 322.595 556.351 322.59H703.271C708.119 322.595 712.767 324.524 716.195 327.952C719.623 331.38 721.552 336.028 721.557 340.876V441.503C721.552 446.351 719.623 450.999 716.195 454.427C712.767 457.855 708.119 459.783 703.271 459.789V459.789ZM556.351 332.214C554.055 332.217 551.853 333.13 550.229 334.754C548.606 336.378 547.692 338.579 547.69 340.876V441.503C547.692 443.799 548.606 446.001 550.229 447.625C551.853 449.248 554.055 450.162 556.351 450.165H703.271C705.568 450.162 707.769 449.248 709.393 447.625C711.017 446.001 711.93 443.799 711.933 441.503V340.876C711.93 338.579 711.017 336.378 709.393 334.754C707.769 333.13 705.568 332.217 703.271 332.214H556.351Z" fill="#E6E6E6"/>
<path d="M703.271 455.458H556.351C552.652 455.454 549.104 453.982 546.488 451.366C543.872 448.75 542.4 445.203 542.396 441.503V340.876C542.4 337.176 543.872 333.629 546.488 331.012C549.104 328.396 552.652 326.925 556.351 326.92H703.271C706.971 326.925 710.518 328.396 713.134 331.012C715.75 333.629 717.222 337.176 717.226 340.876V441.503C717.222 445.203 715.75 448.75 713.134 451.366C710.518 453.982 706.971 455.454 703.271 455.458V455.458Z" fill="white"/>
<path d="M643.588 359.677C644.438 354.378 642.034 350.476 635.663 348.274C629.324 342.774 619.957 341.455 614.334 350.264C612.064 350.129 609.829 350.876 608.096 352.348C606.364 353.821 605.266 355.905 605.033 358.167C599.869 364.17 605.603 386.204 607.302 394.599L616.368 394.509L634.467 394.331L643.588 394.241L647.065 374.555C649.178 368.832 648.317 363.813 643.588 359.677Z" fill="#E6E6E6"/>
<path d="M676.51 442.555C678.877 441.042 681.386 439.762 683.999 438.732L658.221 408.124L641.185 403.764C641.045 403.686 640.907 403.606 640.77 403.523L612.031 404.625L611.908 404.502L593.787 413.367L568.009 443.169C570.553 444.166 572.997 445.401 575.309 446.858L572.648 456.975H591.093L596.001 449.843H596.247C596.247 449.72 596.258 449.597 596.258 449.474L599.701 444.466C599.779 448.513 599.667 452.683 599.388 456.975H656.757C656.667 453.409 656.645 449.865 656.645 446.344L663.062 455.656C663.542 454.952 664.056 454.292 664.571 453.621L665.834 456.975H680.523L677.001 443.583C676.902 443.213 676.735 442.864 676.51 442.555V442.555Z" fill="#E6E6E6"/>
<path d="M703.271 227.884H556.351C551.503 227.879 546.855 225.951 543.427 222.523C539.999 219.094 538.071 214.447 538.065 209.598V108.972C538.071 104.123 539.999 99.4756 543.427 96.0475C546.855 92.6194 551.503 90.691 556.351 90.6855H703.271C708.119 90.691 712.767 92.6194 716.195 96.0475C719.623 99.4756 721.552 104.123 721.557 108.972V209.598C721.552 214.447 719.623 219.094 716.195 222.523C712.767 225.951 708.119 227.879 703.271 227.884V227.884ZM556.351 100.31C554.055 100.312 551.853 101.226 550.229 102.85C548.606 104.473 547.692 106.675 547.69 108.972V209.598C547.692 211.895 548.606 214.097 550.229 215.72C551.853 217.344 554.055 218.258 556.351 218.26H703.271C705.568 218.258 707.769 217.344 709.393 215.72C711.017 214.097 711.93 211.895 711.933 209.598V108.972C711.93 106.675 711.017 104.473 709.393 102.85C707.769 101.226 705.568 100.312 703.271 100.31H556.351Z" fill="#E6E6E6"/>
<path d="M703.271 223.553H556.351C552.652 223.549 549.104 222.078 546.488 219.461C543.872 216.845 542.4 213.298 542.396 209.598V108.971C542.4 105.272 543.872 101.725 546.488 99.1084C549.104 96.4922 552.652 95.0206 556.351 95.0164H703.271C706.971 95.0206 710.518 96.4922 713.134 99.1084C715.75 101.725 717.222 105.272 717.226 108.971V209.598C717.222 213.298 715.75 216.845 713.134 219.461C710.518 222.078 706.971 223.549 703.271 223.553V223.553Z" fill="white"/>
<path d="M611.254 144.631C611.695 149.105 613.68 153.285 616.868 156.453C620.056 159.621 624.249 161.579 628.725 161.99C633.201 162.402 637.68 161.241 641.393 158.707C645.106 156.174 647.819 152.426 649.068 148.108C649.694 147.455 656.632 140.04 654.121 134.141C652.881 130.941 652.189 127.554 652.076 124.124C651.929 121.902 650.461 119.63 645.794 118.442C645.794 118.442 637.785 108.201 626.902 113.571C626.902 113.571 621.626 112.664 617.713 118.138C617.713 118.138 613.834 115.85 612.198 119.905C612.198 119.905 607.649 128.176 609.324 136.613C609.815 139.32 610.459 141.997 611.254 144.631V144.631Z" fill="#E6E6E6"/>
<path d="M682.022 214.614C678.731 199.795 674.612 194.854 674.612 194.854L673.043 193.719L670.602 191.962L670.43 191.834L670.402 191.862L653.957 184.009L642.745 173.607C641.576 172.525 640.044 171.918 638.451 171.906L620.344 171.77C619.359 171.762 618.385 171.984 617.499 172.416C616.613 172.849 615.84 173.481 615.239 174.262L609.507 181.708L587.358 188.618L584.706 190.084C584.706 190.084 577.296 199.967 577.296 209.022C577.296 211.075 576.829 217.147 576.114 225.307H683.097C683.002 221.721 682.643 218.147 682.022 214.614Z" fill="#E6E6E6"/>
<path d="M611.564 363.777H419.481C413.142 363.77 407.066 361.249 402.584 356.767C398.102 352.285 395.581 346.208 395.574 339.87V208.31C395.581 201.972 398.102 195.895 402.584 191.414C407.066 186.932 413.142 184.411 419.481 184.403H611.564C617.902 184.411 623.979 186.932 628.461 191.414C632.942 195.895 635.464 201.972 635.471 208.31V339.87C635.463 346.208 632.942 352.285 628.461 356.767C623.979 361.249 617.902 363.77 611.564 363.777ZM419.481 196.986C416.478 196.989 413.6 198.184 411.477 200.307C409.354 202.43 408.16 205.308 408.156 208.31V339.87C408.16 342.872 409.354 345.751 411.477 347.874C413.6 349.997 416.478 351.191 419.481 351.194H611.564C614.566 351.191 617.444 349.997 619.567 347.874C621.69 345.751 622.885 342.872 622.888 339.87V208.31C622.885 205.308 621.69 202.43 619.567 200.307C617.444 198.184 614.566 196.989 611.564 196.986H419.481Z" fill="#E6E6E6"/>
<path d="M611.561 190.064H419.481C414.643 190.071 410.005 191.996 406.584 195.417C403.163 198.838 401.238 203.476 401.231 208.314V339.874C401.238 344.711 403.164 349.348 406.585 352.768C410.006 356.187 414.644 358.11 419.481 358.114H611.561C616.399 358.11 621.036 356.187 624.458 352.768C627.879 349.348 629.804 344.711 629.811 339.874V208.314C629.805 203.476 627.88 198.838 624.459 195.417C621.038 191.996 616.4 190.071 611.561 190.064V190.064Z" fill="white"/>
<path d="M549.313 245.062C557.597 245.062 564.313 238.347 564.313 230.062C564.313 221.778 557.597 215.062 549.313 215.062C541.029 215.062 534.313 221.778 534.313 230.062C534.313 238.347 541.029 245.062 549.313 245.062Z" fill="#2F2E41"/>
<path d="M518.498 296.035C539.485 296.035 556.498 279.022 556.498 258.035C556.498 237.048 539.485 220.035 518.498 220.035C497.511 220.035 480.498 237.048 480.498 258.035C480.498 279.022 497.511 296.035 518.498 296.035Z" fill="#2F2E41"/>
<path d="M511.896 298.345C528.95 298.345 542.775 284.52 542.775 267.466C542.775 250.412 528.95 236.587 511.896 236.587C494.841 236.587 481.016 250.412 481.016 267.466C481.016 284.52 494.841 298.345 511.896 298.345Z" fill="#9E616A"/>
<path d="M500.255 229.011C506.253 226.967 512.691 226.572 518.894 227.867C525.097 229.163 530.839 232.101 535.518 236.375C540.197 240.649 543.642 246.101 545.493 252.162C547.343 258.223 547.532 264.67 546.038 270.829C529.821 271.266 513.029 270.624 497.96 261.093L496.2 250.766L491.81 259.731C486.368 260.66 480.983 261.271 476.825 256.375C477.994 250.162 480.773 244.365 484.884 239.563C488.996 234.761 494.296 231.122 500.255 229.011Z" fill="#2F2E41"/>
<path d="M571.794 193.351C582.952 190.963 595.171 195.97 601.98 205.126C608.79 214.282 610.16 227.021 606.079 237.678C601.917 248.549 592.928 256.707 584.524 264.761C576.119 272.816 567.659 281.808 565.136 293.172C563.319 301.357 564.822 309.929 569.316 317.007C573.809 324.085 580.927 329.093 589.107 330.931C578.581 332.927 567.618 334.912 557.281 332.096C546.944 329.28 537.49 320.127 538.083 309.43C538.511 301.723 543.772 295.285 548.349 289.069C555.804 278.939 562.011 267.947 566.833 256.33C569.134 250.786 571.146 244.866 570.5 238.898C569.917 234.453 567.921 230.312 564.807 227.087C561.692 223.861 557.623 221.722 553.201 220.985L550.44 217.111C551.361 205.738 560.636 195.739 571.794 193.351Z" fill="#2F2E41"/>
<path d="M582.741 357.264C580.741 336.884 569.441 337.684 569.441 337.684L539.601 331.854L526.531 310.154L493.721 308.874L482.041 329.354L458.041 332.354L458.021 332.694C455.641 332.874 447.061 334.754 445.341 352.264C445.181 353.874 444.961 355.844 444.681 358.114H582.831C582.801 357.814 582.771 357.534 582.741 357.264Z" fill="#2F2E41"/>
</g>
<defs>
<clipPath id="clip0_98_3046">
<rect width="749.467" height="551.451" fill="white" transform="translate(0 0.774414)"/>
</clipPath>
</defs>
</svg>
