<svg width="1363" height="301" viewBox="0 0 1363 301" fill="none" xmlns="http://www.w3.org/2000/svg">
<rect width="1363" height="301" rx="15" fill="#F0F0F0"/>
<path d="M0 15C0 6.71573 6.71573 0 15 0H37V301H15C6.71573 301 0 294.284 0 286V15Z" fill="url(#paint0_linear_3_60)"/>
<path d="M107.684 144H99.0093L99.063 136.749H107.684C109.474 136.749 110.987 136.319 112.222 135.46C113.475 134.601 114.424 133.32 115.069 131.62C115.731 129.901 116.062 127.788 116.062 125.282V123.59C116.062 121.71 115.875 120.063 115.499 118.648C115.14 117.216 114.603 116.026 113.887 115.077C113.171 114.11 112.276 113.385 111.202 112.901C110.145 112.418 108.928 112.176 107.549 112.176H98.8481V104.898H107.549C110.199 104.898 112.625 105.355 114.827 106.268C117.047 107.163 118.963 108.452 120.574 110.135C122.203 111.8 123.457 113.779 124.334 116.07C125.229 118.344 125.677 120.868 125.677 123.644V125.282C125.677 128.039 125.229 130.563 124.334 132.855C123.457 135.147 122.212 137.125 120.601 138.79C118.99 140.455 117.083 141.744 114.881 142.657C112.697 143.552 110.298 144 107.684 144ZM104.407 104.898V144H94.981V104.898H104.407ZM144.234 144.537C141.871 144.537 139.758 144.17 137.896 143.436C136.034 142.684 134.458 141.655 133.169 140.348C131.898 139.041 130.923 137.537 130.242 135.836C129.58 134.135 129.249 132.336 129.249 130.438V129.417C129.249 127.287 129.544 125.318 130.135 123.509C130.726 121.683 131.603 120.09 132.767 118.729C133.93 117.368 135.389 116.312 137.144 115.56C138.899 114.79 140.94 114.405 143.267 114.405C145.326 114.405 147.17 114.736 148.799 115.399C150.429 116.061 151.807 117.01 152.935 118.246C154.081 119.481 154.949 120.976 155.54 122.73C156.149 124.485 156.453 126.454 156.453 128.639V132.318H132.713V126.651H147.618V125.953C147.636 124.986 147.465 124.163 147.107 123.482C146.767 122.802 146.266 122.283 145.604 121.925C144.941 121.567 144.135 121.388 143.187 121.388C142.202 121.388 141.387 121.603 140.743 122.032C140.116 122.462 139.624 123.053 139.266 123.805C138.925 124.539 138.684 125.389 138.541 126.356C138.397 127.323 138.326 128.343 138.326 129.417V130.438C138.326 131.512 138.469 132.488 138.755 133.365C139.06 134.243 139.489 134.994 140.044 135.621C140.617 136.23 141.298 136.704 142.085 137.044C142.891 137.385 143.804 137.555 144.825 137.555C146.06 137.555 147.278 137.322 148.477 136.856C149.677 136.391 150.706 135.621 151.565 134.547L155.674 139.435C155.083 140.276 154.242 141.091 153.15 141.878C152.076 142.666 150.787 143.311 149.283 143.812C147.779 144.295 146.096 144.537 144.234 144.537ZM170.23 137.796L175.95 114.942H185.484L175.977 144H170.337L170.23 137.796ZM166.846 114.942L172.486 137.796L172.432 144H166.766L157.286 114.942H166.846ZM215.508 136.749V144H194.668V136.749H215.508ZM198.025 104.898V144H188.599V104.898H198.025ZM212.823 120.421V127.43H194.668V120.421H212.823ZM215.589 104.898V112.176H194.668V104.898H215.589ZM226.626 114.942L230.708 122.945L234.925 114.942H244.324L236.697 129.095L244.727 144H235.247L230.708 135.406L226.197 144H216.717L224.747 129.095L217.146 114.942H226.626ZM259.041 137.555C259.882 137.555 260.599 137.403 261.189 137.098C261.798 136.776 262.255 136.328 262.559 135.755C262.881 135.165 263.034 134.457 263.016 133.634H271.529C271.547 135.818 271.01 137.734 269.917 139.381C268.843 141.01 267.375 142.281 265.513 143.194C263.669 144.09 261.583 144.537 259.256 144.537C256.982 144.537 254.995 144.17 253.294 143.436C251.593 142.684 250.17 141.646 249.024 140.321C247.896 138.978 247.046 137.411 246.473 135.621C245.918 133.831 245.64 131.888 245.64 129.793V129.176C245.64 127.081 245.918 125.139 246.473 123.348C247.046 121.54 247.896 119.973 249.024 118.648C250.17 117.306 251.584 116.267 253.267 115.533C254.968 114.781 256.946 114.405 259.202 114.405C261.619 114.405 263.75 114.862 265.594 115.775C267.456 116.688 268.915 118.013 269.971 119.75C271.028 121.486 271.547 123.59 271.529 126.061H263.016C263.034 125.183 262.899 124.396 262.613 123.697C262.326 122.999 261.879 122.444 261.27 122.032C260.679 121.603 259.918 121.388 258.987 121.388C258.056 121.388 257.304 121.594 256.731 122.005C256.159 122.417 255.72 122.99 255.416 123.724C255.129 124.44 254.932 125.264 254.825 126.195C254.735 127.126 254.69 128.119 254.69 129.176V129.793C254.69 130.868 254.735 131.879 254.825 132.828C254.932 133.759 255.138 134.583 255.442 135.299C255.747 135.997 256.185 136.552 256.758 136.964C257.331 137.358 258.092 137.555 259.041 137.555ZM284.258 102.75V144H275.208V102.75H284.258ZM283.184 128.478L281.062 128.531C281.062 126.49 281.313 124.61 281.814 122.892C282.316 121.173 283.032 119.678 283.963 118.407C284.894 117.136 286.013 116.151 287.32 115.453C288.627 114.754 290.077 114.405 291.67 114.405C293.103 114.405 294.41 114.611 295.591 115.023C296.791 115.435 297.82 116.097 298.68 117.01C299.557 117.923 300.228 119.114 300.694 120.582C301.177 122.05 301.419 123.84 301.419 125.953V144H292.315V125.899C292.315 124.718 292.145 123.805 291.805 123.16C291.482 122.498 291.017 122.041 290.408 121.791C289.799 121.522 289.056 121.388 288.179 121.388C287.123 121.388 286.264 121.567 285.601 121.925C284.939 122.283 284.428 122.784 284.07 123.429C283.73 124.055 283.497 124.798 283.372 125.658C283.247 126.517 283.184 127.457 283.184 128.478ZM321.534 136.695V124.718C321.534 123.894 321.417 123.187 321.185 122.596C320.952 122.005 320.585 121.549 320.083 121.227C319.582 120.886 318.911 120.716 318.069 120.716C317.389 120.716 316.807 120.833 316.324 121.065C315.84 121.298 315.473 121.647 315.223 122.113C314.972 122.578 314.847 123.169 314.847 123.885H305.796C305.796 122.542 306.092 121.298 306.683 120.152C307.291 118.989 308.151 117.977 309.261 117.118C310.389 116.258 311.731 115.596 313.289 115.13C314.865 114.647 316.619 114.405 318.553 114.405C320.862 114.405 322.921 114.79 324.729 115.56C326.556 116.33 327.997 117.485 329.053 119.024C330.11 120.546 330.638 122.462 330.638 124.771V136.668C330.638 138.566 330.745 140.007 330.96 140.992C331.175 141.959 331.479 142.809 331.873 143.543V144H322.796C322.366 143.105 322.044 142.013 321.829 140.724C321.632 139.417 321.534 138.074 321.534 136.695ZM322.635 126.249L322.688 131.083H318.687C317.846 131.083 317.129 131.199 316.539 131.432C315.966 131.664 315.5 131.987 315.142 132.398C314.802 132.792 314.551 133.24 314.39 133.741C314.247 134.243 314.175 134.771 314.175 135.326C314.175 135.863 314.301 136.346 314.551 136.776C314.82 137.188 315.178 137.51 315.625 137.743C316.073 137.975 316.574 138.092 317.129 138.092C318.132 138.092 318.982 137.904 319.681 137.528C320.397 137.134 320.943 136.66 321.319 136.104C321.695 135.549 321.883 135.03 321.883 134.547L323.87 138.253C323.512 138.969 323.1 139.694 322.635 140.428C322.187 141.162 321.623 141.843 320.943 142.469C320.28 143.078 319.466 143.579 318.499 143.973C317.532 144.349 316.36 144.537 314.981 144.537C313.191 144.537 311.543 144.17 310.04 143.436C308.554 142.702 307.363 141.681 306.468 140.375C305.573 139.05 305.125 137.528 305.125 135.809C305.125 134.305 305.394 132.962 305.931 131.781C306.486 130.599 307.318 129.597 308.428 128.773C309.538 127.949 310.953 127.323 312.671 126.893C314.39 126.463 316.413 126.249 318.741 126.249H322.635ZM344.549 121.146V144H335.499V114.942H343.985L344.549 121.146ZM343.475 128.478L341.353 128.531C341.353 126.311 341.622 124.333 342.159 122.596C342.696 120.842 343.457 119.356 344.441 118.138C345.426 116.921 346.599 115.999 347.959 115.372C349.338 114.728 350.869 114.405 352.552 114.405C353.895 114.405 355.121 114.602 356.231 114.996C357.359 115.39 358.326 116.026 359.131 116.903C359.955 117.78 360.582 118.944 361.011 120.394C361.459 121.826 361.683 123.599 361.683 125.711V144H352.579V125.685C352.579 124.521 352.417 123.635 352.095 123.026C351.773 122.399 351.307 121.97 350.699 121.737C350.09 121.504 349.347 121.388 348.47 121.388C347.539 121.388 346.751 121.567 346.106 121.925C345.462 122.283 344.943 122.784 344.549 123.429C344.173 124.055 343.895 124.798 343.716 125.658C343.555 126.517 343.475 127.457 343.475 128.478ZM384.966 114.942H393.184V142.872C393.184 145.558 392.566 147.831 391.331 149.693C390.096 151.573 388.368 152.997 386.148 153.963C383.946 154.948 381.368 155.44 378.414 155.44C377.107 155.44 375.773 155.27 374.412 154.93C373.051 154.608 371.78 154.125 370.599 153.48C369.417 152.835 368.423 152.039 367.618 151.09L371.404 145.772C372.138 146.596 373.06 147.294 374.17 147.867C375.28 148.458 376.587 148.753 378.091 148.753C379.398 148.753 380.49 148.521 381.368 148.055C382.263 147.59 382.943 146.909 383.409 146.014C383.874 145.137 384.107 144.072 384.107 142.818V121.817L384.966 114.942ZM365.657 129.82V129.256C365.657 127.054 365.926 125.049 366.463 123.241C367.018 121.415 367.806 119.848 368.826 118.541C369.865 117.216 371.118 116.196 372.586 115.479C374.054 114.763 375.71 114.405 377.554 114.405C379.542 114.405 381.171 114.79 382.442 115.56C383.731 116.312 384.76 117.368 385.53 118.729C386.318 120.09 386.927 121.683 387.356 123.509C387.804 125.318 388.18 127.269 388.484 129.364V130.035C388.18 132.005 387.759 133.867 387.222 135.621C386.703 137.358 386.023 138.897 385.181 140.24C384.34 141.583 383.283 142.639 382.012 143.409C380.759 144.161 379.255 144.537 377.5 144.537C375.674 144.537 374.027 144.17 372.559 143.436C371.109 142.702 369.865 141.673 368.826 140.348C367.806 139.023 367.018 137.465 366.463 135.675C365.926 133.884 365.657 131.933 365.657 129.82ZM374.708 129.256V129.82C374.708 130.912 374.806 131.924 375.003 132.855C375.218 133.786 375.54 134.61 375.97 135.326C376.399 136.024 376.928 136.57 377.554 136.964C378.199 137.358 378.951 137.555 379.81 137.555C381.117 137.555 382.173 137.277 382.979 136.722C383.785 136.167 384.367 135.379 384.725 134.359C385.083 133.338 385.235 132.139 385.181 130.76V128.639C385.217 127.457 385.136 126.419 384.939 125.523C384.743 124.61 384.429 123.849 384 123.241C383.588 122.632 383.033 122.175 382.334 121.871C381.654 121.549 380.831 121.388 379.864 121.388C379.022 121.388 378.279 121.585 377.635 121.979C376.99 122.372 376.453 122.927 376.023 123.644C375.594 124.342 375.263 125.174 375.03 126.141C374.815 127.09 374.708 128.128 374.708 129.256ZM412.466 144.537C410.103 144.537 407.99 144.17 406.128 143.436C404.266 142.684 402.691 141.655 401.402 140.348C400.131 139.041 399.155 137.537 398.475 135.836C397.812 134.135 397.481 132.336 397.481 130.438V129.417C397.481 127.287 397.776 125.318 398.367 123.509C398.958 121.683 399.835 120.09 400.999 118.729C402.163 117.368 403.622 116.312 405.376 115.56C407.131 114.79 409.172 114.405 411.5 114.405C413.558 114.405 415.403 114.736 417.032 115.399C418.661 116.061 420.04 117.01 421.167 118.246C422.313 119.481 423.182 120.976 423.772 122.73C424.381 124.485 424.686 126.454 424.686 128.639V132.318H400.945V126.651H415.85V125.953C415.868 124.986 415.698 124.163 415.34 123.482C415 122.802 414.498 122.283 413.836 121.925C413.174 121.567 412.368 121.388 411.419 121.388C410.434 121.388 409.62 121.603 408.975 122.032C408.348 122.462 407.856 123.053 407.498 123.805C407.158 124.539 406.916 125.389 406.773 126.356C406.63 127.323 406.558 128.343 406.558 129.417V130.438C406.558 131.512 406.701 132.488 406.988 133.365C407.292 134.243 407.722 134.994 408.277 135.621C408.85 136.23 409.53 136.704 410.318 137.044C411.124 137.385 412.037 137.555 413.057 137.555C414.292 137.555 415.51 137.322 416.709 136.856C417.909 136.391 418.938 135.621 419.798 134.547L423.907 139.435C423.316 140.276 422.474 141.091 421.382 141.878C420.308 142.666 419.019 143.311 417.515 143.812C416.011 144.295 414.328 144.537 412.466 144.537Z" fill="black"/>
<path d="M99.3486 55.1172V80H94.2217V55.1172H99.3486ZM114.251 55.1172L104.39 67.4048L98.6992 73.5229L97.7764 68.6694L101.622 63.4058L107.962 55.1172H114.251ZM108.423 80L101.092 68.4985L104.886 65.3198L114.49 80H108.423ZM120.967 53.75V80H116.045V53.75H120.967ZM120.267 70.105H118.917C118.928 68.8175 119.099 67.6326 119.429 66.5503C119.76 65.4565 120.232 64.5109 120.848 63.7134C121.463 62.9045 122.198 62.2778 123.052 61.8335C123.918 61.3892 124.875 61.167 125.923 61.167C126.835 61.167 127.661 61.298 128.401 61.5601C129.153 61.8107 129.797 62.2209 130.333 62.7905C130.879 63.3488 131.301 64.0837 131.597 64.9951C131.893 65.9066 132.042 67.0117 132.042 68.3105V80H127.085V68.2764C127.085 67.4561 126.966 66.8123 126.727 66.3452C126.499 65.8667 126.163 65.5306 125.718 65.3369C125.285 65.1318 124.75 65.0293 124.112 65.0293C123.405 65.0293 122.802 65.1603 122.3 65.4224C121.81 65.6844 121.417 66.049 121.121 66.5161C120.825 66.9718 120.608 67.5073 120.472 68.1226C120.335 68.7378 120.267 69.3986 120.267 70.105ZM145.765 75.8301V67.5928C145.765 67.0003 145.668 66.4933 145.474 66.0718C145.28 65.6388 144.979 65.3027 144.568 65.0635C144.17 64.8242 143.651 64.7046 143.013 64.7046C142.466 64.7046 141.993 64.8014 141.595 64.9951C141.196 65.1774 140.888 65.4451 140.672 65.7983C140.455 66.1401 140.347 66.5446 140.347 67.0117H135.425C135.425 66.2256 135.608 65.4793 135.972 64.7729C136.337 64.0666 136.867 63.4456 137.562 62.9102C138.257 62.3633 139.083 61.936 140.04 61.6284C141.008 61.3208 142.09 61.167 143.287 61.167C144.722 61.167 145.998 61.4062 147.115 61.8848C148.231 62.3633 149.109 63.0811 149.747 64.0381C150.396 64.9951 150.721 66.1914 150.721 67.627V75.5396C150.721 76.5535 150.783 77.3853 150.909 78.0347C151.034 78.6727 151.216 79.231 151.456 79.7095V80H146.482C146.243 79.4987 146.061 78.8721 145.936 78.1201C145.822 77.3568 145.765 76.5934 145.765 75.8301ZM146.414 68.7378L146.448 71.5234H143.697C143.047 71.5234 142.483 71.5975 142.005 71.7456C141.526 71.8937 141.133 72.1045 140.826 72.3779C140.518 72.64 140.29 72.9476 140.142 73.3008C140.005 73.654 139.937 74.0413 139.937 74.4629C139.937 74.8844 140.034 75.2661 140.228 75.6079C140.421 75.9383 140.7 76.2004 141.065 76.394C141.43 76.5763 141.857 76.6675 142.347 76.6675C143.087 76.6675 143.731 76.5194 144.278 76.2231C144.825 75.9269 145.246 75.5623 145.542 75.1294C145.85 74.6965 146.01 74.2863 146.021 73.8989L147.32 75.9839C147.138 76.451 146.887 76.9352 146.568 77.4365C146.26 77.9378 145.867 78.4106 145.389 78.855C144.91 79.2879 144.335 79.6468 143.663 79.9316C142.99 80.2051 142.193 80.3418 141.27 80.3418C140.097 80.3418 139.031 80.1082 138.074 79.6411C137.129 79.1626 136.377 78.5075 135.818 77.6758C135.271 76.8327 134.998 75.8757 134.998 74.8047C134.998 73.8363 135.18 72.9761 135.545 72.2241C135.91 71.4722 136.445 70.8398 137.151 70.3271C137.869 69.8031 138.764 69.41 139.834 69.1479C140.905 68.8745 142.147 68.7378 143.56 68.7378H146.414ZM159.71 53.75V80H154.771V53.75H159.71ZM172.288 80.3418C170.853 80.3418 169.565 80.1139 168.426 79.6582C167.286 79.1911 166.318 78.5474 165.521 77.7271C164.734 76.9067 164.131 75.9554 163.709 74.873C163.287 73.7793 163.077 72.6172 163.077 71.3867V70.7031C163.077 69.3018 163.276 68.02 163.675 66.8579C164.074 65.6958 164.643 64.6875 165.384 63.833C166.136 62.9785 167.047 62.3234 168.118 61.8677C169.189 61.4006 170.397 61.167 171.741 61.167C173.051 61.167 174.214 61.3835 175.228 61.8164C176.242 62.2493 177.09 62.8646 177.774 63.6621C178.469 64.4596 178.993 65.4167 179.346 66.5332C179.699 67.6383 179.876 68.8688 179.876 70.2246V72.2754H165.179V68.9941H175.04V68.6182C175.04 67.9346 174.914 67.325 174.664 66.7896C174.424 66.2427 174.06 65.8097 173.57 65.4907C173.08 65.1717 172.453 65.0122 171.69 65.0122C171.041 65.0122 170.482 65.1546 170.015 65.4395C169.548 65.7243 169.166 66.123 168.87 66.6357C168.585 67.1484 168.369 67.7523 168.221 68.4473C168.084 69.1309 168.016 69.8828 168.016 70.7031V71.3867C168.016 72.1273 168.118 72.8109 168.323 73.4375C168.54 74.0641 168.842 74.6053 169.229 75.061C169.628 75.5168 170.106 75.87 170.665 76.1206C171.234 76.3713 171.878 76.4966 172.596 76.4966C173.484 76.4966 174.31 76.3257 175.074 75.9839C175.848 75.6307 176.515 75.1009 177.073 74.3945L179.466 76.9922C179.078 77.5505 178.549 78.0859 177.876 78.5986C177.216 79.1113 176.418 79.5329 175.484 79.8633C174.55 80.1823 173.484 80.3418 172.288 80.3418ZM193.599 75.9668V53.75H198.555V80H194.095L193.599 75.9668ZM181.91 70.9766V70.6177C181.91 69.2049 182.069 67.9232 182.388 66.7725C182.707 65.6104 183.174 64.6134 183.79 63.7817C184.405 62.95 185.162 62.3063 186.062 61.8506C186.963 61.3949 187.988 61.167 189.139 61.167C190.221 61.167 191.167 61.3949 191.976 61.8506C192.796 62.3063 193.491 62.9557 194.061 63.7988C194.642 64.6305 195.109 65.616 195.462 66.7554C195.815 67.8833 196.071 69.1195 196.231 70.4639V71.25C196.071 72.5374 195.815 73.7337 195.462 74.8389C195.109 75.944 194.642 76.9124 194.061 77.7441C193.491 78.5645 192.796 79.2025 191.976 79.6582C191.155 80.1139 190.198 80.3418 189.104 80.3418C187.954 80.3418 186.928 80.1082 186.028 79.6411C185.14 79.174 184.388 78.5189 183.772 77.6758C183.169 76.8327 182.707 75.8415 182.388 74.7021C182.069 73.5628 181.91 72.321 181.91 70.9766ZM186.832 70.6177V70.9766C186.832 71.7399 186.889 72.452 187.002 73.1128C187.128 73.7736 187.327 74.3604 187.601 74.873C187.885 75.3743 188.25 75.7674 188.694 76.0522C189.15 76.3257 189.703 76.4624 190.352 76.4624C191.195 76.4624 191.89 76.2744 192.437 75.8984C192.984 75.5111 193.4 74.9813 193.685 74.3091C193.981 73.6369 194.152 72.8621 194.197 71.9849V69.7461C194.163 69.0283 194.061 68.3846 193.89 67.8149C193.73 67.2339 193.491 66.7383 193.172 66.3281C192.864 65.918 192.477 65.599 192.01 65.3711C191.554 65.1432 191.013 65.0293 190.386 65.0293C189.748 65.0293 189.201 65.1774 188.746 65.4736C188.29 65.7585 187.92 66.1515 187.635 66.6528C187.361 67.1541 187.156 67.7466 187.02 68.4302C186.894 69.1024 186.832 69.8315 186.832 70.6177ZM216.551 55.1172V80H211.424V55.1172H216.551ZM226.463 65.7471V69.7461H215.149V65.7471H226.463ZM227.659 55.1172V59.1333H215.149V55.1172H227.659ZM239.725 75.8301V67.5928C239.725 67.0003 239.628 66.4933 239.434 66.0718C239.24 65.6388 238.938 65.3027 238.528 65.0635C238.13 64.8242 237.611 64.7046 236.973 64.7046C236.426 64.7046 235.953 64.8014 235.555 64.9951C235.156 65.1774 234.848 65.4451 234.632 65.7983C234.415 66.1401 234.307 66.5446 234.307 67.0117H229.385C229.385 66.2256 229.568 65.4793 229.932 64.7729C230.297 64.0666 230.826 63.4456 231.521 62.9102C232.216 62.3633 233.042 61.936 234 61.6284C234.968 61.3208 236.05 61.167 237.247 61.167C238.682 61.167 239.958 61.4062 241.075 61.8848C242.191 62.3633 243.069 63.0811 243.707 64.0381C244.356 64.9951 244.681 66.1914 244.681 67.627V75.5396C244.681 76.5535 244.743 77.3853 244.869 78.0347C244.994 78.6727 245.176 79.231 245.416 79.7095V80H240.442C240.203 79.4987 240.021 78.8721 239.896 78.1201C239.782 77.3568 239.725 76.5934 239.725 75.8301ZM240.374 68.7378L240.408 71.5234H237.657C237.007 71.5234 236.443 71.5975 235.965 71.7456C235.486 71.8937 235.093 72.1045 234.786 72.3779C234.478 72.64 234.25 72.9476 234.102 73.3008C233.965 73.654 233.897 74.0413 233.897 74.4629C233.897 74.8844 233.994 75.2661 234.188 75.6079C234.381 75.9383 234.66 76.2004 235.025 76.394C235.389 76.5763 235.817 76.6675 236.307 76.6675C237.047 76.6675 237.691 76.5194 238.238 76.2231C238.785 75.9269 239.206 75.5623 239.502 75.1294C239.81 74.6965 239.97 74.2863 239.981 73.8989L241.28 75.9839C241.097 76.451 240.847 76.9352 240.528 77.4365C240.22 77.9378 239.827 78.4106 239.349 78.855C238.87 79.2879 238.295 79.6468 237.623 79.9316C236.95 80.2051 236.153 80.3418 235.23 80.3418C234.056 80.3418 232.991 80.1082 232.034 79.6411C231.089 79.1626 230.337 78.5075 229.778 77.6758C229.231 76.8327 228.958 75.8757 228.958 74.8047C228.958 73.8363 229.14 72.9761 229.505 72.2241C229.869 71.4722 230.405 70.8398 231.111 70.3271C231.829 69.8031 232.723 69.41 233.794 69.1479C234.865 68.8745 236.107 68.7378 237.52 68.7378H240.374ZM247.688 70.9424V70.5835C247.688 69.2277 247.882 67.9801 248.27 66.8408C248.657 65.6901 249.221 64.6932 249.961 63.8501C250.702 63.007 251.613 62.3519 252.696 61.8848C253.778 61.4062 255.02 61.167 256.421 61.167C257.823 61.167 259.07 61.4062 260.164 61.8848C261.258 62.3519 262.175 63.007 262.916 63.8501C263.667 64.6932 264.237 65.6901 264.625 66.8408C265.012 67.9801 265.206 69.2277 265.206 70.5835V70.9424C265.206 72.2868 265.012 73.5343 264.625 74.6851C264.237 75.8244 263.667 76.8213 262.916 77.6758C262.175 78.5189 261.264 79.174 260.181 79.6411C259.099 80.1082 257.857 80.3418 256.456 80.3418C255.054 80.3418 253.807 80.1082 252.713 79.6411C251.631 79.174 250.713 78.5189 249.961 77.6758C249.221 76.8213 248.657 75.8244 248.27 74.6851C247.882 73.5343 247.688 72.2868 247.688 70.9424ZM252.61 70.5835V70.9424C252.61 71.7171 252.679 72.4406 252.815 73.1128C252.952 73.785 253.169 74.3774 253.465 74.8901C253.772 75.3914 254.171 75.7845 254.661 76.0693C255.151 76.3542 255.749 76.4966 256.456 76.4966C257.139 76.4966 257.726 76.3542 258.216 76.0693C258.706 75.7845 259.099 75.3914 259.395 74.8901C259.691 74.3774 259.908 73.785 260.044 73.1128C260.193 72.4406 260.267 71.7171 260.267 70.9424V70.5835C260.267 69.8315 260.193 69.1252 260.044 68.4644C259.908 67.7922 259.686 67.1997 259.378 66.687C259.082 66.1629 258.689 65.7528 258.199 65.4565C257.709 65.1603 257.116 65.0122 256.421 65.0122C255.726 65.0122 255.134 65.1603 254.644 65.4565C254.166 65.7528 253.772 66.1629 253.465 66.687C253.169 67.1997 252.952 67.7922 252.815 68.4644C252.679 69.1252 252.61 69.8315 252.61 70.5835ZM279.168 75.5737V61.5088H284.09V80H279.458L279.168 75.5737ZM279.715 71.7798L281.167 71.7456C281.167 72.9761 281.025 74.1211 280.74 75.1807C280.455 76.2288 280.028 77.1403 279.458 77.915C278.889 78.6784 278.171 79.2765 277.305 79.7095C276.439 80.131 275.42 80.3418 274.246 80.3418C273.346 80.3418 272.514 80.2165 271.751 79.9658C270.999 79.7038 270.35 79.2993 269.803 78.7524C269.267 78.1942 268.846 77.4821 268.538 76.6162C268.242 75.7389 268.094 74.6851 268.094 73.4546V61.5088H273.016V73.4888C273.016 74.0356 273.078 74.4971 273.204 74.873C273.34 75.249 273.528 75.5566 273.768 75.7959C274.007 76.0352 274.286 76.2061 274.605 76.3086C274.935 76.4111 275.3 76.4624 275.699 76.4624C276.713 76.4624 277.51 76.2573 278.091 75.8472C278.684 75.437 279.1 74.8787 279.339 74.1724C279.59 73.4546 279.715 72.6571 279.715 71.7798ZM292.771 65.542V80H287.85V61.5088H292.481L292.771 65.542ZM298.343 61.3892L298.257 65.9521C298.018 65.918 297.728 65.8895 297.386 65.8667C297.055 65.8325 296.753 65.8154 296.48 65.8154C295.785 65.8154 295.181 65.9066 294.668 66.0889C294.167 66.2598 293.746 66.5161 293.404 66.8579C293.073 67.1997 292.823 67.6156 292.652 68.1055C292.492 68.5954 292.401 69.1536 292.378 69.7803L291.387 69.4727C291.387 68.2764 291.507 67.1769 291.746 66.1743C291.985 65.1603 292.333 64.2773 292.789 63.5254C293.256 62.7734 293.825 62.1924 294.498 61.7822C295.17 61.3721 295.939 61.167 296.805 61.167C297.078 61.167 297.357 61.1898 297.642 61.2354C297.927 61.2695 298.16 61.3208 298.343 61.3892Z" fill="#888888"/>
<rect x="92" y="181" width="1179" height="80" rx="13.3333" fill="#CCCCCC"/>
<rect x="107" y="196.333" width="208" height="49.3333" rx="4.66667" fill="#888888" stroke="#888888" stroke-width="4"/>
<path d="M171.823 213.167H177.792C178.958 213.167 179.972 213.34 180.833 213.687C181.694 214.035 182.358 214.549 182.823 215.229C183.295 215.91 183.531 216.75 183.531 217.75C183.531 218.618 183.396 219.344 183.125 219.927C182.854 220.51 182.476 220.993 181.99 221.375C181.51 221.75 180.951 222.059 180.312 222.302L179.115 222.979H174.104L174.083 220.156H177.792C178.257 220.156 178.642 220.073 178.948 219.906C179.253 219.74 179.483 219.503 179.635 219.198C179.795 218.885 179.875 218.514 179.875 218.083C179.875 217.646 179.795 217.271 179.635 216.958C179.476 216.646 179.24 216.406 178.927 216.24C178.622 216.073 178.243 215.99 177.792 215.99H175.479V228.333H171.823V213.167ZM180.125 228.333L176.771 221.625L180.646 221.604L184.042 228.177V228.333H180.125ZM191.031 228.542C190.115 228.542 189.295 228.399 188.573 228.115C187.851 227.823 187.24 227.424 186.74 226.917C186.247 226.41 185.868 225.826 185.604 225.167C185.347 224.507 185.219 223.809 185.219 223.073V222.677C185.219 221.851 185.333 221.087 185.562 220.385C185.792 219.677 186.132 219.059 186.583 218.531C187.035 218.003 187.601 217.594 188.281 217.302C188.962 217.003 189.753 216.854 190.656 216.854C191.455 216.854 192.17 216.983 192.802 217.24C193.434 217.497 193.969 217.865 194.406 218.344C194.851 218.823 195.187 219.403 195.417 220.083C195.653 220.764 195.771 221.528 195.771 222.375V223.802H186.562V221.604H192.344V221.333C192.351 220.958 192.285 220.639 192.146 220.375C192.014 220.111 191.819 219.91 191.562 219.771C191.306 219.632 190.993 219.562 190.625 219.562C190.243 219.562 189.927 219.646 189.677 219.812C189.434 219.979 189.243 220.208 189.104 220.5C188.972 220.785 188.878 221.115 188.823 221.49C188.767 221.865 188.74 222.26 188.74 222.677V223.073C188.74 223.49 188.795 223.868 188.906 224.208C189.024 224.549 189.191 224.84 189.406 225.083C189.628 225.319 189.892 225.503 190.198 225.635C190.51 225.767 190.865 225.833 191.26 225.833C191.74 225.833 192.212 225.743 192.677 225.562C193.142 225.382 193.542 225.083 193.875 224.667L195.469 226.562C195.24 226.889 194.913 227.205 194.49 227.51C194.073 227.816 193.573 228.066 192.99 228.26C192.406 228.448 191.753 228.542 191.031 228.542ZM203.052 225.5V220.854C203.052 220.535 203.007 220.26 202.917 220.031C202.826 219.802 202.684 219.625 202.49 219.5C202.295 219.368 202.035 219.302 201.708 219.302C201.444 219.302 201.219 219.347 201.031 219.437C200.844 219.528 200.701 219.663 200.604 219.844C200.507 220.024 200.458 220.253 200.458 220.531H196.948C196.948 220.01 197.062 219.528 197.292 219.083C197.528 218.632 197.861 218.24 198.292 217.906C198.729 217.573 199.25 217.316 199.854 217.135C200.465 216.948 201.146 216.854 201.896 216.854C202.792 216.854 203.59 217.003 204.292 217.302C205 217.601 205.559 218.049 205.969 218.646C206.378 219.236 206.583 219.979 206.583 220.875V225.49C206.583 226.226 206.625 226.785 206.708 227.167C206.792 227.542 206.91 227.872 207.062 228.156V228.333H203.542C203.375 227.986 203.25 227.562 203.167 227.062C203.09 226.556 203.052 226.035 203.052 225.5ZM203.479 221.448L203.5 223.323H201.948C201.622 223.323 201.344 223.368 201.115 223.458C200.892 223.549 200.712 223.674 200.573 223.833C200.441 223.986 200.344 224.16 200.281 224.354C200.226 224.549 200.198 224.753 200.198 224.969C200.198 225.177 200.247 225.365 200.344 225.531C200.448 225.691 200.587 225.816 200.76 225.906C200.934 225.997 201.128 226.042 201.344 226.042C201.733 226.042 202.062 225.969 202.333 225.823C202.611 225.67 202.823 225.486 202.969 225.271C203.115 225.056 203.187 224.854 203.187 224.667L203.958 226.104C203.819 226.382 203.66 226.663 203.479 226.948C203.306 227.233 203.087 227.497 202.823 227.74C202.566 227.976 202.25 228.17 201.875 228.323C201.5 228.469 201.045 228.542 200.51 228.542C199.816 228.542 199.177 228.399 198.594 228.115C198.017 227.83 197.556 227.434 197.208 226.927C196.861 226.413 196.687 225.823 196.687 225.156C196.687 224.573 196.792 224.052 197 223.594C197.215 223.135 197.538 222.747 197.969 222.427C198.399 222.108 198.948 221.865 199.615 221.698C200.281 221.531 201.066 221.448 201.969 221.448H203.479ZM213.292 225.833C213.618 225.833 213.896 225.774 214.125 225.656C214.361 225.531 214.538 225.358 214.656 225.135C214.781 224.906 214.84 224.632 214.833 224.312H218.135C218.142 225.16 217.934 225.903 217.51 226.542C217.094 227.174 216.524 227.667 215.802 228.021C215.087 228.368 214.278 228.542 213.375 228.542C212.493 228.542 211.722 228.399 211.062 228.115C210.403 227.823 209.851 227.42 209.406 226.906C208.969 226.385 208.639 225.778 208.417 225.083C208.201 224.389 208.094 223.635 208.094 222.823V222.583C208.094 221.771 208.201 221.017 208.417 220.323C208.639 219.622 208.969 219.014 209.406 218.5C209.851 217.979 210.399 217.576 211.052 217.292C211.712 217 212.479 216.854 213.354 216.854C214.292 216.854 215.118 217.031 215.833 217.385C216.556 217.74 217.122 218.253 217.531 218.927C217.941 219.601 218.142 220.417 218.135 221.375H214.833C214.84 221.035 214.788 220.729 214.677 220.458C214.566 220.187 214.392 219.972 214.156 219.812C213.927 219.646 213.632 219.562 213.271 219.562C212.91 219.562 212.618 219.642 212.396 219.802C212.174 219.962 212.003 220.184 211.885 220.469C211.774 220.747 211.698 221.066 211.656 221.427C211.622 221.788 211.604 222.174 211.604 222.583V222.823C211.604 223.24 211.622 223.632 211.656 224C211.698 224.361 211.778 224.681 211.896 224.958C212.014 225.229 212.184 225.444 212.406 225.604C212.628 225.757 212.924 225.833 213.292 225.833ZM225.573 217.062V219.5H218.781V217.062H225.573ZM220.208 214.26H223.719V224.656C223.719 224.955 223.753 225.187 223.823 225.354C223.892 225.514 224.01 225.628 224.177 225.698C224.351 225.76 224.58 225.792 224.865 225.792C225.066 225.792 225.233 225.788 225.365 225.781C225.497 225.767 225.622 225.75 225.74 225.729V228.24C225.441 228.337 225.128 228.41 224.802 228.458C224.476 228.514 224.128 228.542 223.76 228.542C223.01 228.542 222.368 228.424 221.833 228.187C221.306 227.951 220.903 227.58 220.625 227.073C220.347 226.566 220.208 225.906 220.208 225.094V214.26ZM233.167 223.573V213.167H236.812V223.573C236.812 224.587 236.58 225.465 236.115 226.208C235.656 226.951 235.031 227.528 234.24 227.937C233.455 228.34 232.573 228.542 231.594 228.542C230.58 228.542 229.677 228.372 228.885 228.031C228.101 227.691 227.483 227.167 227.031 226.458C226.587 225.75 226.365 224.847 226.365 223.75H230.031C230.031 224.264 230.09 224.667 230.208 224.958C230.326 225.243 230.5 225.444 230.729 225.562C230.965 225.674 231.253 225.729 231.594 225.729C231.927 225.729 232.208 225.646 232.437 225.479C232.674 225.306 232.854 225.059 232.979 224.74C233.104 224.413 233.167 224.024 233.167 223.573ZM246.948 224.302C246.948 224.066 246.913 223.854 246.844 223.667C246.774 223.472 246.646 223.292 246.458 223.125C246.271 222.958 246 222.792 245.646 222.625C245.299 222.451 244.84 222.271 244.271 222.083C243.604 221.861 242.962 221.611 242.344 221.333C241.726 221.049 241.174 220.719 240.687 220.344C240.201 219.962 239.816 219.517 239.531 219.01C239.247 218.497 239.104 217.899 239.104 217.219C239.104 216.566 239.25 215.979 239.542 215.458C239.833 214.931 240.24 214.483 240.76 214.115C241.288 213.74 241.906 213.455 242.615 213.26C243.323 213.059 244.097 212.958 244.937 212.958C246.049 212.958 247.028 213.153 247.875 213.542C248.729 213.924 249.396 214.469 249.875 215.177C250.361 215.878 250.604 216.708 250.604 217.667H246.969C246.969 217.285 246.889 216.948 246.729 216.656C246.576 216.365 246.344 216.135 246.031 215.969C245.719 215.802 245.326 215.719 244.854 215.719C244.396 215.719 244.01 215.788 243.698 215.927C243.385 216.066 243.149 216.253 242.99 216.49C242.83 216.719 242.75 216.972 242.75 217.25C242.75 217.479 242.812 217.687 242.937 217.875C243.069 218.056 243.253 218.226 243.49 218.385C243.733 218.545 244.024 218.698 244.365 218.844C244.712 218.99 245.101 219.132 245.531 219.271C246.337 219.528 247.052 219.816 247.677 220.135C248.309 220.448 248.84 220.806 249.271 221.208C249.708 221.604 250.038 222.056 250.26 222.562C250.49 223.069 250.604 223.642 250.604 224.281C250.604 224.962 250.472 225.566 250.208 226.094C249.944 226.622 249.566 227.069 249.073 227.437C248.58 227.799 247.99 228.073 247.302 228.26C246.615 228.448 245.847 228.542 245 228.542C244.222 228.542 243.455 228.444 242.698 228.25C241.948 228.049 241.267 227.743 240.656 227.333C240.045 226.917 239.556 226.385 239.187 225.74C238.826 225.087 238.646 224.312 238.646 223.417H242.312C242.312 223.861 242.372 224.236 242.49 224.542C242.608 224.847 242.781 225.094 243.01 225.281C243.24 225.462 243.521 225.594 243.854 225.677C244.187 225.753 244.569 225.792 245 225.792C245.465 225.792 245.84 225.726 246.125 225.594C246.41 225.455 246.618 225.274 246.75 225.052C246.882 224.823 246.948 224.573 246.948 224.302Z" fill="white"/>
<rect x="339" y="196.333" width="208" height="49.3333" rx="4.66667" fill="#888888" stroke="#888888" stroke-width="4"/>
<path d="M418.844 213.167V228.333H415.198L409.833 218.896V228.333H406.177V213.167H409.833L415.198 222.604V213.167H418.844ZM420.552 222.812V222.594C420.552 221.767 420.67 221.007 420.906 220.312C421.142 219.611 421.49 219.003 421.948 218.49C422.406 217.976 422.972 217.576 423.646 217.292C424.319 217 425.097 216.854 425.979 216.854C426.868 216.854 427.649 217 428.323 217.292C429.003 217.576 429.573 217.976 430.031 218.49C430.49 219.003 430.837 219.611 431.073 220.312C431.309 221.007 431.427 221.767 431.427 222.594V222.812C431.427 223.632 431.309 224.392 431.073 225.094C430.837 225.788 430.49 226.396 430.031 226.917C429.573 227.431 429.007 227.83 428.333 228.115C427.66 228.399 426.882 228.542 426 228.542C425.118 228.542 424.337 228.399 423.656 228.115C422.976 227.83 422.406 227.431 421.948 226.917C421.49 226.396 421.142 225.788 420.906 225.094C420.67 224.392 420.552 223.632 420.552 222.812ZM424.062 222.594V222.812C424.062 223.236 424.094 223.632 424.156 224C424.219 224.368 424.323 224.691 424.469 224.969C424.615 225.24 424.812 225.451 425.062 225.604C425.312 225.757 425.625 225.833 426 225.833C426.368 225.833 426.674 225.757 426.917 225.604C427.167 225.451 427.365 225.24 427.51 224.969C427.656 224.691 427.76 224.368 427.823 224C427.885 223.632 427.917 223.236 427.917 222.812V222.594C427.917 222.184 427.885 221.799 427.823 221.437C427.76 221.069 427.656 220.747 427.51 220.469C427.365 220.184 427.167 219.962 426.917 219.802C426.667 219.642 426.354 219.562 425.979 219.562C425.611 219.562 425.302 219.642 425.052 219.802C424.809 219.962 424.615 220.184 424.469 220.469C424.323 220.747 424.219 221.069 424.156 221.437C424.094 221.799 424.062 222.184 424.062 222.594ZM439.469 225.75V212.333H443V228.333H439.833L439.469 225.75ZM432.552 222.833V222.615C432.552 221.76 432.646 220.983 432.833 220.281C433.021 219.573 433.299 218.965 433.667 218.458C434.035 217.944 434.493 217.549 435.042 217.271C435.59 216.993 436.222 216.854 436.938 216.854C437.576 216.854 438.135 217.003 438.615 217.302C439.094 217.594 439.503 218.003 439.844 218.531C440.184 219.059 440.462 219.677 440.677 220.385C440.892 221.087 441.056 221.844 441.167 222.656V222.917C441.056 223.681 440.892 224.403 440.677 225.083C440.462 225.757 440.184 226.354 439.844 226.875C439.503 227.396 439.09 227.806 438.604 228.104C438.125 228.396 437.563 228.542 436.917 228.542C436.201 228.542 435.569 228.399 435.021 228.115C434.479 227.83 434.024 227.431 433.656 226.917C433.295 226.403 433.021 225.799 432.833 225.104C432.646 224.41 432.552 223.653 432.552 222.833ZM436.063 222.615V222.833C436.063 223.257 436.09 223.649 436.146 224.01C436.201 224.372 436.295 224.691 436.427 224.969C436.566 225.24 436.747 225.451 436.969 225.604C437.198 225.757 437.479 225.833 437.813 225.833C438.264 225.833 438.635 225.726 438.927 225.51C439.226 225.295 439.444 224.99 439.583 224.594C439.729 224.198 439.792 223.733 439.771 223.198V222.375C439.785 221.917 439.753 221.514 439.677 221.167C439.601 220.812 439.479 220.517 439.313 220.281C439.153 220.045 438.948 219.868 438.698 219.75C438.455 219.625 438.167 219.562 437.833 219.562C437.507 219.562 437.229 219.639 437 219.792C436.778 219.944 436.597 220.16 436.458 220.437C436.319 220.708 436.219 221.031 436.156 221.406C436.094 221.774 436.063 222.177 436.063 222.615ZM450.448 228.542C449.531 228.542 448.712 228.399 447.99 228.115C447.267 227.823 446.656 227.424 446.156 226.917C445.663 226.41 445.285 225.826 445.021 225.167C444.764 224.507 444.635 223.809 444.635 223.073V222.677C444.635 221.851 444.75 221.087 444.979 220.385C445.208 219.677 445.549 219.059 446 218.531C446.451 218.003 447.017 217.594 447.698 217.302C448.378 217.003 449.17 216.854 450.073 216.854C450.872 216.854 451.587 216.983 452.219 217.24C452.851 217.497 453.385 217.865 453.823 218.344C454.267 218.823 454.604 219.403 454.833 220.083C455.069 220.764 455.188 221.528 455.188 222.375V223.802H445.979V221.604H451.76V221.333C451.767 220.958 451.701 220.639 451.563 220.375C451.431 220.111 451.236 219.91 450.979 219.771C450.722 219.632 450.41 219.562 450.042 219.562C449.66 219.562 449.344 219.646 449.094 219.812C448.851 219.979 448.66 220.208 448.521 220.5C448.389 220.785 448.295 221.115 448.24 221.49C448.184 221.865 448.156 222.26 448.156 222.677V223.073C448.156 223.49 448.212 223.868 448.323 224.208C448.441 224.549 448.608 224.84 448.823 225.083C449.045 225.319 449.309 225.503 449.615 225.635C449.927 225.767 450.281 225.833 450.677 225.833C451.156 225.833 451.628 225.743 452.094 225.562C452.559 225.382 452.958 225.083 453.292 224.667L454.885 226.562C454.656 226.889 454.33 227.205 453.906 227.51C453.49 227.816 452.99 228.066 452.406 228.26C451.823 228.448 451.17 228.542 450.448 228.542ZM462.813 223.573V213.167H466.458V223.573C466.458 224.587 466.226 225.465 465.76 226.208C465.302 226.951 464.677 227.528 463.885 227.937C463.101 228.34 462.219 228.542 461.24 228.542C460.226 228.542 459.323 228.372 458.531 228.031C457.747 227.691 457.128 227.167 456.677 226.458C456.233 225.75 456.01 224.847 456.01 223.75H459.677C459.677 224.264 459.736 224.667 459.854 224.958C459.972 225.243 460.146 225.444 460.375 225.562C460.611 225.674 460.899 225.729 461.24 225.729C461.573 225.729 461.854 225.646 462.083 225.479C462.319 225.306 462.5 225.059 462.625 224.74C462.75 224.413 462.813 224.024 462.813 223.573ZM476.594 224.302C476.594 224.066 476.559 223.854 476.49 223.667C476.42 223.472 476.292 223.292 476.104 223.125C475.917 222.958 475.646 222.792 475.292 222.625C474.944 222.451 474.486 222.271 473.917 222.083C473.25 221.861 472.608 221.611 471.99 221.333C471.372 221.049 470.819 220.719 470.333 220.344C469.847 219.962 469.462 219.517 469.177 219.01C468.892 218.497 468.75 217.899 468.75 217.219C468.75 216.566 468.896 215.979 469.188 215.458C469.479 214.931 469.885 214.483 470.406 214.115C470.934 213.74 471.552 213.455 472.26 213.26C472.969 213.059 473.743 212.958 474.583 212.958C475.694 212.958 476.674 213.153 477.521 213.542C478.375 213.924 479.042 214.469 479.521 215.177C480.007 215.878 480.25 216.708 480.25 217.667H476.615C476.615 217.285 476.535 216.948 476.375 216.656C476.222 216.365 475.99 216.135 475.677 215.969C475.365 215.802 474.972 215.719 474.5 215.719C474.042 215.719 473.656 215.788 473.344 215.927C473.031 216.066 472.795 216.253 472.635 216.49C472.476 216.719 472.396 216.972 472.396 217.25C472.396 217.479 472.458 217.687 472.583 217.875C472.715 218.056 472.899 218.226 473.135 218.385C473.378 218.545 473.67 218.698 474.01 218.844C474.358 218.99 474.747 219.132 475.177 219.271C475.983 219.528 476.698 219.816 477.323 220.135C477.955 220.448 478.486 220.806 478.917 221.208C479.354 221.604 479.684 222.056 479.906 222.562C480.135 223.069 480.25 223.642 480.25 224.281C480.25 224.962 480.118 225.566 479.854 226.094C479.59 226.622 479.212 227.069 478.719 227.437C478.226 227.799 477.635 228.073 476.948 228.26C476.26 228.448 475.493 228.542 474.646 228.542C473.868 228.542 473.101 228.444 472.344 228.25C471.594 228.049 470.913 227.743 470.302 227.333C469.691 226.917 469.201 226.385 468.833 225.74C468.472 225.087 468.292 224.312 468.292 223.417H471.958C471.958 223.861 472.017 224.236 472.135 224.542C472.253 224.847 472.427 225.094 472.656 225.281C472.885 225.462 473.167 225.594 473.5 225.677C473.833 225.753 474.215 225.792 474.646 225.792C475.111 225.792 475.486 225.726 475.771 225.594C476.056 225.455 476.264 225.274 476.396 225.052C476.528 224.823 476.594 224.573 476.594 224.302Z" fill="white"/>
<rect x="571" y="196.333" width="208" height="49.3333" rx="4.66667" fill="#888888" stroke="#888888" stroke-width="4"/>
<path d="M630.656 213.167H633.635L637.021 223.719L640.406 213.167H643.385L638.229 228.333H635.813L630.656 213.167ZM628.844 213.167H631.927L632.5 224.792V228.333H628.844V213.167ZM642.115 213.167H645.208V228.333H641.542V224.792L642.115 213.167ZM646.948 222.812V222.594C646.948 221.767 647.066 221.007 647.302 220.312C647.538 219.611 647.885 219.003 648.344 218.49C648.802 217.976 649.368 217.576 650.042 217.292C650.715 217 651.493 216.854 652.375 216.854C653.264 216.854 654.045 217 654.719 217.292C655.399 217.576 655.969 217.976 656.427 218.49C656.885 219.003 657.233 219.611 657.469 220.312C657.705 221.007 657.823 221.767 657.823 222.594V222.812C657.823 223.632 657.705 224.392 657.469 225.094C657.233 225.788 656.885 226.396 656.427 226.917C655.969 227.431 655.403 227.83 654.729 228.115C654.056 228.399 653.278 228.542 652.396 228.542C651.514 228.542 650.733 228.399 650.052 228.115C649.372 227.83 648.802 227.431 648.344 226.917C647.885 226.396 647.538 225.788 647.302 225.094C647.066 224.392 646.948 223.632 646.948 222.812ZM650.458 222.594V222.812C650.458 223.236 650.49 223.632 650.552 224C650.615 224.368 650.719 224.691 650.865 224.969C651.01 225.24 651.208 225.451 651.458 225.604C651.708 225.757 652.021 225.833 652.396 225.833C652.764 225.833 653.069 225.757 653.313 225.604C653.563 225.451 653.76 225.24 653.906 224.969C654.052 224.691 654.156 224.368 654.219 224C654.281 223.632 654.313 223.236 654.313 222.812V222.594C654.313 222.184 654.281 221.799 654.219 221.437C654.156 221.069 654.052 220.747 653.906 220.469C653.76 220.184 653.563 219.962 653.313 219.802C653.063 219.642 652.75 219.562 652.375 219.562C652.007 219.562 651.698 219.642 651.448 219.802C651.205 219.962 651.01 220.184 650.865 220.469C650.719 220.747 650.615 221.069 650.552 221.437C650.49 221.799 650.458 222.184 650.458 222.594ZM662.833 219.469V228.333H659.323V217.062H662.615L662.833 219.469ZM662.417 222.312L661.594 222.333C661.594 221.472 661.698 220.705 661.906 220.031C662.115 219.351 662.41 218.774 662.792 218.302C663.174 217.83 663.628 217.472 664.156 217.229C664.691 216.979 665.285 216.854 665.938 216.854C666.458 216.854 666.934 216.931 667.365 217.083C667.802 217.236 668.177 217.483 668.49 217.823C668.809 218.163 669.052 218.615 669.219 219.177C669.392 219.733 669.479 220.42 669.479 221.24V228.333H665.948V221.229C665.948 220.778 665.885 220.434 665.76 220.198C665.635 219.955 665.455 219.788 665.219 219.698C664.983 219.608 664.694 219.562 664.354 219.562C663.993 219.562 663.688 219.632 663.438 219.771C663.188 219.91 662.986 220.104 662.833 220.354C662.688 220.597 662.58 220.885 662.51 221.219C662.448 221.552 662.417 221.917 662.417 222.312ZM678.51 217.062H681.698V227.896C681.698 228.937 681.458 229.819 680.979 230.542C680.5 231.271 679.83 231.823 678.969 232.198C678.115 232.58 677.115 232.771 675.969 232.771C675.462 232.771 674.944 232.705 674.417 232.573C673.889 232.448 673.396 232.26 672.938 232.01C672.479 231.76 672.094 231.451 671.781 231.083L673.25 229.021C673.535 229.34 673.892 229.611 674.323 229.833C674.753 230.062 675.26 230.177 675.844 230.177C676.351 230.177 676.774 230.087 677.115 229.906C677.462 229.726 677.726 229.462 677.906 229.115C678.087 228.774 678.177 228.361 678.177 227.875V219.729L678.51 217.062ZM671.021 222.833V222.615C671.021 221.76 671.125 220.983 671.333 220.281C671.549 219.573 671.854 218.965 672.25 218.458C672.653 217.944 673.139 217.549 673.708 217.271C674.278 216.993 674.92 216.854 675.635 216.854C676.406 216.854 677.038 217.003 677.531 217.302C678.031 217.594 678.431 218.003 678.729 218.531C679.035 219.059 679.271 219.677 679.438 220.385C679.611 221.087 679.757 221.844 679.875 222.656V222.917C679.757 223.681 679.594 224.403 679.385 225.083C679.184 225.757 678.92 226.354 678.594 226.875C678.267 227.396 677.858 227.806 677.365 228.104C676.878 228.396 676.295 228.542 675.615 228.542C674.906 228.542 674.267 228.399 673.698 228.115C673.135 227.83 672.653 227.431 672.25 226.917C671.854 226.403 671.549 225.799 671.333 225.104C671.125 224.41 671.021 223.653 671.021 222.833ZM674.531 222.615V222.833C674.531 223.257 674.569 223.649 674.646 224.01C674.729 224.372 674.854 224.691 675.021 224.969C675.188 225.24 675.392 225.451 675.635 225.604C675.885 225.757 676.177 225.833 676.51 225.833C677.017 225.833 677.427 225.726 677.74 225.51C678.052 225.295 678.278 224.99 678.417 224.594C678.556 224.198 678.615 223.733 678.594 223.198V222.375C678.608 221.917 678.576 221.514 678.5 221.167C678.424 220.812 678.302 220.517 678.135 220.281C677.976 220.045 677.76 219.868 677.49 219.75C677.226 219.625 676.906 219.562 676.531 219.562C676.205 219.562 675.917 219.639 675.667 219.792C675.417 219.944 675.208 220.16 675.042 220.437C674.875 220.708 674.747 221.031 674.656 221.406C674.573 221.774 674.531 222.177 674.531 222.615ZM683.281 222.812V222.594C683.281 221.767 683.399 221.007 683.635 220.312C683.872 219.611 684.219 219.003 684.677 218.49C685.135 217.976 685.701 217.576 686.375 217.292C687.049 217 687.826 216.854 688.708 216.854C689.597 216.854 690.378 217 691.052 217.292C691.733 217.576 692.302 217.976 692.76 218.49C693.219 219.003 693.566 219.611 693.802 220.312C694.038 221.007 694.156 221.767 694.156 222.594V222.812C694.156 223.632 694.038 224.392 693.802 225.094C693.566 225.788 693.219 226.396 692.76 226.917C692.302 227.431 691.736 227.83 691.063 228.115C690.389 228.399 689.611 228.542 688.729 228.542C687.847 228.542 687.066 228.399 686.385 228.115C685.705 227.83 685.135 227.431 684.677 226.917C684.219 226.396 683.872 225.788 683.635 225.094C683.399 224.392 683.281 223.632 683.281 222.812ZM686.792 222.594V222.812C686.792 223.236 686.823 223.632 686.885 224C686.948 224.368 687.052 224.691 687.198 224.969C687.344 225.24 687.542 225.451 687.792 225.604C688.042 225.757 688.354 225.833 688.729 225.833C689.097 225.833 689.403 225.757 689.646 225.604C689.896 225.451 690.094 225.24 690.24 224.969C690.385 224.691 690.49 224.368 690.552 224C690.615 223.632 690.646 223.236 690.646 222.812V222.594C690.646 222.184 690.615 221.799 690.552 221.437C690.49 221.069 690.385 220.747 690.24 220.469C690.094 220.184 689.896 219.962 689.646 219.802C689.396 219.642 689.083 219.562 688.708 219.562C688.34 219.562 688.031 219.642 687.781 219.802C687.538 219.962 687.344 220.184 687.198 220.469C687.052 220.747 686.948 221.069 686.885 221.437C686.823 221.799 686.792 222.184 686.792 222.594ZM700.813 228.333H697.448L697.469 225.521H700.813C701.507 225.521 702.094 225.354 702.573 225.021C703.059 224.687 703.427 224.191 703.677 223.531C703.934 222.865 704.063 222.045 704.063 221.073V220.417C704.063 219.687 703.99 219.049 703.844 218.5C703.705 217.944 703.497 217.483 703.219 217.115C702.941 216.74 702.594 216.458 702.177 216.271C701.767 216.083 701.295 215.99 700.76 215.99H697.385V213.167H700.76C701.788 213.167 702.729 213.344 703.583 213.698C704.444 214.045 705.188 214.545 705.813 215.198C706.444 215.844 706.931 216.611 707.271 217.5C707.618 218.382 707.792 219.361 707.792 220.437V221.073C707.792 222.142 707.618 223.122 707.271 224.01C706.931 224.899 706.448 225.667 705.823 226.312C705.198 226.958 704.458 227.458 703.604 227.812C702.757 228.16 701.826 228.333 700.813 228.333ZM699.542 213.167V228.333H695.885V213.167H699.542ZM715.885 221.885H711.979L711.958 219.49H715.125C715.694 219.49 716.149 219.427 716.49 219.302C716.83 219.17 717.076 218.979 717.229 218.729C717.389 218.479 717.469 218.167 717.469 217.792C717.469 217.361 717.389 217.014 717.229 216.75C717.069 216.486 716.816 216.295 716.469 216.177C716.128 216.052 715.688 215.99 715.146 215.99H713.354V228.333H709.698V213.167H715.146C716.083 213.167 716.92 213.253 717.656 213.427C718.392 213.594 719.017 213.851 719.531 214.198C720.052 214.545 720.448 214.983 720.719 215.51C720.99 216.031 721.125 216.646 721.125 217.354C721.125 217.972 720.993 218.552 720.729 219.094C720.465 219.635 720.024 220.076 719.406 220.417C718.795 220.75 717.958 220.924 716.896 220.937L715.885 221.885ZM715.74 228.333H711.094L712.344 225.521H715.74C716.24 225.521 716.639 225.444 716.938 225.292C717.243 225.132 717.462 224.924 717.594 224.667C717.733 224.403 717.802 224.111 717.802 223.792C717.802 223.403 717.736 223.066 717.604 222.781C717.479 222.497 717.278 222.278 717 222.125C716.722 221.965 716.351 221.885 715.885 221.885H712.813L712.833 219.49H716.51L717.365 220.448C718.378 220.406 719.181 220.549 719.771 220.875C720.368 221.201 720.795 221.632 721.052 222.167C721.309 222.701 721.438 223.26 721.438 223.844C721.438 224.837 721.222 225.667 720.792 226.333C720.368 227 719.733 227.5 718.885 227.833C718.038 228.167 716.99 228.333 715.74 228.333Z" fill="white"/>
<defs>
<linearGradient id="paint0_linear_3_60" x1="37" y1="1.68677e-05" x2="-19.436" y2="3.6894" gradientUnits="userSpaceOnUse">
<stop stop-color="#FACD68"/>
<stop offset="1" stop-color="#FC76B3"/>
</linearGradient>
</defs>
</svg>
