<svg width="1363" height="301" viewBox="0 0 1363 301" fill="none" xmlns="http://www.w3.org/2000/svg">
<rect width="1363" height="301" rx="15" fill="#F0F0F0"/>
<path d="M0 15C0 6.71573 6.71573 0 15 0H37V301H15C6.71573 301 0 294.284 0 286V15Z" fill="#0074FF"/>
<path d="M107.684 144H99.0093L99.063 136.749H107.684C109.474 136.749 110.987 136.319 112.222 135.46C113.475 134.601 114.424 133.32 115.069 131.62C115.731 129.901 116.062 127.788 116.062 125.282V123.59C116.062 121.71 115.875 120.063 115.499 118.648C115.14 117.216 114.603 116.026 113.887 115.077C113.171 114.11 112.276 113.385 111.202 112.901C110.145 112.418 108.928 112.176 107.549 112.176H98.8481V104.898H107.549C110.199 104.898 112.625 105.355 114.827 106.268C117.047 107.163 118.963 108.452 120.574 110.135C122.203 111.8 123.457 113.779 124.334 116.07C125.229 118.344 125.677 120.868 125.677 123.644V125.282C125.677 128.039 125.229 130.563 124.334 132.855C123.457 135.147 122.212 137.125 120.601 138.79C118.99 140.455 117.083 141.744 114.881 142.657C112.697 143.552 110.298 144 107.684 144ZM104.407 104.898V144H94.981V104.898H104.407ZM144.234 144.537C141.871 144.537 139.758 144.17 137.896 143.436C136.034 142.684 134.458 141.655 133.169 140.348C131.898 139.041 130.923 137.537 130.242 135.836C129.58 134.135 129.249 132.336 129.249 130.438V129.417C129.249 127.287 129.544 125.318 130.135 123.509C130.726 121.683 131.603 120.09 132.767 118.729C133.93 117.368 135.389 116.312 137.144 115.56C138.899 114.79 140.94 114.405 143.267 114.405C145.326 114.405 147.17 114.736 148.799 115.399C150.429 116.061 151.807 117.01 152.935 118.246C154.081 119.481 154.949 120.976 155.54 122.73C156.149 124.485 156.453 126.454 156.453 128.639V132.318H132.713V126.651H147.618V125.953C147.636 124.986 147.465 124.163 147.107 123.482C146.767 122.802 146.266 122.283 145.604 121.925C144.941 121.567 144.135 121.388 143.187 121.388C142.202 121.388 141.387 121.603 140.743 122.032C140.116 122.462 139.624 123.053 139.266 123.805C138.925 124.539 138.684 125.389 138.541 126.356C138.397 127.323 138.326 128.343 138.326 129.417V130.438C138.326 131.512 138.469 132.488 138.755 133.365C139.06 134.243 139.489 134.994 140.044 135.621C140.617 136.23 141.298 136.704 142.085 137.044C142.891 137.385 143.804 137.555 144.825 137.555C146.06 137.555 147.278 137.322 148.477 136.856C149.677 136.391 150.706 135.621 151.565 134.547L155.674 139.435C155.083 140.276 154.242 141.091 153.15 141.878C152.076 142.666 150.787 143.311 149.283 143.812C147.779 144.295 146.096 144.537 144.234 144.537ZM170.23 137.796L175.95 114.942H185.484L175.977 144H170.337L170.23 137.796ZM166.846 114.942L172.486 137.796L172.432 144H166.766L157.286 114.942H166.846ZM215.508 136.749V144H194.668V136.749H215.508ZM198.025 104.898V144H188.599V104.898H198.025ZM212.823 120.421V127.43H194.668V120.421H212.823ZM215.589 104.898V112.176H194.668V104.898H215.589ZM226.626 114.942L230.708 122.945L234.925 114.942H244.324L236.697 129.095L244.727 144H235.247L230.708 135.406L226.197 144H216.717L224.747 129.095L217.146 114.942H226.626ZM259.041 137.555C259.882 137.555 260.599 137.403 261.189 137.098C261.798 136.776 262.255 136.328 262.559 135.755C262.881 135.165 263.034 134.457 263.016 133.634H271.529C271.547 135.818 271.01 137.734 269.917 139.381C268.843 141.01 267.375 142.281 265.513 143.194C263.669 144.09 261.583 144.537 259.256 144.537C256.982 144.537 254.995 144.17 253.294 143.436C251.593 142.684 250.17 141.646 249.024 140.321C247.896 138.978 247.046 137.411 246.473 135.621C245.918 133.831 245.64 131.888 245.64 129.793V129.176C245.64 127.081 245.918 125.139 246.473 123.348C247.046 121.54 247.896 119.973 249.024 118.648C250.17 117.306 251.584 116.267 253.267 115.533C254.968 114.781 256.946 114.405 259.202 114.405C261.619 114.405 263.75 114.862 265.594 115.775C267.456 116.688 268.915 118.013 269.971 119.75C271.028 121.486 271.547 123.59 271.529 126.061H263.016C263.034 125.183 262.899 124.396 262.613 123.697C262.326 122.999 261.879 122.444 261.27 122.032C260.679 121.603 259.918 121.388 258.987 121.388C258.056 121.388 257.304 121.594 256.731 122.005C256.159 122.417 255.72 122.99 255.416 123.724C255.129 124.44 254.932 125.264 254.825 126.195C254.735 127.126 254.69 128.119 254.69 129.176V129.793C254.69 130.868 254.735 131.879 254.825 132.828C254.932 133.759 255.138 134.583 255.442 135.299C255.747 135.997 256.185 136.552 256.758 136.964C257.331 137.358 258.092 137.555 259.041 137.555ZM284.258 102.75V144H275.208V102.75H284.258ZM283.184 128.478L281.062 128.531C281.062 126.49 281.313 124.61 281.814 122.892C282.316 121.173 283.032 119.678 283.963 118.407C284.894 117.136 286.013 116.151 287.32 115.453C288.627 114.754 290.077 114.405 291.67 114.405C293.103 114.405 294.41 114.611 295.591 115.023C296.791 115.435 297.82 116.097 298.68 117.01C299.557 117.923 300.228 119.114 300.694 120.582C301.177 122.05 301.419 123.84 301.419 125.953V144H292.315V125.899C292.315 124.718 292.145 123.805 291.805 123.16C291.482 122.498 291.017 122.041 290.408 121.791C289.799 121.522 289.056 121.388 288.179 121.388C287.123 121.388 286.264 121.567 285.601 121.925C284.939 122.283 284.428 122.784 284.07 123.429C283.73 124.055 283.497 124.798 283.372 125.658C283.247 126.517 283.184 127.457 283.184 128.478ZM321.534 136.695V124.718C321.534 123.894 321.417 123.187 321.185 122.596C320.952 122.005 320.585 121.549 320.083 121.227C319.582 120.886 318.911 120.716 318.069 120.716C317.389 120.716 316.807 120.833 316.324 121.065C315.84 121.298 315.473 121.647 315.223 122.113C314.972 122.578 314.847 123.169 314.847 123.885H305.796C305.796 122.542 306.092 121.298 306.683 120.152C307.291 118.989 308.151 117.977 309.261 117.118C310.389 116.258 311.731 115.596 313.289 115.13C314.865 114.647 316.619 114.405 318.553 114.405C320.862 114.405 322.921 114.79 324.729 115.56C326.556 116.33 327.997 117.485 329.053 119.024C330.11 120.546 330.638 122.462 330.638 124.771V136.668C330.638 138.566 330.745 140.007 330.96 140.992C331.175 141.959 331.479 142.809 331.873 143.543V144H322.796C322.366 143.105 322.044 142.013 321.829 140.724C321.632 139.417 321.534 138.074 321.534 136.695ZM322.635 126.249L322.688 131.083H318.687C317.846 131.083 317.129 131.199 316.539 131.432C315.966 131.664 315.5 131.987 315.142 132.398C314.802 132.792 314.551 133.24 314.39 133.741C314.247 134.243 314.175 134.771 314.175 135.326C314.175 135.863 314.301 136.346 314.551 136.776C314.82 137.188 315.178 137.51 315.625 137.743C316.073 137.975 316.574 138.092 317.129 138.092C318.132 138.092 318.982 137.904 319.681 137.528C320.397 137.134 320.943 136.66 321.319 136.104C321.695 135.549 321.883 135.03 321.883 134.547L323.87 138.253C323.512 138.969 323.1 139.694 322.635 140.428C322.187 141.162 321.623 141.843 320.943 142.469C320.28 143.078 319.466 143.579 318.499 143.973C317.532 144.349 316.36 144.537 314.981 144.537C313.191 144.537 311.543 144.17 310.04 143.436C308.554 142.702 307.363 141.681 306.468 140.375C305.573 139.05 305.125 137.528 305.125 135.809C305.125 134.305 305.394 132.962 305.931 131.781C306.486 130.599 307.318 129.597 308.428 128.773C309.538 127.949 310.953 127.323 312.671 126.893C314.39 126.463 316.413 126.249 318.741 126.249H322.635ZM344.549 121.146V144H335.499V114.942H343.985L344.549 121.146ZM343.475 128.478L341.353 128.531C341.353 126.311 341.622 124.333 342.159 122.596C342.696 120.842 343.457 119.356 344.441 118.138C345.426 116.921 346.599 115.999 347.959 115.372C349.338 114.728 350.869 114.405 352.552 114.405C353.895 114.405 355.121 114.602 356.231 114.996C357.359 115.39 358.326 116.026 359.131 116.903C359.955 117.78 360.582 118.944 361.011 120.394C361.459 121.826 361.683 123.599 361.683 125.711V144H352.579V125.685C352.579 124.521 352.417 123.635 352.095 123.026C351.773 122.399 351.307 121.97 350.699 121.737C350.09 121.504 349.347 121.388 348.47 121.388C347.539 121.388 346.751 121.567 346.106 121.925C345.462 122.283 344.943 122.784 344.549 123.429C344.173 124.055 343.895 124.798 343.716 125.658C343.555 126.517 343.475 127.457 343.475 128.478ZM384.966 114.942H393.184V142.872C393.184 145.558 392.566 147.831 391.331 149.693C390.096 151.573 388.368 152.997 386.148 153.963C383.946 154.948 381.368 155.44 378.414 155.44C377.107 155.44 375.773 155.27 374.412 154.93C373.051 154.608 371.78 154.125 370.599 153.48C369.417 152.835 368.423 152.039 367.618 151.09L371.404 145.772C372.138 146.596 373.06 147.294 374.17 147.867C375.28 148.458 376.587 148.753 378.091 148.753C379.398 148.753 380.49 148.521 381.368 148.055C382.263 147.59 382.943 146.909 383.409 146.014C383.874 145.137 384.107 144.072 384.107 142.818V121.817L384.966 114.942ZM365.657 129.82V129.256C365.657 127.054 365.926 125.049 366.463 123.241C367.018 121.415 367.806 119.848 368.826 118.541C369.865 117.216 371.118 116.196 372.586 115.479C374.054 114.763 375.71 114.405 377.554 114.405C379.542 114.405 381.171 114.79 382.442 115.56C383.731 116.312 384.76 117.368 385.53 118.729C386.318 120.09 386.927 121.683 387.356 123.509C387.804 125.318 388.18 127.269 388.484 129.364V130.035C388.18 132.005 387.759 133.867 387.222 135.621C386.703 137.358 386.023 138.897 385.181 140.24C384.34 141.583 383.283 142.639 382.012 143.409C380.759 144.161 379.255 144.537 377.5 144.537C375.674 144.537 374.027 144.17 372.559 143.436C371.109 142.702 369.865 141.673 368.826 140.348C367.806 139.023 367.018 137.465 366.463 135.675C365.926 133.884 365.657 131.933 365.657 129.82ZM374.708 129.256V129.82C374.708 130.912 374.806 131.924 375.003 132.855C375.218 133.786 375.54 134.61 375.97 135.326C376.399 136.024 376.928 136.57 377.554 136.964C378.199 137.358 378.951 137.555 379.81 137.555C381.117 137.555 382.173 137.277 382.979 136.722C383.785 136.167 384.367 135.379 384.725 134.359C385.083 133.338 385.235 132.139 385.181 130.76V128.639C385.217 127.457 385.136 126.419 384.939 125.523C384.743 124.61 384.429 123.849 384 123.241C383.588 122.632 383.033 122.175 382.334 121.871C381.654 121.549 380.831 121.388 379.864 121.388C379.022 121.388 378.279 121.585 377.635 121.979C376.99 122.372 376.453 122.927 376.023 123.644C375.594 124.342 375.263 125.174 375.03 126.141C374.815 127.09 374.708 128.128 374.708 129.256ZM412.466 144.537C410.103 144.537 407.99 144.17 406.128 143.436C404.266 142.684 402.691 141.655 401.402 140.348C400.131 139.041 399.155 137.537 398.475 135.836C397.812 134.135 397.481 132.336 397.481 130.438V129.417C397.481 127.287 397.776 125.318 398.367 123.509C398.958 121.683 399.835 120.09 400.999 118.729C402.163 117.368 403.622 116.312 405.376 115.56C407.131 114.79 409.172 114.405 411.5 114.405C413.558 114.405 415.403 114.736 417.032 115.399C418.661 116.061 420.04 117.01 421.167 118.246C422.313 119.481 423.182 120.976 423.772 122.73C424.381 124.485 424.686 126.454 424.686 128.639V132.318H400.945V126.651H415.85V125.953C415.868 124.986 415.698 124.163 415.34 123.482C415 122.802 414.498 122.283 413.836 121.925C413.174 121.567 412.368 121.388 411.419 121.388C410.434 121.388 409.62 121.603 408.975 122.032C408.348 122.462 407.856 123.053 407.498 123.805C407.158 124.539 406.916 125.389 406.773 126.356C406.63 127.323 406.558 128.343 406.558 129.417V130.438C406.558 131.512 406.701 132.488 406.988 133.365C407.292 134.243 407.722 134.994 408.277 135.621C408.85 136.23 409.53 136.704 410.318 137.044C411.124 137.385 412.037 137.555 413.057 137.555C414.292 137.555 415.51 137.322 416.709 136.856C417.909 136.391 418.938 135.621 419.798 134.547L423.907 139.435C423.316 140.276 422.474 141.091 421.382 141.878C420.308 142.666 419.019 143.311 417.515 143.812C416.011 144.295 414.328 144.537 412.466 144.537Z" fill="black"/>
<path d="M99.3486 55.1172V80H94.2217V55.1172H99.3486ZM114.251 55.1172L104.39 67.4048L98.6992 73.5229L97.7764 68.6694L101.622 63.4058L107.962 55.1172H114.251ZM108.423 80L101.092 68.4985L104.886 65.3198L114.49 80H108.423ZM120.967 53.75V80H116.045V53.75H120.967ZM120.267 70.105H118.917C118.928 68.8175 119.099 67.6326 119.429 66.5503C119.76 65.4565 120.232 64.5109 120.848 63.7134C121.463 62.9045 122.198 62.2778 123.052 61.8335C123.918 61.3892 124.875 61.167 125.923 61.167C126.835 61.167 127.661 61.298 128.401 61.5601C129.153 61.8107 129.797 62.2209 130.333 62.7905C130.879 63.3488 131.301 64.0837 131.597 64.9951C131.893 65.9066 132.042 67.0117 132.042 68.3105V80H127.085V68.2764C127.085 67.4561 126.966 66.8123 126.727 66.3452C126.499 65.8667 126.163 65.5306 125.718 65.3369C125.285 65.1318 124.75 65.0293 124.112 65.0293C123.405 65.0293 122.802 65.1603 122.3 65.4224C121.81 65.6844 121.417 66.049 121.121 66.5161C120.825 66.9718 120.608 67.5073 120.472 68.1226C120.335 68.7378 120.267 69.3986 120.267 70.105ZM145.765 75.8301V67.5928C145.765 67.0003 145.668 66.4933 145.474 66.0718C145.28 65.6388 144.979 65.3027 144.568 65.0635C144.17 64.8242 143.651 64.7046 143.013 64.7046C142.466 64.7046 141.993 64.8014 141.595 64.9951C141.196 65.1774 140.888 65.4451 140.672 65.7983C140.455 66.1401 140.347 66.5446 140.347 67.0117H135.425C135.425 66.2256 135.608 65.4793 135.972 64.7729C136.337 64.0666 136.867 63.4456 137.562 62.9102C138.257 62.3633 139.083 61.936 140.04 61.6284C141.008 61.3208 142.09 61.167 143.287 61.167C144.722 61.167 145.998 61.4062 147.115 61.8848C148.231 62.3633 149.109 63.0811 149.747 64.0381C150.396 64.9951 150.721 66.1914 150.721 67.627V75.5396C150.721 76.5535 150.783 77.3853 150.909 78.0347C151.034 78.6727 151.216 79.231 151.456 79.7095V80H146.482C146.243 79.4987 146.061 78.8721 145.936 78.1201C145.822 77.3568 145.765 76.5934 145.765 75.8301ZM146.414 68.7378L146.448 71.5234H143.697C143.047 71.5234 142.483 71.5975 142.005 71.7456C141.526 71.8937 141.133 72.1045 140.826 72.3779C140.518 72.64 140.29 72.9476 140.142 73.3008C140.005 73.654 139.937 74.0413 139.937 74.4629C139.937 74.8844 140.034 75.2661 140.228 75.6079C140.421 75.9383 140.7 76.2004 141.065 76.394C141.43 76.5763 141.857 76.6675 142.347 76.6675C143.087 76.6675 143.731 76.5194 144.278 76.2231C144.825 75.9269 145.246 75.5623 145.542 75.1294C145.85 74.6965 146.01 74.2863 146.021 73.8989L147.32 75.9839C147.138 76.451 146.887 76.9352 146.568 77.4365C146.26 77.9378 145.867 78.4106 145.389 78.855C144.91 79.2879 144.335 79.6468 143.663 79.9316C142.99 80.2051 142.193 80.3418 141.27 80.3418C140.097 80.3418 139.031 80.1082 138.074 79.6411C137.129 79.1626 136.377 78.5075 135.818 77.6758C135.271 76.8327 134.998 75.8757 134.998 74.8047C134.998 73.8363 135.18 72.9761 135.545 72.2241C135.91 71.4722 136.445 70.8398 137.151 70.3271C137.869 69.8031 138.764 69.41 139.834 69.1479C140.905 68.8745 142.147 68.7378 143.56 68.7378H146.414ZM159.71 53.75V80H154.771V53.75H159.71ZM172.288 80.3418C170.853 80.3418 169.565 80.1139 168.426 79.6582C167.286 79.1911 166.318 78.5474 165.521 77.7271C164.734 76.9067 164.131 75.9554 163.709 74.873C163.287 73.7793 163.077 72.6172 163.077 71.3867V70.7031C163.077 69.3018 163.276 68.02 163.675 66.8579C164.074 65.6958 164.643 64.6875 165.384 63.833C166.136 62.9785 167.047 62.3234 168.118 61.8677C169.189 61.4006 170.397 61.167 171.741 61.167C173.051 61.167 174.214 61.3835 175.228 61.8164C176.242 62.2493 177.09 62.8646 177.774 63.6621C178.469 64.4596 178.993 65.4167 179.346 66.5332C179.699 67.6383 179.876 68.8688 179.876 70.2246V72.2754H165.179V68.9941H175.04V68.6182C175.04 67.9346 174.914 67.325 174.664 66.7896C174.424 66.2427 174.06 65.8097 173.57 65.4907C173.08 65.1717 172.453 65.0122 171.69 65.0122C171.041 65.0122 170.482 65.1546 170.015 65.4395C169.548 65.7243 169.166 66.123 168.87 66.6357C168.585 67.1484 168.369 67.7523 168.221 68.4473C168.084 69.1309 168.016 69.8828 168.016 70.7031V71.3867C168.016 72.1273 168.118 72.8109 168.323 73.4375C168.54 74.0641 168.842 74.6053 169.229 75.061C169.628 75.5168 170.106 75.87 170.665 76.1206C171.234 76.3713 171.878 76.4966 172.596 76.4966C173.484 76.4966 174.31 76.3257 175.074 75.9839C175.848 75.6307 176.515 75.1009 177.073 74.3945L179.466 76.9922C179.078 77.5505 178.549 78.0859 177.876 78.5986C177.216 79.1113 176.418 79.5329 175.484 79.8633C174.55 80.1823 173.484 80.3418 172.288 80.3418ZM193.599 75.9668V53.75H198.555V80H194.095L193.599 75.9668ZM181.91 70.9766V70.6177C181.91 69.2049 182.069 67.9232 182.388 66.7725C182.707 65.6104 183.174 64.6134 183.79 63.7817C184.405 62.95 185.162 62.3063 186.062 61.8506C186.963 61.3949 187.988 61.167 189.139 61.167C190.221 61.167 191.167 61.3949 191.976 61.8506C192.796 62.3063 193.491 62.9557 194.061 63.7988C194.642 64.6305 195.109 65.616 195.462 66.7554C195.815 67.8833 196.071 69.1195 196.231 70.4639V71.25C196.071 72.5374 195.815 73.7337 195.462 74.8389C195.109 75.944 194.642 76.9124 194.061 77.7441C193.491 78.5645 192.796 79.2025 191.976 79.6582C191.155 80.1139 190.198 80.3418 189.104 80.3418C187.954 80.3418 186.928 80.1082 186.028 79.6411C185.14 79.174 184.388 78.5189 183.772 77.6758C183.169 76.8327 182.707 75.8415 182.388 74.7021C182.069 73.5628 181.91 72.321 181.91 70.9766ZM186.832 70.6177V70.9766C186.832 71.7399 186.889 72.452 187.002 73.1128C187.128 73.7736 187.327 74.3604 187.601 74.873C187.885 75.3743 188.25 75.7674 188.694 76.0522C189.15 76.3257 189.703 76.4624 190.352 76.4624C191.195 76.4624 191.89 76.2744 192.437 75.8984C192.984 75.5111 193.4 74.9813 193.685 74.3091C193.981 73.6369 194.152 72.8621 194.197 71.9849V69.7461C194.163 69.0283 194.061 68.3846 193.89 67.8149C193.73 67.2339 193.491 66.7383 193.172 66.3281C192.864 65.918 192.477 65.599 192.01 65.3711C191.554 65.1432 191.013 65.0293 190.386 65.0293C189.748 65.0293 189.201 65.1774 188.746 65.4736C188.29 65.7585 187.92 66.1515 187.635 66.6528C187.361 67.1541 187.156 67.7466 187.02 68.4302C186.894 69.1024 186.832 69.8315 186.832 70.6177ZM216.551 55.1172V80H211.424V55.1172H216.551ZM226.463 65.7471V69.7461H215.149V65.7471H226.463ZM227.659 55.1172V59.1333H215.149V55.1172H227.659ZM239.725 75.8301V67.5928C239.725 67.0003 239.628 66.4933 239.434 66.0718C239.24 65.6388 238.938 65.3027 238.528 65.0635C238.13 64.8242 237.611 64.7046 236.973 64.7046C236.426 64.7046 235.953 64.8014 235.555 64.9951C235.156 65.1774 234.848 65.4451 234.632 65.7983C234.415 66.1401 234.307 66.5446 234.307 67.0117H229.385C229.385 66.2256 229.568 65.4793 229.932 64.7729C230.297 64.0666 230.826 63.4456 231.521 62.9102C232.216 62.3633 233.042 61.936 234 61.6284C234.968 61.3208 236.05 61.167 237.247 61.167C238.682 61.167 239.958 61.4062 241.075 61.8848C242.191 62.3633 243.069 63.0811 243.707 64.0381C244.356 64.9951 244.681 66.1914 244.681 67.627V75.5396C244.681 76.5535 244.743 77.3853 244.869 78.0347C244.994 78.6727 245.176 79.231 245.416 79.7095V80H240.442C240.203 79.4987 240.021 78.8721 239.896 78.1201C239.782 77.3568 239.725 76.5934 239.725 75.8301ZM240.374 68.7378L240.408 71.5234H237.657C237.007 71.5234 236.443 71.5975 235.965 71.7456C235.486 71.8937 235.093 72.1045 234.786 72.3779C234.478 72.64 234.25 72.9476 234.102 73.3008C233.965 73.654 233.897 74.0413 233.897 74.4629C233.897 74.8844 233.994 75.2661 234.188 75.6079C234.381 75.9383 234.66 76.2004 235.025 76.394C235.389 76.5763 235.817 76.6675 236.307 76.6675C237.047 76.6675 237.691 76.5194 238.238 76.2231C238.785 75.9269 239.206 75.5623 239.502 75.1294C239.81 74.6965 239.97 74.2863 239.981 73.8989L241.28 75.9839C241.097 76.451 240.847 76.9352 240.528 77.4365C240.22 77.9378 239.827 78.4106 239.349 78.855C238.87 79.2879 238.295 79.6468 237.623 79.9316C236.95 80.2051 236.153 80.3418 235.23 80.3418C234.056 80.3418 232.991 80.1082 232.034 79.6411C231.089 79.1626 230.337 78.5075 229.778 77.6758C229.231 76.8327 228.958 75.8757 228.958 74.8047C228.958 73.8363 229.14 72.9761 229.505 72.2241C229.869 71.4722 230.405 70.8398 231.111 70.3271C231.829 69.8031 232.723 69.41 233.794 69.1479C234.865 68.8745 236.107 68.7378 237.52 68.7378H240.374ZM247.688 70.9424V70.5835C247.688 69.2277 247.882 67.9801 248.27 66.8408C248.657 65.6901 249.221 64.6932 249.961 63.8501C250.702 63.007 251.613 62.3519 252.696 61.8848C253.778 61.4062 255.02 61.167 256.421 61.167C257.823 61.167 259.07 61.4062 260.164 61.8848C261.258 62.3519 262.175 63.007 262.916 63.8501C263.667 64.6932 264.237 65.6901 264.625 66.8408C265.012 67.9801 265.206 69.2277 265.206 70.5835V70.9424C265.206 72.2868 265.012 73.5343 264.625 74.6851C264.237 75.8244 263.667 76.8213 262.916 77.6758C262.175 78.5189 261.264 79.174 260.181 79.6411C259.099 80.1082 257.857 80.3418 256.456 80.3418C255.054 80.3418 253.807 80.1082 252.713 79.6411C251.631 79.174 250.713 78.5189 249.961 77.6758C249.221 76.8213 248.657 75.8244 248.27 74.6851C247.882 73.5343 247.688 72.2868 247.688 70.9424ZM252.61 70.5835V70.9424C252.61 71.7171 252.679 72.4406 252.815 73.1128C252.952 73.785 253.169 74.3774 253.465 74.8901C253.772 75.3914 254.171 75.7845 254.661 76.0693C255.151 76.3542 255.749 76.4966 256.456 76.4966C257.139 76.4966 257.726 76.3542 258.216 76.0693C258.706 75.7845 259.099 75.3914 259.395 74.8901C259.691 74.3774 259.908 73.785 260.044 73.1128C260.193 72.4406 260.267 71.7171 260.267 70.9424V70.5835C260.267 69.8315 260.193 69.1252 260.044 68.4644C259.908 67.7922 259.686 67.1997 259.378 66.687C259.082 66.1629 258.689 65.7528 258.199 65.4565C257.709 65.1603 257.116 65.0122 256.421 65.0122C255.726 65.0122 255.134 65.1603 254.644 65.4565C254.166 65.7528 253.772 66.1629 253.465 66.687C253.169 67.1997 252.952 67.7922 252.815 68.4644C252.679 69.1252 252.61 69.8315 252.61 70.5835ZM279.168 75.5737V61.5088H284.09V80H279.458L279.168 75.5737ZM279.715 71.7798L281.167 71.7456C281.167 72.9761 281.025 74.1211 280.74 75.1807C280.455 76.2288 280.028 77.1403 279.458 77.915C278.889 78.6784 278.171 79.2765 277.305 79.7095C276.439 80.131 275.42 80.3418 274.246 80.3418C273.346 80.3418 272.514 80.2165 271.751 79.9658C270.999 79.7038 270.35 79.2993 269.803 78.7524C269.267 78.1942 268.846 77.4821 268.538 76.6162C268.242 75.7389 268.094 74.6851 268.094 73.4546V61.5088H273.016V73.4888C273.016 74.0356 273.078 74.4971 273.204 74.873C273.34 75.249 273.528 75.5566 273.768 75.7959C274.007 76.0352 274.286 76.2061 274.605 76.3086C274.935 76.4111 275.3 76.4624 275.699 76.4624C276.713 76.4624 277.51 76.2573 278.091 75.8472C278.684 75.437 279.1 74.8787 279.339 74.1724C279.59 73.4546 279.715 72.6571 279.715 71.7798ZM292.771 65.542V80H287.85V61.5088H292.481L292.771 65.542ZM298.343 61.3892L298.257 65.9521C298.018 65.918 297.728 65.8895 297.386 65.8667C297.055 65.8325 296.753 65.8154 296.48 65.8154C295.785 65.8154 295.181 65.9066 294.668 66.0889C294.167 66.2598 293.746 66.5161 293.404 66.8579C293.073 67.1997 292.823 67.6156 292.652 68.1055C292.492 68.5954 292.401 69.1536 292.378 69.7803L291.387 69.4727C291.387 68.2764 291.507 67.1769 291.746 66.1743C291.985 65.1603 292.333 64.2773 292.789 63.5254C293.256 62.7734 293.825 62.1924 294.498 61.7822C295.17 61.3721 295.939 61.167 296.805 61.167C297.078 61.167 297.357 61.1898 297.642 61.2354C297.927 61.2695 298.16 61.3208 298.343 61.3892Z" fill="#888888"/>
<rect x="92" y="181" width="1179" height="80" rx="13.3333" fill="#CCCCCC"/>
<rect x="107" y="196.333" width="208" height="49.3333" rx="4.66667" fill="#888888" stroke="#888888" stroke-width="4"/>
<path d="M166.656 213.167H169.635L173.021 223.719L176.406 213.167H179.385L174.229 228.333H171.813L166.656 213.167ZM164.844 213.167H167.927L168.5 224.792V228.333H164.844V213.167ZM178.115 213.167H181.208V228.333H177.542V224.792L178.115 213.167ZM182.948 222.812V222.594C182.948 221.767 183.066 221.007 183.302 220.312C183.538 219.611 183.885 219.003 184.344 218.49C184.802 217.976 185.368 217.576 186.042 217.292C186.715 217 187.493 216.854 188.375 216.854C189.264 216.854 190.045 217 190.719 217.292C191.399 217.576 191.969 217.976 192.427 218.49C192.885 219.003 193.233 219.611 193.469 220.312C193.705 221.007 193.823 221.767 193.823 222.594V222.812C193.823 223.632 193.705 224.392 193.469 225.094C193.233 225.788 192.885 226.396 192.427 226.917C191.969 227.431 191.403 227.83 190.729 228.115C190.056 228.399 189.278 228.542 188.396 228.542C187.514 228.542 186.733 228.399 186.052 228.115C185.372 227.83 184.802 227.431 184.344 226.917C183.885 226.396 183.538 225.788 183.302 225.094C183.066 224.392 182.948 223.632 182.948 222.812ZM186.458 222.594V222.812C186.458 223.236 186.49 223.632 186.552 224C186.615 224.368 186.719 224.691 186.865 224.969C187.01 225.24 187.208 225.451 187.458 225.604C187.708 225.757 188.021 225.833 188.396 225.833C188.764 225.833 189.069 225.757 189.313 225.604C189.563 225.451 189.76 225.24 189.906 224.969C190.052 224.691 190.156 224.368 190.219 224C190.281 223.632 190.313 223.236 190.313 222.812V222.594C190.313 222.184 190.281 221.799 190.219 221.437C190.156 221.069 190.052 220.747 189.906 220.469C189.76 220.184 189.563 219.962 189.313 219.802C189.063 219.642 188.75 219.562 188.375 219.562C188.007 219.562 187.698 219.642 187.448 219.802C187.205 219.962 187.01 220.184 186.865 220.469C186.719 220.747 186.615 221.069 186.552 221.437C186.49 221.799 186.458 222.184 186.458 222.594ZM198.833 219.469V228.333H195.323V217.062H198.615L198.833 219.469ZM198.417 222.312L197.594 222.333C197.594 221.472 197.698 220.705 197.906 220.031C198.115 219.351 198.41 218.774 198.792 218.302C199.174 217.83 199.628 217.472 200.156 217.229C200.691 216.979 201.285 216.854 201.938 216.854C202.458 216.854 202.934 216.931 203.365 217.083C203.802 217.236 204.177 217.483 204.49 217.823C204.809 218.163 205.052 218.615 205.219 219.177C205.392 219.733 205.479 220.42 205.479 221.24V228.333H201.948V221.229C201.948 220.778 201.885 220.434 201.76 220.198C201.635 219.955 201.455 219.788 201.219 219.698C200.983 219.608 200.694 219.562 200.354 219.562C199.993 219.562 199.688 219.632 199.438 219.771C199.188 219.91 198.986 220.104 198.833 220.354C198.688 220.597 198.58 220.885 198.51 221.219C198.448 221.552 198.417 221.917 198.417 222.312ZM214.51 217.062H217.698V227.896C217.698 228.937 217.458 229.819 216.979 230.542C216.5 231.271 215.83 231.823 214.969 232.198C214.115 232.58 213.115 232.771 211.969 232.771C211.462 232.771 210.944 232.705 210.417 232.573C209.889 232.448 209.396 232.26 208.938 232.01C208.479 231.76 208.094 231.451 207.781 231.083L209.25 229.021C209.535 229.34 209.892 229.611 210.323 229.833C210.753 230.062 211.26 230.177 211.844 230.177C212.351 230.177 212.774 230.087 213.115 229.906C213.462 229.726 213.726 229.462 213.906 229.115C214.087 228.774 214.177 228.361 214.177 227.875V219.729L214.51 217.062ZM207.021 222.833V222.615C207.021 221.76 207.125 220.983 207.333 220.281C207.549 219.573 207.854 218.965 208.25 218.458C208.653 217.944 209.139 217.549 209.708 217.271C210.278 216.993 210.92 216.854 211.635 216.854C212.406 216.854 213.038 217.003 213.531 217.302C214.031 217.594 214.431 218.003 214.729 218.531C215.035 219.059 215.271 219.677 215.438 220.385C215.611 221.087 215.757 221.844 215.875 222.656V222.917C215.757 223.681 215.594 224.403 215.385 225.083C215.184 225.757 214.92 226.354 214.594 226.875C214.267 227.396 213.858 227.806 213.365 228.104C212.878 228.396 212.295 228.542 211.615 228.542C210.906 228.542 210.267 228.399 209.698 228.115C209.135 227.83 208.653 227.431 208.25 226.917C207.854 226.403 207.549 225.799 207.333 225.104C207.125 224.41 207.021 223.653 207.021 222.833ZM210.531 222.615V222.833C210.531 223.257 210.569 223.649 210.646 224.01C210.729 224.372 210.854 224.691 211.021 224.969C211.188 225.24 211.392 225.451 211.635 225.604C211.885 225.757 212.177 225.833 212.51 225.833C213.017 225.833 213.427 225.726 213.74 225.51C214.052 225.295 214.278 224.99 214.417 224.594C214.556 224.198 214.615 223.733 214.594 223.198V222.375C214.608 221.917 214.576 221.514 214.5 221.167C214.424 220.812 214.302 220.517 214.135 220.281C213.976 220.045 213.76 219.868 213.49 219.75C213.226 219.625 212.906 219.562 212.531 219.562C212.205 219.562 211.917 219.639 211.667 219.792C211.417 219.944 211.208 220.16 211.042 220.437C210.875 220.708 210.747 221.031 210.656 221.406C210.573 221.774 210.531 222.177 210.531 222.615ZM219.281 222.812V222.594C219.281 221.767 219.399 221.007 219.635 220.312C219.872 219.611 220.219 219.003 220.677 218.49C221.135 217.976 221.701 217.576 222.375 217.292C223.049 217 223.826 216.854 224.708 216.854C225.597 216.854 226.378 217 227.052 217.292C227.733 217.576 228.302 217.976 228.76 218.49C229.219 219.003 229.566 219.611 229.802 220.312C230.038 221.007 230.156 221.767 230.156 222.594V222.812C230.156 223.632 230.038 224.392 229.802 225.094C229.566 225.788 229.219 226.396 228.76 226.917C228.302 227.431 227.736 227.83 227.063 228.115C226.389 228.399 225.611 228.542 224.729 228.542C223.847 228.542 223.066 228.399 222.385 228.115C221.705 227.83 221.135 227.431 220.677 226.917C220.219 226.396 219.872 225.788 219.635 225.094C219.399 224.392 219.281 223.632 219.281 222.812ZM222.792 222.594V222.812C222.792 223.236 222.823 223.632 222.885 224C222.948 224.368 223.052 224.691 223.198 224.969C223.344 225.24 223.542 225.451 223.792 225.604C224.042 225.757 224.354 225.833 224.729 225.833C225.097 225.833 225.403 225.757 225.646 225.604C225.896 225.451 226.094 225.24 226.24 224.969C226.385 224.691 226.49 224.368 226.552 224C226.615 223.632 226.646 223.236 226.646 222.812V222.594C226.646 222.184 226.615 221.799 226.552 221.437C226.49 221.069 226.385 220.747 226.24 220.469C226.094 220.184 225.896 219.962 225.646 219.802C225.396 219.642 225.083 219.562 224.708 219.562C224.34 219.562 224.031 219.642 223.781 219.802C223.538 219.962 223.344 220.184 223.198 220.469C223.052 220.747 222.948 221.069 222.885 221.437C222.823 221.799 222.792 222.184 222.792 222.594ZM236.813 228.333H233.448L233.469 225.521H236.813C237.507 225.521 238.094 225.354 238.573 225.021C239.059 224.687 239.427 224.191 239.677 223.531C239.934 222.865 240.063 222.045 240.063 221.073V220.417C240.063 219.687 239.99 219.049 239.844 218.5C239.705 217.944 239.497 217.483 239.219 217.115C238.941 216.74 238.594 216.458 238.177 216.271C237.767 216.083 237.295 215.99 236.76 215.99H233.385V213.167H236.76C237.788 213.167 238.729 213.344 239.583 213.698C240.444 214.045 241.188 214.545 241.813 215.198C242.444 215.844 242.931 216.611 243.271 217.5C243.618 218.382 243.792 219.361 243.792 220.437V221.073C243.792 222.142 243.618 223.122 243.271 224.01C242.931 224.899 242.448 225.667 241.823 226.312C241.198 226.958 240.458 227.458 239.604 227.812C238.757 228.16 237.826 228.333 236.813 228.333ZM235.542 213.167V228.333H231.885V213.167H235.542ZM251.885 221.885H247.979L247.958 219.49H251.125C251.694 219.49 252.149 219.427 252.49 219.302C252.83 219.17 253.076 218.979 253.229 218.729C253.389 218.479 253.469 218.167 253.469 217.792C253.469 217.361 253.389 217.014 253.229 216.75C253.069 216.486 252.816 216.295 252.469 216.177C252.128 216.052 251.688 215.99 251.146 215.99H249.354V228.333H245.698V213.167H251.146C252.083 213.167 252.92 213.253 253.656 213.427C254.392 213.594 255.017 213.851 255.531 214.198C256.052 214.545 256.448 214.983 256.719 215.51C256.99 216.031 257.125 216.646 257.125 217.354C257.125 217.972 256.993 218.552 256.729 219.094C256.465 219.635 256.024 220.076 255.406 220.417C254.795 220.75 253.958 220.924 252.896 220.937L251.885 221.885ZM251.74 228.333H247.094L248.344 225.521H251.74C252.24 225.521 252.639 225.444 252.938 225.292C253.243 225.132 253.462 224.924 253.594 224.667C253.733 224.403 253.802 224.111 253.802 223.792C253.802 223.403 253.736 223.066 253.604 222.781C253.479 222.497 253.278 222.278 253 222.125C252.722 221.965 252.351 221.885 251.885 221.885H248.813L248.833 219.49H252.51L253.365 220.448C254.378 220.406 255.181 220.549 255.771 220.875C256.368 221.201 256.795 221.632 257.052 222.167C257.309 222.701 257.438 223.26 257.438 223.844C257.438 224.837 257.222 225.667 256.792 226.333C256.368 227 255.733 227.5 254.885 227.833C254.038 228.167 252.99 228.333 251.74 228.333Z" fill="white"/>
<rect x="339" y="196.333" width="208" height="49.3333" rx="4.66667" fill="#888888" stroke="#888888" stroke-width="4"/>
<path d="M416.427 225.521V228.333H408.344V225.521H416.427ZM409.646 213.167V228.333H405.99V213.167H409.646ZM415.385 219.187V221.906H408.344V219.187H415.385ZM416.458 213.167V215.99H408.344V213.167H416.458ZM420.74 217.062L422.323 220.167L423.958 217.062H427.604L424.646 222.552L427.76 228.333H424.083L422.323 225L420.573 228.333H416.896L420.01 222.552L417.062 217.062H420.74ZM432.302 219.229V232.667H428.792V217.062H432.062L432.302 219.229ZM439.219 222.562V222.781C439.219 223.601 439.125 224.361 438.937 225.062C438.75 225.764 438.472 226.375 438.104 226.896C437.736 227.417 437.278 227.823 436.729 228.115C436.187 228.399 435.559 228.542 434.844 228.542C434.17 228.542 433.59 228.392 433.104 228.094C432.618 227.795 432.212 227.382 431.885 226.854C431.559 226.326 431.295 225.722 431.094 225.042C430.892 224.361 430.733 223.642 430.615 222.885V222.604C430.733 221.792 430.892 221.038 431.094 220.344C431.295 219.642 431.559 219.031 431.885 218.51C432.212 217.99 432.615 217.583 433.094 217.292C433.58 217 434.16 216.854 434.833 216.854C435.549 216.854 436.177 216.99 436.719 217.26C437.267 217.531 437.726 217.92 438.094 218.427C438.469 218.927 438.75 219.528 438.937 220.229C439.125 220.931 439.219 221.708 439.219 222.562ZM435.708 222.781V222.562C435.708 222.125 435.677 221.726 435.615 221.365C435.552 220.997 435.451 220.677 435.312 220.406C435.181 220.135 435.003 219.927 434.781 219.781C434.559 219.635 434.285 219.562 433.958 219.562C433.583 219.562 433.267 219.622 433.01 219.74C432.76 219.851 432.559 220.024 432.406 220.26C432.26 220.49 432.156 220.778 432.094 221.125C432.038 221.465 432.014 221.865 432.021 222.323V223.177C432.007 223.705 432.059 224.17 432.177 224.573C432.295 224.969 432.5 225.278 432.792 225.5C433.083 225.722 433.479 225.833 433.979 225.833C434.312 225.833 434.59 225.757 434.812 225.604C435.035 225.444 435.212 225.226 435.344 224.948C435.476 224.663 435.569 224.337 435.625 223.969C435.681 223.601 435.708 223.205 435.708 222.781ZM444.323 219.854V228.333H440.812V217.062H444.094L444.323 219.854ZM447.656 216.979L447.594 220.24C447.455 220.226 447.267 220.208 447.031 220.187C446.795 220.167 446.597 220.156 446.437 220.156C446.028 220.156 445.674 220.205 445.375 220.302C445.083 220.392 444.84 220.531 444.646 220.719C444.458 220.899 444.319 221.128 444.229 221.406C444.146 221.684 444.108 222.007 444.115 222.375L443.479 221.958C443.479 221.201 443.552 220.514 443.698 219.896C443.851 219.271 444.066 218.733 444.344 218.281C444.622 217.823 444.958 217.472 445.354 217.229C445.75 216.979 446.194 216.854 446.687 216.854C446.861 216.854 447.031 216.865 447.198 216.885C447.372 216.906 447.524 216.937 447.656 216.979ZM454.115 228.542C453.198 228.542 452.378 228.399 451.656 228.115C450.934 227.823 450.323 227.424 449.823 226.917C449.33 226.41 448.951 225.826 448.687 225.167C448.431 224.507 448.302 223.809 448.302 223.073V222.677C448.302 221.851 448.417 221.087 448.646 220.385C448.875 219.677 449.215 219.059 449.667 218.531C450.118 218.003 450.684 217.594 451.365 217.302C452.045 217.003 452.837 216.854 453.74 216.854C454.538 216.854 455.253 216.983 455.885 217.24C456.517 217.497 457.052 217.865 457.49 218.344C457.934 218.823 458.271 219.403 458.5 220.083C458.736 220.764 458.854 221.528 458.854 222.375V223.802H449.646V221.604H455.427V221.333C455.434 220.958 455.368 220.639 455.229 220.375C455.097 220.111 454.903 219.91 454.646 219.771C454.389 219.632 454.076 219.562 453.708 219.562C453.326 219.562 453.01 219.646 452.76 219.812C452.517 219.979 452.326 220.208 452.187 220.5C452.056 220.785 451.962 221.115 451.906 221.49C451.851 221.865 451.823 222.26 451.823 222.677V223.073C451.823 223.49 451.878 223.868 451.99 224.208C452.108 224.549 452.274 224.84 452.49 225.083C452.712 225.319 452.976 225.503 453.281 225.635C453.594 225.767 453.948 225.833 454.344 225.833C454.823 225.833 455.295 225.743 455.76 225.562C456.226 225.382 456.625 225.083 456.958 224.667L458.552 226.562C458.323 226.889 457.997 227.205 457.573 227.51C457.156 227.816 456.656 228.066 456.073 228.26C455.49 228.448 454.837 228.542 454.115 228.542ZM466.187 225.167C466.187 224.972 466.122 224.806 465.99 224.667C465.865 224.521 465.642 224.389 465.323 224.271C465.003 224.146 464.556 224.021 463.979 223.896C463.431 223.778 462.913 223.622 462.427 223.427C461.948 223.233 461.528 222.997 461.167 222.719C460.806 222.441 460.521 222.111 460.312 221.729C460.111 221.347 460.01 220.91 460.01 220.417C460.01 219.937 460.111 219.486 460.312 219.062C460.521 218.632 460.823 218.253 461.219 217.927C461.622 217.594 462.111 217.333 462.687 217.146C463.264 216.951 463.92 216.854 464.656 216.854C465.67 216.854 466.545 217.01 467.281 217.323C468.017 217.628 468.583 218.059 468.979 218.615C469.382 219.163 469.583 219.799 469.583 220.521H466.073C466.073 220.236 466.024 219.993 465.927 219.792C465.837 219.59 465.687 219.437 465.479 219.333C465.271 219.222 464.993 219.167 464.646 219.167C464.403 219.167 464.181 219.212 463.979 219.302C463.785 219.392 463.628 219.517 463.51 219.677C463.392 219.837 463.333 220.024 463.333 220.24C463.333 220.392 463.368 220.531 463.437 220.656C463.514 220.774 463.628 220.885 463.781 220.99C463.934 221.087 464.128 221.177 464.365 221.26C464.601 221.337 464.885 221.406 465.219 221.469C465.976 221.608 466.684 221.806 467.344 222.062C468.003 222.319 468.538 222.684 468.948 223.156C469.365 223.628 469.573 224.264 469.573 225.062C469.573 225.562 469.458 226.024 469.229 226.448C469 226.865 468.67 227.233 468.24 227.552C467.809 227.865 467.292 228.108 466.687 228.281C466.083 228.455 465.403 228.542 464.646 228.542C463.569 228.542 462.66 228.351 461.917 227.969C461.174 227.58 460.611 227.094 460.229 226.51C459.854 225.92 459.667 225.323 459.667 224.719H462.937C462.951 225.066 463.035 225.351 463.187 225.573C463.347 225.795 463.559 225.958 463.823 226.062C464.087 226.167 464.392 226.219 464.74 226.219C465.059 226.219 465.323 226.174 465.531 226.083C465.747 225.993 465.91 225.872 466.021 225.719C466.132 225.559 466.187 225.375 466.187 225.167ZM477.125 225.167C477.125 224.972 477.059 224.806 476.927 224.667C476.802 224.521 476.58 224.389 476.26 224.271C475.941 224.146 475.493 224.021 474.917 223.896C474.368 223.778 473.851 223.622 473.365 223.427C472.885 223.233 472.465 222.997 472.104 222.719C471.743 222.441 471.458 222.111 471.25 221.729C471.049 221.347 470.948 220.91 470.948 220.417C470.948 219.937 471.049 219.486 471.25 219.062C471.458 218.632 471.76 218.253 472.156 217.927C472.559 217.594 473.049 217.333 473.625 217.146C474.201 216.951 474.858 216.854 475.594 216.854C476.608 216.854 477.483 217.01 478.219 217.323C478.955 217.628 479.521 218.059 479.917 218.615C480.319 219.163 480.521 219.799 480.521 220.521H477.01C477.01 220.236 476.962 219.993 476.865 219.792C476.774 219.59 476.625 219.437 476.417 219.333C476.208 219.222 475.931 219.167 475.583 219.167C475.34 219.167 475.118 219.212 474.917 219.302C474.722 219.392 474.566 219.517 474.448 219.677C474.33 219.837 474.271 220.024 474.271 220.24C474.271 220.392 474.306 220.531 474.375 220.656C474.451 220.774 474.566 220.885 474.719 220.99C474.872 221.087 475.066 221.177 475.302 221.26C475.538 221.337 475.823 221.406 476.156 221.469C476.913 221.608 477.622 221.806 478.281 222.062C478.941 222.319 479.476 222.684 479.885 223.156C480.302 223.628 480.51 224.264 480.51 225.062C480.51 225.562 480.396 226.024 480.167 226.448C479.937 226.865 479.608 227.233 479.177 227.552C478.747 227.865 478.229 228.108 477.625 228.281C477.021 228.455 476.34 228.542 475.583 228.542C474.507 228.542 473.597 228.351 472.854 227.969C472.111 227.58 471.549 227.094 471.167 226.51C470.792 225.92 470.604 225.323 470.604 224.719H473.875C473.889 225.066 473.972 225.351 474.125 225.573C474.285 225.795 474.497 225.958 474.76 226.062C475.024 226.167 475.33 226.219 475.677 226.219C475.997 226.219 476.26 226.174 476.469 226.083C476.684 225.993 476.847 225.872 476.958 225.719C477.069 225.559 477.125 225.375 477.125 225.167Z" fill="white"/>
<rect x="571" y="196.333" width="208" height="49.3333" rx="4.66667" fill="#888888" stroke="#888888" stroke-width="4"/>
<path d="M648.5 213.167H654.469C655.635 213.167 656.649 213.34 657.51 213.687C658.372 214.035 659.035 214.549 659.5 215.229C659.972 215.91 660.208 216.75 660.208 217.75C660.208 218.618 660.073 219.344 659.802 219.927C659.531 220.51 659.153 220.993 658.667 221.375C658.188 221.75 657.628 222.059 656.99 222.302L655.792 222.979H650.781L650.76 220.156H654.469C654.934 220.156 655.319 220.073 655.625 219.906C655.931 219.74 656.16 219.503 656.313 219.198C656.472 218.885 656.552 218.514 656.552 218.083C656.552 217.646 656.472 217.271 656.313 216.958C656.153 216.646 655.917 216.406 655.604 216.24C655.299 216.073 654.92 215.99 654.469 215.99H652.156V228.333H648.5V213.167ZM656.802 228.333L653.448 221.625L657.323 221.604L660.719 228.177V228.333H656.802ZM667.708 228.542C666.792 228.542 665.972 228.399 665.25 228.115C664.528 227.823 663.917 227.424 663.417 226.917C662.924 226.41 662.545 225.826 662.281 225.167C662.024 224.507 661.896 223.809 661.896 223.073V222.677C661.896 221.851 662.01 221.087 662.24 220.385C662.469 219.677 662.809 219.059 663.26 218.531C663.712 218.003 664.278 217.594 664.958 217.302C665.639 217.003 666.431 216.854 667.333 216.854C668.132 216.854 668.847 216.983 669.479 217.24C670.111 217.497 670.646 217.865 671.083 218.344C671.528 218.823 671.865 219.403 672.094 220.083C672.33 220.764 672.448 221.528 672.448 222.375V223.802H663.24V221.604H669.021V221.333C669.028 220.958 668.962 220.639 668.823 220.375C668.691 220.111 668.497 219.91 668.24 219.771C667.983 219.632 667.67 219.562 667.302 219.562C666.92 219.562 666.604 219.646 666.354 219.812C666.111 219.979 665.92 220.208 665.781 220.5C665.649 220.785 665.556 221.115 665.5 221.49C665.444 221.865 665.417 222.26 665.417 222.677V223.073C665.417 223.49 665.472 223.868 665.583 224.208C665.701 224.549 665.868 224.84 666.083 225.083C666.306 225.319 666.569 225.503 666.875 225.635C667.187 225.767 667.542 225.833 667.937 225.833C668.417 225.833 668.889 225.743 669.354 225.562C669.819 225.382 670.219 225.083 670.552 224.667L672.146 226.562C671.917 226.889 671.59 227.205 671.167 227.51C670.75 227.816 670.25 228.066 669.667 228.26C669.083 228.448 668.431 228.542 667.708 228.542ZM679.729 225.5V220.854C679.729 220.535 679.684 220.26 679.594 220.031C679.503 219.802 679.361 219.625 679.167 219.5C678.972 219.368 678.712 219.302 678.385 219.302C678.122 219.302 677.896 219.347 677.708 219.437C677.521 219.528 677.378 219.663 677.281 219.844C677.184 220.024 677.135 220.253 677.135 220.531H673.625C673.625 220.01 673.74 219.528 673.969 219.083C674.205 218.632 674.538 218.24 674.969 217.906C675.406 217.573 675.927 217.316 676.531 217.135C677.142 216.948 677.823 216.854 678.573 216.854C679.469 216.854 680.267 217.003 680.969 217.302C681.677 217.601 682.236 218.049 682.646 218.646C683.056 219.236 683.26 219.979 683.26 220.875V225.49C683.26 226.226 683.302 226.785 683.385 227.167C683.469 227.542 683.587 227.872 683.74 228.156V228.333H680.219C680.052 227.986 679.927 227.562 679.844 227.062C679.767 226.556 679.729 226.035 679.729 225.5ZM680.156 221.448L680.177 223.323H678.625C678.299 223.323 678.021 223.368 677.792 223.458C677.569 223.549 677.389 223.674 677.25 223.833C677.118 223.986 677.021 224.16 676.958 224.354C676.903 224.549 676.875 224.753 676.875 224.969C676.875 225.177 676.924 225.365 677.021 225.531C677.125 225.691 677.264 225.816 677.438 225.906C677.611 225.997 677.806 226.042 678.021 226.042C678.41 226.042 678.74 225.969 679.01 225.823C679.288 225.67 679.5 225.486 679.646 225.271C679.792 225.056 679.865 224.854 679.865 224.667L680.635 226.104C680.497 226.382 680.337 226.663 680.156 226.948C679.983 227.233 679.764 227.497 679.5 227.74C679.243 227.976 678.927 228.17 678.552 228.323C678.177 228.469 677.722 228.542 677.188 228.542C676.493 228.542 675.854 228.399 675.271 228.115C674.694 227.83 674.233 227.434 673.885 226.927C673.538 226.413 673.365 225.823 673.365 225.156C673.365 224.573 673.469 224.052 673.677 223.594C673.892 223.135 674.215 222.747 674.646 222.427C675.076 222.108 675.625 221.865 676.292 221.698C676.958 221.531 677.743 221.448 678.646 221.448H680.156ZM689.969 225.833C690.295 225.833 690.573 225.774 690.802 225.656C691.038 225.531 691.215 225.358 691.333 225.135C691.458 224.906 691.517 224.632 691.51 224.312H694.813C694.819 225.16 694.611 225.903 694.188 226.542C693.771 227.174 693.201 227.667 692.479 228.021C691.764 228.368 690.955 228.542 690.052 228.542C689.17 228.542 688.399 228.399 687.74 228.115C687.08 227.823 686.528 227.42 686.083 226.906C685.646 226.385 685.316 225.778 685.094 225.083C684.878 224.389 684.771 223.635 684.771 222.823V222.583C684.771 221.771 684.878 221.017 685.094 220.323C685.316 219.622 685.646 219.014 686.083 218.5C686.528 217.979 687.076 217.576 687.729 217.292C688.389 217 689.156 216.854 690.031 216.854C690.969 216.854 691.795 217.031 692.51 217.385C693.233 217.74 693.799 218.253 694.208 218.927C694.618 219.601 694.819 220.417 694.813 221.375H691.51C691.517 221.035 691.465 220.729 691.354 220.458C691.243 220.187 691.069 219.972 690.833 219.812C690.604 219.646 690.309 219.562 689.948 219.562C689.587 219.562 689.295 219.642 689.073 219.802C688.851 219.962 688.681 220.184 688.563 220.469C688.451 220.747 688.375 221.066 688.333 221.427C688.299 221.788 688.281 222.174 688.281 222.583V222.823C688.281 223.24 688.299 223.632 688.333 224C688.375 224.361 688.455 224.681 688.573 224.958C688.691 225.229 688.861 225.444 689.083 225.604C689.306 225.757 689.601 225.833 689.969 225.833ZM702.25 217.062V219.5H695.458V217.062H702.25ZM696.885 214.26H700.396V224.656C700.396 224.955 700.431 225.187 700.5 225.354C700.569 225.514 700.688 225.628 700.854 225.698C701.028 225.76 701.257 225.792 701.542 225.792C701.743 225.792 701.91 225.788 702.042 225.781C702.174 225.767 702.299 225.75 702.417 225.729V228.24C702.118 228.337 701.806 228.41 701.479 228.458C701.153 228.514 700.806 228.542 700.438 228.542C699.688 228.542 699.045 228.424 698.51 228.187C697.983 227.951 697.58 227.58 697.302 227.073C697.024 226.566 696.885 225.906 696.885 225.094V214.26Z" fill="white"/>
<rect x="803" y="196.333" width="208" height="49.3333" rx="4.66667" fill="#888888" stroke="#888888" stroke-width="4"/>
<rect x="803" y="196.333" width="208" height="49.3333" rx="4.66667" fill="#888888" stroke="#888888" stroke-width="4"/>
<path d="M883.937 213.167V228.333H880.292L874.927 218.896V228.333H871.271V213.167H874.927L880.292 222.604V213.167H883.937ZM885.646 222.812V222.594C885.646 221.767 885.764 221.007 886 220.312C886.236 219.611 886.583 219.003 887.042 218.49C887.5 217.976 888.066 217.576 888.74 217.292C889.413 217 890.191 216.854 891.073 216.854C891.962 216.854 892.743 217 893.417 217.292C894.097 217.576 894.667 217.976 895.125 218.49C895.583 219.003 895.931 219.611 896.167 220.312C896.403 221.007 896.521 221.767 896.521 222.594V222.812C896.521 223.632 896.403 224.392 896.167 225.094C895.931 225.788 895.583 226.396 895.125 226.917C894.667 227.431 894.101 227.83 893.427 228.115C892.753 228.399 891.976 228.542 891.094 228.542C890.212 228.542 889.431 228.399 888.75 228.115C888.069 227.83 887.5 227.431 887.042 226.917C886.583 226.396 886.236 225.788 886 225.094C885.764 224.392 885.646 223.632 885.646 222.812ZM889.156 222.594V222.812C889.156 223.236 889.187 223.632 889.25 224C889.312 224.368 889.417 224.691 889.562 224.969C889.708 225.24 889.906 225.451 890.156 225.604C890.406 225.757 890.719 225.833 891.094 225.833C891.462 225.833 891.767 225.757 892.01 225.604C892.26 225.451 892.458 225.24 892.604 224.969C892.75 224.691 892.854 224.368 892.917 224C892.979 223.632 893.01 223.236 893.01 222.812V222.594C893.01 222.184 892.979 221.799 892.917 221.437C892.854 221.069 892.75 220.747 892.604 220.469C892.458 220.184 892.26 219.962 892.01 219.802C891.76 219.642 891.448 219.562 891.073 219.562C890.705 219.562 890.396 219.642 890.146 219.802C889.903 219.962 889.708 220.184 889.562 220.469C889.417 220.747 889.312 221.069 889.25 221.437C889.187 221.799 889.156 222.184 889.156 222.594ZM904.563 225.75V212.333H908.094V228.333H904.927L904.563 225.75ZM897.646 222.833V222.615C897.646 221.76 897.74 220.983 897.927 220.281C898.115 219.573 898.392 218.965 898.76 218.458C899.128 217.944 899.587 217.549 900.135 217.271C900.684 216.993 901.316 216.854 902.031 216.854C902.67 216.854 903.229 217.003 903.708 217.302C904.188 217.594 904.597 218.003 904.938 218.531C905.278 219.059 905.556 219.677 905.771 220.385C905.986 221.087 906.149 221.844 906.26 222.656V222.917C906.149 223.681 905.986 224.403 905.771 225.083C905.556 225.757 905.278 226.354 904.938 226.875C904.597 227.396 904.184 227.806 903.698 228.104C903.219 228.396 902.656 228.542 902.01 228.542C901.295 228.542 900.663 228.399 900.115 228.115C899.573 227.83 899.118 227.431 898.75 226.917C898.389 226.403 898.115 225.799 897.927 225.104C897.74 224.41 897.646 223.653 897.646 222.833ZM901.156 222.615V222.833C901.156 223.257 901.184 223.649 901.24 224.01C901.295 224.372 901.389 224.691 901.521 224.969C901.66 225.24 901.84 225.451 902.063 225.604C902.292 225.757 902.573 225.833 902.906 225.833C903.358 225.833 903.729 225.726 904.021 225.51C904.319 225.295 904.538 224.99 904.677 224.594C904.823 224.198 904.885 223.733 904.865 223.198V222.375C904.878 221.917 904.847 221.514 904.771 221.167C904.694 220.812 904.573 220.517 904.406 220.281C904.247 220.045 904.042 219.868 903.792 219.75C903.549 219.625 903.26 219.562 902.927 219.562C902.601 219.562 902.323 219.639 902.094 219.792C901.872 219.944 901.691 220.16 901.552 220.437C901.413 220.708 901.313 221.031 901.25 221.406C901.188 221.774 901.156 222.177 901.156 222.615ZM915.542 228.542C914.625 228.542 913.806 228.399 913.083 228.115C912.361 227.823 911.75 227.424 911.25 226.917C910.757 226.41 910.378 225.826 910.115 225.167C909.858 224.507 909.729 223.809 909.729 223.073V222.677C909.729 221.851 909.844 221.087 910.073 220.385C910.302 219.677 910.642 219.059 911.094 218.531C911.545 218.003 912.111 217.594 912.792 217.302C913.472 217.003 914.264 216.854 915.167 216.854C915.965 216.854 916.681 216.983 917.313 217.24C917.944 217.497 918.479 217.865 918.917 218.344C919.361 218.823 919.698 219.403 919.927 220.083C920.163 220.764 920.281 221.528 920.281 222.375V223.802H911.073V221.604H916.854V221.333C916.861 220.958 916.795 220.639 916.656 220.375C916.524 220.111 916.33 219.91 916.073 219.771C915.816 219.632 915.503 219.562 915.135 219.562C914.753 219.562 914.438 219.646 914.188 219.812C913.944 219.979 913.753 220.208 913.615 220.5C913.483 220.785 913.389 221.115 913.333 221.49C913.278 221.865 913.25 222.26 913.25 222.677V223.073C913.25 223.49 913.306 223.868 913.417 224.208C913.535 224.549 913.701 224.84 913.917 225.083C914.139 225.319 914.403 225.503 914.708 225.635C915.021 225.767 915.375 225.833 915.771 225.833C916.25 225.833 916.722 225.743 917.188 225.562C917.653 225.382 918.052 225.083 918.385 224.667L919.979 226.562C919.75 226.889 919.424 227.205 919 227.51C918.583 227.816 918.083 228.066 917.5 228.26C916.917 228.448 916.264 228.542 915.542 228.542ZM921.938 226.687C921.938 226.187 922.118 225.771 922.479 225.437C922.84 225.097 923.306 224.927 923.875 224.927C924.451 224.927 924.917 225.097 925.271 225.437C925.632 225.771 925.813 226.187 925.813 226.687C925.813 227.187 925.632 227.608 925.271 227.948C924.917 228.281 924.451 228.448 923.875 228.448C923.306 228.448 922.84 228.281 922.479 227.948C922.118 227.608 921.938 227.187 921.938 226.687ZM928.427 217.062H931.948V228.698C931.948 229.601 931.774 230.361 931.427 230.979C931.08 231.604 930.583 232.076 929.937 232.396C929.292 232.722 928.521 232.885 927.625 232.885C927.326 232.885 927.052 232.872 926.802 232.844C926.545 232.823 926.264 232.778 925.958 232.708V230.052C926.139 230.08 926.306 230.101 926.458 230.115C926.611 230.135 926.778 230.146 926.958 230.146C927.278 230.146 927.545 230.094 927.76 229.99C927.976 229.885 928.139 229.726 928.25 229.51C928.368 229.295 928.427 229.024 928.427 228.698V217.062ZM928.167 214.156C928.167 213.656 928.347 213.247 928.708 212.927C929.069 212.608 929.538 212.448 930.115 212.448C930.691 212.448 931.16 212.608 931.521 212.927C931.882 213.247 932.062 213.656 932.062 214.156C932.062 214.656 931.882 215.066 931.521 215.385C931.16 215.705 930.691 215.865 930.115 215.865C929.538 215.865 929.069 215.705 928.708 215.385C928.347 215.066 928.167 214.656 928.167 214.156ZM939.844 225.167C939.844 224.972 939.778 224.806 939.646 224.667C939.521 224.521 939.299 224.389 938.979 224.271C938.66 224.146 938.212 224.021 937.635 223.896C937.087 223.778 936.569 223.622 936.083 223.427C935.604 223.233 935.184 222.997 934.823 222.719C934.462 222.441 934.177 222.111 933.969 221.729C933.767 221.347 933.667 220.91 933.667 220.417C933.667 219.937 933.767 219.486 933.969 219.062C934.177 218.632 934.479 218.253 934.875 217.927C935.278 217.594 935.767 217.333 936.344 217.146C936.92 216.951 937.576 216.854 938.312 216.854C939.326 216.854 940.201 217.01 940.937 217.323C941.674 217.628 942.24 218.059 942.635 218.615C943.038 219.163 943.24 219.799 943.24 220.521H939.729C939.729 220.236 939.681 219.993 939.583 219.792C939.493 219.59 939.344 219.437 939.135 219.333C938.927 219.222 938.649 219.167 938.302 219.167C938.059 219.167 937.837 219.212 937.635 219.302C937.441 219.392 937.285 219.517 937.167 219.677C937.049 219.837 936.99 220.024 936.99 220.24C936.99 220.392 937.024 220.531 937.094 220.656C937.17 220.774 937.285 220.885 937.437 220.99C937.59 221.087 937.785 221.177 938.021 221.26C938.257 221.337 938.542 221.406 938.875 221.469C939.632 221.608 940.34 221.806 941 222.062C941.66 222.319 942.194 222.684 942.604 223.156C943.021 223.628 943.229 224.264 943.229 225.062C943.229 225.562 943.115 226.024 942.885 226.448C942.656 226.865 942.326 227.233 941.896 227.552C941.465 227.865 940.948 228.108 940.344 228.281C939.74 228.455 939.059 228.542 938.302 228.542C937.226 228.542 936.316 228.351 935.573 227.969C934.83 227.58 934.267 227.094 933.885 226.51C933.51 225.92 933.323 225.323 933.323 224.719H936.594C936.608 225.066 936.691 225.351 936.844 225.573C937.003 225.795 937.215 225.958 937.479 226.062C937.743 226.167 938.049 226.219 938.396 226.219C938.715 226.219 938.979 226.174 939.187 226.083C939.403 225.993 939.566 225.872 939.677 225.719C939.788 225.559 939.844 225.375 939.844 225.167Z" fill="white"/>
</svg>
