<svg width="1363" height="167" viewBox="0 0 1363 167" fill="none" xmlns="http://www.w3.org/2000/svg">
<rect width="1363" height="167" rx="15" fill="#F0F0F0"/>
<path d="M0 15C0 6.71573 6.71573 0 15 0H37V167H15C6.71573 167 0 160.284 0 152V15Z" fill="#424241"/>
<path d="M100.906 50.9219L93.3945 48.2383V45.0859L103.602 49.375V51.6367L100.906 50.9219ZM93.3945 53.1719L100.918 50.4297L103.602 49.7852V52.0352L93.3945 56.3242V53.1719ZM117.137 58H113.422L113.445 55.2578H117.137C118.059 55.2578 118.836 55.0508 119.469 54.6367C120.102 54.2148 120.578 53.6016 120.898 52.7969C121.227 51.9922 121.391 51.0195 121.391 49.8789V49.0469C121.391 48.1719 121.297 47.4023 121.109 46.7383C120.93 46.0742 120.66 45.5156 120.301 45.0625C119.941 44.6094 119.5 44.2695 118.977 44.043C118.453 43.8086 117.852 43.6914 117.172 43.6914H113.352V40.9375H117.172C118.312 40.9375 119.355 41.1328 120.301 41.5234C121.254 41.9062 122.078 42.457 122.773 43.1758C123.469 43.8945 124.004 44.7539 124.379 45.7539C124.762 46.7461 124.953 47.8516 124.953 49.0703V49.8789C124.953 51.0898 124.762 52.1953 124.379 53.1953C124.004 54.1953 123.469 55.0547 122.773 55.7734C122.086 56.4844 121.262 57.0352 120.301 57.4258C119.348 57.8086 118.293 58 117.137 58ZM115.414 40.9375V58H111.898V40.9375H115.414ZM133.133 58.2344C132.148 58.2344 131.266 58.0781 130.484 57.7656C129.703 57.4453 129.039 57.0039 128.492 56.4414C127.953 55.8789 127.539 55.2266 127.25 54.4844C126.961 53.7344 126.816 52.9375 126.816 52.0938V51.625C126.816 50.6641 126.953 49.7852 127.227 48.9883C127.5 48.1914 127.891 47.5 128.398 46.9141C128.914 46.3281 129.539 45.8789 130.273 45.5664C131.008 45.2461 131.836 45.0859 132.758 45.0859C133.656 45.0859 134.453 45.2344 135.148 45.5312C135.844 45.8281 136.426 46.25 136.895 46.7969C137.371 47.3438 137.73 48 137.973 48.7656C138.215 49.5234 138.336 50.3672 138.336 51.2969V52.7031H128.258V50.4531H135.02V50.1953C135.02 49.7266 134.934 49.3086 134.762 48.9414C134.598 48.5664 134.348 48.2695 134.012 48.0508C133.676 47.832 133.246 47.7227 132.723 47.7227C132.277 47.7227 131.895 47.8203 131.574 48.0156C131.254 48.2109 130.992 48.4844 130.789 48.8359C130.594 49.1875 130.445 49.6016 130.344 50.0781C130.25 50.5469 130.203 51.0625 130.203 51.625V52.0938C130.203 52.6016 130.273 53.0703 130.414 53.5C130.562 53.9297 130.77 54.3008 131.035 54.6133C131.309 54.9258 131.637 55.168 132.02 55.3398C132.41 55.5117 132.852 55.5977 133.344 55.5977C133.953 55.5977 134.52 55.4805 135.043 55.2461C135.574 55.0039 136.031 54.6406 136.414 54.1562L138.055 55.9375C137.789 56.3203 137.426 56.6875 136.965 57.0391C136.512 57.3906 135.965 57.6797 135.324 57.9062C134.684 58.125 133.953 58.2344 133.133 58.2344ZM144.406 55.5391L147.219 45.3203H150.746L146.469 58H144.336L144.406 55.5391ZM142.473 45.3203L145.297 55.5508L145.355 58H143.211L138.934 45.3203H142.473ZM163.918 55.2578V58H154.836V55.2578H163.918ZM155.984 40.9375V58H152.469V40.9375H155.984ZM162.734 47.8867V50.5586H154.836V47.8867H162.734ZM163.906 40.9375V43.6914H154.836V40.9375H163.906ZM168.477 45.3203L170.574 49.1758L172.73 45.3203H176.328L172.742 51.5195L176.492 58H172.883L170.598 53.9219L168.312 58H164.703L168.453 51.5195L164.867 45.3203H168.477ZM182.973 55.5977C183.387 55.5977 183.754 55.5195 184.074 55.3633C184.395 55.1992 184.645 54.9727 184.824 54.6836C185.012 54.3867 185.109 54.0391 185.117 53.6406H188.293C188.285 54.5312 188.047 55.3242 187.578 56.0195C187.109 56.707 186.48 57.25 185.691 57.6484C184.902 58.0391 184.02 58.2344 183.043 58.2344C182.059 58.2344 181.199 58.0703 180.465 57.7422C179.738 57.4141 179.133 56.9609 178.648 56.3828C178.164 55.7969 177.801 55.1172 177.559 54.3438C177.316 53.5625 177.195 52.7266 177.195 51.8359V51.4961C177.195 50.5977 177.316 49.7617 177.559 48.9883C177.801 48.207 178.164 47.5273 178.648 46.9492C179.133 46.3633 179.738 45.9062 180.465 45.5781C181.191 45.25 182.043 45.0859 183.02 45.0859C184.059 45.0859 184.969 45.2852 185.75 45.6836C186.539 46.082 187.156 46.6523 187.602 47.3945C188.055 48.1289 188.285 49 188.293 50.0078H185.117C185.109 49.5859 185.02 49.2031 184.848 48.8594C184.684 48.5156 184.441 48.2422 184.121 48.0391C183.809 47.8281 183.422 47.7227 182.961 47.7227C182.469 47.7227 182.066 47.8281 181.754 48.0391C181.441 48.2422 181.199 48.5234 181.027 48.8828C180.855 49.2344 180.734 49.6367 180.664 50.0898C180.602 50.5352 180.57 51.0039 180.57 51.4961V51.8359C180.57 52.3281 180.602 52.8008 180.664 53.2539C180.727 53.707 180.844 54.1094 181.016 54.4609C181.195 54.8125 181.441 55.0898 181.754 55.293C182.066 55.4961 182.473 55.5977 182.973 55.5977ZM193.543 40V58H190.168V40H193.543ZM193.062 51.2148H192.137C192.145 50.332 192.262 49.5195 192.488 48.7773C192.715 48.0273 193.039 47.3789 193.461 46.832C193.883 46.2773 194.387 45.8477 194.973 45.543C195.566 45.2383 196.223 45.0859 196.941 45.0859C197.566 45.0859 198.133 45.1758 198.641 45.3555C199.156 45.5273 199.598 45.8086 199.965 46.1992C200.34 46.582 200.629 47.0859 200.832 47.7109C201.035 48.3359 201.137 49.0938 201.137 49.9844V58H197.738V49.9609C197.738 49.3984 197.656 48.957 197.492 48.6367C197.336 48.3086 197.105 48.0781 196.801 47.9453C196.504 47.8047 196.137 47.7344 195.699 47.7344C195.215 47.7344 194.801 47.8242 194.457 48.0039C194.121 48.1836 193.852 48.4336 193.648 48.7539C193.445 49.0664 193.297 49.4336 193.203 49.8555C193.109 50.2773 193.062 50.7305 193.062 51.2148ZM210.547 55.1406V49.4922C210.547 49.0859 210.48 48.7383 210.348 48.4492C210.215 48.1523 210.008 47.9219 209.727 47.7578C209.453 47.5938 209.098 47.5117 208.66 47.5117C208.285 47.5117 207.961 47.5781 207.688 47.7109C207.414 47.8359 207.203 48.0195 207.055 48.2617C206.906 48.4961 206.832 48.7734 206.832 49.0938H203.457C203.457 48.5547 203.582 48.043 203.832 47.5586C204.082 47.0742 204.445 46.6484 204.922 46.2812C205.398 45.9062 205.965 45.6133 206.621 45.4023C207.285 45.1914 208.027 45.0859 208.848 45.0859C209.832 45.0859 210.707 45.25 211.473 45.5781C212.238 45.9062 212.84 46.3984 213.277 47.0547C213.723 47.7109 213.945 48.5312 213.945 49.5156V54.9414C213.945 55.6367 213.988 56.207 214.074 56.6523C214.16 57.0898 214.285 57.4727 214.449 57.8008V58H211.039C210.875 57.6562 210.75 57.2266 210.664 56.7109C210.586 56.1875 210.547 55.6641 210.547 55.1406ZM210.992 50.2773L211.016 52.1875H209.129C208.684 52.1875 208.297 52.2383 207.969 52.3398C207.641 52.4414 207.371 52.5859 207.16 52.7734C206.949 52.9531 206.793 53.1641 206.691 53.4062C206.598 53.6484 206.551 53.9141 206.551 54.2031C206.551 54.4922 206.617 54.7539 206.75 54.9883C206.883 55.2148 207.074 55.3945 207.324 55.5273C207.574 55.6523 207.867 55.7148 208.203 55.7148C208.711 55.7148 209.152 55.6133 209.527 55.4102C209.902 55.207 210.191 54.957 210.395 54.6602C210.605 54.3633 210.715 54.082 210.723 53.8164L211.613 55.2461C211.488 55.5664 211.316 55.8984 211.098 56.2422C210.887 56.5859 210.617 56.9102 210.289 57.2148C209.961 57.5117 209.566 57.7578 209.105 57.9531C208.645 58.1406 208.098 58.2344 207.465 58.2344C206.66 58.2344 205.93 58.0742 205.273 57.7539C204.625 57.4258 204.109 56.9766 203.727 56.4062C203.352 55.8281 203.164 55.1719 203.164 54.4375C203.164 53.7734 203.289 53.1836 203.539 52.668C203.789 52.1523 204.156 51.7188 204.641 51.3672C205.133 51.0078 205.746 50.7383 206.48 50.5586C207.215 50.3711 208.066 50.2773 209.035 50.2773H210.992ZM219.852 48.0273V58H216.477V45.3203H219.641L219.852 48.0273ZM219.359 51.2148H218.445C218.445 50.2773 218.566 49.4336 218.809 48.6836C219.051 47.9258 219.391 47.2812 219.828 46.75C220.266 46.2109 220.785 45.8008 221.387 45.5195C221.996 45.2305 222.676 45.0859 223.426 45.0859C224.02 45.0859 224.562 45.1719 225.055 45.3438C225.547 45.5156 225.969 45.7891 226.32 46.1641C226.68 46.5391 226.953 47.0352 227.141 47.6523C227.336 48.2695 227.434 49.0234 227.434 49.9141V58H224.035V49.9023C224.035 49.3398 223.957 48.9023 223.801 48.5898C223.645 48.2773 223.414 48.0586 223.109 47.9336C222.812 47.8008 222.445 47.7344 222.008 47.7344C221.555 47.7344 221.16 47.8242 220.824 48.0039C220.496 48.1836 220.223 48.4336 220.004 48.7539C219.793 49.0664 219.633 49.4336 219.523 49.8555C219.414 50.2773 219.359 50.7305 219.359 51.2148ZM238.027 45.3203H241.086V57.5781C241.086 58.7344 240.828 59.7148 240.312 60.5195C239.805 61.332 239.094 61.9453 238.18 62.3594C237.266 62.7812 236.203 62.9922 234.992 62.9922C234.461 62.9922 233.898 62.9219 233.305 62.7812C232.719 62.6406 232.156 62.4219 231.617 62.125C231.086 61.8281 230.641 61.4531 230.281 61L231.77 59.0078C232.16 59.4609 232.613 59.8125 233.129 60.0625C233.645 60.3203 234.215 60.4492 234.84 60.4492C235.449 60.4492 235.965 60.3359 236.387 60.1094C236.809 59.8906 237.133 59.5664 237.359 59.1367C237.586 58.7148 237.699 58.2031 237.699 57.6016V48.25L238.027 45.3203ZM229.496 51.8125V51.5664C229.496 50.5977 229.613 49.7188 229.848 48.9297C230.09 48.1328 230.43 47.4492 230.867 46.8789C231.312 46.3086 231.852 45.8672 232.484 45.5547C233.117 45.2422 233.832 45.0859 234.629 45.0859C235.473 45.0859 236.18 45.2422 236.75 45.5547C237.32 45.8672 237.789 46.3125 238.156 46.8906C238.523 47.4609 238.809 48.1367 239.012 48.918C239.223 49.6914 239.387 50.5391 239.504 51.4609V52C239.387 52.8828 239.211 53.7031 238.977 54.4609C238.742 55.2188 238.434 55.8828 238.051 56.4531C237.668 57.0156 237.191 57.4531 236.621 57.7656C236.059 58.0781 235.387 58.2344 234.605 58.2344C233.824 58.2344 233.117 58.0742 232.484 57.7539C231.859 57.4336 231.324 56.9844 230.879 56.4062C230.434 55.8281 230.09 55.1484 229.848 54.3672C229.613 53.5859 229.496 52.7344 229.496 51.8125ZM232.871 51.5664V51.8125C232.871 52.3359 232.922 52.8242 233.023 53.2773C233.125 53.7305 233.281 54.1328 233.492 54.4844C233.711 54.8281 233.98 55.0977 234.301 55.293C234.629 55.4805 235.016 55.5742 235.461 55.5742C236.078 55.5742 236.582 55.4453 236.973 55.1875C237.363 54.9219 237.656 54.5586 237.852 54.0977C238.047 53.6367 238.16 53.1055 238.191 52.5039V50.9688C238.176 50.4766 238.109 50.0352 237.992 49.6445C237.875 49.2461 237.711 48.9062 237.5 48.625C237.289 48.3438 237.016 48.125 236.68 47.9688C236.344 47.8125 235.945 47.7344 235.484 47.7344C235.039 47.7344 234.652 47.8359 234.324 48.0391C234.004 48.2344 233.734 48.5039 233.516 48.8477C233.305 49.1914 233.145 49.5977 233.035 50.0664C232.926 50.5273 232.871 51.0273 232.871 51.5664ZM249.547 58.2344C248.562 58.2344 247.68 58.0781 246.898 57.7656C246.117 57.4453 245.453 57.0039 244.906 56.4414C244.367 55.8789 243.953 55.2266 243.664 54.4844C243.375 53.7344 243.23 52.9375 243.23 52.0938V51.625C243.23 50.6641 243.367 49.7852 243.641 48.9883C243.914 48.1914 244.305 47.5 244.812 46.9141C245.328 46.3281 245.953 45.8789 246.688 45.5664C247.422 45.2461 248.25 45.0859 249.172 45.0859C250.07 45.0859 250.867 45.2344 251.562 45.5312C252.258 45.8281 252.84 46.25 253.309 46.7969C253.785 47.3438 254.145 48 254.387 48.7656C254.629 49.5234 254.75 50.3672 254.75 51.2969V52.7031H244.672V50.4531H251.434V50.1953C251.434 49.7266 251.348 49.3086 251.176 48.9414C251.012 48.5664 250.762 48.2695 250.426 48.0508C250.09 47.832 249.66 47.7227 249.137 47.7227C248.691 47.7227 248.309 47.8203 247.988 48.0156C247.668 48.2109 247.406 48.4844 247.203 48.8359C247.008 49.1875 246.859 49.6016 246.758 50.0781C246.664 50.5469 246.617 51.0625 246.617 51.625V52.0938C246.617 52.6016 246.688 53.0703 246.828 53.5C246.977 53.9297 247.184 54.3008 247.449 54.6133C247.723 54.9258 248.051 55.168 248.434 55.3398C248.824 55.5117 249.266 55.5977 249.758 55.5977C250.367 55.5977 250.934 55.4805 251.457 55.2461C251.988 55.0039 252.445 54.6406 252.828 54.1562L254.469 55.9375C254.203 56.3203 253.84 56.6875 253.379 57.0391C252.926 57.3906 252.379 57.6797 251.738 57.9062C251.098 58.125 250.367 58.2344 249.547 58.2344Z" fill="#888888"/>
<path d="M102.635 86.0078V118H94.9443V86.0078H102.635ZM115.181 99.2573V118H107.776V94.2256H114.72L115.181 99.2573ZM114.28 105.3L112.588 105.344C112.588 103.674 112.786 102.136 113.182 100.729C113.577 99.3232 114.163 98.1001 114.939 97.0601C115.716 96.02 116.668 95.2144 117.796 94.6431C118.938 94.0718 120.257 93.7861 121.751 93.7861C122.791 93.7861 123.736 93.9473 124.585 94.2695C125.435 94.5771 126.167 95.0679 126.783 95.7417C127.398 96.4009 127.867 97.2651 128.189 98.3345C128.526 99.3892 128.694 100.656 128.694 102.136V118H121.29V103.081C121.29 102.07 121.172 101.308 120.938 100.795C120.718 100.283 120.396 99.9385 119.971 99.7627C119.546 99.5869 119.026 99.499 118.411 99.499C117.767 99.499 117.188 99.6455 116.675 99.9385C116.163 100.231 115.723 100.642 115.357 101.169C115.005 101.682 114.734 102.29 114.544 102.993C114.368 103.696 114.28 104.465 114.28 105.3ZM127.859 105.3L125.794 105.344C125.794 103.674 125.977 102.136 126.343 100.729C126.724 99.3232 127.288 98.1001 128.035 97.0601C128.797 96.02 129.742 95.2144 130.87 94.6431C131.998 94.0718 133.309 93.7861 134.803 93.7861C135.887 93.7861 136.883 93.9473 137.791 94.2695C138.699 94.5918 139.483 95.1118 140.142 95.8296C140.801 96.5474 141.314 97.4995 141.68 98.686C142.046 99.8579 142.229 101.308 142.229 103.037V118H134.803V103.037C134.803 102.055 134.686 101.315 134.451 100.817C134.231 100.305 133.909 99.9604 133.484 99.7847C133.06 99.5942 132.554 99.499 131.968 99.499C131.265 99.499 130.657 99.6455 130.145 99.9385C129.632 100.231 129.2 100.642 128.848 101.169C128.511 101.682 128.262 102.29 128.101 102.993C127.94 103.696 127.859 104.465 127.859 105.3ZM153.941 98.7959V127.141H146.536V94.2256H153.436L153.941 98.7959ZM168.531 105.827V106.289C168.531 108.017 168.333 109.621 167.938 111.101C167.542 112.58 166.956 113.869 166.18 114.968C165.403 116.066 164.437 116.923 163.279 117.539C162.137 118.139 160.811 118.439 159.302 118.439C157.881 118.439 156.658 118.125 155.633 117.495C154.607 116.865 153.75 115.993 153.062 114.88C152.374 113.767 151.817 112.492 151.392 111.057C150.967 109.621 150.63 108.105 150.381 106.508V105.915C150.63 104.201 150.967 102.612 151.392 101.147C151.817 99.6675 152.374 98.3784 153.062 97.2798C153.75 96.1812 154.6 95.3242 155.611 94.709C156.636 94.0938 157.859 93.7861 159.28 93.7861C160.789 93.7861 162.115 94.0718 163.257 94.6431C164.415 95.2144 165.381 96.0347 166.158 97.104C166.949 98.1587 167.542 99.4258 167.938 100.905C168.333 102.385 168.531 104.025 168.531 105.827ZM161.126 106.289V105.827C161.126 104.904 161.06 104.062 160.928 103.3C160.796 102.524 160.584 101.85 160.291 101.279C160.013 100.708 159.639 100.268 159.17 99.9604C158.702 99.6528 158.123 99.499 157.435 99.499C156.644 99.499 155.977 99.6235 155.435 99.8726C154.908 100.107 154.483 100.473 154.161 100.971C153.853 101.455 153.633 102.062 153.501 102.795C153.384 103.513 153.333 104.355 153.348 105.322V107.124C153.318 108.237 153.428 109.218 153.677 110.068C153.926 110.903 154.358 111.555 154.974 112.023C155.589 112.492 156.424 112.727 157.479 112.727C158.182 112.727 158.768 112.565 159.236 112.243C159.705 111.906 160.079 111.445 160.357 110.859C160.635 110.258 160.833 109.57 160.95 108.793C161.067 108.017 161.126 107.182 161.126 106.289ZM179.649 84.25V118H172.222V84.25H179.649ZM195.733 118.439C193.799 118.439 192.071 118.139 190.547 117.539C189.024 116.923 187.735 116.081 186.68 115.012C185.64 113.942 184.842 112.712 184.285 111.32C183.743 109.929 183.472 108.457 183.472 106.904V106.069C183.472 104.326 183.714 102.714 184.197 101.235C184.681 99.7407 185.398 98.437 186.351 97.3237C187.303 96.2104 188.497 95.3462 189.932 94.731C191.368 94.1011 193.038 93.7861 194.942 93.7861C196.626 93.7861 198.135 94.0571 199.468 94.5991C200.801 95.1411 201.929 95.9175 202.852 96.9282C203.79 97.939 204.5 99.1621 204.983 100.598C205.481 102.033 205.73 103.645 205.73 105.432V108.442H186.307V103.806H198.501V103.234C198.516 102.443 198.377 101.77 198.084 101.213C197.806 100.656 197.396 100.231 196.854 99.9385C196.312 99.6455 195.652 99.499 194.876 99.499C194.07 99.499 193.404 99.6748 192.876 100.026C192.364 100.378 191.961 100.861 191.668 101.477C191.39 102.077 191.192 102.773 191.075 103.564C190.958 104.355 190.899 105.19 190.899 106.069V106.904C190.899 107.783 191.016 108.581 191.25 109.299C191.5 110.017 191.851 110.632 192.305 111.145C192.774 111.643 193.331 112.031 193.975 112.309C194.634 112.587 195.381 112.727 196.216 112.727C197.227 112.727 198.223 112.536 199.205 112.155C200.186 111.774 201.028 111.145 201.731 110.266L205.093 114.265C204.61 114.953 203.921 115.62 203.028 116.264C202.149 116.909 201.094 117.436 199.864 117.846C198.633 118.242 197.256 118.439 195.733 118.439ZM216.211 99.2573V118H208.807V94.2256H215.75L216.211 99.2573ZM215.311 105.3L213.619 105.344C213.619 103.674 213.816 102.136 214.212 100.729C214.607 99.3232 215.193 98.1001 215.97 97.0601C216.746 96.02 217.698 95.2144 218.826 94.6431C219.969 94.0718 221.287 93.7861 222.781 93.7861C223.821 93.7861 224.766 93.9473 225.616 94.2695C226.465 94.5771 227.198 95.0679 227.813 95.7417C228.428 96.4009 228.897 97.2651 229.219 98.3345C229.556 99.3892 229.725 100.656 229.725 102.136V118H222.32V103.081C222.32 102.07 222.203 101.308 221.968 100.795C221.749 100.283 221.426 99.9385 221.001 99.7627C220.577 99.5869 220.057 99.499 219.441 99.499C218.797 99.499 218.218 99.6455 217.706 99.9385C217.193 100.231 216.753 100.642 216.387 101.169C216.036 101.682 215.765 102.29 215.574 102.993C215.398 103.696 215.311 104.465 215.311 105.3ZM228.89 105.3L226.824 105.344C226.824 103.674 227.007 102.136 227.374 100.729C227.754 99.3232 228.318 98.1001 229.065 97.0601C229.827 96.02 230.772 95.2144 231.9 94.6431C233.028 94.0718 234.339 93.7861 235.833 93.7861C236.917 93.7861 237.913 93.9473 238.821 94.2695C239.729 94.5918 240.513 95.1118 241.172 95.8296C241.832 96.5474 242.344 97.4995 242.71 98.686C243.077 99.8579 243.26 101.308 243.26 103.037V118H235.833V103.037C235.833 102.055 235.716 101.315 235.481 100.817C235.262 100.305 234.939 99.9604 234.515 99.7847C234.09 99.5942 233.584 99.499 232.999 99.499C232.295 99.499 231.688 99.6455 231.175 99.9385C230.662 100.231 230.23 100.642 229.878 101.169C229.542 101.682 229.292 102.29 229.131 102.993C228.97 103.696 228.89 104.465 228.89 105.3ZM259.014 118.439C257.081 118.439 255.352 118.139 253.829 117.539C252.305 116.923 251.016 116.081 249.961 115.012C248.921 113.942 248.123 112.712 247.566 111.32C247.024 109.929 246.753 108.457 246.753 106.904V106.069C246.753 104.326 246.995 102.714 247.479 101.235C247.962 99.7407 248.68 98.437 249.632 97.3237C250.584 96.2104 251.778 95.3462 253.213 94.731C254.649 94.1011 256.319 93.7861 258.223 93.7861C259.908 93.7861 261.417 94.0571 262.75 94.5991C264.083 95.1411 265.21 95.9175 266.133 96.9282C267.071 97.939 267.781 99.1621 268.265 100.598C268.763 102.033 269.012 103.645 269.012 105.432V108.442H249.588V103.806H261.783V103.234C261.797 102.443 261.658 101.77 261.365 101.213C261.087 100.656 260.677 100.231 260.135 99.9385C259.593 99.6455 258.934 99.499 258.157 99.499C257.352 99.499 256.685 99.6748 256.158 100.026C255.645 100.378 255.242 100.861 254.949 101.477C254.671 102.077 254.473 102.773 254.356 103.564C254.239 104.355 254.18 105.19 254.18 106.069V106.904C254.18 107.783 254.297 108.581 254.532 109.299C254.781 110.017 255.132 110.632 255.586 111.145C256.055 111.643 256.612 112.031 257.256 112.309C257.916 112.587 258.663 112.727 259.498 112.727C260.508 112.727 261.504 112.536 262.486 112.155C263.467 111.774 264.31 111.145 265.013 110.266L268.375 114.265C267.891 114.953 267.203 115.62 266.309 116.264C265.43 116.909 264.375 117.436 263.145 117.846C261.915 118.242 260.538 118.439 259.014 118.439ZM279.295 99.3013V118H271.89V94.2256H278.833L279.295 99.3013ZM278.416 105.3L276.68 105.344C276.68 103.527 276.9 101.909 277.339 100.488C277.779 99.0522 278.401 97.8364 279.207 96.8403C280.013 95.8442 280.972 95.0898 282.085 94.5771C283.213 94.0498 284.466 93.7861 285.843 93.7861C286.941 93.7861 287.945 93.9473 288.853 94.2695C289.776 94.5918 290.567 95.1118 291.226 95.8296C291.9 96.5474 292.413 97.4995 292.764 98.686C293.13 99.8579 293.313 101.308 293.313 103.037V118H285.865V103.015C285.865 102.062 285.733 101.337 285.469 100.839C285.206 100.327 284.825 99.9751 284.327 99.7847C283.829 99.5942 283.221 99.499 282.503 99.499C281.741 99.499 281.097 99.6455 280.569 99.9385C280.042 100.231 279.617 100.642 279.295 101.169C278.987 101.682 278.76 102.29 278.614 102.993C278.482 103.696 278.416 104.465 278.416 105.3ZM309.947 94.2256V99.3672H295.621V94.2256H309.947ZM298.631 88.3149H306.036V110.244C306.036 110.874 306.109 111.364 306.255 111.716C306.402 112.053 306.651 112.294 307.002 112.441C307.369 112.573 307.852 112.639 308.453 112.639C308.877 112.639 309.229 112.631 309.507 112.617C309.786 112.587 310.049 112.551 310.298 112.507V117.802C309.668 118.007 309.009 118.161 308.321 118.264C307.632 118.381 306.9 118.439 306.124 118.439C304.542 118.439 303.187 118.19 302.059 117.692C300.945 117.194 300.096 116.411 299.51 115.341C298.924 114.272 298.631 112.88 298.631 111.167V88.3149ZM325.24 112.023V102.224C325.24 101.55 325.145 100.971 324.954 100.488C324.764 100.004 324.463 99.6309 324.053 99.3672C323.643 99.0889 323.094 98.9497 322.405 98.9497C321.849 98.9497 321.373 99.0449 320.977 99.2354C320.582 99.4258 320.281 99.7114 320.076 100.092C319.871 100.473 319.769 100.957 319.769 101.542H312.364C312.364 100.444 312.605 99.4258 313.089 98.4883C313.587 97.5361 314.29 96.7085 315.198 96.0054C316.121 95.3022 317.22 94.7603 318.494 94.3794C319.783 93.9839 321.219 93.7861 322.801 93.7861C324.69 93.7861 326.375 94.1011 327.854 94.731C329.349 95.3608 330.528 96.3057 331.392 97.5654C332.256 98.8105 332.688 100.378 332.688 102.268V112.001C332.688 113.554 332.776 114.733 332.952 115.539C333.128 116.33 333.377 117.026 333.699 117.626V118H326.272C325.921 117.268 325.657 116.374 325.481 115.319C325.32 114.25 325.24 113.151 325.24 112.023ZM326.141 103.476L326.185 107.431H322.911C322.222 107.431 321.636 107.526 321.153 107.717C320.684 107.907 320.303 108.171 320.01 108.508C319.732 108.83 319.527 109.196 319.395 109.606C319.278 110.017 319.219 110.449 319.219 110.903C319.219 111.342 319.322 111.738 319.527 112.089C319.747 112.426 320.04 112.69 320.406 112.88C320.772 113.071 321.182 113.166 321.636 113.166C322.457 113.166 323.152 113.012 323.724 112.705C324.31 112.382 324.756 111.994 325.064 111.54C325.372 111.086 325.525 110.661 325.525 110.266L327.151 113.298C326.858 113.884 326.521 114.477 326.141 115.078C325.774 115.678 325.313 116.235 324.756 116.748C324.214 117.246 323.548 117.656 322.757 117.978C321.966 118.286 321.006 118.439 319.878 118.439C318.414 118.439 317.066 118.139 315.835 117.539C314.62 116.938 313.646 116.103 312.913 115.034C312.181 113.95 311.814 112.705 311.814 111.298C311.814 110.068 312.034 108.969 312.474 108.002C312.928 107.036 313.609 106.215 314.517 105.542C315.425 104.868 316.583 104.355 317.989 104.003C319.395 103.652 321.05 103.476 322.955 103.476H326.141ZM349.322 94.2256V99.3672H334.996V94.2256H349.322ZM338.006 88.3149H345.411V110.244C345.411 110.874 345.484 111.364 345.63 111.716C345.777 112.053 346.026 112.294 346.377 112.441C346.744 112.573 347.227 112.639 347.828 112.639C348.252 112.639 348.604 112.631 348.882 112.617C349.161 112.587 349.424 112.551 349.673 112.507V117.802C349.043 118.007 348.384 118.161 347.696 118.264C347.007 118.381 346.275 118.439 345.499 118.439C343.917 118.439 342.562 118.19 341.434 117.692C340.32 117.194 339.471 116.411 338.885 115.341C338.299 114.272 338.006 112.88 338.006 111.167V88.3149ZM360.088 94.2256V118H352.662V94.2256H360.088ZM352.222 88.0952C352.222 87.0405 352.603 86.1763 353.365 85.5024C354.126 84.8286 355.115 84.4917 356.331 84.4917C357.547 84.4917 358.536 84.8286 359.297 85.5024C360.059 86.1763 360.44 87.0405 360.44 88.0952C360.44 89.1499 360.059 90.0142 359.297 90.688C358.536 91.3618 357.547 91.6987 356.331 91.6987C355.115 91.6987 354.126 91.3618 353.365 90.688C352.603 90.0142 352.222 89.1499 352.222 88.0952ZM363.736 106.354V105.893C363.736 104.15 363.985 102.546 364.483 101.081C364.981 99.6016 365.713 98.3198 366.68 97.2358C367.647 96.1519 368.841 95.3096 370.262 94.709C371.683 94.0938 373.323 93.7861 375.184 93.7861C377.059 93.7861 378.707 94.0938 380.127 94.709C381.563 95.3096 382.764 96.1519 383.731 97.2358C384.698 98.3198 385.43 99.6016 385.928 101.081C386.426 102.546 386.675 104.15 386.675 105.893V106.354C386.675 108.083 386.426 109.687 385.928 111.167C385.43 112.631 384.698 113.913 383.731 115.012C382.764 116.096 381.57 116.938 380.149 117.539C378.729 118.139 377.088 118.439 375.228 118.439C373.367 118.439 371.719 118.139 370.284 117.539C368.848 116.938 367.647 116.096 366.68 115.012C365.713 113.913 364.981 112.631 364.483 111.167C363.985 109.687 363.736 108.083 363.736 106.354ZM371.141 105.893V106.354C371.141 107.248 371.207 108.083 371.338 108.859C371.47 109.636 371.69 110.317 371.998 110.903C372.305 111.474 372.723 111.921 373.25 112.243C373.777 112.565 374.437 112.727 375.228 112.727C376.004 112.727 376.648 112.565 377.161 112.243C377.688 111.921 378.106 111.474 378.414 110.903C378.721 110.317 378.941 109.636 379.073 108.859C379.205 108.083 379.271 107.248 379.271 106.354V105.893C379.271 105.029 379.205 104.216 379.073 103.454C378.941 102.678 378.721 101.997 378.414 101.411C378.106 100.81 377.688 100.341 377.161 100.004C376.634 99.6675 375.975 99.499 375.184 99.499C374.407 99.499 373.755 99.6675 373.228 100.004C372.715 100.341 372.305 100.81 371.998 101.411C371.69 101.997 371.47 102.678 371.338 103.454C371.207 104.216 371.141 105.029 371.141 105.893ZM397.244 99.3013V118H389.839V94.2256H396.783L397.244 99.3013ZM396.365 105.3L394.629 105.344C394.629 103.527 394.849 101.909 395.289 100.488C395.728 99.0522 396.351 97.8364 397.156 96.8403C397.962 95.8442 398.921 95.0898 400.035 94.5771C401.163 94.0498 402.415 93.7861 403.792 93.7861C404.891 93.7861 405.894 93.9473 406.802 94.2695C407.725 94.5918 408.516 95.1118 409.175 95.8296C409.849 96.5474 410.362 97.4995 410.713 98.686C411.08 99.8579 411.263 101.308 411.263 103.037V118H403.814V103.015C403.814 102.062 403.682 101.337 403.418 100.839C403.155 100.327 402.774 99.9751 402.276 99.7847C401.778 99.5942 401.17 99.499 400.452 99.499C399.69 99.499 399.046 99.6455 398.519 99.9385C397.991 100.231 397.566 100.642 397.244 101.169C396.937 101.682 396.709 102.29 396.563 102.993C396.431 103.696 396.365 104.465 396.365 105.3Z" fill="#424241"/>
<path d="M1363 15C1363 6.71573 1356.28 0 1348 0H1134V167H1348C1356.28 167 1363 160.284 1363 152V15Z" fill="url(#paint0_linear_2_71)"/>
<path d="M1281.5 49H1216.5L1214 51.5V116.5L1216.5 119H1281.5L1284 116.5V51.5L1281.5 49ZM1279 114H1234V104H1245.5C1247 107 1250.5 109 1254 109C1259.5 109 1264 104.5 1264 99C1264 93.5 1259.5 89 1254 89C1248.5 89 1244 93.5 1244 99H1229V114H1219V54H1229V65.5C1226 67 1224 70.5 1224 74C1224 79.5 1228.5 84 1234 84C1239.5 84 1244 79.5 1244 74H1254C1254 79.5 1258.5 84 1264 84C1269.5 84 1274 79.5 1274 74C1274 68.5 1269.5 64 1264 64C1260.5 64 1257 66 1255.5 69H1242.5C1241 66 1237.5 64 1234 64V54H1279V114ZM1249 99C1249 96 1251 94 1254 94C1257 94 1259 96 1259 99C1259 102 1257 104 1254 104C1251 104 1249 102 1249 99ZM1234 69C1237 69 1239 71 1239 74C1239 77 1237 79 1234 79C1231 79 1229 77 1229 74C1229 71 1231 69 1234 69ZM1264 69C1267 69 1269 71 1269 74C1269 77 1267 79 1264 79C1261 79 1259 77 1259 74C1259 71 1261 69 1264 69Z" fill="white"/>
<defs>
<linearGradient id="paint0_linear_2_71" x1="1134" y1="9.35846e-06" x2="1363" y2="167" gradientUnits="userSpaceOnUse">
<stop stop-color="#FACD68"/>
<stop offset="1" stop-color="#FC76B3"/>
</linearGradient>
</defs>
</svg>
