<svg width="1363" height="167" viewBox="0 0 1363 167" fill="none" xmlns="http://www.w3.org/2000/svg">
<rect width="1363" height="167" rx="15" fill="#F0F0F0"/>
<path d="M0 15C0 6.71573 6.71573 0 15 0H37V167H15C6.71573 167 0 160.284 0 152V15Z" fill="#424241"/>
<path d="M100.906 54.9219L93.3945 52.2383V49.0859L103.602 53.375V55.6367L100.906 54.9219ZM93.3945 57.1719L100.918 54.4297L103.602 53.7852V56.0352L93.3945 60.3242V57.1719ZM117.137 62H113.422L113.445 59.2578H117.137C118.059 59.2578 118.836 59.0508 119.469 58.6367C120.102 58.2148 120.578 57.6016 120.898 56.7969C121.227 55.9922 121.391 55.0195 121.391 53.8789V53.0469C121.391 52.1719 121.297 51.4023 121.109 50.7383C120.93 50.0742 120.66 49.5156 120.301 49.0625C119.941 48.6094 119.5 48.2695 118.977 48.043C118.453 47.8086 117.852 47.6914 117.172 47.6914H113.352V44.9375H117.172C118.312 44.9375 119.355 45.1328 120.301 45.5234C121.254 45.9062 122.078 46.457 122.773 47.1758C123.469 47.8945 124.004 48.7539 124.379 49.7539C124.762 50.7461 124.953 51.8516 124.953 53.0703V53.8789C124.953 55.0898 124.762 56.1953 124.379 57.1953C124.004 58.1953 123.469 59.0547 122.773 59.7734C122.086 60.4844 121.262 61.0352 120.301 61.4258C119.348 61.8086 118.293 62 117.137 62ZM115.414 44.9375V62H111.898V44.9375H115.414ZM133.133 62.2344C132.148 62.2344 131.266 62.0781 130.484 61.7656C129.703 61.4453 129.039 61.0039 128.492 60.4414C127.953 59.8789 127.539 59.2266 127.25 58.4844C126.961 57.7344 126.816 56.9375 126.816 56.0938V55.625C126.816 54.6641 126.953 53.7852 127.227 52.9883C127.5 52.1914 127.891 51.5 128.398 50.9141C128.914 50.3281 129.539 49.8789 130.273 49.5664C131.008 49.2461 131.836 49.0859 132.758 49.0859C133.656 49.0859 134.453 49.2344 135.148 49.5312C135.844 49.8281 136.426 50.25 136.895 50.7969C137.371 51.3438 137.73 52 137.973 52.7656C138.215 53.5234 138.336 54.3672 138.336 55.2969V56.7031H128.258V54.4531H135.02V54.1953C135.02 53.7266 134.934 53.3086 134.762 52.9414C134.598 52.5664 134.348 52.2695 134.012 52.0508C133.676 51.832 133.246 51.7227 132.723 51.7227C132.277 51.7227 131.895 51.8203 131.574 52.0156C131.254 52.2109 130.992 52.4844 130.789 52.8359C130.594 53.1875 130.445 53.6016 130.344 54.0781C130.25 54.5469 130.203 55.0625 130.203 55.625V56.0938C130.203 56.6016 130.273 57.0703 130.414 57.5C130.562 57.9297 130.77 58.3008 131.035 58.6133C131.309 58.9258 131.637 59.168 132.02 59.3398C132.41 59.5117 132.852 59.5977 133.344 59.5977C133.953 59.5977 134.52 59.4805 135.043 59.2461C135.574 59.0039 136.031 58.6406 136.414 58.1562L138.055 59.9375C137.789 60.3203 137.426 60.6875 136.965 61.0391C136.512 61.3906 135.965 61.6797 135.324 61.9062C134.684 62.125 133.953 62.2344 133.133 62.2344ZM144.406 59.5391L147.219 49.3203H150.746L146.469 62H144.336L144.406 59.5391ZM142.473 49.3203L145.297 59.5508L145.355 62H143.211L138.934 49.3203H142.473ZM163.918 59.2578V62H154.836V59.2578H163.918ZM155.984 44.9375V62H152.469V44.9375H155.984ZM162.734 51.8867V54.5586H154.836V51.8867H162.734ZM163.906 44.9375V47.6914H154.836V44.9375H163.906ZM168.477 49.3203L170.574 53.1758L172.73 49.3203H176.328L172.742 55.5195L176.492 62H172.883L170.598 57.9219L168.312 62H164.703L168.453 55.5195L164.867 49.3203H168.477ZM182.973 59.5977C183.387 59.5977 183.754 59.5195 184.074 59.3633C184.395 59.1992 184.645 58.9727 184.824 58.6836C185.012 58.3867 185.109 58.0391 185.117 57.6406H188.293C188.285 58.5312 188.047 59.3242 187.578 60.0195C187.109 60.707 186.48 61.25 185.691 61.6484C184.902 62.0391 184.02 62.2344 183.043 62.2344C182.059 62.2344 181.199 62.0703 180.465 61.7422C179.738 61.4141 179.133 60.9609 178.648 60.3828C178.164 59.7969 177.801 59.1172 177.559 58.3438C177.316 57.5625 177.195 56.7266 177.195 55.8359V55.4961C177.195 54.5977 177.316 53.7617 177.559 52.9883C177.801 52.207 178.164 51.5273 178.648 50.9492C179.133 50.3633 179.738 49.9062 180.465 49.5781C181.191 49.25 182.043 49.0859 183.02 49.0859C184.059 49.0859 184.969 49.2852 185.75 49.6836C186.539 50.082 187.156 50.6523 187.602 51.3945C188.055 52.1289 188.285 53 188.293 54.0078H185.117C185.109 53.5859 185.02 53.2031 184.848 52.8594C184.684 52.5156 184.441 52.2422 184.121 52.0391C183.809 51.8281 183.422 51.7227 182.961 51.7227C182.469 51.7227 182.066 51.8281 181.754 52.0391C181.441 52.2422 181.199 52.5234 181.027 52.8828C180.855 53.2344 180.734 53.6367 180.664 54.0898C180.602 54.5352 180.57 55.0039 180.57 55.4961V55.8359C180.57 56.3281 180.602 56.8008 180.664 57.2539C180.727 57.707 180.844 58.1094 181.016 58.4609C181.195 58.8125 181.441 59.0898 181.754 59.293C182.066 59.4961 182.473 59.5977 182.973 59.5977ZM193.543 44V62H190.168V44H193.543ZM193.062 55.2148H192.137C192.145 54.332 192.262 53.5195 192.488 52.7773C192.715 52.0273 193.039 51.3789 193.461 50.832C193.883 50.2773 194.387 49.8477 194.973 49.543C195.566 49.2383 196.223 49.0859 196.941 49.0859C197.566 49.0859 198.133 49.1758 198.641 49.3555C199.156 49.5273 199.598 49.8086 199.965 50.1992C200.34 50.582 200.629 51.0859 200.832 51.7109C201.035 52.3359 201.137 53.0938 201.137 53.9844V62H197.738V53.9609C197.738 53.3984 197.656 52.957 197.492 52.6367C197.336 52.3086 197.105 52.0781 196.801 51.9453C196.504 51.8047 196.137 51.7344 195.699 51.7344C195.215 51.7344 194.801 51.8242 194.457 52.0039C194.121 52.1836 193.852 52.4336 193.648 52.7539C193.445 53.0664 193.297 53.4336 193.203 53.8555C193.109 54.2773 193.062 54.7305 193.062 55.2148ZM210.547 59.1406V53.4922C210.547 53.0859 210.48 52.7383 210.348 52.4492C210.215 52.1523 210.008 51.9219 209.727 51.7578C209.453 51.5938 209.098 51.5117 208.66 51.5117C208.285 51.5117 207.961 51.5781 207.688 51.7109C207.414 51.8359 207.203 52.0195 207.055 52.2617C206.906 52.4961 206.832 52.7734 206.832 53.0938H203.457C203.457 52.5547 203.582 52.043 203.832 51.5586C204.082 51.0742 204.445 50.6484 204.922 50.2812C205.398 49.9062 205.965 49.6133 206.621 49.4023C207.285 49.1914 208.027 49.0859 208.848 49.0859C209.832 49.0859 210.707 49.25 211.473 49.5781C212.238 49.9062 212.84 50.3984 213.277 51.0547C213.723 51.7109 213.945 52.5312 213.945 53.5156V58.9414C213.945 59.6367 213.988 60.207 214.074 60.6523C214.16 61.0898 214.285 61.4727 214.449 61.8008V62H211.039C210.875 61.6562 210.75 61.2266 210.664 60.7109C210.586 60.1875 210.547 59.6641 210.547 59.1406ZM210.992 54.2773L211.016 56.1875H209.129C208.684 56.1875 208.297 56.2383 207.969 56.3398C207.641 56.4414 207.371 56.5859 207.16 56.7734C206.949 56.9531 206.793 57.1641 206.691 57.4062C206.598 57.6484 206.551 57.9141 206.551 58.2031C206.551 58.4922 206.617 58.7539 206.75 58.9883C206.883 59.2148 207.074 59.3945 207.324 59.5273C207.574 59.6523 207.867 59.7148 208.203 59.7148C208.711 59.7148 209.152 59.6133 209.527 59.4102C209.902 59.207 210.191 58.957 210.395 58.6602C210.605 58.3633 210.715 58.082 210.723 57.8164L211.613 59.2461C211.488 59.5664 211.316 59.8984 211.098 60.2422C210.887 60.5859 210.617 60.9102 210.289 61.2148C209.961 61.5117 209.566 61.7578 209.105 61.9531C208.645 62.1406 208.098 62.2344 207.465 62.2344C206.66 62.2344 205.93 62.0742 205.273 61.7539C204.625 61.4258 204.109 60.9766 203.727 60.4062C203.352 59.8281 203.164 59.1719 203.164 58.4375C203.164 57.7734 203.289 57.1836 203.539 56.668C203.789 56.1523 204.156 55.7188 204.641 55.3672C205.133 55.0078 205.746 54.7383 206.48 54.5586C207.215 54.3711 208.066 54.2773 209.035 54.2773H210.992ZM219.852 52.0273V62H216.477V49.3203H219.641L219.852 52.0273ZM219.359 55.2148H218.445C218.445 54.2773 218.566 53.4336 218.809 52.6836C219.051 51.9258 219.391 51.2812 219.828 50.75C220.266 50.2109 220.785 49.8008 221.387 49.5195C221.996 49.2305 222.676 49.0859 223.426 49.0859C224.02 49.0859 224.562 49.1719 225.055 49.3438C225.547 49.5156 225.969 49.7891 226.32 50.1641C226.68 50.5391 226.953 51.0352 227.141 51.6523C227.336 52.2695 227.434 53.0234 227.434 53.9141V62H224.035V53.9023C224.035 53.3398 223.957 52.9023 223.801 52.5898C223.645 52.2773 223.414 52.0586 223.109 51.9336C222.812 51.8008 222.445 51.7344 222.008 51.7344C221.555 51.7344 221.16 51.8242 220.824 52.0039C220.496 52.1836 220.223 52.4336 220.004 52.7539C219.793 53.0664 219.633 53.4336 219.523 53.8555C219.414 54.2773 219.359 54.7305 219.359 55.2148ZM238.027 49.3203H241.086V61.5781C241.086 62.7344 240.828 63.7148 240.312 64.5195C239.805 65.332 239.094 65.9453 238.18 66.3594C237.266 66.7812 236.203 66.9922 234.992 66.9922C234.461 66.9922 233.898 66.9219 233.305 66.7812C232.719 66.6406 232.156 66.4219 231.617 66.125C231.086 65.8281 230.641 65.4531 230.281 65L231.77 63.0078C232.16 63.4609 232.613 63.8125 233.129 64.0625C233.645 64.3203 234.215 64.4492 234.84 64.4492C235.449 64.4492 235.965 64.3359 236.387 64.1094C236.809 63.8906 237.133 63.5664 237.359 63.1367C237.586 62.7148 237.699 62.2031 237.699 61.6016V52.25L238.027 49.3203ZM229.496 55.8125V55.5664C229.496 54.5977 229.613 53.7188 229.848 52.9297C230.09 52.1328 230.43 51.4492 230.867 50.8789C231.312 50.3086 231.852 49.8672 232.484 49.5547C233.117 49.2422 233.832 49.0859 234.629 49.0859C235.473 49.0859 236.18 49.2422 236.75 49.5547C237.32 49.8672 237.789 50.3125 238.156 50.8906C238.523 51.4609 238.809 52.1367 239.012 52.918C239.223 53.6914 239.387 54.5391 239.504 55.4609V56C239.387 56.8828 239.211 57.7031 238.977 58.4609C238.742 59.2188 238.434 59.8828 238.051 60.4531C237.668 61.0156 237.191 61.4531 236.621 61.7656C236.059 62.0781 235.387 62.2344 234.605 62.2344C233.824 62.2344 233.117 62.0742 232.484 61.7539C231.859 61.4336 231.324 60.9844 230.879 60.4062C230.434 59.8281 230.09 59.1484 229.848 58.3672C229.613 57.5859 229.496 56.7344 229.496 55.8125ZM232.871 55.5664V55.8125C232.871 56.3359 232.922 56.8242 233.023 57.2773C233.125 57.7305 233.281 58.1328 233.492 58.4844C233.711 58.8281 233.98 59.0977 234.301 59.293C234.629 59.4805 235.016 59.5742 235.461 59.5742C236.078 59.5742 236.582 59.4453 236.973 59.1875C237.363 58.9219 237.656 58.5586 237.852 58.0977C238.047 57.6367 238.16 57.1055 238.191 56.5039V54.9688C238.176 54.4766 238.109 54.0352 237.992 53.6445C237.875 53.2461 237.711 52.9062 237.5 52.625C237.289 52.3438 237.016 52.125 236.68 51.9688C236.344 51.8125 235.945 51.7344 235.484 51.7344C235.039 51.7344 234.652 51.8359 234.324 52.0391C234.004 52.2344 233.734 52.5039 233.516 52.8477C233.305 53.1914 233.145 53.5977 233.035 54.0664C232.926 54.5273 232.871 55.0273 232.871 55.5664ZM249.547 62.2344C248.562 62.2344 247.68 62.0781 246.898 61.7656C246.117 61.4453 245.453 61.0039 244.906 60.4414C244.367 59.8789 243.953 59.2266 243.664 58.4844C243.375 57.7344 243.23 56.9375 243.23 56.0938V55.625C243.23 54.6641 243.367 53.7852 243.641 52.9883C243.914 52.1914 244.305 51.5 244.812 50.9141C245.328 50.3281 245.953 49.8789 246.688 49.5664C247.422 49.2461 248.25 49.0859 249.172 49.0859C250.07 49.0859 250.867 49.2344 251.562 49.5312C252.258 49.8281 252.84 50.25 253.309 50.7969C253.785 51.3438 254.145 52 254.387 52.7656C254.629 53.5234 254.75 54.3672 254.75 55.2969V56.7031H244.672V54.4531H251.434V54.1953C251.434 53.7266 251.348 53.3086 251.176 52.9414C251.012 52.5664 250.762 52.2695 250.426 52.0508C250.09 51.832 249.66 51.7227 249.137 51.7227C248.691 51.7227 248.309 51.8203 247.988 52.0156C247.668 52.2109 247.406 52.4844 247.203 52.8359C247.008 53.1875 246.859 53.6016 246.758 54.0781C246.664 54.5469 246.617 55.0625 246.617 55.625V56.0938C246.617 56.6016 246.688 57.0703 246.828 57.5C246.977 57.9297 247.184 58.3008 247.449 58.6133C247.723 58.9258 248.051 59.168 248.434 59.3398C248.824 59.5117 249.266 59.5977 249.758 59.5977C250.367 59.5977 250.934 59.4805 251.457 59.2461C251.988 59.0039 252.445 58.6406 252.828 58.1562L254.469 59.9375C254.203 60.3203 253.84 60.6875 253.379 61.0391C252.926 61.3906 252.379 61.6797 251.738 61.9062C251.098 62.125 250.367 62.2344 249.547 62.2344Z" fill="#888888"/>
<path d="M107.205 107.146H99.251V101.191H107.205C108.289 101.191 109.168 101.008 109.842 100.642C110.516 100.275 111.006 99.77 111.314 99.1255C111.636 98.4663 111.797 97.7266 111.797 96.9062C111.797 96.0273 111.636 95.2144 111.314 94.4673C111.006 93.7202 110.516 93.1196 109.842 92.6655C109.168 92.1968 108.289 91.9624 107.205 91.9624H102.151V118H94.439V86.0078H107.205C109.769 86.0078 111.973 86.4766 113.819 87.4141C115.679 88.3516 117.107 89.6406 118.104 91.2812C119.1 92.9072 119.598 94.7676 119.598 96.8623C119.598 98.9277 119.1 100.729 118.104 102.268C117.107 103.806 115.679 105.007 113.819 105.871C111.973 106.721 109.769 107.146 107.205 107.146ZM130.87 100.114V118H123.465V94.2256H130.386L130.87 100.114ZM137.901 94.0498L137.769 100.927C137.476 100.898 137.081 100.861 136.583 100.817C136.084 100.773 135.667 100.751 135.33 100.751C134.466 100.751 133.719 100.854 133.089 101.059C132.474 101.25 131.961 101.542 131.551 101.938C131.155 102.319 130.862 102.802 130.672 103.388C130.496 103.974 130.416 104.655 130.43 105.432L129.09 104.553C129.09 102.956 129.244 101.506 129.551 100.202C129.874 98.8838 130.328 97.7485 130.914 96.7964C131.5 95.8296 132.21 95.0898 133.045 94.5771C133.88 94.0498 134.817 93.7861 135.857 93.7861C136.224 93.7861 136.583 93.8081 136.934 93.8521C137.3 93.896 137.623 93.9619 137.901 94.0498ZM138.736 106.354V105.893C138.736 104.15 138.985 102.546 139.483 101.081C139.981 99.6016 140.713 98.3198 141.68 97.2358C142.647 96.1519 143.841 95.3096 145.262 94.709C146.683 94.0938 148.323 93.7861 150.184 93.7861C152.059 93.7861 153.707 94.0938 155.127 94.709C156.563 95.3096 157.764 96.1519 158.731 97.2358C159.698 98.3198 160.43 99.6016 160.928 101.081C161.426 102.546 161.675 104.15 161.675 105.893V106.354C161.675 108.083 161.426 109.687 160.928 111.167C160.43 112.631 159.698 113.913 158.731 115.012C157.764 116.096 156.57 116.938 155.149 117.539C153.729 118.139 152.088 118.439 150.228 118.439C148.367 118.439 146.719 118.139 145.284 117.539C143.848 116.938 142.647 116.096 141.68 115.012C140.713 113.913 139.981 112.631 139.483 111.167C138.985 109.687 138.736 108.083 138.736 106.354ZM146.141 105.893V106.354C146.141 107.248 146.207 108.083 146.338 108.859C146.47 109.636 146.69 110.317 146.998 110.903C147.305 111.474 147.723 111.921 148.25 112.243C148.777 112.565 149.437 112.727 150.228 112.727C151.004 112.727 151.648 112.565 152.161 112.243C152.688 111.921 153.106 111.474 153.414 110.903C153.721 110.317 153.941 109.636 154.073 108.859C154.205 108.083 154.271 107.248 154.271 106.354V105.893C154.271 105.029 154.205 104.216 154.073 103.454C153.941 102.678 153.721 101.997 153.414 101.411C153.106 100.81 152.688 100.341 152.161 100.004C151.634 99.6675 150.975 99.499 150.184 99.499C149.407 99.499 148.755 99.6675 148.228 100.004C147.715 100.341 147.305 100.81 146.998 101.411C146.69 101.997 146.47 102.678 146.338 103.454C146.207 104.216 146.141 105.029 146.141 105.893ZM165.521 94.2256H172.947V118.769C172.947 120.673 172.581 122.277 171.849 123.581C171.116 124.899 170.069 125.896 168.707 126.569C167.344 127.258 165.718 127.602 163.829 127.602C163.199 127.602 162.62 127.573 162.093 127.514C161.551 127.47 160.958 127.375 160.313 127.229V121.625C160.694 121.684 161.045 121.728 161.368 121.757C161.69 121.801 162.042 121.823 162.422 121.823C163.096 121.823 163.66 121.713 164.114 121.494C164.568 121.274 164.913 120.937 165.147 120.483C165.396 120.029 165.521 119.458 165.521 118.769V94.2256ZM164.971 88.0952C164.971 87.0405 165.352 86.1763 166.114 85.5024C166.875 84.8286 167.864 84.4917 169.08 84.4917C170.296 84.4917 171.285 84.8286 172.046 85.5024C172.808 86.1763 173.189 87.0405 173.189 88.0952C173.189 89.1499 172.808 90.0142 172.046 90.688C171.285 91.3618 170.296 91.6987 169.08 91.6987C167.864 91.6987 166.875 91.3618 166.114 90.688C165.352 90.0142 164.971 89.1499 164.971 88.0952ZM188.658 118.439C186.724 118.439 184.996 118.139 183.472 117.539C181.949 116.923 180.66 116.081 179.605 115.012C178.565 113.942 177.767 112.712 177.21 111.32C176.668 109.929 176.397 108.457 176.397 106.904V106.069C176.397 104.326 176.639 102.714 177.122 101.235C177.605 99.7407 178.323 98.437 179.275 97.3237C180.228 96.2104 181.421 95.3462 182.857 94.731C184.292 94.1011 185.962 93.7861 187.867 93.7861C189.551 93.7861 191.06 94.0571 192.393 94.5991C193.726 95.1411 194.854 95.9175 195.777 96.9282C196.714 97.939 197.425 99.1621 197.908 100.598C198.406 102.033 198.655 103.645 198.655 105.432V108.442H179.231V103.806H191.426V103.234C191.441 102.443 191.302 101.77 191.009 101.213C190.73 100.656 190.32 100.231 189.778 99.9385C189.236 99.6455 188.577 99.499 187.801 99.499C186.995 99.499 186.329 99.6748 185.801 100.026C185.289 100.378 184.886 100.861 184.593 101.477C184.314 102.077 184.117 102.773 184 103.564C183.882 104.355 183.824 105.19 183.824 106.069V106.904C183.824 107.783 183.941 108.581 184.175 109.299C184.424 110.017 184.776 110.632 185.23 111.145C185.699 111.643 186.255 112.031 186.9 112.309C187.559 112.587 188.306 112.727 189.141 112.727C190.152 112.727 191.148 112.536 192.129 112.155C193.111 111.774 193.953 111.145 194.656 110.266L198.018 114.265C197.535 114.953 196.846 115.62 195.953 116.264C195.074 116.909 194.019 117.436 192.789 117.846C191.558 118.242 190.181 118.439 188.658 118.439ZM211.707 112.727C212.396 112.727 212.981 112.602 213.465 112.353C213.963 112.089 214.336 111.723 214.585 111.254C214.849 110.771 214.974 110.192 214.959 109.519H221.924C221.939 111.306 221.5 112.873 220.606 114.221C219.727 115.554 218.526 116.594 217.002 117.341C215.494 118.073 213.787 118.439 211.883 118.439C210.022 118.439 208.396 118.139 207.005 117.539C205.613 116.923 204.449 116.074 203.511 114.99C202.588 113.891 201.893 112.609 201.424 111.145C200.97 109.68 200.743 108.09 200.743 106.376V105.871C200.743 104.157 200.97 102.568 201.424 101.103C201.893 99.6235 202.588 98.3418 203.511 97.2578C204.449 96.1592 205.606 95.3096 206.983 94.709C208.375 94.0938 209.993 93.7861 211.839 93.7861C213.816 93.7861 215.56 94.1597 217.068 94.9067C218.592 95.6538 219.786 96.7378 220.65 98.1587C221.514 99.5796 221.939 101.301 221.924 103.322H214.959C214.974 102.604 214.864 101.96 214.629 101.389C214.395 100.817 214.029 100.363 213.531 100.026C213.047 99.6748 212.425 99.499 211.663 99.499C210.901 99.499 210.286 99.6675 209.817 100.004C209.349 100.341 208.99 100.81 208.741 101.411C208.506 101.997 208.345 102.67 208.257 103.432C208.184 104.194 208.147 105.007 208.147 105.871V106.376C208.147 107.255 208.184 108.083 208.257 108.859C208.345 109.621 208.514 110.295 208.763 110.881C209.012 111.452 209.371 111.906 209.839 112.243C210.308 112.565 210.931 112.727 211.707 112.727ZM237.613 94.2256V99.3672H223.287V94.2256H237.613ZM226.297 88.3149H233.702V110.244C233.702 110.874 233.775 111.364 233.921 111.716C234.068 112.053 234.317 112.294 234.668 112.441C235.035 112.573 235.518 112.639 236.119 112.639C236.543 112.639 236.895 112.631 237.173 112.617C237.452 112.587 237.715 112.551 237.964 112.507V117.802C237.334 118.007 236.675 118.161 235.987 118.264C235.298 118.381 234.566 118.439 233.79 118.439C232.208 118.439 230.853 118.19 229.725 117.692C228.611 117.194 227.762 116.411 227.176 115.341C226.59 114.272 226.297 112.88 226.297 111.167V88.3149ZM264.881 107.146H256.927V101.191H264.881C265.965 101.191 266.844 101.008 267.518 100.642C268.191 100.275 268.682 99.77 268.99 99.1255C269.312 98.4663 269.473 97.7266 269.473 96.9062C269.473 96.0273 269.312 95.2144 268.99 94.4673C268.682 93.7202 268.191 93.1196 267.518 92.6655C266.844 92.1968 265.965 91.9624 264.881 91.9624H259.827V118H252.115V86.0078H264.881C267.444 86.0078 269.649 86.4766 271.495 87.4141C273.355 88.3516 274.783 89.6406 275.779 91.2812C276.775 92.9072 277.273 94.7676 277.273 96.8623C277.273 98.9277 276.775 100.729 275.779 102.268C274.783 103.806 273.355 105.007 271.495 105.871C269.649 106.721 267.444 107.146 264.881 107.146ZM288.326 84.25V118H280.921V84.25H288.326ZM287.447 105.3L285.711 105.344C285.711 103.674 285.916 102.136 286.326 100.729C286.736 99.3232 287.322 98.1001 288.084 97.0601C288.846 96.02 289.761 95.2144 290.831 94.6431C291.9 94.0718 293.086 93.7861 294.39 93.7861C295.562 93.7861 296.631 93.9546 297.598 94.2915C298.58 94.6284 299.422 95.1704 300.125 95.9175C300.843 96.6646 301.392 97.6387 301.773 98.8398C302.168 100.041 302.366 101.506 302.366 103.234V118H294.917V103.19C294.917 102.224 294.778 101.477 294.5 100.949C294.236 100.407 293.855 100.034 293.357 99.8286C292.859 99.6089 292.251 99.499 291.534 99.499C290.669 99.499 289.966 99.6455 289.424 99.9385C288.882 100.231 288.465 100.642 288.172 101.169C287.894 101.682 287.703 102.29 287.601 102.993C287.498 103.696 287.447 104.465 287.447 105.3ZM314.297 94.2256V118H306.871V94.2256H314.297ZM306.431 88.0952C306.431 87.0405 306.812 86.1763 307.574 85.5024C308.335 84.8286 309.324 84.4917 310.54 84.4917C311.756 84.4917 312.745 84.8286 313.506 85.5024C314.268 86.1763 314.649 87.0405 314.649 88.0952C314.649 89.1499 314.268 90.0142 313.506 90.688C312.745 91.3618 311.756 91.6987 310.54 91.6987C309.324 91.6987 308.335 91.3618 307.574 90.688C306.812 90.0142 306.431 89.1499 306.431 88.0952ZM326.69 84.25V118H319.263V84.25H326.69ZM330.337 106.354V105.893C330.337 104.15 330.586 102.546 331.084 101.081C331.583 99.6016 332.315 98.3198 333.282 97.2358C334.249 96.1519 335.442 95.3096 336.863 94.709C338.284 94.0938 339.925 93.7861 341.785 93.7861C343.66 93.7861 345.308 94.0938 346.729 94.709C348.165 95.3096 349.366 96.1519 350.333 97.2358C351.299 98.3198 352.032 99.6016 352.53 101.081C353.028 102.546 353.277 104.15 353.277 105.893V106.354C353.277 108.083 353.028 109.687 352.53 111.167C352.032 112.631 351.299 113.913 350.333 115.012C349.366 116.096 348.172 116.938 346.751 117.539C345.33 118.139 343.689 118.439 341.829 118.439C339.969 118.439 338.321 118.139 336.885 117.539C335.45 116.938 334.249 116.096 333.282 115.012C332.315 113.913 331.583 112.631 331.084 111.167C330.586 109.687 330.337 108.083 330.337 106.354ZM337.742 105.893V106.354C337.742 107.248 337.808 108.083 337.94 108.859C338.072 109.636 338.292 110.317 338.599 110.903C338.907 111.474 339.324 111.921 339.852 112.243C340.379 112.565 341.038 112.727 341.829 112.727C342.605 112.727 343.25 112.565 343.763 112.243C344.29 111.921 344.708 111.474 345.015 110.903C345.323 110.317 345.542 109.636 345.674 108.859C345.806 108.083 345.872 107.248 345.872 106.354V105.893C345.872 105.029 345.806 104.216 345.674 103.454C345.542 102.678 345.323 101.997 345.015 101.411C344.708 100.81 344.29 100.341 343.763 100.004C343.235 99.6675 342.576 99.499 341.785 99.499C341.009 99.499 340.357 99.6675 339.83 100.004C339.317 100.341 338.907 100.81 338.599 101.411C338.292 101.997 338.072 102.678 337.94 103.454C337.808 104.216 337.742 105.029 337.742 105.893ZM369.031 111.32C369.031 110.91 368.892 110.559 368.614 110.266C368.35 109.958 367.881 109.68 367.208 109.431C366.534 109.167 365.589 108.903 364.373 108.64C363.216 108.391 362.125 108.061 361.099 107.651C360.088 107.241 359.202 106.743 358.44 106.157C357.679 105.571 357.078 104.875 356.639 104.069C356.214 103.264 356.001 102.341 356.001 101.301C356.001 100.29 356.214 99.3379 356.639 98.4443C357.078 97.5361 357.715 96.7378 358.55 96.0493C359.4 95.3462 360.433 94.7969 361.648 94.4014C362.864 93.9912 364.249 93.7861 365.801 93.7861C367.94 93.7861 369.786 94.1157 371.338 94.7749C372.891 95.4194 374.085 96.3276 374.92 97.4995C375.77 98.6567 376.194 99.9971 376.194 101.521H368.79C368.79 100.92 368.687 100.407 368.482 99.9824C368.292 99.5576 367.977 99.2354 367.537 99.0156C367.098 98.7812 366.512 98.6641 365.779 98.6641C365.267 98.6641 364.798 98.7593 364.373 98.9497C363.963 99.1401 363.633 99.4038 363.384 99.7407C363.135 100.078 363.011 100.473 363.011 100.927C363.011 101.25 363.084 101.542 363.23 101.806C363.392 102.055 363.633 102.29 363.956 102.509C364.278 102.714 364.688 102.905 365.186 103.081C365.684 103.242 366.285 103.388 366.988 103.52C368.584 103.813 370.079 104.23 371.47 104.772C372.862 105.314 373.99 106.083 374.854 107.08C375.733 108.076 376.172 109.416 376.172 111.101C376.172 112.155 375.931 113.129 375.447 114.023C374.964 114.902 374.268 115.678 373.36 116.352C372.452 117.011 371.36 117.524 370.086 117.89C368.812 118.256 367.376 118.439 365.779 118.439C363.509 118.439 361.59 118.037 360.022 117.231C358.455 116.411 357.269 115.385 356.463 114.155C355.672 112.91 355.276 111.65 355.276 110.375H362.176C362.205 111.108 362.381 111.708 362.703 112.177C363.04 112.646 363.487 112.99 364.043 113.21C364.6 113.43 365.245 113.54 365.977 113.54C366.651 113.54 367.208 113.444 367.647 113.254C368.101 113.063 368.445 112.807 368.68 112.485C368.914 112.148 369.031 111.76 369.031 111.32ZM378.721 106.354V105.893C378.721 104.15 378.97 102.546 379.468 101.081C379.966 99.6016 380.699 98.3198 381.666 97.2358C382.632 96.1519 383.826 95.3096 385.247 94.709C386.668 94.0938 388.309 93.7861 390.169 93.7861C392.044 93.7861 393.692 94.0938 395.113 94.709C396.548 95.3096 397.75 96.1519 398.716 97.2358C399.683 98.3198 400.416 99.6016 400.914 101.081C401.412 102.546 401.661 104.15 401.661 105.893V106.354C401.661 108.083 401.412 109.687 400.914 111.167C400.416 112.631 399.683 113.913 398.716 115.012C397.75 116.096 396.556 116.938 395.135 117.539C393.714 118.139 392.073 118.439 390.213 118.439C388.353 118.439 386.705 118.139 385.269 117.539C383.833 116.938 382.632 116.096 381.666 115.012C380.699 113.913 379.966 112.631 379.468 111.167C378.97 109.687 378.721 108.083 378.721 106.354ZM386.126 105.893V106.354C386.126 107.248 386.192 108.083 386.324 108.859C386.456 109.636 386.675 110.317 386.983 110.903C387.291 111.474 387.708 111.921 388.235 112.243C388.763 112.565 389.422 112.727 390.213 112.727C390.989 112.727 391.634 112.565 392.146 112.243C392.674 111.921 393.091 111.474 393.399 110.903C393.707 110.317 393.926 109.636 394.058 108.859C394.19 108.083 394.256 107.248 394.256 106.354V105.893C394.256 105.029 394.19 104.216 394.058 103.454C393.926 102.678 393.707 101.997 393.399 101.411C393.091 100.81 392.674 100.341 392.146 100.004C391.619 99.6675 390.96 99.499 390.169 99.499C389.393 99.499 388.741 99.6675 388.213 100.004C387.701 100.341 387.291 100.81 386.983 101.411C386.675 101.997 386.456 102.678 386.324 103.454C386.192 104.216 386.126 105.029 386.126 105.893ZM412.427 98.7959V127.141H405.022V94.2256H411.922L412.427 98.7959ZM427.017 105.827V106.289C427.017 108.017 426.819 109.621 426.424 111.101C426.028 112.58 425.442 113.869 424.666 114.968C423.89 116.066 422.923 116.923 421.766 117.539C420.623 118.139 419.297 118.439 417.789 118.439C416.368 118.439 415.145 118.125 414.119 117.495C413.094 116.865 412.237 115.993 411.548 114.88C410.86 113.767 410.303 112.492 409.878 111.057C409.454 109.621 409.117 108.105 408.868 106.508V105.915C409.117 104.201 409.454 102.612 409.878 101.147C410.303 99.6675 410.86 98.3784 411.548 97.2798C412.237 96.1812 413.086 95.3242 414.097 94.709C415.123 94.0938 416.346 93.7861 417.767 93.7861C419.275 93.7861 420.601 94.0718 421.744 94.6431C422.901 95.2144 423.868 96.0347 424.644 97.104C425.435 98.1587 426.028 99.4258 426.424 100.905C426.819 102.385 427.017 104.025 427.017 105.827ZM419.612 106.289V105.827C419.612 104.904 419.546 104.062 419.415 103.3C419.283 102.524 419.07 101.85 418.777 101.279C418.499 100.708 418.125 100.268 417.657 99.9604C417.188 99.6528 416.609 99.499 415.921 99.499C415.13 99.499 414.463 99.6235 413.921 99.8726C413.394 100.107 412.969 100.473 412.647 100.971C412.339 101.455 412.12 102.062 411.988 102.795C411.871 103.513 411.819 104.355 411.834 105.322V107.124C411.805 108.237 411.915 109.218 412.164 110.068C412.413 110.903 412.845 111.555 413.46 112.023C414.075 112.492 414.91 112.727 415.965 112.727C416.668 112.727 417.254 112.565 417.723 112.243C418.191 111.906 418.565 111.445 418.843 110.859C419.122 110.258 419.319 109.57 419.437 108.793C419.554 108.017 419.612 107.182 419.612 106.289ZM437.564 84.25V118H430.159V84.25H437.564ZM436.685 105.3L434.949 105.344C434.949 103.674 435.154 102.136 435.564 100.729C435.975 99.3232 436.561 98.1001 437.322 97.0601C438.084 96.02 439 95.2144 440.069 94.6431C441.138 94.0718 442.325 93.7861 443.628 93.7861C444.8 93.7861 445.87 93.9546 446.836 94.2915C447.818 94.6284 448.66 95.1704 449.363 95.9175C450.081 96.6646 450.63 97.6387 451.011 98.8398C451.407 100.041 451.604 101.506 451.604 103.234V118H444.156V103.19C444.156 102.224 444.017 101.477 443.738 100.949C443.475 100.407 443.094 100.034 442.596 99.8286C442.098 99.6089 441.49 99.499 440.772 99.499C439.908 99.499 439.205 99.6455 438.663 99.9385C438.121 100.231 437.703 100.642 437.41 101.169C437.132 101.682 436.941 102.29 436.839 102.993C436.736 103.696 436.685 104.465 436.685 105.3ZM463.008 115.209L469.161 94.2256H477.115L467.557 121.538C467.352 122.138 467.081 122.783 466.744 123.471C466.407 124.174 465.945 124.841 465.359 125.471C464.773 126.101 464.019 126.613 463.096 127.009C462.188 127.404 461.06 127.602 459.712 127.602C458.995 127.602 458.467 127.565 458.13 127.492C457.808 127.434 457.31 127.324 456.636 127.163V121.867C456.827 121.867 456.988 121.867 457.12 121.867C457.266 121.867 457.427 121.867 457.603 121.867C458.394 121.867 459.024 121.787 459.493 121.625C459.976 121.464 460.342 121.23 460.591 120.922C460.855 120.615 461.06 120.241 461.207 119.802L463.008 115.209ZM461.448 94.2256L466.128 110.859L466.941 118.703H461.976L453.516 94.2256H461.448Z" fill="#424241"/>
<path d="M1363 15C1363 6.71573 1356.28 0 1348 0H1134V167H1348C1356.28 167 1363 160.284 1363 152V15Z" fill="url(#paint0_linear_2_75)"/>
<path d="M1234.26 106.286H1262.74V111.857H1234.26V106.286ZM1239.96 117.429H1257.04V123H1239.96V117.429ZM1248.5 45C1240.95 45 1233.71 47.9349 1228.37 53.1592C1223.03 58.3834 1220.03 65.469 1220.03 72.8571C1219.84 76.9057 1220.63 80.9412 1222.34 84.6315C1224.05 88.3219 1226.64 91.5616 1229.88 94.0843C1232.73 96.675 1234.26 98.1514 1234.26 100.714H1239.96C1239.96 95.5886 1236.8 92.7193 1233.72 89.9614C1231.06 87.9676 1228.94 85.3658 1227.55 82.3838C1226.15 79.4019 1225.53 76.1308 1225.72 72.8571C1225.72 66.9466 1228.12 61.2781 1232.39 57.0988C1236.67 52.9194 1242.46 50.5714 1248.5 50.5714C1254.54 50.5714 1260.33 52.9194 1264.61 57.0988C1268.88 61.2781 1271.28 66.9466 1271.28 72.8571C1271.47 76.1333 1270.84 79.4059 1269.44 82.388C1268.04 85.3701 1265.92 87.9706 1263.25 89.9614C1260.2 92.7471 1257.04 95.5329 1257.04 100.714H1262.74C1262.74 98.1514 1264.25 96.675 1267.12 94.0564C1270.36 91.5381 1272.94 88.3031 1274.66 84.6176C1276.37 80.9321 1277.16 76.9014 1276.97 72.8571C1276.97 69.1989 1276.24 65.5765 1274.81 62.1967C1273.37 58.8169 1271.28 55.7459 1268.63 53.1592C1265.99 50.5724 1262.85 48.5205 1259.4 47.1205C1255.94 45.7205 1252.24 45 1248.5 45V45Z" fill="white"/>
<defs>
<linearGradient id="paint0_linear_2_75" x1="1134" y1="9.35846e-06" x2="1363" y2="167" gradientUnits="userSpaceOnUse">
<stop stop-color="#FACD68"/>
<stop offset="1" stop-color="#FC76B3"/>
</linearGradient>
</defs>
</svg>
