<svg width="1363" height="167" viewBox="0 0 1363 167" fill="none" xmlns="http://www.w3.org/2000/svg">
<rect width="1363" height="167" rx="15" fill="#F0F0F0"/>
<path d="M0 15C0 6.71573 6.71573 0 15 0H37V167H15C6.71573 167 0 160.284 0 152V15Z" fill="#424241"/>
<path d="M100.906 50.9219L93.3945 48.2383V45.0859L103.602 49.375V51.6367L100.906 50.9219ZM93.3945 53.1719L100.918 50.4297L103.602 49.7852V52.0352L93.3945 56.3242V53.1719ZM117.137 58H113.422L113.445 55.2578H117.137C118.059 55.2578 118.836 55.0508 119.469 54.6367C120.102 54.2148 120.578 53.6016 120.898 52.7969C121.227 51.9922 121.391 51.0195 121.391 49.8789V49.0469C121.391 48.1719 121.297 47.4023 121.109 46.7383C120.93 46.0742 120.66 45.5156 120.301 45.0625C119.941 44.6094 119.5 44.2695 118.977 44.043C118.453 43.8086 117.852 43.6914 117.172 43.6914H113.352V40.9375H117.172C118.312 40.9375 119.355 41.1328 120.301 41.5234C121.254 41.9062 122.078 42.457 122.773 43.1758C123.469 43.8945 124.004 44.7539 124.379 45.7539C124.762 46.7461 124.953 47.8516 124.953 49.0703V49.8789C124.953 51.0898 124.762 52.1953 124.379 53.1953C124.004 54.1953 123.469 55.0547 122.773 55.7734C122.086 56.4844 121.262 57.0352 120.301 57.4258C119.348 57.8086 118.293 58 117.137 58ZM115.414 40.9375V58H111.898V40.9375H115.414ZM133.133 58.2344C132.148 58.2344 131.266 58.0781 130.484 57.7656C129.703 57.4453 129.039 57.0039 128.492 56.4414C127.953 55.8789 127.539 55.2266 127.25 54.4844C126.961 53.7344 126.816 52.9375 126.816 52.0938V51.625C126.816 50.6641 126.953 49.7852 127.227 48.9883C127.5 48.1914 127.891 47.5 128.398 46.9141C128.914 46.3281 129.539 45.8789 130.273 45.5664C131.008 45.2461 131.836 45.0859 132.758 45.0859C133.656 45.0859 134.453 45.2344 135.148 45.5312C135.844 45.8281 136.426 46.25 136.895 46.7969C137.371 47.3438 137.73 48 137.973 48.7656C138.215 49.5234 138.336 50.3672 138.336 51.2969V52.7031H128.258V50.4531H135.02V50.1953C135.02 49.7266 134.934 49.3086 134.762 48.9414C134.598 48.5664 134.348 48.2695 134.012 48.0508C133.676 47.832 133.246 47.7227 132.723 47.7227C132.277 47.7227 131.895 47.8203 131.574 48.0156C131.254 48.2109 130.992 48.4844 130.789 48.8359C130.594 49.1875 130.445 49.6016 130.344 50.0781C130.25 50.5469 130.203 51.0625 130.203 51.625V52.0938C130.203 52.6016 130.273 53.0703 130.414 53.5C130.562 53.9297 130.77 54.3008 131.035 54.6133C131.309 54.9258 131.637 55.168 132.02 55.3398C132.41 55.5117 132.852 55.5977 133.344 55.5977C133.953 55.5977 134.52 55.4805 135.043 55.2461C135.574 55.0039 136.031 54.6406 136.414 54.1562L138.055 55.9375C137.789 56.3203 137.426 56.6875 136.965 57.0391C136.512 57.3906 135.965 57.6797 135.324 57.9062C134.684 58.125 133.953 58.2344 133.133 58.2344ZM144.406 55.5391L147.219 45.3203H150.746L146.469 58H144.336L144.406 55.5391ZM142.473 45.3203L145.297 55.5508L145.355 58H143.211L138.934 45.3203H142.473ZM163.918 55.2578V58H154.836V55.2578H163.918ZM155.984 40.9375V58H152.469V40.9375H155.984ZM162.734 47.8867V50.5586H154.836V47.8867H162.734ZM163.906 40.9375V43.6914H154.836V40.9375H163.906ZM168.477 45.3203L170.574 49.1758L172.73 45.3203H176.328L172.742 51.5195L176.492 58H172.883L170.598 53.9219L168.312 58H164.703L168.453 51.5195L164.867 45.3203H168.477ZM182.973 55.5977C183.387 55.5977 183.754 55.5195 184.074 55.3633C184.395 55.1992 184.645 54.9727 184.824 54.6836C185.012 54.3867 185.109 54.0391 185.117 53.6406H188.293C188.285 54.5312 188.047 55.3242 187.578 56.0195C187.109 56.707 186.48 57.25 185.691 57.6484C184.902 58.0391 184.02 58.2344 183.043 58.2344C182.059 58.2344 181.199 58.0703 180.465 57.7422C179.738 57.4141 179.133 56.9609 178.648 56.3828C178.164 55.7969 177.801 55.1172 177.559 54.3438C177.316 53.5625 177.195 52.7266 177.195 51.8359V51.4961C177.195 50.5977 177.316 49.7617 177.559 48.9883C177.801 48.207 178.164 47.5273 178.648 46.9492C179.133 46.3633 179.738 45.9062 180.465 45.5781C181.191 45.25 182.043 45.0859 183.02 45.0859C184.059 45.0859 184.969 45.2852 185.75 45.6836C186.539 46.082 187.156 46.6523 187.602 47.3945C188.055 48.1289 188.285 49 188.293 50.0078H185.117C185.109 49.5859 185.02 49.2031 184.848 48.8594C184.684 48.5156 184.441 48.2422 184.121 48.0391C183.809 47.8281 183.422 47.7227 182.961 47.7227C182.469 47.7227 182.066 47.8281 181.754 48.0391C181.441 48.2422 181.199 48.5234 181.027 48.8828C180.855 49.2344 180.734 49.6367 180.664 50.0898C180.602 50.5352 180.57 51.0039 180.57 51.4961V51.8359C180.57 52.3281 180.602 52.8008 180.664 53.2539C180.727 53.707 180.844 54.1094 181.016 54.4609C181.195 54.8125 181.441 55.0898 181.754 55.293C182.066 55.4961 182.473 55.5977 182.973 55.5977ZM193.543 40V58H190.168V40H193.543ZM193.062 51.2148H192.137C192.145 50.332 192.262 49.5195 192.488 48.7773C192.715 48.0273 193.039 47.3789 193.461 46.832C193.883 46.2773 194.387 45.8477 194.973 45.543C195.566 45.2383 196.223 45.0859 196.941 45.0859C197.566 45.0859 198.133 45.1758 198.641 45.3555C199.156 45.5273 199.598 45.8086 199.965 46.1992C200.34 46.582 200.629 47.0859 200.832 47.7109C201.035 48.3359 201.137 49.0938 201.137 49.9844V58H197.738V49.9609C197.738 49.3984 197.656 48.957 197.492 48.6367C197.336 48.3086 197.105 48.0781 196.801 47.9453C196.504 47.8047 196.137 47.7344 195.699 47.7344C195.215 47.7344 194.801 47.8242 194.457 48.0039C194.121 48.1836 193.852 48.4336 193.648 48.7539C193.445 49.0664 193.297 49.4336 193.203 49.8555C193.109 50.2773 193.062 50.7305 193.062 51.2148ZM210.547 55.1406V49.4922C210.547 49.0859 210.48 48.7383 210.348 48.4492C210.215 48.1523 210.008 47.9219 209.727 47.7578C209.453 47.5938 209.098 47.5117 208.66 47.5117C208.285 47.5117 207.961 47.5781 207.688 47.7109C207.414 47.8359 207.203 48.0195 207.055 48.2617C206.906 48.4961 206.832 48.7734 206.832 49.0938H203.457C203.457 48.5547 203.582 48.043 203.832 47.5586C204.082 47.0742 204.445 46.6484 204.922 46.2812C205.398 45.9062 205.965 45.6133 206.621 45.4023C207.285 45.1914 208.027 45.0859 208.848 45.0859C209.832 45.0859 210.707 45.25 211.473 45.5781C212.238 45.9062 212.84 46.3984 213.277 47.0547C213.723 47.7109 213.945 48.5312 213.945 49.5156V54.9414C213.945 55.6367 213.988 56.207 214.074 56.6523C214.16 57.0898 214.285 57.4727 214.449 57.8008V58H211.039C210.875 57.6562 210.75 57.2266 210.664 56.7109C210.586 56.1875 210.547 55.6641 210.547 55.1406ZM210.992 50.2773L211.016 52.1875H209.129C208.684 52.1875 208.297 52.2383 207.969 52.3398C207.641 52.4414 207.371 52.5859 207.16 52.7734C206.949 52.9531 206.793 53.1641 206.691 53.4062C206.598 53.6484 206.551 53.9141 206.551 54.2031C206.551 54.4922 206.617 54.7539 206.75 54.9883C206.883 55.2148 207.074 55.3945 207.324 55.5273C207.574 55.6523 207.867 55.7148 208.203 55.7148C208.711 55.7148 209.152 55.6133 209.527 55.4102C209.902 55.207 210.191 54.957 210.395 54.6602C210.605 54.3633 210.715 54.082 210.723 53.8164L211.613 55.2461C211.488 55.5664 211.316 55.8984 211.098 56.2422C210.887 56.5859 210.617 56.9102 210.289 57.2148C209.961 57.5117 209.566 57.7578 209.105 57.9531C208.645 58.1406 208.098 58.2344 207.465 58.2344C206.66 58.2344 205.93 58.0742 205.273 57.7539C204.625 57.4258 204.109 56.9766 203.727 56.4062C203.352 55.8281 203.164 55.1719 203.164 54.4375C203.164 53.7734 203.289 53.1836 203.539 52.668C203.789 52.1523 204.156 51.7188 204.641 51.3672C205.133 51.0078 205.746 50.7383 206.48 50.5586C207.215 50.3711 208.066 50.2773 209.035 50.2773H210.992ZM219.852 48.0273V58H216.477V45.3203H219.641L219.852 48.0273ZM219.359 51.2148H218.445C218.445 50.2773 218.566 49.4336 218.809 48.6836C219.051 47.9258 219.391 47.2812 219.828 46.75C220.266 46.2109 220.785 45.8008 221.387 45.5195C221.996 45.2305 222.676 45.0859 223.426 45.0859C224.02 45.0859 224.562 45.1719 225.055 45.3438C225.547 45.5156 225.969 45.7891 226.32 46.1641C226.68 46.5391 226.953 47.0352 227.141 47.6523C227.336 48.2695 227.434 49.0234 227.434 49.9141V58H224.035V49.9023C224.035 49.3398 223.957 48.9023 223.801 48.5898C223.645 48.2773 223.414 48.0586 223.109 47.9336C222.812 47.8008 222.445 47.7344 222.008 47.7344C221.555 47.7344 221.16 47.8242 220.824 48.0039C220.496 48.1836 220.223 48.4336 220.004 48.7539C219.793 49.0664 219.633 49.4336 219.523 49.8555C219.414 50.2773 219.359 50.7305 219.359 51.2148ZM238.027 45.3203H241.086V57.5781C241.086 58.7344 240.828 59.7148 240.312 60.5195C239.805 61.332 239.094 61.9453 238.18 62.3594C237.266 62.7812 236.203 62.9922 234.992 62.9922C234.461 62.9922 233.898 62.9219 233.305 62.7812C232.719 62.6406 232.156 62.4219 231.617 62.125C231.086 61.8281 230.641 61.4531 230.281 61L231.77 59.0078C232.16 59.4609 232.613 59.8125 233.129 60.0625C233.645 60.3203 234.215 60.4492 234.84 60.4492C235.449 60.4492 235.965 60.3359 236.387 60.1094C236.809 59.8906 237.133 59.5664 237.359 59.1367C237.586 58.7148 237.699 58.2031 237.699 57.6016V48.25L238.027 45.3203ZM229.496 51.8125V51.5664C229.496 50.5977 229.613 49.7188 229.848 48.9297C230.09 48.1328 230.43 47.4492 230.867 46.8789C231.312 46.3086 231.852 45.8672 232.484 45.5547C233.117 45.2422 233.832 45.0859 234.629 45.0859C235.473 45.0859 236.18 45.2422 236.75 45.5547C237.32 45.8672 237.789 46.3125 238.156 46.8906C238.523 47.4609 238.809 48.1367 239.012 48.918C239.223 49.6914 239.387 50.5391 239.504 51.4609V52C239.387 52.8828 239.211 53.7031 238.977 54.4609C238.742 55.2188 238.434 55.8828 238.051 56.4531C237.668 57.0156 237.191 57.4531 236.621 57.7656C236.059 58.0781 235.387 58.2344 234.605 58.2344C233.824 58.2344 233.117 58.0742 232.484 57.7539C231.859 57.4336 231.324 56.9844 230.879 56.4062C230.434 55.8281 230.09 55.1484 229.848 54.3672C229.613 53.5859 229.496 52.7344 229.496 51.8125ZM232.871 51.5664V51.8125C232.871 52.3359 232.922 52.8242 233.023 53.2773C233.125 53.7305 233.281 54.1328 233.492 54.4844C233.711 54.8281 233.98 55.0977 234.301 55.293C234.629 55.4805 235.016 55.5742 235.461 55.5742C236.078 55.5742 236.582 55.4453 236.973 55.1875C237.363 54.9219 237.656 54.5586 237.852 54.0977C238.047 53.6367 238.16 53.1055 238.191 52.5039V50.9688C238.176 50.4766 238.109 50.0352 237.992 49.6445C237.875 49.2461 237.711 48.9062 237.5 48.625C237.289 48.3438 237.016 48.125 236.68 47.9688C236.344 47.8125 235.945 47.7344 235.484 47.7344C235.039 47.7344 234.652 47.8359 234.324 48.0391C234.004 48.2344 233.734 48.5039 233.516 48.8477C233.305 49.1914 233.145 49.5977 233.035 50.0664C232.926 50.5273 232.871 51.0273 232.871 51.5664ZM249.547 58.2344C248.562 58.2344 247.68 58.0781 246.898 57.7656C246.117 57.4453 245.453 57.0039 244.906 56.4414C244.367 55.8789 243.953 55.2266 243.664 54.4844C243.375 53.7344 243.23 52.9375 243.23 52.0938V51.625C243.23 50.6641 243.367 49.7852 243.641 48.9883C243.914 48.1914 244.305 47.5 244.812 46.9141C245.328 46.3281 245.953 45.8789 246.688 45.5664C247.422 45.2461 248.25 45.0859 249.172 45.0859C250.07 45.0859 250.867 45.2344 251.562 45.5312C252.258 45.8281 252.84 46.25 253.309 46.7969C253.785 47.3438 254.145 48 254.387 48.7656C254.629 49.5234 254.75 50.3672 254.75 51.2969V52.7031H244.672V50.4531H251.434V50.1953C251.434 49.7266 251.348 49.3086 251.176 48.9414C251.012 48.5664 250.762 48.2695 250.426 48.0508C250.09 47.832 249.66 47.7227 249.137 47.7227C248.691 47.7227 248.309 47.8203 247.988 48.0156C247.668 48.2109 247.406 48.4844 247.203 48.8359C247.008 49.1875 246.859 49.6016 246.758 50.0781C246.664 50.5469 246.617 51.0625 246.617 51.625V52.0938C246.617 52.6016 246.688 53.0703 246.828 53.5C246.977 53.9297 247.184 54.3008 247.449 54.6133C247.723 54.9258 248.051 55.168 248.434 55.3398C248.824 55.5117 249.266 55.5977 249.758 55.5977C250.367 55.5977 250.934 55.4805 251.457 55.2461C251.988 55.0039 252.445 54.6406 252.828 54.1562L254.469 55.9375C254.203 56.3203 253.84 56.6875 253.379 57.0391C252.926 57.3906 252.379 57.6797 251.738 57.9062C251.098 58.125 250.367 58.2344 249.547 58.2344Z" fill="#888888"/>
<path d="M115.994 98.708V104.641H99.5806V98.708H115.994ZM102.151 86.0078V118H94.439V86.0078H102.151ZM121.18 86.0078V118H113.489V86.0078H121.18ZM124.805 106.354V105.893C124.805 104.15 125.054 102.546 125.552 101.081C126.05 99.6016 126.783 98.3198 127.75 97.2358C128.716 96.1519 129.91 95.3096 131.331 94.709C132.752 94.0938 134.393 93.7861 136.253 93.7861C138.128 93.7861 139.776 94.0938 141.197 94.709C142.632 95.3096 143.833 96.1519 144.8 97.2358C145.767 98.3198 146.5 99.6016 146.998 101.081C147.496 102.546 147.745 104.15 147.745 105.893V106.354C147.745 108.083 147.496 109.687 146.998 111.167C146.5 112.631 145.767 113.913 144.8 115.012C143.833 116.096 142.64 116.938 141.219 117.539C139.798 118.139 138.157 118.439 136.297 118.439C134.437 118.439 132.789 118.139 131.353 117.539C129.917 116.938 128.716 116.096 127.75 115.012C126.783 113.913 126.05 112.631 125.552 111.167C125.054 109.687 124.805 108.083 124.805 106.354ZM132.21 105.893V106.354C132.21 107.248 132.276 108.083 132.408 108.859C132.54 109.636 132.759 110.317 133.067 110.903C133.375 111.474 133.792 111.921 134.319 112.243C134.847 112.565 135.506 112.727 136.297 112.727C137.073 112.727 137.718 112.565 138.23 112.243C138.758 111.921 139.175 111.474 139.483 110.903C139.791 110.317 140.01 109.636 140.142 108.859C140.274 108.083 140.34 107.248 140.34 106.354V105.893C140.34 105.029 140.274 104.216 140.142 103.454C140.01 102.678 139.791 101.997 139.483 101.411C139.175 100.81 138.758 100.341 138.23 100.004C137.703 99.6675 137.044 99.499 136.253 99.499C135.477 99.499 134.825 99.6675 134.297 100.004C133.785 100.341 133.375 100.81 133.067 101.411C132.759 101.997 132.54 102.678 132.408 103.454C132.276 104.216 132.21 105.029 132.21 105.893ZM158.27 110.925L162.664 94.2256H167.3L165.652 102.597L161.302 118H157.588L158.27 110.925ZM156.534 94.2256L159.258 110.793L159.566 118H155.062L149.437 94.2256H156.534ZM171.211 110.441L173.958 94.2256H181.055L175.474 118H170.97L171.211 110.441ZM167.828 94.2256L172.266 110.881L172.947 118H169.19L164.927 102.641L163.345 94.2256H167.828ZM209.466 86.0078V118H201.753V86.0078H209.466ZM219.09 86.0078V91.9624H192.349V86.0078H219.09ZM216.475 106.354V105.893C216.475 104.15 216.724 102.546 217.222 101.081C217.72 99.6016 218.453 98.3198 219.419 97.2358C220.386 96.1519 221.58 95.3096 223.001 94.709C224.422 94.0938 226.062 93.7861 227.923 93.7861C229.798 93.7861 231.446 94.0938 232.867 94.709C234.302 95.3096 235.503 96.1519 236.47 97.2358C237.437 98.3198 238.169 99.6016 238.667 101.081C239.166 102.546 239.415 104.15 239.415 105.893V106.354C239.415 108.083 239.166 109.687 238.667 111.167C238.169 112.631 237.437 113.913 236.47 115.012C235.503 116.096 234.31 116.938 232.889 117.539C231.468 118.139 229.827 118.439 227.967 118.439C226.106 118.439 224.458 118.139 223.023 117.539C221.587 116.938 220.386 116.096 219.419 115.012C218.453 113.913 217.72 112.631 217.222 111.167C216.724 109.687 216.475 108.083 216.475 106.354ZM223.88 105.893V106.354C223.88 107.248 223.946 108.083 224.078 108.859C224.209 109.636 224.429 110.317 224.737 110.903C225.044 111.474 225.462 111.921 225.989 112.243C226.517 112.565 227.176 112.727 227.967 112.727C228.743 112.727 229.388 112.565 229.9 112.243C230.428 111.921 230.845 111.474 231.153 110.903C231.46 110.317 231.68 109.636 231.812 108.859C231.944 108.083 232.01 107.248 232.01 106.354V105.893C232.01 105.029 231.944 104.216 231.812 103.454C231.68 102.678 231.46 101.997 231.153 101.411C230.845 100.81 230.428 100.341 229.9 100.004C229.373 99.6675 228.714 99.499 227.923 99.499C227.146 99.499 226.495 99.6675 225.967 100.004C225.455 100.341 225.044 100.81 224.737 101.411C224.429 101.997 224.209 102.678 224.078 103.454C223.946 104.216 223.88 105.029 223.88 105.893ZM254.268 86.0078H266.858C269.319 86.0078 271.458 86.374 273.274 87.1064C275.091 87.8389 276.49 88.9229 277.471 90.3584C278.467 91.7939 278.965 93.5664 278.965 95.6758C278.965 97.5068 278.68 99.0376 278.108 100.268C277.537 101.499 276.739 102.517 275.713 103.322C274.703 104.113 273.523 104.765 272.176 105.278L269.649 106.706H259.08L259.036 100.751H266.858C267.84 100.751 268.653 100.576 269.297 100.224C269.942 99.8726 270.425 99.3745 270.748 98.73C271.084 98.0708 271.253 97.2871 271.253 96.3789C271.253 95.4561 271.084 94.665 270.748 94.0059C270.411 93.3467 269.913 92.8413 269.253 92.4897C268.609 92.1382 267.811 91.9624 266.858 91.9624H261.98V118H254.268V86.0078ZM271.78 118L264.705 103.85L272.879 103.806L280.042 117.67V118H271.78ZM297.159 112.221V94.2256H304.585V118H297.642L297.159 112.221ZM297.862 107.387L299.795 107.343C299.795 108.94 299.605 110.419 299.224 111.782C298.843 113.129 298.279 114.301 297.532 115.297C296.8 116.293 295.892 117.07 294.808 117.626C293.738 118.168 292.5 118.439 291.094 118.439C289.922 118.439 288.846 118.278 287.864 117.956C286.897 117.619 286.062 117.099 285.359 116.396C284.656 115.678 284.107 114.763 283.711 113.649C283.331 112.521 283.14 111.174 283.14 109.606V94.2256H290.545V109.65C290.545 110.178 290.611 110.632 290.743 111.013C290.875 111.394 291.065 111.716 291.314 111.979C291.563 112.229 291.871 112.419 292.237 112.551C292.618 112.668 293.05 112.727 293.533 112.727C294.646 112.727 295.518 112.492 296.148 112.023C296.778 111.555 297.217 110.917 297.466 110.112C297.73 109.306 297.862 108.398 297.862 107.387ZM315.945 99.3013V118H308.541V94.2256H315.484L315.945 99.3013ZM315.066 105.3L313.331 105.344C313.331 103.527 313.55 101.909 313.99 100.488C314.429 99.0522 315.052 97.8364 315.857 96.8403C316.663 95.8442 317.623 95.0898 318.736 94.5771C319.864 94.0498 321.116 93.7861 322.493 93.7861C323.592 93.7861 324.595 93.9473 325.503 94.2695C326.426 94.5918 327.217 95.1118 327.876 95.8296C328.55 96.5474 329.063 97.4995 329.415 98.686C329.781 99.8579 329.964 101.308 329.964 103.037V118H322.515V103.015C322.515 102.062 322.383 101.337 322.12 100.839C321.856 100.327 321.475 99.9751 320.977 99.7847C320.479 99.5942 319.871 99.499 319.153 99.499C318.392 99.499 317.747 99.6455 317.22 99.9385C316.692 100.231 316.268 100.642 315.945 101.169C315.638 101.682 315.411 102.29 315.264 102.993C315.132 103.696 315.066 104.465 315.066 105.3ZM345.85 107.871H339.544C339.544 106.582 339.632 105.446 339.808 104.465C339.998 103.469 340.32 102.575 340.774 101.784C341.229 100.993 341.844 100.261 342.62 99.5869C343.309 99.0156 343.902 98.4663 344.4 97.939C344.898 97.4116 345.279 96.877 345.542 96.335C345.806 95.793 345.938 95.2144 345.938 94.5991C345.938 93.8374 345.828 93.2148 345.608 92.7314C345.403 92.248 345.088 91.8892 344.664 91.6548C344.253 91.4058 343.733 91.2812 343.104 91.2812C342.591 91.2812 342.107 91.4058 341.653 91.6548C341.214 91.9038 340.855 92.292 340.577 92.8193C340.298 93.332 340.145 94.0132 340.115 94.8628H332.667C332.71 92.6802 333.194 90.9077 334.117 89.5454C335.054 88.1685 336.299 87.165 337.852 86.5352C339.419 85.8906 341.17 85.5684 343.104 85.5684C345.242 85.5684 347.081 85.8979 348.619 86.5571C350.157 87.2163 351.336 88.1978 352.156 89.5015C352.977 90.7905 353.387 92.3799 353.387 94.2695C353.387 95.5293 353.145 96.6279 352.662 97.5654C352.193 98.4883 351.556 99.3525 350.75 100.158C349.959 100.949 349.073 101.799 348.091 102.707C347.242 103.454 346.663 104.216 346.355 104.992C346.048 105.754 345.879 106.713 345.85 107.871ZM338.643 114.55C338.643 113.496 339.024 112.617 339.786 111.914C340.547 111.196 341.536 110.837 342.752 110.837C343.968 110.837 344.957 111.196 345.718 111.914C346.48 112.617 346.861 113.496 346.861 114.55C346.861 115.605 346.48 116.491 345.718 117.209C344.957 117.912 343.968 118.264 342.752 118.264C341.536 118.264 340.547 117.912 339.786 117.209C339.024 116.491 338.643 115.605 338.643 114.55Z" fill="#424241"/>
<path d="M1363 15C1363 6.71573 1356.28 0 1348 0H1134V167H1348C1356.28 167 1363 160.284 1363 152V15Z" fill="url(#paint0_linear_2_57)"/>
<path d="M1260.77 81.3079C1263.96 81.3079 1267.09 82.2553 1269.74 84.0303C1272.4 85.8053 1274.47 88.3282 1275.69 91.2799C1276.92 94.2316 1277.24 97.4796 1276.61 100.613C1275.99 103.747 1274.45 106.625 1272.19 108.884C1269.93 111.143 1267.05 112.682 1263.92 113.305C1260.79 113.928 1257.54 113.608 1254.59 112.386C1251.64 111.163 1249.11 109.093 1247.34 106.436C1245.56 103.78 1244.62 100.657 1244.62 97.4617C1244.62 93.1774 1246.32 89.0686 1249.35 86.0392C1252.38 83.0098 1256.48 81.3079 1260.77 81.3079V81.3079ZM1260.77 75.9233C1256.51 75.9233 1252.35 77.1865 1248.8 79.5532C1245.26 81.9198 1242.5 85.2837 1240.87 89.2193C1239.24 93.1549 1238.81 97.4856 1239.64 101.664C1240.48 105.842 1242.53 109.679 1245.54 112.692C1248.55 115.704 1252.39 117.755 1256.57 118.586C1260.75 119.417 1265.08 118.991 1269.01 117.361C1272.95 115.73 1276.31 112.97 1278.68 109.428C1281.04 105.886 1282.31 101.722 1282.31 97.4617C1282.31 91.7493 1280.04 86.271 1276 82.2317C1271.96 78.1925 1266.48 75.9233 1260.77 75.9233Z" fill="white"/>
<path d="M1274.23 49H1220.38C1218.96 49 1217.59 49.5673 1216.58 50.5771C1215.57 51.5869 1215 52.9565 1215 54.3846V108.231C1215 109.659 1215.57 111.028 1216.58 112.038C1217.59 113.048 1218.96 113.615 1220.38 113.615H1231.15V108.231H1220.38V70.5384H1279.62V54.3846C1279.62 52.9565 1279.05 51.5869 1278.04 50.5771C1277.03 49.5673 1275.66 49 1274.23 49V49ZM1220.38 65.1538V54.3846H1274.23V65.1538H1220.38Z" fill="white"/>
<path d="M1255.38 89.3849V105.539L1268.85 97.4618L1255.38 89.3849Z" fill="white"/>
<defs>
<linearGradient id="paint0_linear_2_57" x1="1134" y1="9.35846e-06" x2="1363" y2="167" gradientUnits="userSpaceOnUse">
<stop stop-color="#FACD68"/>
<stop offset="1" stop-color="#FC76B3"/>
</linearGradient>
</defs>
</svg>
