<svg width="1363" height="167" viewBox="0 0 1363 167" fill="none" xmlns="http://www.w3.org/2000/svg">
<rect width="1363" height="167" rx="15" fill="#F0F0F0"/>
<path d="M0 15C0 6.71573 6.71573 0 15 0H37V167H15C6.71573 167 0 160.284 0 152V15Z" fill="#424241"/>
<path d="M100.906 50.9219L93.3945 48.2383V45.0859L103.602 49.375V51.6367L100.906 50.9219ZM93.3945 53.1719L100.918 50.4297L103.602 49.7852V52.0352L93.3945 56.3242V53.1719ZM117.137 58H113.422L113.445 55.2578H117.137C118.059 55.2578 118.836 55.0508 119.469 54.6367C120.102 54.2148 120.578 53.6016 120.898 52.7969C121.227 51.9922 121.391 51.0195 121.391 49.8789V49.0469C121.391 48.1719 121.297 47.4023 121.109 46.7383C120.93 46.0742 120.66 45.5156 120.301 45.0625C119.941 44.6094 119.5 44.2695 118.977 44.043C118.453 43.8086 117.852 43.6914 117.172 43.6914H113.352V40.9375H117.172C118.312 40.9375 119.355 41.1328 120.301 41.5234C121.254 41.9062 122.078 42.457 122.773 43.1758C123.469 43.8945 124.004 44.7539 124.379 45.7539C124.762 46.7461 124.953 47.8516 124.953 49.0703V49.8789C124.953 51.0898 124.762 52.1953 124.379 53.1953C124.004 54.1953 123.469 55.0547 122.773 55.7734C122.086 56.4844 121.262 57.0352 120.301 57.4258C119.348 57.8086 118.293 58 117.137 58ZM115.414 40.9375V58H111.898V40.9375H115.414ZM133.133 58.2344C132.148 58.2344 131.266 58.0781 130.484 57.7656C129.703 57.4453 129.039 57.0039 128.492 56.4414C127.953 55.8789 127.539 55.2266 127.25 54.4844C126.961 53.7344 126.816 52.9375 126.816 52.0938V51.625C126.816 50.6641 126.953 49.7852 127.227 48.9883C127.5 48.1914 127.891 47.5 128.398 46.9141C128.914 46.3281 129.539 45.8789 130.273 45.5664C131.008 45.2461 131.836 45.0859 132.758 45.0859C133.656 45.0859 134.453 45.2344 135.148 45.5312C135.844 45.8281 136.426 46.25 136.895 46.7969C137.371 47.3438 137.73 48 137.973 48.7656C138.215 49.5234 138.336 50.3672 138.336 51.2969V52.7031H128.258V50.4531H135.02V50.1953C135.02 49.7266 134.934 49.3086 134.762 48.9414C134.598 48.5664 134.348 48.2695 134.012 48.0508C133.676 47.832 133.246 47.7227 132.723 47.7227C132.277 47.7227 131.895 47.8203 131.574 48.0156C131.254 48.2109 130.992 48.4844 130.789 48.8359C130.594 49.1875 130.445 49.6016 130.344 50.0781C130.25 50.5469 130.203 51.0625 130.203 51.625V52.0938C130.203 52.6016 130.273 53.0703 130.414 53.5C130.562 53.9297 130.77 54.3008 131.035 54.6133C131.309 54.9258 131.637 55.168 132.02 55.3398C132.41 55.5117 132.852 55.5977 133.344 55.5977C133.953 55.5977 134.52 55.4805 135.043 55.2461C135.574 55.0039 136.031 54.6406 136.414 54.1562L138.055 55.9375C137.789 56.3203 137.426 56.6875 136.965 57.0391C136.512 57.3906 135.965 57.6797 135.324 57.9062C134.684 58.125 133.953 58.2344 133.133 58.2344ZM144.406 55.5391L147.219 45.3203H150.746L146.469 58H144.336L144.406 55.5391ZM142.473 45.3203L145.297 55.5508L145.355 58H143.211L138.934 45.3203H142.473ZM163.918 55.2578V58H154.836V55.2578H163.918ZM155.984 40.9375V58H152.469V40.9375H155.984ZM162.734 47.8867V50.5586H154.836V47.8867H162.734ZM163.906 40.9375V43.6914H154.836V40.9375H163.906ZM168.477 45.3203L170.574 49.1758L172.73 45.3203H176.328L172.742 51.5195L176.492 58H172.883L170.598 53.9219L168.312 58H164.703L168.453 51.5195L164.867 45.3203H168.477ZM182.973 55.5977C183.387 55.5977 183.754 55.5195 184.074 55.3633C184.395 55.1992 184.645 54.9727 184.824 54.6836C185.012 54.3867 185.109 54.0391 185.117 53.6406H188.293C188.285 54.5312 188.047 55.3242 187.578 56.0195C187.109 56.707 186.48 57.25 185.691 57.6484C184.902 58.0391 184.02 58.2344 183.043 58.2344C182.059 58.2344 181.199 58.0703 180.465 57.7422C179.738 57.4141 179.133 56.9609 178.648 56.3828C178.164 55.7969 177.801 55.1172 177.559 54.3438C177.316 53.5625 177.195 52.7266 177.195 51.8359V51.4961C177.195 50.5977 177.316 49.7617 177.559 48.9883C177.801 48.207 178.164 47.5273 178.648 46.9492C179.133 46.3633 179.738 45.9062 180.465 45.5781C181.191 45.25 182.043 45.0859 183.02 45.0859C184.059 45.0859 184.969 45.2852 185.75 45.6836C186.539 46.082 187.156 46.6523 187.602 47.3945C188.055 48.1289 188.285 49 188.293 50.0078H185.117C185.109 49.5859 185.02 49.2031 184.848 48.8594C184.684 48.5156 184.441 48.2422 184.121 48.0391C183.809 47.8281 183.422 47.7227 182.961 47.7227C182.469 47.7227 182.066 47.8281 181.754 48.0391C181.441 48.2422 181.199 48.5234 181.027 48.8828C180.855 49.2344 180.734 49.6367 180.664 50.0898C180.602 50.5352 180.57 51.0039 180.57 51.4961V51.8359C180.57 52.3281 180.602 52.8008 180.664 53.2539C180.727 53.707 180.844 54.1094 181.016 54.4609C181.195 54.8125 181.441 55.0898 181.754 55.293C182.066 55.4961 182.473 55.5977 182.973 55.5977ZM193.543 40V58H190.168V40H193.543ZM193.062 51.2148H192.137C192.145 50.332 192.262 49.5195 192.488 48.7773C192.715 48.0273 193.039 47.3789 193.461 46.832C193.883 46.2773 194.387 45.8477 194.973 45.543C195.566 45.2383 196.223 45.0859 196.941 45.0859C197.566 45.0859 198.133 45.1758 198.641 45.3555C199.156 45.5273 199.598 45.8086 199.965 46.1992C200.34 46.582 200.629 47.0859 200.832 47.7109C201.035 48.3359 201.137 49.0938 201.137 49.9844V58H197.738V49.9609C197.738 49.3984 197.656 48.957 197.492 48.6367C197.336 48.3086 197.105 48.0781 196.801 47.9453C196.504 47.8047 196.137 47.7344 195.699 47.7344C195.215 47.7344 194.801 47.8242 194.457 48.0039C194.121 48.1836 193.852 48.4336 193.648 48.7539C193.445 49.0664 193.297 49.4336 193.203 49.8555C193.109 50.2773 193.062 50.7305 193.062 51.2148ZM210.547 55.1406V49.4922C210.547 49.0859 210.48 48.7383 210.348 48.4492C210.215 48.1523 210.008 47.9219 209.727 47.7578C209.453 47.5938 209.098 47.5117 208.66 47.5117C208.285 47.5117 207.961 47.5781 207.688 47.7109C207.414 47.8359 207.203 48.0195 207.055 48.2617C206.906 48.4961 206.832 48.7734 206.832 49.0938H203.457C203.457 48.5547 203.582 48.043 203.832 47.5586C204.082 47.0742 204.445 46.6484 204.922 46.2812C205.398 45.9062 205.965 45.6133 206.621 45.4023C207.285 45.1914 208.027 45.0859 208.848 45.0859C209.832 45.0859 210.707 45.25 211.473 45.5781C212.238 45.9062 212.84 46.3984 213.277 47.0547C213.723 47.7109 213.945 48.5312 213.945 49.5156V54.9414C213.945 55.6367 213.988 56.207 214.074 56.6523C214.16 57.0898 214.285 57.4727 214.449 57.8008V58H211.039C210.875 57.6562 210.75 57.2266 210.664 56.7109C210.586 56.1875 210.547 55.6641 210.547 55.1406ZM210.992 50.2773L211.016 52.1875H209.129C208.684 52.1875 208.297 52.2383 207.969 52.3398C207.641 52.4414 207.371 52.5859 207.16 52.7734C206.949 52.9531 206.793 53.1641 206.691 53.4062C206.598 53.6484 206.551 53.9141 206.551 54.2031C206.551 54.4922 206.617 54.7539 206.75 54.9883C206.883 55.2148 207.074 55.3945 207.324 55.5273C207.574 55.6523 207.867 55.7148 208.203 55.7148C208.711 55.7148 209.152 55.6133 209.527 55.4102C209.902 55.207 210.191 54.957 210.395 54.6602C210.605 54.3633 210.715 54.082 210.723 53.8164L211.613 55.2461C211.488 55.5664 211.316 55.8984 211.098 56.2422C210.887 56.5859 210.617 56.9102 210.289 57.2148C209.961 57.5117 209.566 57.7578 209.105 57.9531C208.645 58.1406 208.098 58.2344 207.465 58.2344C206.66 58.2344 205.93 58.0742 205.273 57.7539C204.625 57.4258 204.109 56.9766 203.727 56.4062C203.352 55.8281 203.164 55.1719 203.164 54.4375C203.164 53.7734 203.289 53.1836 203.539 52.668C203.789 52.1523 204.156 51.7188 204.641 51.3672C205.133 51.0078 205.746 50.7383 206.48 50.5586C207.215 50.3711 208.066 50.2773 209.035 50.2773H210.992ZM219.852 48.0273V58H216.477V45.3203H219.641L219.852 48.0273ZM219.359 51.2148H218.445C218.445 50.2773 218.566 49.4336 218.809 48.6836C219.051 47.9258 219.391 47.2812 219.828 46.75C220.266 46.2109 220.785 45.8008 221.387 45.5195C221.996 45.2305 222.676 45.0859 223.426 45.0859C224.02 45.0859 224.562 45.1719 225.055 45.3438C225.547 45.5156 225.969 45.7891 226.32 46.1641C226.68 46.5391 226.953 47.0352 227.141 47.6523C227.336 48.2695 227.434 49.0234 227.434 49.9141V58H224.035V49.9023C224.035 49.3398 223.957 48.9023 223.801 48.5898C223.645 48.2773 223.414 48.0586 223.109 47.9336C222.812 47.8008 222.445 47.7344 222.008 47.7344C221.555 47.7344 221.16 47.8242 220.824 48.0039C220.496 48.1836 220.223 48.4336 220.004 48.7539C219.793 49.0664 219.633 49.4336 219.523 49.8555C219.414 50.2773 219.359 50.7305 219.359 51.2148ZM238.027 45.3203H241.086V57.5781C241.086 58.7344 240.828 59.7148 240.312 60.5195C239.805 61.332 239.094 61.9453 238.18 62.3594C237.266 62.7812 236.203 62.9922 234.992 62.9922C234.461 62.9922 233.898 62.9219 233.305 62.7812C232.719 62.6406 232.156 62.4219 231.617 62.125C231.086 61.8281 230.641 61.4531 230.281 61L231.77 59.0078C232.16 59.4609 232.613 59.8125 233.129 60.0625C233.645 60.3203 234.215 60.4492 234.84 60.4492C235.449 60.4492 235.965 60.3359 236.387 60.1094C236.809 59.8906 237.133 59.5664 237.359 59.1367C237.586 58.7148 237.699 58.2031 237.699 57.6016V48.25L238.027 45.3203ZM229.496 51.8125V51.5664C229.496 50.5977 229.613 49.7188 229.848 48.9297C230.09 48.1328 230.43 47.4492 230.867 46.8789C231.312 46.3086 231.852 45.8672 232.484 45.5547C233.117 45.2422 233.832 45.0859 234.629 45.0859C235.473 45.0859 236.18 45.2422 236.75 45.5547C237.32 45.8672 237.789 46.3125 238.156 46.8906C238.523 47.4609 238.809 48.1367 239.012 48.918C239.223 49.6914 239.387 50.5391 239.504 51.4609V52C239.387 52.8828 239.211 53.7031 238.977 54.4609C238.742 55.2188 238.434 55.8828 238.051 56.4531C237.668 57.0156 237.191 57.4531 236.621 57.7656C236.059 58.0781 235.387 58.2344 234.605 58.2344C233.824 58.2344 233.117 58.0742 232.484 57.7539C231.859 57.4336 231.324 56.9844 230.879 56.4062C230.434 55.8281 230.09 55.1484 229.848 54.3672C229.613 53.5859 229.496 52.7344 229.496 51.8125ZM232.871 51.5664V51.8125C232.871 52.3359 232.922 52.8242 233.023 53.2773C233.125 53.7305 233.281 54.1328 233.492 54.4844C233.711 54.8281 233.98 55.0977 234.301 55.293C234.629 55.4805 235.016 55.5742 235.461 55.5742C236.078 55.5742 236.582 55.4453 236.973 55.1875C237.363 54.9219 237.656 54.5586 237.852 54.0977C238.047 53.6367 238.16 53.1055 238.191 52.5039V50.9688C238.176 50.4766 238.109 50.0352 237.992 49.6445C237.875 49.2461 237.711 48.9062 237.5 48.625C237.289 48.3438 237.016 48.125 236.68 47.9688C236.344 47.8125 235.945 47.7344 235.484 47.7344C235.039 47.7344 234.652 47.8359 234.324 48.0391C234.004 48.2344 233.734 48.5039 233.516 48.8477C233.305 49.1914 233.145 49.5977 233.035 50.0664C232.926 50.5273 232.871 51.0273 232.871 51.5664ZM249.547 58.2344C248.562 58.2344 247.68 58.0781 246.898 57.7656C246.117 57.4453 245.453 57.0039 244.906 56.4414C244.367 55.8789 243.953 55.2266 243.664 54.4844C243.375 53.7344 243.23 52.9375 243.23 52.0938V51.625C243.23 50.6641 243.367 49.7852 243.641 48.9883C243.914 48.1914 244.305 47.5 244.812 46.9141C245.328 46.3281 245.953 45.8789 246.688 45.5664C247.422 45.2461 248.25 45.0859 249.172 45.0859C250.07 45.0859 250.867 45.2344 251.562 45.5312C252.258 45.8281 252.84 46.25 253.309 46.7969C253.785 47.3438 254.145 48 254.387 48.7656C254.629 49.5234 254.75 50.3672 254.75 51.2969V52.7031H244.672V50.4531H251.434V50.1953C251.434 49.7266 251.348 49.3086 251.176 48.9414C251.012 48.5664 250.762 48.2695 250.426 48.0508C250.09 47.832 249.66 47.7227 249.137 47.7227C248.691 47.7227 248.309 47.8203 247.988 48.0156C247.668 48.2109 247.406 48.4844 247.203 48.8359C247.008 49.1875 246.859 49.6016 246.758 50.0781C246.664 50.5469 246.617 51.0625 246.617 51.625V52.0938C246.617 52.6016 246.688 53.0703 246.828 53.5C246.977 53.9297 247.184 54.3008 247.449 54.6133C247.723 54.9258 248.051 55.168 248.434 55.3398C248.824 55.5117 249.266 55.5977 249.758 55.5977C250.367 55.5977 250.934 55.4805 251.457 55.2461C251.988 55.0039 252.445 54.6406 252.828 54.1562L254.469 55.9375C254.203 56.3203 253.84 56.6875 253.379 57.0391C252.926 57.3906 252.379 57.6797 251.738 57.9062C251.098 58.125 250.367 58.2344 249.547 58.2344Z" fill="#888888"/>
<path d="M101.822 115.1L108.194 86.0078H111.995L114.061 88.4907L107.271 118H103.074L101.822 115.1ZM100.13 86.0078L105.513 115.319L104.129 118H99.2729L92.4834 86.0078H100.13ZM117.554 115.166L122.894 86.0078H130.518L123.729 118H118.895L117.554 115.166ZM114.742 86.0078L121.268 115.275L119.949 118H115.752L108.809 88.4468L110.962 86.0078H114.742ZM141.021 94.2256V118H133.594V94.2256H141.021ZM133.155 88.0952C133.155 87.0405 133.536 86.1763 134.297 85.5024C135.059 84.8286 136.048 84.4917 137.264 84.4917C138.479 84.4917 139.468 84.8286 140.23 85.5024C140.992 86.1763 141.373 87.0405 141.373 88.0952C141.373 89.1499 140.992 90.0142 140.23 90.688C139.468 91.3618 138.479 91.6987 137.264 91.6987C136.048 91.6987 135.059 91.3618 134.297 90.688C133.536 90.0142 133.155 89.1499 133.155 88.0952ZM153.062 100.114V118H145.657V94.2256H152.579L153.062 100.114ZM160.093 94.0498L159.961 100.927C159.668 100.898 159.273 100.861 158.775 100.817C158.277 100.773 157.859 100.751 157.522 100.751C156.658 100.751 155.911 100.854 155.281 101.059C154.666 101.25 154.153 101.542 153.743 101.938C153.348 102.319 153.055 102.802 152.864 103.388C152.688 103.974 152.608 104.655 152.623 105.432L151.282 104.553C151.282 102.956 151.436 101.506 151.744 100.202C152.066 98.8838 152.52 97.7485 153.106 96.7964C153.692 95.8296 154.402 95.0898 155.237 94.5771C156.072 94.0498 157.01 93.7861 158.05 93.7861C158.416 93.7861 158.775 93.8081 159.126 93.8521C159.493 93.896 159.815 93.9619 160.093 94.0498ZM173.716 118.439C171.783 118.439 170.054 118.139 168.531 117.539C167.007 116.923 165.718 116.081 164.664 115.012C163.624 113.942 162.825 112.712 162.269 111.32C161.727 109.929 161.456 108.457 161.456 106.904V106.069C161.456 104.326 161.697 102.714 162.181 101.235C162.664 99.7407 163.382 98.437 164.334 97.3237C165.286 96.2104 166.48 95.3462 167.916 94.731C169.351 94.1011 171.021 93.7861 172.925 93.7861C174.61 93.7861 176.119 94.0571 177.452 94.5991C178.785 95.1411 179.913 95.9175 180.835 96.9282C181.773 97.939 182.483 99.1621 182.967 100.598C183.465 102.033 183.714 103.645 183.714 105.432V108.442H164.29V103.806H176.485V103.234C176.5 102.443 176.36 101.77 176.067 101.213C175.789 100.656 175.379 100.231 174.837 99.9385C174.295 99.6455 173.636 99.499 172.859 99.499C172.054 99.499 171.387 99.6748 170.86 100.026C170.347 100.378 169.944 100.861 169.651 101.477C169.373 102.077 169.175 102.773 169.058 103.564C168.941 104.355 168.882 105.19 168.882 106.069V106.904C168.882 107.783 169 108.581 169.234 109.299C169.483 110.017 169.834 110.632 170.289 111.145C170.757 111.643 171.314 112.031 171.958 112.309C172.618 112.587 173.365 112.727 174.2 112.727C175.21 112.727 176.207 112.536 177.188 112.155C178.169 111.774 179.012 111.145 179.715 110.266L183.077 114.265C182.593 114.953 181.905 115.62 181.011 116.264C180.132 116.909 179.078 117.436 177.847 117.846C176.617 118.242 175.24 118.439 173.716 118.439ZM195.799 118H188.35V92.292C188.35 90.4463 188.724 88.8936 189.471 87.6338C190.218 86.374 191.272 85.4219 192.635 84.7773C193.997 84.1182 195.608 83.7886 197.469 83.7886C198.113 83.7886 198.721 83.8325 199.292 83.9204C199.864 84.0083 200.42 84.1182 200.962 84.25L200.984 89.6992C200.721 89.626 200.45 89.5747 200.171 89.5454C199.893 89.5161 199.549 89.5015 199.139 89.5015C198.421 89.5015 197.813 89.6113 197.315 89.8311C196.817 90.0361 196.436 90.3511 196.172 90.7759C195.923 91.186 195.799 91.6914 195.799 92.292V118ZM200.413 94.2256V99.3672H184.922V94.2256H200.413ZM210.542 100.114V118H203.138V94.2256H210.059L210.542 100.114ZM217.574 94.0498L217.442 100.927C217.149 100.898 216.753 100.861 216.255 100.817C215.757 100.773 215.34 100.751 215.003 100.751C214.139 100.751 213.392 100.854 212.762 101.059C212.146 101.25 211.634 101.542 211.224 101.938C210.828 102.319 210.535 102.802 210.345 103.388C210.169 103.974 210.088 104.655 210.103 105.432L208.763 104.553C208.763 102.956 208.917 101.506 209.224 100.202C209.546 98.8838 210 97.7485 210.586 96.7964C211.172 95.8296 211.883 95.0898 212.718 94.5771C213.553 94.0498 214.49 93.7861 215.53 93.7861C215.896 93.7861 216.255 93.8081 216.607 93.8521C216.973 93.896 217.295 93.9619 217.574 94.0498ZM231.812 112.023V102.224C231.812 101.55 231.717 100.971 231.526 100.488C231.336 100.004 231.036 99.6309 230.625 99.3672C230.215 99.0889 229.666 98.9497 228.978 98.9497C228.421 98.9497 227.945 99.0449 227.549 99.2354C227.154 99.4258 226.854 99.7114 226.648 100.092C226.443 100.473 226.341 100.957 226.341 101.542H218.936C218.936 100.444 219.178 99.4258 219.661 98.4883C220.159 97.5361 220.862 96.7085 221.771 96.0054C222.693 95.3022 223.792 94.7603 225.066 94.3794C226.355 93.9839 227.791 93.7861 229.373 93.7861C231.263 93.7861 232.947 94.1011 234.427 94.731C235.921 95.3608 237.1 96.3057 237.964 97.5654C238.829 98.8105 239.261 100.378 239.261 102.268V112.001C239.261 113.554 239.349 114.733 239.524 115.539C239.7 116.33 239.949 117.026 240.271 117.626V118H232.845C232.493 117.268 232.229 116.374 232.054 115.319C231.893 114.25 231.812 113.151 231.812 112.023ZM232.713 103.476L232.757 107.431H229.483C228.794 107.431 228.208 107.526 227.725 107.717C227.256 107.907 226.875 108.171 226.583 108.508C226.304 108.83 226.099 109.196 225.967 109.606C225.85 110.017 225.792 110.449 225.792 110.903C225.792 111.342 225.894 111.738 226.099 112.089C226.319 112.426 226.612 112.69 226.978 112.88C227.344 113.071 227.754 113.166 228.208 113.166C229.029 113.166 229.725 113.012 230.296 112.705C230.882 112.382 231.329 111.994 231.636 111.54C231.944 111.086 232.098 110.661 232.098 110.266L233.724 113.298C233.431 113.884 233.094 114.477 232.713 115.078C232.347 115.678 231.885 116.235 231.329 116.748C230.787 117.246 230.12 117.656 229.329 117.978C228.538 118.286 227.579 118.439 226.451 118.439C224.986 118.439 223.638 118.139 222.408 117.539C221.192 116.938 220.218 116.103 219.485 115.034C218.753 113.95 218.387 112.705 218.387 111.298C218.387 110.068 218.606 108.969 219.046 108.002C219.5 107.036 220.181 106.215 221.089 105.542C221.998 104.868 223.155 104.355 224.561 104.003C225.967 103.652 227.623 103.476 229.527 103.476H232.713ZM250.84 99.2573V118H243.436V94.2256H250.379L250.84 99.2573ZM249.939 105.3L248.248 105.344C248.248 103.674 248.445 102.136 248.841 100.729C249.236 99.3232 249.822 98.1001 250.599 97.0601C251.375 96.02 252.327 95.2144 253.455 94.6431C254.598 94.0718 255.916 93.7861 257.41 93.7861C258.45 93.7861 259.395 93.9473 260.245 94.2695C261.094 94.5771 261.827 95.0679 262.442 95.7417C263.057 96.4009 263.526 97.2651 263.848 98.3345C264.185 99.3892 264.354 100.656 264.354 102.136V118H256.949V103.081C256.949 102.07 256.832 101.308 256.597 100.795C256.377 100.283 256.055 99.9385 255.63 99.7627C255.206 99.5869 254.686 99.499 254.07 99.499C253.426 99.499 252.847 99.6455 252.334 99.9385C251.822 100.231 251.382 100.642 251.016 101.169C250.665 101.682 250.394 102.29 250.203 102.993C250.027 103.696 249.939 104.465 249.939 105.3ZM263.519 105.3L261.453 105.344C261.453 103.674 261.636 102.136 262.002 100.729C262.383 99.3232 262.947 98.1001 263.694 97.0601C264.456 96.02 265.401 95.2144 266.529 94.6431C267.657 94.0718 268.968 93.7861 270.462 93.7861C271.546 93.7861 272.542 93.9473 273.45 94.2695C274.358 94.5918 275.142 95.1118 275.801 95.8296C276.46 96.5474 276.973 97.4995 277.339 98.686C277.706 99.8579 277.889 101.308 277.889 103.037V118H270.462V103.037C270.462 102.055 270.345 101.315 270.11 100.817C269.891 100.305 269.568 99.9604 269.144 99.7847C268.719 99.5942 268.213 99.499 267.627 99.499C266.924 99.499 266.316 99.6455 265.804 99.9385C265.291 100.231 264.859 100.642 264.507 101.169C264.17 101.682 263.921 102.29 263.76 102.993C263.599 103.696 263.519 104.465 263.519 105.3ZM293.643 118.439C291.709 118.439 289.981 118.139 288.458 117.539C286.934 116.923 285.645 116.081 284.59 115.012C283.55 113.942 282.752 112.712 282.195 111.32C281.653 109.929 281.382 108.457 281.382 106.904V106.069C281.382 104.326 281.624 102.714 282.107 101.235C282.591 99.7407 283.309 98.437 284.261 97.3237C285.213 96.2104 286.407 95.3462 287.842 94.731C289.278 94.1011 290.948 93.7861 292.852 93.7861C294.537 93.7861 296.045 94.0571 297.378 94.5991C298.711 95.1411 299.839 95.9175 300.762 96.9282C301.7 97.939 302.41 99.1621 302.894 100.598C303.392 102.033 303.641 103.645 303.641 105.432V108.442H284.217V103.806H296.412V103.234C296.426 102.443 296.287 101.77 295.994 101.213C295.716 100.656 295.306 100.231 294.764 99.9385C294.222 99.6455 293.562 99.499 292.786 99.499C291.98 99.499 291.314 99.6748 290.787 100.026C290.274 100.378 289.871 100.861 289.578 101.477C289.3 102.077 289.102 102.773 288.985 103.564C288.868 104.355 288.809 105.19 288.809 106.069V106.904C288.809 107.783 288.926 108.581 289.161 109.299C289.41 110.017 289.761 110.632 290.215 111.145C290.684 111.643 291.241 112.031 291.885 112.309C292.544 112.587 293.292 112.727 294.126 112.727C295.137 112.727 296.133 112.536 297.115 112.155C298.096 111.774 298.938 111.145 299.642 110.266L303.003 114.265C302.52 114.953 301.832 115.62 300.938 116.264C300.059 116.909 299.004 117.436 297.774 117.846C296.543 118.242 295.167 118.439 293.643 118.439ZM319.109 111.32C319.109 110.91 318.97 110.559 318.692 110.266C318.428 109.958 317.959 109.68 317.286 109.431C316.612 109.167 315.667 108.903 314.451 108.64C313.294 108.391 312.203 108.061 311.177 107.651C310.167 107.241 309.28 106.743 308.519 106.157C307.757 105.571 307.156 104.875 306.717 104.069C306.292 103.264 306.08 102.341 306.08 101.301C306.08 100.29 306.292 99.3379 306.717 98.4443C307.156 97.5361 307.793 96.7378 308.628 96.0493C309.478 95.3462 310.511 94.7969 311.727 94.4014C312.942 93.9912 314.327 93.7861 315.879 93.7861C318.018 93.7861 319.864 94.1157 321.417 94.7749C322.969 95.4194 324.163 96.3276 324.998 97.4995C325.848 98.6567 326.272 99.9971 326.272 101.521H318.868C318.868 100.92 318.765 100.407 318.56 99.9824C318.37 99.5576 318.055 99.2354 317.615 99.0156C317.176 98.7812 316.59 98.6641 315.857 98.6641C315.345 98.6641 314.876 98.7593 314.451 98.9497C314.041 99.1401 313.711 99.4038 313.462 99.7407C313.213 100.078 313.089 100.473 313.089 100.927C313.089 101.25 313.162 101.542 313.309 101.806C313.47 102.055 313.711 102.29 314.034 102.509C314.356 102.714 314.766 102.905 315.264 103.081C315.762 103.242 316.363 103.388 317.066 103.52C318.663 103.813 320.157 104.23 321.548 104.772C322.94 105.314 324.068 106.083 324.932 107.08C325.811 108.076 326.25 109.416 326.25 111.101C326.25 112.155 326.009 113.129 325.525 114.023C325.042 114.902 324.346 115.678 323.438 116.352C322.53 117.011 321.438 117.524 320.164 117.89C318.89 118.256 317.454 118.439 315.857 118.439C313.587 118.439 311.668 118.037 310.101 117.231C308.533 116.411 307.347 115.385 306.541 114.155C305.75 112.91 305.354 111.65 305.354 110.375H312.254C312.283 111.108 312.459 111.708 312.781 112.177C313.118 112.646 313.565 112.99 314.122 113.21C314.678 113.43 315.323 113.54 316.055 113.54C316.729 113.54 317.286 113.444 317.725 113.254C318.179 113.063 318.523 112.807 318.758 112.485C318.992 112.148 319.109 111.76 319.109 111.32Z" fill="#424241"/>
<path d="M1363 15C1363 6.71573 1356.28 0 1348 0H1134V167H1348C1356.28 167 1363 160.284 1363 152V15Z" fill="#0074FF"/>
<path fill-rule="evenodd" clip-rule="evenodd" d="M1203 49C1203 47.8954 1203.9 47 1205 47H1292.5C1293.6 47 1294.5 47.8954 1294.5 49V118.996C1294.5 120.101 1293.6 120.996 1292.5 120.996H1205C1203.9 120.996 1203 120.101 1203 118.996V49ZM1207 51V55.4945H1290.5V51H1207ZM1290.5 59.4945H1235.44V116.996H1290.5V59.4945ZM1231.44 116.996V59.4945H1207V116.996H1231.44Z" fill="white"/>
<path fill-rule="evenodd" clip-rule="evenodd" d="M1209.97 64.8004C1209.97 63.6958 1210.87 62.8004 1211.97 62.8004H1225.97C1227.08 62.8004 1227.97 63.6958 1227.97 64.8004V84.1956C1227.97 85.3001 1227.08 86.1956 1225.97 86.1956H1211.97C1210.87 86.1956 1209.97 85.3001 1209.97 84.1956V64.8004ZM1213.97 66.8004V82.1956H1223.97V66.8004H1213.97ZM1239.58 65.6964C1239.58 64.5918 1240.47 63.6964 1241.58 63.6964H1284.5C1285.61 63.6964 1286.5 64.5918 1286.5 65.6964V111.905C1286.5 113.01 1285.61 113.905 1284.5 113.905H1241.58C1240.47 113.905 1239.58 113.01 1239.58 111.905V65.6964ZM1243.58 67.6964V109.905H1282.5V67.6964H1243.58ZM1209.81 95.9363C1209.81 94.8317 1210.71 93.9363 1211.81 93.9363H1220.73C1221.84 93.9363 1222.73 94.8317 1222.73 95.9363C1222.73 97.0409 1221.84 97.9363 1220.73 97.9363H1211.81C1210.71 97.9363 1209.81 97.0409 1209.81 95.9363ZM1209.81 102.936C1209.81 101.832 1210.71 100.936 1211.81 100.936H1226.35C1227.46 100.936 1228.35 101.832 1228.35 102.936C1228.35 104.041 1227.46 104.936 1226.35 104.936H1211.81C1210.71 104.936 1209.81 104.041 1209.81 102.936ZM1209.81 109.936C1209.81 108.832 1210.71 107.936 1211.81 107.936H1220.73C1221.84 107.936 1222.73 108.832 1222.73 109.936C1222.73 111.041 1221.84 111.936 1220.73 111.936H1211.81C1210.71 111.936 1209.81 111.041 1209.81 109.936Z" fill="white"/>
</svg>
