<svg width="1363" height="167" viewBox="0 0 1363 167" fill="none" xmlns="http://www.w3.org/2000/svg">
<rect width="1363" height="167" rx="15" fill="#F0F0F0"/>
<path d="M0 15C0 6.71573 6.71573 0 15 0H37V167H15C6.71573 167 0 160.284 0 152V15Z" fill="#424241"/>
<path d="M100.906 50.9219L93.3945 48.2383V45.0859L103.602 49.375V51.6367L100.906 50.9219ZM93.3945 53.1719L100.918 50.4297L103.602 49.7852V52.0352L93.3945 56.3242V53.1719ZM117.137 58H113.422L113.445 55.2578H117.137C118.059 55.2578 118.836 55.0508 119.469 54.6367C120.102 54.2148 120.578 53.6016 120.898 52.7969C121.227 51.9922 121.391 51.0195 121.391 49.8789V49.0469C121.391 48.1719 121.297 47.4023 121.109 46.7383C120.93 46.0742 120.66 45.5156 120.301 45.0625C119.941 44.6094 119.5 44.2695 118.977 44.043C118.453 43.8086 117.852 43.6914 117.172 43.6914H113.352V40.9375H117.172C118.312 40.9375 119.355 41.1328 120.301 41.5234C121.254 41.9062 122.078 42.457 122.773 43.1758C123.469 43.8945 124.004 44.7539 124.379 45.7539C124.762 46.7461 124.953 47.8516 124.953 49.0703V49.8789C124.953 51.0898 124.762 52.1953 124.379 53.1953C124.004 54.1953 123.469 55.0547 122.773 55.7734C122.086 56.4844 121.262 57.0352 120.301 57.4258C119.348 57.8086 118.293 58 117.137 58ZM115.414 40.9375V58H111.898V40.9375H115.414ZM133.133 58.2344C132.148 58.2344 131.266 58.0781 130.484 57.7656C129.703 57.4453 129.039 57.0039 128.492 56.4414C127.953 55.8789 127.539 55.2266 127.25 54.4844C126.961 53.7344 126.816 52.9375 126.816 52.0938V51.625C126.816 50.6641 126.953 49.7852 127.227 48.9883C127.5 48.1914 127.891 47.5 128.398 46.9141C128.914 46.3281 129.539 45.8789 130.273 45.5664C131.008 45.2461 131.836 45.0859 132.758 45.0859C133.656 45.0859 134.453 45.2344 135.148 45.5312C135.844 45.8281 136.426 46.25 136.895 46.7969C137.371 47.3438 137.73 48 137.973 48.7656C138.215 49.5234 138.336 50.3672 138.336 51.2969V52.7031H128.258V50.4531H135.02V50.1953C135.02 49.7266 134.934 49.3086 134.762 48.9414C134.598 48.5664 134.348 48.2695 134.012 48.0508C133.676 47.832 133.246 47.7227 132.723 47.7227C132.277 47.7227 131.895 47.8203 131.574 48.0156C131.254 48.2109 130.992 48.4844 130.789 48.8359C130.594 49.1875 130.445 49.6016 130.344 50.0781C130.25 50.5469 130.203 51.0625 130.203 51.625V52.0938C130.203 52.6016 130.273 53.0703 130.414 53.5C130.562 53.9297 130.77 54.3008 131.035 54.6133C131.309 54.9258 131.637 55.168 132.02 55.3398C132.41 55.5117 132.852 55.5977 133.344 55.5977C133.953 55.5977 134.52 55.4805 135.043 55.2461C135.574 55.0039 136.031 54.6406 136.414 54.1562L138.055 55.9375C137.789 56.3203 137.426 56.6875 136.965 57.0391C136.512 57.3906 135.965 57.6797 135.324 57.9062C134.684 58.125 133.953 58.2344 133.133 58.2344ZM144.406 55.5391L147.219 45.3203H150.746L146.469 58H144.336L144.406 55.5391ZM142.473 45.3203L145.297 55.5508L145.355 58H143.211L138.934 45.3203H142.473ZM163.918 55.2578V58H154.836V55.2578H163.918ZM155.984 40.9375V58H152.469V40.9375H155.984ZM162.734 47.8867V50.5586H154.836V47.8867H162.734ZM163.906 40.9375V43.6914H154.836V40.9375H163.906ZM168.477 45.3203L170.574 49.1758L172.73 45.3203H176.328L172.742 51.5195L176.492 58H172.883L170.598 53.9219L168.312 58H164.703L168.453 51.5195L164.867 45.3203H168.477ZM182.973 55.5977C183.387 55.5977 183.754 55.5195 184.074 55.3633C184.395 55.1992 184.645 54.9727 184.824 54.6836C185.012 54.3867 185.109 54.0391 185.117 53.6406H188.293C188.285 54.5312 188.047 55.3242 187.578 56.0195C187.109 56.707 186.48 57.25 185.691 57.6484C184.902 58.0391 184.02 58.2344 183.043 58.2344C182.059 58.2344 181.199 58.0703 180.465 57.7422C179.738 57.4141 179.133 56.9609 178.648 56.3828C178.164 55.7969 177.801 55.1172 177.559 54.3438C177.316 53.5625 177.195 52.7266 177.195 51.8359V51.4961C177.195 50.5977 177.316 49.7617 177.559 48.9883C177.801 48.207 178.164 47.5273 178.648 46.9492C179.133 46.3633 179.738 45.9062 180.465 45.5781C181.191 45.25 182.043 45.0859 183.02 45.0859C184.059 45.0859 184.969 45.2852 185.75 45.6836C186.539 46.082 187.156 46.6523 187.602 47.3945C188.055 48.1289 188.285 49 188.293 50.0078H185.117C185.109 49.5859 185.02 49.2031 184.848 48.8594C184.684 48.5156 184.441 48.2422 184.121 48.0391C183.809 47.8281 183.422 47.7227 182.961 47.7227C182.469 47.7227 182.066 47.8281 181.754 48.0391C181.441 48.2422 181.199 48.5234 181.027 48.8828C180.855 49.2344 180.734 49.6367 180.664 50.0898C180.602 50.5352 180.57 51.0039 180.57 51.4961V51.8359C180.57 52.3281 180.602 52.8008 180.664 53.2539C180.727 53.707 180.844 54.1094 181.016 54.4609C181.195 54.8125 181.441 55.0898 181.754 55.293C182.066 55.4961 182.473 55.5977 182.973 55.5977ZM193.543 40V58H190.168V40H193.543ZM193.062 51.2148H192.137C192.145 50.332 192.262 49.5195 192.488 48.7773C192.715 48.0273 193.039 47.3789 193.461 46.832C193.883 46.2773 194.387 45.8477 194.973 45.543C195.566 45.2383 196.223 45.0859 196.941 45.0859C197.566 45.0859 198.133 45.1758 198.641 45.3555C199.156 45.5273 199.598 45.8086 199.965 46.1992C200.34 46.582 200.629 47.0859 200.832 47.7109C201.035 48.3359 201.137 49.0938 201.137 49.9844V58H197.738V49.9609C197.738 49.3984 197.656 48.957 197.492 48.6367C197.336 48.3086 197.105 48.0781 196.801 47.9453C196.504 47.8047 196.137 47.7344 195.699 47.7344C195.215 47.7344 194.801 47.8242 194.457 48.0039C194.121 48.1836 193.852 48.4336 193.648 48.7539C193.445 49.0664 193.297 49.4336 193.203 49.8555C193.109 50.2773 193.062 50.7305 193.062 51.2148ZM210.547 55.1406V49.4922C210.547 49.0859 210.48 48.7383 210.348 48.4492C210.215 48.1523 210.008 47.9219 209.727 47.7578C209.453 47.5938 209.098 47.5117 208.66 47.5117C208.285 47.5117 207.961 47.5781 207.688 47.7109C207.414 47.8359 207.203 48.0195 207.055 48.2617C206.906 48.4961 206.832 48.7734 206.832 49.0938H203.457C203.457 48.5547 203.582 48.043 203.832 47.5586C204.082 47.0742 204.445 46.6484 204.922 46.2812C205.398 45.9062 205.965 45.6133 206.621 45.4023C207.285 45.1914 208.027 45.0859 208.848 45.0859C209.832 45.0859 210.707 45.25 211.473 45.5781C212.238 45.9062 212.84 46.3984 213.277 47.0547C213.723 47.7109 213.945 48.5312 213.945 49.5156V54.9414C213.945 55.6367 213.988 56.207 214.074 56.6523C214.16 57.0898 214.285 57.4727 214.449 57.8008V58H211.039C210.875 57.6562 210.75 57.2266 210.664 56.7109C210.586 56.1875 210.547 55.6641 210.547 55.1406ZM210.992 50.2773L211.016 52.1875H209.129C208.684 52.1875 208.297 52.2383 207.969 52.3398C207.641 52.4414 207.371 52.5859 207.16 52.7734C206.949 52.9531 206.793 53.1641 206.691 53.4062C206.598 53.6484 206.551 53.9141 206.551 54.2031C206.551 54.4922 206.617 54.7539 206.75 54.9883C206.883 55.2148 207.074 55.3945 207.324 55.5273C207.574 55.6523 207.867 55.7148 208.203 55.7148C208.711 55.7148 209.152 55.6133 209.527 55.4102C209.902 55.207 210.191 54.957 210.395 54.6602C210.605 54.3633 210.715 54.082 210.723 53.8164L211.613 55.2461C211.488 55.5664 211.316 55.8984 211.098 56.2422C210.887 56.5859 210.617 56.9102 210.289 57.2148C209.961 57.5117 209.566 57.7578 209.105 57.9531C208.645 58.1406 208.098 58.2344 207.465 58.2344C206.66 58.2344 205.93 58.0742 205.273 57.7539C204.625 57.4258 204.109 56.9766 203.727 56.4062C203.352 55.8281 203.164 55.1719 203.164 54.4375C203.164 53.7734 203.289 53.1836 203.539 52.668C203.789 52.1523 204.156 51.7188 204.641 51.3672C205.133 51.0078 205.746 50.7383 206.48 50.5586C207.215 50.3711 208.066 50.2773 209.035 50.2773H210.992ZM219.852 48.0273V58H216.477V45.3203H219.641L219.852 48.0273ZM219.359 51.2148H218.445C218.445 50.2773 218.566 49.4336 218.809 48.6836C219.051 47.9258 219.391 47.2812 219.828 46.75C220.266 46.2109 220.785 45.8008 221.387 45.5195C221.996 45.2305 222.676 45.0859 223.426 45.0859C224.02 45.0859 224.562 45.1719 225.055 45.3438C225.547 45.5156 225.969 45.7891 226.32 46.1641C226.68 46.5391 226.953 47.0352 227.141 47.6523C227.336 48.2695 227.434 49.0234 227.434 49.9141V58H224.035V49.9023C224.035 49.3398 223.957 48.9023 223.801 48.5898C223.645 48.2773 223.414 48.0586 223.109 47.9336C222.812 47.8008 222.445 47.7344 222.008 47.7344C221.555 47.7344 221.16 47.8242 220.824 48.0039C220.496 48.1836 220.223 48.4336 220.004 48.7539C219.793 49.0664 219.633 49.4336 219.523 49.8555C219.414 50.2773 219.359 50.7305 219.359 51.2148ZM238.027 45.3203H241.086V57.5781C241.086 58.7344 240.828 59.7148 240.312 60.5195C239.805 61.332 239.094 61.9453 238.18 62.3594C237.266 62.7812 236.203 62.9922 234.992 62.9922C234.461 62.9922 233.898 62.9219 233.305 62.7812C232.719 62.6406 232.156 62.4219 231.617 62.125C231.086 61.8281 230.641 61.4531 230.281 61L231.77 59.0078C232.16 59.4609 232.613 59.8125 233.129 60.0625C233.645 60.3203 234.215 60.4492 234.84 60.4492C235.449 60.4492 235.965 60.3359 236.387 60.1094C236.809 59.8906 237.133 59.5664 237.359 59.1367C237.586 58.7148 237.699 58.2031 237.699 57.6016V48.25L238.027 45.3203ZM229.496 51.8125V51.5664C229.496 50.5977 229.613 49.7188 229.848 48.9297C230.09 48.1328 230.43 47.4492 230.867 46.8789C231.312 46.3086 231.852 45.8672 232.484 45.5547C233.117 45.2422 233.832 45.0859 234.629 45.0859C235.473 45.0859 236.18 45.2422 236.75 45.5547C237.32 45.8672 237.789 46.3125 238.156 46.8906C238.523 47.4609 238.809 48.1367 239.012 48.918C239.223 49.6914 239.387 50.5391 239.504 51.4609V52C239.387 52.8828 239.211 53.7031 238.977 54.4609C238.742 55.2188 238.434 55.8828 238.051 56.4531C237.668 57.0156 237.191 57.4531 236.621 57.7656C236.059 58.0781 235.387 58.2344 234.605 58.2344C233.824 58.2344 233.117 58.0742 232.484 57.7539C231.859 57.4336 231.324 56.9844 230.879 56.4062C230.434 55.8281 230.09 55.1484 229.848 54.3672C229.613 53.5859 229.496 52.7344 229.496 51.8125ZM232.871 51.5664V51.8125C232.871 52.3359 232.922 52.8242 233.023 53.2773C233.125 53.7305 233.281 54.1328 233.492 54.4844C233.711 54.8281 233.98 55.0977 234.301 55.293C234.629 55.4805 235.016 55.5742 235.461 55.5742C236.078 55.5742 236.582 55.4453 236.973 55.1875C237.363 54.9219 237.656 54.5586 237.852 54.0977C238.047 53.6367 238.16 53.1055 238.191 52.5039V50.9688C238.176 50.4766 238.109 50.0352 237.992 49.6445C237.875 49.2461 237.711 48.9062 237.5 48.625C237.289 48.3438 237.016 48.125 236.68 47.9688C236.344 47.8125 235.945 47.7344 235.484 47.7344C235.039 47.7344 234.652 47.8359 234.324 48.0391C234.004 48.2344 233.734 48.5039 233.516 48.8477C233.305 49.1914 233.145 49.5977 233.035 50.0664C232.926 50.5273 232.871 51.0273 232.871 51.5664ZM249.547 58.2344C248.562 58.2344 247.68 58.0781 246.898 57.7656C246.117 57.4453 245.453 57.0039 244.906 56.4414C244.367 55.8789 243.953 55.2266 243.664 54.4844C243.375 53.7344 243.23 52.9375 243.23 52.0938V51.625C243.23 50.6641 243.367 49.7852 243.641 48.9883C243.914 48.1914 244.305 47.5 244.812 46.9141C245.328 46.3281 245.953 45.8789 246.688 45.5664C247.422 45.2461 248.25 45.0859 249.172 45.0859C250.07 45.0859 250.867 45.2344 251.562 45.5312C252.258 45.8281 252.84 46.25 253.309 46.7969C253.785 47.3438 254.145 48 254.387 48.7656C254.629 49.5234 254.75 50.3672 254.75 51.2969V52.7031H244.672V50.4531H251.434V50.1953C251.434 49.7266 251.348 49.3086 251.176 48.9414C251.012 48.5664 250.762 48.2695 250.426 48.0508C250.09 47.832 249.66 47.7227 249.137 47.7227C248.691 47.7227 248.309 47.8203 247.988 48.0156C247.668 48.2109 247.406 48.4844 247.203 48.8359C247.008 49.1875 246.859 49.6016 246.758 50.0781C246.664 50.5469 246.617 51.0625 246.617 51.625V52.0938C246.617 52.6016 246.688 53.0703 246.828 53.5C246.977 53.9297 247.184 54.3008 247.449 54.6133C247.723 54.9258 248.051 55.168 248.434 55.3398C248.824 55.5117 249.266 55.5977 249.758 55.5977C250.367 55.5977 250.934 55.4805 251.457 55.2461C251.988 55.0039 252.445 54.6406 252.828 54.1562L254.469 55.9375C254.203 56.3203 253.84 56.6875 253.379 57.0391C252.926 57.3906 252.379 57.6797 251.738 57.9062C251.098 58.125 250.367 58.2344 249.547 58.2344Z" fill="#888888"/>
<path d="M109.93 86.0078V118H102.217V86.0078H109.93ZM119.554 86.0078V91.9624H92.813V86.0078H119.554ZM132.012 118.439C130.079 118.439 128.35 118.139 126.827 117.539C125.303 116.923 124.014 116.081 122.959 115.012C121.919 113.942 121.121 112.712 120.564 111.32C120.022 109.929 119.751 108.457 119.751 106.904V106.069C119.751 104.326 119.993 102.714 120.477 101.235C120.96 99.7407 121.678 98.437 122.63 97.3237C123.582 96.2104 124.776 95.3462 126.211 94.731C127.647 94.1011 129.317 93.7861 131.221 93.7861C132.906 93.7861 134.415 94.0571 135.748 94.5991C137.081 95.1411 138.208 95.9175 139.131 96.9282C140.069 97.939 140.779 99.1621 141.263 100.598C141.761 102.033 142.01 103.645 142.01 105.432V108.442H122.586V103.806H134.781V103.234C134.795 102.443 134.656 101.77 134.363 101.213C134.085 100.656 133.675 100.231 133.133 99.9385C132.591 99.6455 131.932 99.499 131.155 99.499C130.35 99.499 129.683 99.6748 129.156 100.026C128.643 100.378 128.24 100.861 127.947 101.477C127.669 102.077 127.471 102.773 127.354 103.564C127.237 104.355 127.178 105.19 127.178 106.069V106.904C127.178 107.783 127.295 108.581 127.53 109.299C127.779 110.017 128.13 110.632 128.584 111.145C129.053 111.643 129.61 112.031 130.254 112.309C130.914 112.587 131.661 112.727 132.496 112.727C133.506 112.727 134.502 112.536 135.484 112.155C136.465 111.774 137.308 111.145 138.011 110.266L141.373 114.265C140.889 114.953 140.201 115.62 139.307 116.264C138.428 116.909 137.374 117.436 136.143 117.846C134.913 118.242 133.536 118.439 132.012 118.439ZM155.062 112.727C155.75 112.727 156.336 112.602 156.819 112.353C157.317 112.089 157.691 111.723 157.94 111.254C158.204 110.771 158.328 110.192 158.313 109.519H165.279C165.293 111.306 164.854 112.873 163.96 114.221C163.082 115.554 161.88 116.594 160.357 117.341C158.848 118.073 157.142 118.439 155.237 118.439C153.377 118.439 151.751 118.139 150.359 117.539C148.968 116.923 147.803 116.074 146.866 114.99C145.943 113.891 145.247 112.609 144.778 111.145C144.324 109.68 144.097 108.09 144.097 106.376V105.871C144.097 104.157 144.324 102.568 144.778 101.103C145.247 99.6235 145.943 98.3418 146.866 97.2578C147.803 96.1592 148.96 95.3096 150.337 94.709C151.729 94.0938 153.348 93.7861 155.193 93.7861C157.171 93.7861 158.914 94.1597 160.423 94.9067C161.946 95.6538 163.14 96.7378 164.004 98.1587C164.869 99.5796 165.293 101.301 165.279 103.322H158.313C158.328 102.604 158.218 101.96 157.984 101.389C157.75 100.817 157.383 100.363 156.885 100.026C156.402 99.6748 155.779 99.499 155.018 99.499C154.256 99.499 153.641 99.6675 153.172 100.004C152.703 100.341 152.344 100.81 152.095 101.411C151.861 101.997 151.7 102.67 151.612 103.432C151.539 104.194 151.502 105.007 151.502 105.871V106.376C151.502 107.255 151.539 108.083 151.612 108.859C151.7 109.621 151.868 110.295 152.117 110.881C152.366 111.452 152.725 111.906 153.194 112.243C153.663 112.565 154.285 112.727 155.062 112.727ZM175.694 84.25V118H168.289V84.25H175.694ZM174.815 105.3L173.079 105.344C173.079 103.674 173.284 102.136 173.694 100.729C174.104 99.3232 174.69 98.1001 175.452 97.0601C176.214 96.02 177.129 95.2144 178.199 94.6431C179.268 94.0718 180.455 93.7861 181.758 93.7861C182.93 93.7861 184 93.9546 184.966 94.2915C185.948 94.6284 186.79 95.1704 187.493 95.9175C188.211 96.6646 188.76 97.6387 189.141 98.8398C189.537 100.041 189.734 101.506 189.734 103.234V118H182.286V103.19C182.286 102.224 182.146 101.477 181.868 100.949C181.604 100.407 181.224 100.034 180.726 99.8286C180.228 99.6089 179.62 99.499 178.902 99.499C178.038 99.499 177.334 99.6455 176.792 99.9385C176.25 100.231 175.833 100.642 175.54 101.169C175.262 101.682 175.071 102.29 174.969 102.993C174.866 103.696 174.815 104.465 174.815 105.3ZM221.88 109.497C221.88 108.999 221.807 108.552 221.661 108.156C221.514 107.746 221.243 107.365 220.848 107.014C220.452 106.662 219.881 106.311 219.134 105.959C218.401 105.593 217.435 105.212 216.233 104.816C214.827 104.348 213.472 103.82 212.168 103.234C210.865 102.634 209.7 101.938 208.675 101.147C207.649 100.341 206.836 99.4038 206.236 98.3345C205.635 97.2505 205.335 95.9907 205.335 94.5552C205.335 93.1782 205.643 91.9404 206.258 90.8418C206.873 89.7285 207.73 88.7837 208.829 88.0073C209.942 87.2163 211.246 86.6157 212.74 86.2056C214.234 85.7808 215.867 85.5684 217.64 85.5684C219.983 85.5684 222.049 85.9785 223.836 86.7988C225.638 87.6045 227.044 88.7544 228.055 90.2485C229.08 91.728 229.593 93.4785 229.593 95.5H221.924C221.924 94.6943 221.756 93.9839 221.419 93.3687C221.097 92.7534 220.606 92.27 219.947 91.9185C219.288 91.5669 218.46 91.3911 217.464 91.3911C216.497 91.3911 215.684 91.5376 215.025 91.8306C214.366 92.1235 213.868 92.519 213.531 93.0171C213.194 93.5005 213.025 94.0352 213.025 94.6211C213.025 95.1045 213.157 95.5439 213.421 95.9395C213.699 96.3203 214.087 96.6792 214.585 97.0161C215.098 97.353 215.713 97.6753 216.431 97.9829C217.164 98.2905 217.984 98.5908 218.892 98.8838C220.591 99.4258 222.1 100.034 223.418 100.708C224.751 101.367 225.872 102.121 226.78 102.971C227.703 103.806 228.399 104.758 228.868 105.827C229.351 106.896 229.593 108.105 229.593 109.453C229.593 110.888 229.314 112.163 228.758 113.276C228.201 114.389 227.403 115.334 226.363 116.11C225.323 116.872 224.078 117.451 222.627 117.846C221.177 118.242 219.559 118.439 217.771 118.439C216.131 118.439 214.512 118.234 212.916 117.824C211.333 117.399 209.898 116.755 208.609 115.891C207.32 115.012 206.287 113.891 205.511 112.529C204.749 111.152 204.368 109.519 204.368 107.629H212.103C212.103 108.566 212.227 109.357 212.476 110.002C212.725 110.646 213.091 111.167 213.575 111.562C214.058 111.943 214.651 112.221 215.354 112.397C216.058 112.558 216.863 112.639 217.771 112.639C218.753 112.639 219.544 112.5 220.145 112.221C220.745 111.928 221.185 111.547 221.463 111.079C221.741 110.595 221.88 110.068 221.88 109.497ZM245.743 94.2256V99.3672H231.417V94.2256H245.743ZM234.427 88.3149H241.832V110.244C241.832 110.874 241.905 111.364 242.051 111.716C242.198 112.053 242.447 112.294 242.798 112.441C243.165 112.573 243.648 112.639 244.249 112.639C244.673 112.639 245.025 112.631 245.303 112.617C245.582 112.587 245.845 112.551 246.094 112.507V117.802C245.464 118.007 244.805 118.161 244.117 118.264C243.428 118.381 242.696 118.439 241.919 118.439C240.337 118.439 238.982 118.19 237.854 117.692C236.741 117.194 235.892 116.411 235.306 115.341C234.72 114.272 234.427 112.88 234.427 111.167V88.3149ZM261.036 112.023V102.224C261.036 101.55 260.94 100.971 260.75 100.488C260.56 100.004 260.259 99.6309 259.849 99.3672C259.439 99.0889 258.89 98.9497 258.201 98.9497C257.645 98.9497 257.168 99.0449 256.773 99.2354C256.377 99.4258 256.077 99.7114 255.872 100.092C255.667 100.473 255.564 100.957 255.564 101.542H248.16C248.16 100.444 248.401 99.4258 248.885 98.4883C249.383 97.5361 250.086 96.7085 250.994 96.0054C251.917 95.3022 253.016 94.7603 254.29 94.3794C255.579 93.9839 257.015 93.7861 258.597 93.7861C260.486 93.7861 262.171 94.1011 263.65 94.731C265.145 95.3608 266.324 96.3057 267.188 97.5654C268.052 98.8105 268.484 100.378 268.484 102.268V112.001C268.484 113.554 268.572 114.733 268.748 115.539C268.924 116.33 269.173 117.026 269.495 117.626V118H262.068C261.717 117.268 261.453 116.374 261.277 115.319C261.116 114.25 261.036 113.151 261.036 112.023ZM261.937 103.476L261.98 107.431H258.707C258.018 107.431 257.432 107.526 256.949 107.717C256.48 107.907 256.099 108.171 255.806 108.508C255.528 108.83 255.323 109.196 255.191 109.606C255.074 110.017 255.015 110.449 255.015 110.903C255.015 111.342 255.118 111.738 255.323 112.089C255.542 112.426 255.835 112.69 256.202 112.88C256.568 113.071 256.978 113.166 257.432 113.166C258.252 113.166 258.948 113.012 259.52 112.705C260.105 112.382 260.552 111.994 260.86 111.54C261.167 111.086 261.321 110.661 261.321 110.266L262.947 113.298C262.654 113.884 262.317 114.477 261.937 115.078C261.57 115.678 261.109 116.235 260.552 116.748C260.01 117.246 259.344 117.656 258.553 117.978C257.762 118.286 256.802 118.439 255.674 118.439C254.209 118.439 252.862 118.139 251.631 117.539C250.416 116.938 249.441 116.103 248.709 115.034C247.977 113.95 247.61 112.705 247.61 111.298C247.61 110.068 247.83 108.969 248.27 108.002C248.724 107.036 249.405 106.215 250.313 105.542C251.221 104.868 252.378 104.355 253.785 104.003C255.191 103.652 256.846 103.476 258.75 103.476H261.937ZM282.635 112.727C283.323 112.727 283.909 112.602 284.393 112.353C284.891 112.089 285.264 111.723 285.513 111.254C285.777 110.771 285.901 110.192 285.887 109.519H292.852C292.867 111.306 292.427 112.873 291.534 114.221C290.655 115.554 289.454 116.594 287.93 117.341C286.421 118.073 284.715 118.439 282.811 118.439C280.95 118.439 279.324 118.139 277.933 117.539C276.541 116.923 275.376 116.074 274.439 114.99C273.516 113.891 272.82 112.609 272.352 111.145C271.897 109.68 271.67 108.09 271.67 106.376V105.871C271.67 104.157 271.897 102.568 272.352 101.103C272.82 99.6235 273.516 98.3418 274.439 97.2578C275.376 96.1592 276.534 95.3096 277.911 94.709C279.302 94.0938 280.921 93.7861 282.767 93.7861C284.744 93.7861 286.487 94.1597 287.996 94.9067C289.52 95.6538 290.713 96.7378 291.578 98.1587C292.442 99.5796 292.867 101.301 292.852 103.322H285.887C285.901 102.604 285.792 101.96 285.557 101.389C285.323 100.817 284.957 100.363 284.458 100.026C283.975 99.6748 283.353 99.499 282.591 99.499C281.829 99.499 281.214 99.6675 280.745 100.004C280.276 100.341 279.917 100.81 279.668 101.411C279.434 101.997 279.273 102.67 279.185 103.432C279.112 104.194 279.075 105.007 279.075 105.871V106.376C279.075 107.255 279.112 108.083 279.185 108.859C279.273 109.621 279.441 110.295 279.69 110.881C279.939 111.452 280.298 111.906 280.767 112.243C281.236 112.565 281.858 112.727 282.635 112.727ZM303.487 84.228V118H296.082V84.228H303.487ZM318.692 94.2256L308.365 106.333L302.959 111.738L299.729 107.036L304.234 101.169L309.815 94.2256H318.692ZM310.76 118L304.41 107.167L309.881 103.278L319.241 118H310.76Z" fill="#424241"/>
<path d="M1363 15C1363 6.71573 1356.28 0 1348 0H1134V167H1348C1356.28 167 1363 160.284 1363 152V15Z" fill="#0074FF"/>
<path fill-rule="evenodd" clip-rule="evenodd" d="M1218.5 55C1218.37 55 1218.24 55.0527 1218.15 55.1464C1218.05 55.2402 1218 55.3674 1218 55.5V111.5C1218 111.633 1218.05 111.76 1218.15 111.854C1218.24 111.947 1218.37 112 1218.5 112H1278C1278.13 112 1278.26 111.947 1278.35 111.854C1278.45 111.76 1278.5 111.633 1278.5 111.5V66C1278.5 65.8674 1278.45 65.7402 1278.35 65.6464C1278.26 65.5527 1278.13 65.5 1278 65.5H1248.25C1247.36 65.5 1246.52 65.1045 1245.95 64.4206L1238.09 55H1218.5ZM1213.9 50.9038C1215.12 49.6848 1216.78 49 1218.5 49H1239.5C1240.39 49 1241.23 49.3955 1241.8 50.0794L1249.66 59.5H1278C1279.72 59.5 1281.38 60.1848 1282.6 61.4038C1283.82 62.6228 1284.5 64.2761 1284.5 66V111.5C1284.5 113.224 1283.82 114.877 1282.6 116.096C1281.38 117.315 1279.72 118 1278 118H1218.5C1216.78 118 1215.12 117.315 1213.9 116.096C1212.68 114.877 1212 113.224 1212 111.5V55.5C1212 53.7761 1212.68 52.1228 1213.9 50.9038Z" fill="white"/>
<path fill-rule="evenodd" clip-rule="evenodd" d="M1243.72 77.5251C1245.09 78.892 1245.09 81.108 1243.72 82.4749L1237.45 88.75L1243.72 95.0251C1245.09 96.392 1245.09 98.608 1243.72 99.9749C1242.36 101.342 1240.14 101.342 1238.78 99.9749L1230.03 91.2249C1228.66 89.858 1228.66 87.642 1230.03 86.2751L1238.78 77.5251C1240.14 76.1583 1242.36 76.1583 1243.72 77.5251Z" fill="white"/>
<path fill-rule="evenodd" clip-rule="evenodd" d="M1252.03 99.9749C1250.66 98.608 1250.66 96.392 1252.03 95.0251L1258.3 88.75L1252.03 82.4749C1250.66 81.108 1250.66 78.892 1252.03 77.5251C1253.39 76.1583 1255.61 76.1583 1256.97 77.5251L1265.72 86.2751C1267.09 87.642 1267.09 89.858 1265.72 91.2249L1256.97 99.9749C1255.61 101.342 1253.39 101.342 1252.03 99.9749Z" fill="white"/>
</svg>
